<svg width="1045" height="783" viewBox="0 0 1045 783" fill="none" xmlns="http://www.w3.org/2000/svg">
<path d="M10.7777 10.9332H81.8841L91.848 0.979492H0.828735V91.9057L10.7777 81.9669V10.9332Z" fill="#2A4064"/>
<path d="M17.3363 75.4142L27.3001 65.4605V27.4217H65.3779L75.3269 17.4829H17.3363V75.4142Z" fill="#2A4064"/>
<path d="M1035.01 10.9327H963.902L953.938 0.979004H1044.96V91.9052L1035.01 81.9664V10.9327Z" fill="#2A4064"/>
<path d="M1028.45 75.4142L1018.49 65.4605V27.4217H980.409L970.46 17.4829H1028.45V75.4142Z" fill="#2A4064"/>
<path d="M10.7777 772.919H81.8841L91.848 782.858H0.828735V691.931L10.7777 701.87V772.919Z" fill="#2A4064"/>
<path d="M17.3363 708.436L27.3001 718.375V756.414H65.3779L75.3269 766.353H17.3363V708.436Z" fill="#2A4064"/>
<path d="M1035.01 772.918H963.902L953.938 782.857H1044.96V691.931L1035.01 701.869V772.918Z" fill="#2A4064"/>
<path d="M1028.45 708.437L1018.49 718.375V756.414H980.409L970.46 766.353H1028.45V708.437Z" fill="#2A4064"/>
</svg>
