<svg width="161" height="20" viewBox="0 0 161 20" fill="none" xmlns="http://www.w3.org/2000/svg">
<path d="M32.0647 5.50266C31.6512 5.09052 30.9862 4.88445 30.0753 4.88445C27.8345 4.88445 26.6051 6.54415 26.3816 9.86356C26.4989 12.4589 27.2868 14.0852 28.7453 14.7369C29.2427 14.9541 29.7847 15.0989 30.3715 15.1713C31.1203 15.1044 31.6959 14.8705 32.0926 14.464C32.4894 14.0574 32.8862 13.4447 33.2717 12.6149C33.6573 11.5734 34.3558 11.0554 35.3673 11.0554C36.2223 11.0554 36.9432 11.2949 37.5299 11.7683C38.1167 12.2417 38.4073 12.9101 38.4073 13.7678C38.4073 14.7257 38.1614 15.589 37.6752 16.3576C37.1834 17.1262 36.5352 17.7778 35.7305 18.318C34.9202 18.8527 34.0485 19.2648 33.1097 19.5489C32.1709 19.8329 31.2544 19.9833 30.3715 20C27.9798 20 25.7669 19.3205 23.7328 17.956C21.7043 16.5915 20.609 13.8736 20.4469 9.79116C20.4469 8.36537 20.7096 7.05098 21.2405 5.84797C21.7657 4.64496 22.4922 3.62575 23.4087 2.77918C24.3307 1.93262 25.3869 1.28656 26.5771 0.829867C27.7674 0.37317 29.0359 0.150391 30.3659 0.150391C31.5729 0.150391 32.7632 0.350892 33.9367 0.757464C35.1102 1.16404 36.077 1.79896 36.8482 2.66223C37.6193 3.5255 38.0049 4.58927 38.0049 5.85911C37.9714 6.71124 37.6473 7.4297 37.0326 8.02006C36.4179 8.61043 35.5852 8.92232 34.5291 8.95574C33.6853 8.95574 32.9979 8.73296 32.4726 8.28183C31.9474 7.8307 31.6624 7.3016 31.6288 6.68339C31.7071 6.17657 31.8524 5.78113 32.0647 5.50266Z" fill="#2E3131"/>
<path d="M39.9607 9.71876C39.983 7.56337 40.4189 5.77 41.2627 4.33864C42.1065 2.90728 43.2689 1.85465 44.7441 1.16961C46.2194 0.490129 47.907 0.150391 49.807 0.150391C51.0587 0.183807 52.2323 0.395448 53.3331 0.779742C54.434 1.16404 55.4063 1.72655 56.239 2.47286C57.0716 3.21917 57.7366 4.17712 58.2339 5.35785C58.7313 6.53858 58.9883 7.91981 59.0051 9.49598C59.0051 11.2559 58.776 12.7987 58.3177 14.1242C57.8595 15.4498 57.2113 16.5469 56.3731 17.4158C55.5348 18.2846 54.5402 18.9307 53.4002 19.3595C52.2546 19.7828 50.9861 20 49.5891 20H49.4549C46.5379 19.9388 44.2244 19.0922 42.5201 17.4492C40.8157 15.8118 39.9607 13.2331 39.9607 9.71876ZM45.9009 9.78559C45.9009 11.5567 46.2138 12.9379 46.8397 13.9293C47.4656 14.9207 48.3373 15.4163 49.4494 15.4163C51.7908 15.4163 52.9922 13.6118 53.0649 10.0028C53.0649 8.22057 52.7631 6.89503 52.154 6.03176C51.5449 5.16292 50.6899 4.73407 49.5891 4.73407C48.5441 4.73407 47.6891 5.14064 47.0185 5.94822C46.3479 6.75579 45.9791 8.03677 45.9009 9.78559Z" fill="#2E3131"/>
<path d="M75.194 16.8921H75.1213C74.4116 17.9114 73.4449 18.6799 72.2155 19.209C70.9861 19.7381 69.7064 19.9999 68.3876 19.9999C66.6609 19.9665 65.2862 19.443 64.2692 18.4405C63.2521 17.4379 62.738 16.0344 62.738 14.2299V7.05087C62.738 5.6752 62.5089 4.99016 62.0507 4.99016C61.9054 4.99016 61.6707 5.03471 61.3577 5.1294C61.0448 5.22408 60.866 5.2742 60.8213 5.27977C59.7819 5.19066 59.2678 4.44435 59.2678 3.04084C59.3013 2.31124 59.5472 1.74315 59.9998 1.32544C60.4525 0.907731 61.0448 0.70166 61.7657 0.70166C62.1401 0.70166 62.671 0.762924 63.3527 0.879884C64.0345 1.00241 64.543 1.05811 64.8783 1.05811C65.2192 1.05811 65.6886 0.996843 66.2865 0.879884C66.8844 0.762924 67.3315 0.70166 67.6276 0.70166C68.1362 0.70166 68.3876 1.06368 68.3876 1.78214V11.9854C68.3876 12.9712 68.6056 13.7509 69.0359 14.3135C69.4661 14.876 70.0641 15.1879 70.8185 15.2324C71.2711 15.1322 71.5505 15.0821 71.6511 15.0821C72.2434 14.954 72.7464 14.6532 73.1487 14.1909C73.5511 13.7231 73.8472 13.1884 74.0428 12.5814C74.2328 11.9743 74.3278 11.3784 74.3278 10.7991V6.68885C74.3278 5.55825 74.0764 4.99016 73.5678 4.99016C73.4114 4.99016 73.1823 5.03471 72.8861 5.1294C72.5899 5.21851 72.4223 5.2742 72.372 5.28534C71.3829 5.19623 70.8855 4.40536 70.8855 2.90717C71.0029 1.43683 71.8243 0.70723 73.3443 0.70723C73.6964 0.70723 74.1769 0.768494 74.7916 0.885453C75.4063 1.00241 75.8869 1.06368 76.2446 1.06368C76.5351 1.06368 76.9878 1.00241 77.6081 0.885453C78.2284 0.762924 78.6922 0.70723 78.9939 0.70723C79.346 0.70723 79.603 0.785202 79.7651 0.946717C79.9271 1.10823 80.011 1.40898 80.011 1.86011V13.5337C80.011 14.6421 80.2177 15.2324 80.6312 15.3048C81.1901 15.1099 81.6148 15.0152 81.8942 15.0152C82.9336 15.0152 83.4477 15.7393 83.4477 17.1873C83.4142 17.9448 83.213 18.5296 82.8442 18.9306C82.4753 19.3316 82.0004 19.5321 81.4248 19.5321C81.0783 19.5321 80.6201 19.4708 80.0501 19.3538C79.4801 19.2369 79.0219 19.1756 78.6754 19.1756C78.4128 19.1756 78.016 19.2369 77.4907 19.3538C76.9654 19.4708 76.5966 19.5321 76.3843 19.5321C76.0266 19.5321 75.736 19.4151 75.5181 19.1868C75.3002 18.9584 75.1884 18.6966 75.1884 18.4126V16.8921H75.194Z" fill="#2E3131"/>
<path d="M91.9528 4.92882H92.0311C92.2211 3.71467 92.7966 2.64533 93.7578 1.70966C94.7189 0.773989 96.0769 0.306152 97.8204 0.306152C98.6809 0.32843 99.48 0.54564 100.218 0.952212C100.955 1.35878 101.548 1.91573 101.984 2.61192C102.419 3.3081 102.637 4.08226 102.637 4.91768C102.637 5.89791 102.336 6.72219 101.726 7.39053C101.117 8.05887 100.385 8.40974 99.5192 8.44873C98.8095 8.37076 98.2283 8.14798 97.7589 7.78039C97.2895 7.41281 97.0269 6.89485 96.9542 6.22651C97.0324 5.67513 97.2001 5.15717 97.4571 4.67262C94.6798 4.67262 93.294 7.01737 93.294 11.7069V13.1884C93.294 13.7787 93.3275 14.2076 93.389 14.4749C93.456 14.7422 93.6293 15.0207 93.9087 15.3159C94.3781 15.121 94.7637 15.0263 95.0654 15.0263C95.546 15.0263 95.9428 15.1655 96.2389 15.4496C96.5407 15.7336 96.6916 16.1569 96.6916 16.7194C96.6916 18.6019 96.0042 19.5376 94.6295 19.5376C94.1043 19.5376 93.3443 19.4763 92.3552 19.3593C91.3661 19.2368 90.5837 19.1811 90.0193 19.1811C89.6281 19.1811 88.9352 19.2424 87.9294 19.3593C86.9235 19.4763 86.2361 19.5376 85.8506 19.5376C84.7162 19.5376 84.1518 18.5963 84.1518 16.7194C84.2579 15.5944 84.8223 15.0263 85.8506 15.0263C85.9903 15.0263 86.197 15.0708 86.4653 15.1655C86.7335 15.2602 86.8788 15.3103 86.9011 15.3159C87.337 14.8815 87.5549 14.1964 87.5549 13.2552V6.83915C87.5549 5.8088 87.46 5.21843 87.2644 5.06806C87.2197 5.0235 87.0744 4.99565 86.8285 4.99565C86.7223 4.99565 86.3032 5.06806 85.5656 5.21843C84.6212 5.12375 84.1518 4.39972 84.1518 3.04634C84.1518 2.3056 84.325 1.72637 84.6715 1.31423C85.0179 0.902087 85.4594 0.696016 86.0014 0.696016C86.2473 0.696016 86.4764 0.712724 86.6776 0.746141C86.8788 0.779558 87.1247 0.829683 87.4152 0.896517C87.7058 0.963351 87.9573 1.01905 88.1696 1.05803C88.4435 1.05803 88.8905 0.996768 89.5108 0.879809C90.1311 0.75728 90.5837 0.701585 90.8575 0.701585C91.5784 0.701585 91.9361 1.12487 91.9361 1.96586V4.92882H91.9528Z" fill="#2E3131"/>
<path d="M107.594 17.9113C107.594 19.0864 106.907 19.6712 105.526 19.6712C104.303 19.6712 103.688 19.131 103.688 18.0505C103.688 17.811 103.71 17.488 103.761 17.0814C103.805 16.6748 103.833 16.3407 103.833 16.0678C103.833 15.288 103.761 14.5751 103.61 13.9347C103.945 12.7316 104.683 12.1301 105.817 12.1301C106.678 12.1301 107.253 12.2582 107.549 12.5144C107.845 12.7706 108.214 13.2273 108.661 13.8901C109.108 14.5529 109.622 15.0263 110.204 15.3103C110.807 15.5387 111.601 15.6946 112.59 15.7782C114.305 15.6723 115.16 15.1042 115.16 14.0795C115.16 13.3944 114.663 12.9266 113.674 12.6815C113.283 12.5701 112.433 12.3975 111.12 12.1691C109.807 11.9408 108.734 11.6734 107.901 11.3783C107.069 11.0831 106.398 10.6264 105.884 10.0137C105.392 9.38996 105.085 8.79403 104.956 8.2148C104.828 7.64114 104.761 7.00065 104.761 6.29333C104.761 5.19614 105.029 4.1825 105.565 3.25239C106.102 2.32229 106.862 1.57598 107.851 1.0246C108.84 0.473222 109.969 0.17804 111.249 0.155762C113.462 0.155762 115.138 0.723849 116.278 1.85445C116.311 1.24181 116.507 0.835238 116.859 0.623598C117.211 0.411958 117.776 0.306138 118.558 0.306138C119.15 0.306138 119.553 0.417527 119.765 0.634737C119.972 0.857516 120.078 1.18612 120.078 1.63724C120.078 1.86002 120.05 2.17748 119.988 2.58962C119.927 3.00177 119.899 3.26353 119.899 3.37492C119.899 3.66453 119.927 4.07668 119.988 4.61692C120.044 5.15716 120.078 5.57487 120.078 5.87005C120.078 6.77231 119.525 7.29027 118.418 7.41836C117.776 7.41836 117.245 7.32368 116.826 7.13432C116.406 6.94496 116.094 6.73889 115.887 6.51054C115.68 6.28219 115.434 5.9703 115.16 5.57487C114.562 4.72831 113.652 4.30502 112.411 4.30502C111.841 4.30502 111.366 4.43312 110.986 4.68375C110.606 4.93438 110.416 5.27968 110.416 5.7141C110.416 6.03713 110.489 6.2989 110.634 6.49383C110.779 6.68876 110.969 6.83914 111.215 6.94496C111.455 7.04521 111.768 7.13989 112.154 7.22343C112.539 7.30698 112.947 7.39609 113.389 7.4852C114.188 7.64671 114.959 7.79709 115.691 7.94747C116.423 8.09784 117.166 8.30948 117.921 8.58239C118.67 8.85529 119.284 9.21174 119.765 9.65173C120.709 10.5428 121.179 11.8183 121.179 13.4724C121.179 14.7255 120.832 15.8394 120.134 16.8196C119.435 17.7999 118.519 18.5685 117.384 19.1198C116.25 19.6712 115.065 19.9664 113.825 19.9998C111.265 19.9998 109.192 19.3036 107.594 17.9113Z" fill="#2E3131"/>
<path d="M139.424 11.061H129.93C129.673 11.061 129.483 11.1223 129.371 11.2504C129.259 11.3785 129.181 11.6012 129.131 11.9298C129.159 12.0078 129.187 12.1415 129.209 12.3308C129.231 12.5202 129.254 12.665 129.282 12.7597C129.494 13.506 129.919 14.1354 130.561 14.6477C131.204 15.1601 132.053 15.4219 133.115 15.4219C133.635 15.4219 134.082 15.3049 134.462 15.071C134.842 14.8371 135.289 14.4862 135.797 14.0128C136.306 13.5394 136.742 13.1885 137.111 12.9602C137.474 12.7318 137.904 12.6149 138.402 12.6149C139.167 12.6149 139.799 12.8098 140.296 13.1941C140.793 13.5784 141.045 14.1465 141.045 14.8817C141.045 15.6447 140.732 16.4188 140.106 17.2041C139.48 17.9894 138.541 18.6411 137.284 19.1702C136.027 19.6993 134.518 19.9722 132.752 20C130.941 20 129.315 19.599 127.862 18.8026C126.415 18.0061 125.275 16.87 124.442 15.3996C123.61 13.9293 123.196 12.2306 123.196 10.2924C123.196 8.69397 123.436 7.27375 123.911 6.02619C124.386 4.77863 125.046 3.73157 125.884 2.87944C126.722 2.02731 127.678 1.37011 128.745 0.913409C129.818 0.456712 130.958 0.206085 132.165 0.150391C134.188 0.150391 135.87 0.490129 137.211 1.16404C138.552 1.83794 139.547 2.70121 140.184 3.7427C140.821 4.7842 141.196 5.88695 141.291 7.04541C141.386 8.00893 141.43 8.67169 141.43 9.03371C141.43 9.72433 141.285 10.2311 140.994 10.5597C140.704 10.8883 140.19 11.061 139.424 11.061ZM130.293 7.05098H134.68C135.188 7.05098 135.44 6.83377 135.44 6.39935C135.44 5.77556 135.138 5.2576 134.535 4.85103C133.931 4.43889 133.244 4.23282 132.472 4.23282C131.774 4.26624 131.12 4.51129 130.522 4.96799C129.924 5.42469 129.511 5.97607 129.287 6.62213C129.343 6.90617 129.678 7.05098 130.293 7.05098Z" fill="#2E3131"/>
<path d="M147.421 17.9113C147.421 19.0864 146.733 19.6712 145.353 19.6712C144.129 19.6712 143.515 19.131 143.515 18.0505C143.515 17.811 143.537 17.488 143.587 17.0814C143.632 16.6748 143.66 16.3407 143.66 16.0678C143.66 15.288 143.587 14.5751 143.436 13.9347C143.772 12.7316 144.509 12.1301 145.644 12.1301C146.504 12.1301 147.08 12.2582 147.376 12.5144C147.672 12.7706 148.041 13.2273 148.488 13.8901C148.935 14.5529 149.449 15.0263 150.03 15.3103C150.634 15.5387 151.427 15.6946 152.417 15.7782C154.132 15.6723 154.987 15.1042 154.987 14.0795C154.987 13.3944 154.49 12.9266 153.501 12.6815C153.109 12.5701 152.26 12.3975 150.947 12.1691C149.634 11.9408 148.561 11.6734 147.728 11.3783C146.895 11.0831 146.225 10.6264 145.711 10.0137C145.219 9.38996 144.912 8.79403 144.783 8.2148C144.655 7.64114 144.588 7.00065 144.588 6.29333C144.588 5.19614 144.856 4.1825 145.392 3.25239C145.929 2.32229 146.689 1.57598 147.678 1.0246C148.667 0.473222 149.796 0.17804 151.075 0.155762C153.288 0.155762 154.965 0.723849 156.105 1.85445C156.138 1.24181 156.334 0.835238 156.686 0.623598C157.038 0.411958 157.602 0.306138 158.385 0.306138C158.977 0.306138 159.379 0.417527 159.592 0.634737C159.798 0.857516 159.905 1.18612 159.905 1.63724C159.905 1.86002 159.877 2.17748 159.815 2.58962C159.754 3.00177 159.726 3.26353 159.726 3.37492C159.726 3.66453 159.754 4.07668 159.815 4.61692C159.877 5.15716 159.905 5.57487 159.905 5.87005C159.905 6.77231 159.351 7.29027 158.245 7.41836C157.602 7.41836 157.071 7.32368 156.652 7.13432C156.233 6.94496 155.92 6.73889 155.714 6.51054C155.507 6.28219 155.261 5.9703 154.987 5.57487C154.389 4.72831 153.478 4.30502 152.238 4.30502C151.668 4.30502 151.193 4.43312 150.813 4.68375C150.433 4.93438 150.243 5.27968 150.243 5.7141C150.243 6.03713 150.315 6.2989 150.461 6.49383C150.606 6.68876 150.796 6.83914 151.042 6.94496C151.282 7.04521 151.595 7.13989 151.981 7.22343C152.366 7.30698 152.774 7.39609 153.216 7.4852C154.015 7.64671 154.786 7.79709 155.518 7.94747C156.25 8.09784 156.993 8.30948 157.748 8.58239C158.496 8.85529 159.111 9.21174 159.592 9.65173C160.536 10.5428 161.006 11.8183 161.006 13.4724C161.006 14.7255 160.659 15.8394 159.955 16.8196C159.256 17.7999 158.34 18.5685 157.206 19.1198C156.071 19.6712 154.887 19.9664 153.646 19.9998C151.092 19.9998 149.019 19.3036 147.421 17.9113Z" fill="#2E3131"/>
<path d="M16.3123 8.79443L7.2986 11.7518C7.05272 11.8354 6.89625 11.9523 6.82919 12.1027C6.76214 12.2586 6.75655 12.4981 6.81802 12.8267C6.86831 12.888 6.93537 13.0105 7.01919 13.1832C7.10301 13.3558 7.17007 13.4839 7.22036 13.5675C7.65624 14.208 8.25976 14.6758 9.03092 14.9654C9.80209 15.255 10.6906 15.2328 11.7021 14.9042C12.1938 14.7426 12.585 14.492 12.87 14.1523C13.155 13.8125 13.4679 13.3391 13.8032 12.7321C14.1385 12.125 14.4458 11.6571 14.7197 11.323C14.9935 10.9944 15.3679 10.7493 15.8373 10.5934C16.5637 10.3539 17.2231 10.3427 17.8211 10.5544C18.4134 10.766 18.8269 11.2227 19.0616 11.9245C19.3019 12.6485 19.2461 13.4839 18.8996 14.4196C18.5531 15.3608 17.8658 16.2742 16.8376 17.1709C15.8093 18.0676 14.4626 18.7972 12.7973 19.3709C11.0818 19.9334 9.40533 20.0615 7.77918 19.7552C6.15303 19.4488 4.71129 18.7248 3.46513 17.5942C2.21897 16.4636 1.28575 14.971 0.676647 13.1275C0.173714 11.6126 -0.0442239 10.1868 0.0172457 8.8557C0.0787152 7.52459 0.374887 6.32158 0.900173 5.25224C1.41987 4.17733 2.12398 3.25837 2.99573 2.48978C3.87307 1.72119 4.87334 1.12526 6.00774 0.701979C7.92447 0.0726279 9.62885 -0.133443 11.1209 0.0893363C12.6073 0.312116 13.82 0.818938 14.7588 1.61537C15.6976 2.41181 16.3905 3.34191 16.8487 4.40568C17.2399 5.29123 17.4914 5.90944 17.6087 6.24918C17.8267 6.90081 17.8434 7.42991 17.6702 7.83648C17.4914 8.23748 17.0443 8.56051 16.3123 8.79443ZM6.38214 7.83648L10.5453 6.47196C11.0259 6.31601 11.1991 6.0264 11.065 5.61426C10.8694 5.0239 10.4224 4.62846 9.71827 4.42239C9.01416 4.22189 8.29888 4.2386 7.56683 4.47809C6.91302 4.72871 6.37097 5.16313 5.94627 5.78691C5.52157 6.40513 5.30363 7.05676 5.29245 7.7418C5.43775 7.998 5.80098 8.02584 6.38214 7.83648Z" fill="#0067DA"/>
</svg>
