<svg width="304" height="44" viewBox="0 0 304 44" fill="none" xmlns="http://www.w3.org/2000/svg">
<path d="M23.446 20.15C23.1134 18.9167 22.5647 17.7667 21.7998 16.7C21.0682 15.6333 20.2035 14.7 19.2058 13.9C18.2413 13.1 17.1771 12.4667 16.0131 12C14.8491 11.5333 13.6685 11.3 12.4713 11.3C10.9747 11.3 9.69434 11.7 8.63013 12.5C7.59917 13.2667 7.08369 14.4333 7.08369 16C7.08369 17.2 7.54928 18.2167 8.48047 19.05C9.44492 19.8833 10.6422 20.65 12.0722 21.35C13.5022 22.0167 15.0321 22.7 16.6616 23.4C18.3245 24.1 19.8709 24.95 21.301 25.95C22.731 26.9167 23.9116 28.0833 24.8428 29.45C25.8072 30.8167 26.2895 32.5167 26.2895 34.55C26.2895 35.9833 26.0068 37.2833 25.4414 38.45C24.8761 39.6167 24.0779 40.6167 23.0469 41.45C22.016 42.25 20.7688 42.8667 19.3055 43.3C17.8422 43.7667 16.2127 44 14.4168 44C13.5854 44 12.754 43.9167 11.9225 43.75C11.0911 43.6167 10.2597 43.45 9.42829 43.25C8.63013 43.0833 7.81534 42.9333 6.98392 42.8C6.1525 42.6333 5.32108 42.55 4.48966 42.55C4.35664 42.55 4.17372 42.5833 3.94093 42.65C3.74139 42.6833 3.50859 42.7333 3.24253 42.8C3.00974 42.8667 2.77694 42.9333 2.54414 43C2.31134 43.0667 2.12843 43.1333 1.99541 43.2C1.72935 41.3333 1.44667 39.45 1.14736 37.55C0.848047 35.65 0.465595 33.7333 0 31.8H1.09747C1.4633 33.0333 2.06192 34.25 2.89334 35.45C3.72476 36.65 4.6892 37.7333 5.78668 38.7C6.91741 39.6333 8.13128 40.3833 9.42829 40.95C10.7253 41.5167 12.0057 41.8 13.2694 41.8C14.3669 41.8 15.3646 41.7167 16.2626 41.55C17.1605 41.3833 17.9254 41.1167 18.5573 40.75C19.2224 40.35 19.7213 39.8333 20.0538 39.2C20.4196 38.5333 20.6026 37.7 20.6026 36.7C20.6026 35.3333 20.1203 34.2 19.1559 33.3C18.1914 32.3667 16.9776 31.5333 15.5143 30.8C14.0842 30.0333 12.5212 29.3 10.8251 28.6C9.16224 27.9 7.59917 27.1 6.13587 26.2C4.70583 25.3 3.50859 24.2333 2.54414 23C1.5797 21.7667 1.09747 20.25 1.09747 18.45C1.09747 15.3167 2.04529 13.05 3.94093 11.65C5.83656 10.2167 8.71327 9.5 12.5711 9.5C13.5688 9.5 14.5332 9.58333 15.4644 9.75C16.3956 9.88333 17.2769 10.05 18.1083 10.25C18.9397 10.45 19.7213 10.6333 20.4529 10.8C21.1846 10.9333 21.8663 11 22.4982 11H24.2941C24.2608 11.5667 24.2275 12.1 24.1943 12.6C24.161 13.1 24.1444 13.6167 24.1444 14.15C24.1444 15.1167 24.1777 16.1167 24.2442 17.15C24.3439 18.1833 24.4271 19.1833 24.4936 20.15H23.446Z" fill="#2E3131"/>
<path d="M29.6481 42C30.7789 41.9333 31.6768 41.8 32.3419 41.6C33.0403 41.3667 33.5724 41.0333 33.9383 40.6C34.3041 40.1333 34.5369 39.55 34.6367 38.85C34.7697 38.15 34.8362 37.3 34.8362 36.3V17.3C34.8362 16.3667 34.7697 15.55 34.6367 14.85C34.5369 14.15 34.3041 13.5667 33.9383 13.1C33.5724 12.6333 33.0403 12.2833 32.3419 12.05C31.6768 11.7833 30.7789 11.6333 29.6481 11.6V10.2C31.3442 10.2667 33.0403 10.3333 34.7364 10.4C36.4658 10.4667 38.1785 10.5 39.8746 10.5C43.1005 10.5 46.3098 10.4667 49.5024 10.4C52.6951 10.3333 55.9542 10.2667 59.2799 10.2C59.2467 10.8 59.23 11.4 59.23 12C59.23 12.6 59.23 13.1833 59.23 13.75C59.23 14.7833 59.2467 15.8 59.2799 16.8C59.3132 17.8 59.4296 18.7167 59.6291 19.55L58.5316 19.75C57.7335 17.2167 56.4531 15.3167 54.6905 14.05C52.9611 12.75 50.4336 12.1 47.1079 12.1H41.5208V24.25H44.1148C44.9795 24.25 45.8275 24.15 46.659 23.95C47.4904 23.7167 48.2553 23.3667 48.9537 22.9C49.6853 22.4 50.3172 21.75 50.8493 20.95C51.3814 20.15 51.7805 19.1667 52.0466 18H53.0443C53.011 19.1667 52.9611 20.35 52.8946 21.55C52.8614 22.75 52.8447 23.9333 52.8447 25.1C52.8447 26.3 52.8614 27.5 52.8946 28.7C52.9611 29.8667 53.011 31.05 53.0443 32.25H52.0466C51.7805 31.0167 51.3981 29.9833 50.8992 29.15C50.4004 28.3167 49.8184 27.65 49.1532 27.15C48.4881 26.65 47.7232 26.3 46.8585 26.1C46.0271 25.8667 45.1125 25.75 44.1148 25.75H41.5208V40.6C42.319 40.8333 43.2003 41.0167 44.1647 41.15C45.1624 41.25 46.2599 41.3 47.4571 41.3C50.7163 41.3 53.6595 40.5333 56.2868 39C58.9141 37.4333 61.1423 35.0167 62.9714 31.75L63.9192 32.45C63.0878 34.2167 62.2896 35.9833 61.5247 37.75C60.7931 39.5167 60.1446 41.3333 59.5792 43.2C56.9852 43.1333 54.4078 43.0833 51.847 43.05C49.2863 43.0167 46.7089 43 44.1148 43C42.5185 43 40.9721 43 39.4755 43C38.0122 43 36.6487 43 35.3849 43C34.1544 43.0333 33.0403 43.0667 32.0426 43.1C31.0782 43.1333 30.28 43.1667 29.6481 43.2V42Z" fill="#2E3131"/>
<path d="M64.922 10.3C66.1525 10.3667 67.3497 10.4167 68.5137 10.45C69.711 10.4833 71.0579 10.5 72.5544 10.5C74.3503 10.5 76.1461 10.45 77.942 10.35C79.7379 10.25 81.6169 10.2 83.579 10.2C85.3084 10.2 86.8548 10.45 88.2183 10.95C89.6151 11.45 90.7957 12.15 91.7602 13.05C92.7579 13.9167 93.5062 14.9333 94.005 16.1C94.5371 17.2667 94.8032 18.5333 94.8032 19.9C94.8032 21.0667 94.6036 22.1 94.2046 23C93.8387 23.8667 93.3233 24.6333 92.6581 25.3C91.993 25.9333 91.2115 26.4667 90.3135 26.9C89.4156 27.3333 88.4345 27.6667 87.3703 27.9C88.0687 29.0333 88.9334 30.3833 89.9643 31.95C90.9953 33.4833 92.126 34.9833 93.3565 36.45C94.6203 37.8833 95.9672 39.15 97.3972 40.25C98.8273 41.35 100.291 42.0333 101.787 42.3V43.2C100.823 43.1333 99.8748 43.0833 98.9437 43.05C98.0457 43.0167 97.1145 43 96.1501 43C95.3187 43 94.4872 43.0167 93.6558 43.05C92.8244 43.0833 91.993 43.1333 91.1616 43.2C89.0664 40.9667 87.1209 38.6333 85.325 36.2C83.5624 33.7667 81.9494 31.2167 80.4862 28.55C79.9208 28.4833 79.2723 28.3833 78.5406 28.25C77.8422 28.1167 77.3101 27.9167 76.9443 27.65V36.3C76.9443 37.4333 76.9776 38.35 77.0441 39.05C77.1438 39.75 77.36 40.3 77.6926 40.7C78.0584 41.1 78.5739 41.4 79.239 41.6C79.9042 41.7667 80.8187 41.9 81.9827 42V43.2C80.8187 43.1333 79.5383 43.0833 78.1416 43.05C76.778 43.0167 75.3812 43 73.9512 43C72.4214 43 70.9082 43.0167 69.4117 43.05C67.9151 43.0833 66.4185 43.1333 64.922 43.2V42C66.1525 41.9 67.1169 41.7667 67.8153 41.6C68.547 41.4 69.0791 41.1 69.4117 40.7C69.7775 40.3 70.0103 39.75 70.11 39.05C70.2098 38.35 70.2597 37.4333 70.2597 36.3V17.3C70.2597 16.3 70.2098 15.45 70.11 14.75C70.0103 14.05 69.7775 13.4667 69.4117 13C69.0791 12.5333 68.547 12.1833 67.8153 11.95C67.1169 11.6833 66.1525 11.5 64.922 11.4V10.3ZM76.9443 25.7C78.0085 26.2 79.1226 26.45 80.2866 26.45C82.4816 26.45 84.2442 25.8333 85.5744 24.6C86.938 23.3667 87.6197 21.5667 87.6197 19.2C87.6197 18.2 87.4534 17.2667 87.1209 16.4C86.8216 15.5 86.3726 14.7333 85.774 14.1C85.1754 13.4333 84.4603 12.9167 83.6289 12.55C82.7975 12.1833 81.8663 12 80.8353 12C80.1702 12 79.5217 12.0333 78.8898 12.1C78.2579 12.1667 77.6094 12.3167 76.9443 12.55V25.7Z" fill="#2E3131"/>
<path d="M128.305 20.65C127.939 18.7833 127.44 17.3167 126.808 16.25C126.209 15.15 125.461 14.3167 124.563 13.75C123.665 13.1833 122.634 12.8167 121.47 12.65C120.306 12.4833 118.976 12.4 117.479 12.4V36.3C117.479 37.4333 117.529 38.3667 117.629 39.1C117.729 39.8 117.962 40.3667 118.328 40.8C118.693 41.2333 119.242 41.55 119.974 41.75C120.705 41.95 121.703 42.1 122.967 42.2V43.2C121.57 43.1333 120.157 43.0833 118.727 43.05C117.33 43.0167 115.916 43 114.486 43C112.957 43 111.443 43.0167 109.947 43.05C108.45 43.0833 106.904 43.1333 105.308 43.2V42.2C106.571 42.1 107.569 41.95 108.301 41.75C109.032 41.55 109.581 41.2333 109.947 40.8C110.313 40.3667 110.545 39.8 110.645 39.1C110.745 38.3667 110.795 37.4333 110.795 36.3V12.4C109.298 12.4 107.968 12.4833 106.804 12.65C105.64 12.8167 104.609 13.1833 103.711 13.75C102.813 14.3167 102.048 15.15 101.416 16.25C100.818 17.3167 100.336 18.7833 99.9698 20.65H98.6728C98.7393 20.0167 98.7892 19.3833 98.8224 18.75C98.889 18.0833 98.9388 17.35 98.9721 16.55C99.0386 15.75 99.0885 14.8333 99.1217 13.8C99.155 12.7667 99.1716 11.5667 99.1716 10.2C101.666 10.2667 104.127 10.3333 106.555 10.4C108.982 10.4667 111.427 10.5 113.888 10.5C116.382 10.5 118.876 10.4667 121.371 10.4C123.865 10.3333 126.376 10.2667 128.903 10.2C128.903 11.5667 128.92 12.7667 128.953 13.8C128.986 14.8333 129.02 15.75 129.053 16.55C129.119 17.35 129.169 18.0833 129.202 18.75C129.269 19.3833 129.336 20.0167 129.402 20.65H128.305Z" fill="#2E3131"/>
<path d="M131.669 10.2C133.199 10.2667 134.712 10.3333 136.208 10.4C137.705 10.4667 139.218 10.5 140.748 10.5C142.211 10.5 143.641 10.4667 145.038 10.4C146.468 10.3333 147.915 10.2667 149.378 10.2V11.4C148.247 11.4333 147.299 11.5667 146.534 11.8C145.803 12 145.221 12.3167 144.788 12.75C144.389 13.15 144.107 13.7 143.94 14.4C143.774 15.0667 143.691 15.9 143.691 16.9V38.1C143.691 39.4 144.107 40.35 144.938 40.95C145.77 41.55 147.2 41.9 149.228 42L149.128 43.2C147.665 43.1333 146.219 43.0833 144.788 43.05C143.358 43.0167 141.912 43 140.448 43C138.952 43 137.455 43.0167 135.959 43.05C134.462 43.0833 132.966 43.1333 131.469 43.2V42C133.498 41.9 134.928 41.55 135.759 40.95C136.591 40.35 137.006 39.4 137.006 38.1V16.9C137.006 14.9333 136.624 13.55 135.859 12.75C135.127 11.9167 133.731 11.4667 131.669 11.4V10.2ZM140.548 0C141.446 0 142.194 0.316667 142.793 0.95C143.425 1.55 143.741 2.3 143.741 3.2C143.741 4.1 143.425 4.86666 142.793 5.5C142.194 6.1 141.446 6.4 140.548 6.4C139.65 6.4 138.885 6.1 138.254 5.5C137.655 4.86666 137.356 4.1 137.356 3.2C137.356 2.3 137.655 1.55 138.254 0.95C138.885 0.316667 139.65 0 140.548 0Z" fill="#2E3131"/>
<path d="M164.006 24.25H166.6C167.464 24.25 168.312 24.15 169.144 23.95C169.975 23.7167 170.74 23.3667 171.438 22.9C172.17 22.4 172.802 21.75 173.334 20.95C173.866 20.15 174.265 19.1667 174.531 18H175.529C175.496 19.1667 175.446 20.35 175.379 21.55C175.346 22.75 175.329 23.9333 175.329 25.1C175.329 26.3 175.346 27.5 175.379 28.7C175.446 29.8667 175.496 31.05 175.529 32.25H174.531C174.265 31.0167 173.933 29.9833 173.534 29.15C173.135 28.3167 172.619 27.65 171.987 27.15C171.355 26.65 170.607 26.3 169.742 26.1C168.878 25.8667 167.83 25.75 166.6 25.75H164.006V37.3C164.006 38.1 164.072 38.7833 164.205 39.35C164.338 39.9167 164.604 40.3833 165.003 40.75C165.436 41.1167 166.034 41.3833 166.799 41.55C167.597 41.7167 168.628 41.8 169.892 41.8V43.2C168.296 43.1333 166.716 43.0833 165.153 43.05C163.59 43.0167 162.01 43 160.414 43C159.017 43 157.637 43.0167 156.273 43.05C154.91 43.0833 153.53 43.1333 152.133 43.2V41.8C153.23 41.8 154.112 41.7167 154.777 41.55C155.475 41.3833 156.007 41.1167 156.373 40.75C156.739 40.3833 156.988 39.9167 157.121 39.35C157.254 38.7833 157.321 38.1 157.321 37.3V17.3C157.321 16.3667 157.254 15.55 157.121 14.85C157.022 14.15 156.789 13.5667 156.423 13.1C156.057 12.6333 155.525 12.2833 154.827 12.05C154.162 11.7833 153.264 11.6333 152.133 11.6V10.2C153.829 10.2667 155.525 10.3333 157.221 10.4C158.951 10.4667 160.663 10.5 162.359 10.5C165.585 10.5 168.778 10.4667 171.937 10.4C175.13 10.3333 178.339 10.2667 181.565 10.2C181.532 10.8 181.515 11.4 181.515 12C181.515 12.6 181.515 13.1833 181.515 13.75C181.515 14.7833 181.515 15.8167 181.515 16.85C181.549 17.8833 181.648 18.9167 181.815 19.95H180.817C180.085 17.1167 178.838 15.1 177.075 13.9C175.346 12.7 172.852 12.1 169.593 12.1H164.006V24.25Z" fill="#2E3131"/>
<path d="M184.331 10.2C185.86 10.2667 187.374 10.3333 188.87 10.4C190.367 10.4667 191.88 10.5 193.41 10.5C194.873 10.5 196.303 10.4667 197.7 10.4C199.13 10.3333 200.577 10.2667 202.04 10.2V11.4C200.909 11.4333 199.961 11.5667 199.196 11.8C198.465 12 197.883 12.3167 197.45 12.75C197.051 13.15 196.769 13.7 196.602 14.4C196.436 15.0667 196.353 15.9 196.353 16.9V38.1C196.353 39.4 196.769 40.35 197.6 40.95C198.431 41.55 199.862 41.9 201.89 42L201.79 43.2C200.327 43.1333 198.88 43.0833 197.45 43.05C196.02 43.0167 194.574 43 193.11 43C191.614 43 190.117 43.0167 188.621 43.05C187.124 43.0833 185.628 43.1333 184.131 43.2V42C186.16 41.9 187.59 41.55 188.421 40.95C189.253 40.35 189.668 39.4 189.668 38.1V16.9C189.668 14.9333 189.286 13.55 188.521 12.75C187.789 11.9167 186.393 11.4667 184.331 11.4V10.2ZM193.21 0C194.108 0 194.856 0.316667 195.455 0.95C196.087 1.55 196.403 2.3 196.403 3.2C196.403 4.1 196.087 4.86666 195.455 5.5C194.856 6.1 194.108 6.4 193.21 6.4C192.312 6.4 191.547 6.1 190.915 5.5C190.317 4.86666 190.018 4.1 190.018 3.2C190.018 2.3 190.317 1.55 190.915 0.95C191.547 0.316667 192.312 0 193.21 0Z" fill="#2E3131"/>
<path d="M209.634 16.4C209.634 15.7333 209.551 15.1 209.384 14.5C209.218 13.9 208.935 13.3833 208.536 12.95C208.137 12.4833 207.605 12.1167 206.94 11.85C206.275 11.55 205.443 11.4 204.446 11.4V10.2C207.206 10.4 209.933 10.5 212.627 10.5C214.123 10.5 215.62 10.4667 217.116 10.4C218.646 10.3333 220.159 10.2667 221.656 10.2V11.4C220.592 11.4 219.711 11.55 219.012 11.85C218.347 12.1167 217.815 12.4833 217.416 12.95C217.017 13.3833 216.734 13.9 216.568 14.5C216.401 15.1 216.318 15.7333 216.318 16.4V26.5C216.584 26.3 217.05 25.9167 217.715 25.35C218.413 24.75 219.195 24.0667 220.06 23.3C220.924 22.5 221.822 21.6667 222.753 20.8C223.718 19.9 224.583 19.0333 225.348 18.2C226.146 17.3333 226.794 16.55 227.293 15.85C227.825 15.1167 228.091 14.5333 228.091 14.1C228.091 13.7 227.975 13.35 227.742 13.05C227.509 12.7167 227.21 12.4333 226.844 12.2C226.512 11.9667 226.146 11.7833 225.747 11.65C225.348 11.5167 224.982 11.4333 224.649 11.4V10.2C225.946 10.3667 227.243 10.4667 228.54 10.5C229.837 10.5 231.151 10.5 232.481 10.5C233.878 10.5 235.225 10.4833 236.522 10.45C237.819 10.4167 239.166 10.3333 240.562 10.2V11.4C238.866 11.6 237.287 12.0833 235.823 12.85C234.393 13.5833 233.03 14.4667 231.733 15.5C230.436 16.5 229.172 17.5833 227.942 18.75C226.744 19.8833 225.514 20.95 224.25 21.95L234.477 36.65C235.009 37.4167 235.524 38.1167 236.023 38.75C236.555 39.35 237.12 39.8833 237.719 40.35C238.318 40.7833 238.983 41.15 239.714 41.45C240.446 41.7167 241.311 41.9 242.308 42V43.2C240.812 43.1333 239.299 43.0833 237.769 43.05C236.272 43.0167 234.776 43 233.279 43C231.783 43 230.303 43.0167 228.839 43.05C227.376 43.0833 225.896 43.1333 224.4 43.2V42.2C224.666 42.1333 225.032 42.05 225.497 41.95C225.963 41.85 226.412 41.7 226.844 41.5C227.31 41.3 227.709 41.0667 228.041 40.8C228.374 40.5 228.54 40.1333 228.54 39.7C228.54 39.4667 228.341 39.0167 227.942 38.35C227.576 37.65 227.093 36.85 226.495 35.95C225.896 35.0167 225.231 34.0333 224.499 33C223.801 31.9333 223.103 30.9333 222.404 30C221.739 29.0333 221.141 28.1833 220.608 27.45C220.076 26.7167 219.694 26.1833 219.461 25.85L216.318 28.35V36.9C216.318 37.7 216.368 38.4167 216.468 39.05C216.568 39.65 216.784 40.1667 217.116 40.6C217.482 41 218.014 41.3167 218.713 41.55C219.411 41.7833 220.359 41.9333 221.556 42V43.2C220.026 43.1333 218.513 43.0833 217.017 43.05C215.52 43.0167 214.024 43 212.527 43C211.164 43 209.817 43.0167 208.486 43.05C207.156 43.0833 205.809 43.1333 204.446 43.2V42C205.643 41.9333 206.574 41.7833 207.239 41.55C207.938 41.3167 208.453 41 208.786 40.6C209.151 40.1667 209.384 39.65 209.484 39.05C209.584 38.4167 209.634 37.7 209.634 36.9V16.4Z" fill="#2E3131"/>
<path d="M260.656 27.1L256.565 15.4H256.465L252.125 27.1H260.656ZM240.053 42C240.984 41.9 241.749 41.7167 242.348 41.45C242.98 41.15 243.495 40.7667 243.894 40.3C244.327 39.8333 244.692 39.3 244.992 38.7C245.324 38.0667 245.657 37.35 245.989 36.55L255.767 13.7L254.869 11.3C255.933 11.1 256.981 10.8667 258.012 10.6C259.043 10.3 260.04 9.93333 261.005 9.5L271.83 38.95C272.229 40.0167 272.927 40.8 273.925 41.3C274.923 41.7667 275.937 42 276.968 42V43.2C276.336 43.1667 275.621 43.1333 274.823 43.1C274.025 43.0667 273.227 43.0333 272.429 43C271.63 43 270.832 43 270.034 43C269.269 43 268.571 43 267.939 43C266.542 43 265.145 43.0167 263.749 43.05C262.385 43.0833 261.005 43.1333 259.608 43.2V42C261.337 41.8667 262.618 41.5833 263.449 41.15C264.281 40.7167 264.696 40.0667 264.696 39.2C264.696 38.9 264.63 38.5167 264.497 38.05C264.397 37.5833 264.247 37.1167 264.048 36.65C263.882 36.15 263.699 35.6667 263.499 35.2C263.333 34.7 263.183 34.2833 263.05 33.95L261.354 29H251.427L248.883 36.05C248.716 36.5167 248.534 36.9667 248.334 37.4C248.168 37.8333 248.085 38.3833 248.085 39.05C248.085 39.45 248.218 39.8167 248.484 40.15C248.783 40.4833 249.149 40.7833 249.581 41.05C250.047 41.2833 250.529 41.4833 251.028 41.65C251.56 41.8167 252.042 41.9333 252.475 42V43.2C251.41 43.1333 250.329 43.0833 249.232 43.05C248.168 43.0167 247.104 43 246.039 43C245.042 43 244.044 43.0167 243.046 43.05C242.048 43.0833 241.051 43.1333 240.053 43.2V42Z" fill="#2E3131"/>
<path d="M302.903 20.65C302.537 18.7833 302.038 17.3167 301.406 16.25C300.807 15.15 300.059 14.3167 299.161 13.75C298.263 13.1833 297.232 12.8167 296.068 12.65C294.904 12.4833 293.574 12.4 292.077 12.4V36.3C292.077 37.4333 292.127 38.3667 292.227 39.1C292.327 39.8 292.56 40.3667 292.926 40.8C293.291 41.2333 293.84 41.55 294.572 41.75C295.303 41.95 296.301 42.1 297.565 42.2V43.2C296.168 43.1333 294.755 43.0833 293.325 43.05C291.928 43.0167 290.514 43 289.084 43C287.555 43 286.041 43.0167 284.545 43.05C283.048 43.0833 281.502 43.1333 279.905 43.2V42.2C281.169 42.1 282.167 41.95 282.899 41.75C283.63 41.55 284.179 41.2333 284.545 40.8C284.911 40.3667 285.143 39.8 285.243 39.1C285.343 38.3667 285.393 37.4333 285.393 36.3V12.4C283.896 12.4 282.566 12.4833 281.402 12.65C280.238 12.8167 279.207 13.1833 278.309 13.75C277.411 14.3167 276.646 15.15 276.014 16.25C275.416 17.3167 274.934 18.7833 274.568 20.65H273.271C273.337 20.0167 273.387 19.3833 273.42 18.75C273.487 18.0833 273.537 17.35 273.57 16.55C273.637 15.75 273.686 14.8333 273.72 13.8C273.753 12.7667 273.77 11.5667 273.77 10.2C276.264 10.2667 278.725 10.3333 281.153 10.4C283.58 10.4667 286.025 10.5 288.486 10.5C290.98 10.5 293.474 10.4667 295.969 10.4C298.463 10.3333 300.974 10.2667 303.501 10.2C303.501 11.5667 303.518 12.7667 303.551 13.8C303.584 14.8333 303.618 15.75 303.651 16.55C303.717 17.35 303.767 18.0833 303.8 18.75C303.867 19.3833 303.934 20.0167 304 20.65H302.903Z" fill="#2E3131"/>
</svg>
