<svg width="137" height="42" viewBox="0 0 137 42" fill="none" xmlns="http://www.w3.org/2000/svg">
<path d="M14.79 25.99C14.37 26.2 14.16 26.41 14.16 26.56C14.16 27.04 15.87 27.37 17.67 27.37C19.92 27.37 21.84 27.01 23.43 26.38C25.8 25.42 26.94 23.86 26.94 21.7C26.94 19.27 25.62 16.96 23.1 14.71C21.18 13 19.08 11.53 16.68 10.36C13.53 8.8 10.38 7.99 7.17 7.81C5.25 7.72 3.57 8.08 2.19 8.92C0.96 9.67 0.24 10.63 0.0899996 11.71C0.0299995 12.01 -8.9407e-08 12.31 -8.9407e-08 12.7C-8.9407e-08 13.72 0.15 14.74 0.45 15.73C0.81 16.87 1.26 17.77 1.86 18.25C1.98 18.43 2.1 18.49 2.16 18.49C2.19 18.49 2.19 18.46 2.22 18.43C2.22 18.37 2.16 18.22 2.07 18.07C1.17 16.72 0.72 14.98 0.72 12.88C0.72 12.46 0.75 12.1 0.81 11.71C1.2 9.46 2.97 8.29 6.12 8.29C9 8.29 11.88 8.98 14.94 10.36C17.73 11.65 20.28 13.42 22.53 15.52C24.63 17.53 25.68 19.69 25.68 21.91C25.68 23.71 24.9 25.03 23.31 25.84C21.96 26.56 20.19 26.98 18.09 26.98C16.98 26.98 16.08 26.83 15.42 26.5C15.09 26.41 14.88 26.26 14.79 25.99ZM3.81 35.2C4.05 35.29 4.38 35.35 4.71 35.35C5.46 35.35 6.18 35.17 6.78 34.84C9 33.61 11.31 30.64 13.8 25.78C15.27 22.9 16.59 19.84 17.73 16.63C17.79 16.48 17.79 16.21 17.76 15.85C17.73 15.49 17.67 15.31 17.61 15.31C17.58 15.31 17.58 15.37 17.52 15.43C16.47 18.58 14.7 22.33 12.21 26.65C9.48 31.39 7.41 34 6.03 34.51C5.22 34.72 4.62 34.78 4.14 34.6C3.54 34.36 3.09 34.03 2.76 33.61C2.58 33.43 2.49 33.34 2.37 33.34C2.25 33.34 2.22 33.4 2.22 33.52C2.22 33.61 2.28 33.79 2.4 33.97C2.76 34.51 3.21 34.9 3.81 35.2ZM23.6597 34.39C24.1697 34.09 24.5897 33.91 24.8897 33.79C25.0697 33.7 25.1297 33.61 25.1297 33.58C27.4697 29.74 30.1097 27.04 33.0497 25.42C33.7397 25.06 34.2497 24.97 34.6697 25.15C34.9097 25.3 35.5397 24.64 35.5397 24.37C35.5397 24.34 35.5397 24.34 35.5097 24.31C35.2097 24.16 34.7597 24.1 34.1297 24.13C33.4097 24.43 32.4197 25.09 31.1297 26.14C29.8697 27.16 28.8497 28.15 28.0997 29.05C28.0397 29.14 27.8897 29.23 27.7397 29.29C27.4997 29.38 27.4097 29.35 27.4097 29.26C27.4097 29.17 27.4397 29.08 27.4997 28.96C27.9497 28.09 28.8497 26.77 30.1397 25.03C30.2297 24.94 30.2297 24.79 30.1697 24.7C30.1397 24.61 30.0497 24.55 29.9297 24.55C29.8997 24.55 29.8397 24.55 29.8097 24.61C28.5497 25.36 27.7997 25.78 27.5597 25.87C27.5297 25.93 27.5297 25.99 27.5597 26.08C27.6197 26.26 27.6497 26.35 27.6497 26.41C27.6497 26.62 27.5897 26.86 27.4697 27.16C26.7797 28.78 25.4597 31.09 23.5097 34.09C23.4497 34.21 23.4497 34.3 23.4797 34.39C23.5097 34.51 23.5697 34.51 23.6597 34.39ZM34.0821 34.51C35.8521 34.27 37.8921 33.1 40.2321 31.09C42.6021 29.05 43.7721 27.31 43.8921 25.81C43.8921 25.72 43.8321 25.6 43.8021 25.48C43.7721 25.42 43.7721 25.36 43.8021 25.3C43.9821 25.06 44.3721 24.94 45.0021 24.94C45.3021 24.94 45.4521 24.85 45.4521 24.76C45.4521 24.7 45.3021 24.64 45.0021 24.64C43.3221 24.58 42.0021 24.55 41.1021 24.52C41.0121 24.49 40.9521 24.43 40.8921 24.4C40.3221 24.07 39.8721 23.83 39.5421 23.86C39.0921 23.89 38.6721 24.1 38.2221 24.52C38.0721 24.61 37.9521 24.64 37.8921 24.64C37.8621 24.61 37.5021 24.64 36.7521 24.67C35.8221 24.7 35.8821 24.97 35.8821 25.09C35.8821 25.33 36.3321 25.6 36.6921 25.81C36.7821 25.84 36.8121 25.96 36.7521 26.08C34.0821 29.35 32.7621 31.81 32.7321 33.43C32.7321 34.06 33.5121 34.6 34.0821 34.51ZM33.6621 32.92C34.8321 30.16 36.4821 27.79 38.6121 25.81C38.8821 25.63 39.0621 25.51 39.1221 25.54C39.8421 25.27 40.6821 25.15 41.6421 25.27C42.5121 25.36 42.9321 25.69 42.7821 26.32C42.4821 27.76 41.3421 29.38 39.3321 31.18C37.4121 32.95 35.7921 33.91 34.4421 34.12C33.8121 34.24 33.4821 34.06 33.4821 33.58C33.4821 33.37 33.5421 33.13 33.6621 32.92ZM50.7476 21.1C51.3776 21.13 52.0676 21.16 52.7576 21.16C60.5576 21.16 68.4776 19.27 76.5176 15.49C78.7076 14.47 80.3576 13.24 81.4676 11.77C82.4876 10.45 82.9976 9.04 82.9976 7.57C82.9976 5.62 82.1576 3.94 80.5376 2.56C78.8276 1.12 76.6976 0.4 74.1176 0.4C72.5876 0.4 71.0576 0.669998 69.4676 1.24C63.6776 3.25 58.0076 8.38 52.4576 16.75C50.5076 17.17 49.0376 17.89 48.0476 18.94C47.9276 19.09 47.8376 19.24 47.8376 19.48C47.8376 20.05 48.3776 20.77 48.9176 20.89C49.2776 20.95 49.5776 21.01 49.7876 21.04C46.9376 25.96 44.6876 30.07 43.0976 33.46C43.0676 33.55 43.0676 33.61 43.0676 33.7C43.0676 34 43.1276 34.18 43.3076 34.18C43.3676 34.18 43.4276 34.12 43.4576 34.03C43.6376 33.79 43.7576 33.73 43.7876 33.79C44.6876 32.71 45.9776 31.36 47.6576 29.74C49.6676 27.82 51.2276 26.56 52.3376 25.96C52.5776 25.81 52.7576 25.75 52.9376 25.75C53.2376 25.75 53.3876 25.87 53.3876 26.17C53.3876 26.32 53.3576 26.44 53.2676 26.56C51.4976 28.9 50.4176 30.82 50.0576 32.41C49.9376 32.86 50.1176 33.25 50.5976 33.64C50.9876 34 51.3476 34.18 51.7076 34.18C52.9076 34.18 53.6576 33.82 56.2376 31.72L56.4476 31.51C56.4176 31.48 56.4176 31.45 56.3876 31.42C56.3576 31.45 56.2376 31.48 56.1176 31.57C53.8676 33.28 53.3876 33.37 52.4276 33.37C51.8876 33.37 51.6176 33.1 51.6176 32.59C51.6176 31.9 52.0976 30.64 53.0876 28.84C53.9276 27.37 54.6776 26.17 55.3676 25.33C55.3976 25.3 55.3976 25.21 55.3976 25.18C55.3976 24.88 54.9176 24.49 54.6776 24.52C53.9876 24.7 53.5976 24.82 53.5076 24.94C52.8776 25 51.6176 25.72 49.7576 27.22C48.2276 28.45 46.7876 29.77 45.4976 31.06C44.9576 31.63 44.6276 31.99 44.4476 32.14C46.6676 28.09 48.7676 24.43 50.7476 21.1ZM51.0176 20.59C56.8076 10.72 62.9876 4.39 69.6776 1.6C71.0276 1.03 72.4376 0.729997 73.9376 0.729997C76.1876 0.729997 78.1376 1.36 79.8176 2.53C81.4976 3.7 82.3376 5.11 82.3376 6.85C82.3376 9.52 80.2676 12.04 76.0976 14.47C72.1976 16.72 67.9676 18.4 63.4676 19.45C59.9276 20.29 56.5376 20.68 53.2376 20.68C52.4276 20.68 51.7076 20.62 51.0176 20.59ZM50.0876 20.53C49.9676 20.53 49.6376 20.5 49.0676 20.41C48.6476 20.35 48.4076 20.14 48.4076 19.81C48.4076 19.6 48.4676 19.42 48.6476 19.24C49.4276 18.34 50.6276 17.56 52.2776 17.08C51.5576 18.19 50.8076 19.36 50.0876 20.53ZM56.3414 33.61C57.6314 32.86 59.1314 31.75 60.8714 30.28C62.6114 28.78 63.9614 27.49 64.9214 26.35C64.9514 26.32 64.9814 26.29 65.0114 26.29C65.1914 26.29 65.1914 26.38 65.0414 26.62C64.3514 27.64 63.6914 28.9 63.0314 30.34C61.9514 32.71 60.6314 37 60.5714 38.68C60.5414 39.7 60.8114 40.54 61.5614 41.02C62.1914 41.41 63.0014 41.8 63.9614 41.8C64.5914 41.8 65.1614 41.68 65.7014 41.5C66.8114 41.11 68.1614 40.21 69.8114 38.86C71.5814 37.36 72.9014 35.77 73.8014 34.42C73.8914 34.27 73.9214 34.18 73.9214 34.09C73.9214 34.06 73.9214 34.03 73.8914 34C73.8014 34 73.7114 34.09 73.5314 34.3C72.5714 35.53 71.2514 37 69.6314 38.32C67.9514 39.67 66.5714 40.54 65.4914 40.9C64.8014 41.14 64.0514 41.26 63.3614 41.26C61.9214 41.26 61.0214 40.6 61.0214 39.25C61.0214 39.07 61.0214 38.89 61.0514 38.68C61.4114 36.37 63.0314 31.54 64.7114 28.72C65.7914 26.95 66.9614 25.18 68.1014 23.41C68.1314 23.32 67.9814 23.05 67.8314 23.05C67.7714 23.05 67.6814 23.08 67.6514 23.11C67.4714 23.32 67.2014 23.44 66.8714 23.5C66.7814 23.53 66.6014 23.5 66.3014 23.47C65.8214 23.32 65.3414 23.2 64.8614 23.2C64.4114 23.2 63.9914 23.29 63.6314 23.44C62.0714 24.04 60.2714 25.33 58.2314 27.34C56.0114 29.56 54.9014 31.39 54.9014 32.8C54.9014 33.52 55.1414 33.85 55.6514 33.85C55.8914 33.85 56.1014 33.76 56.3414 33.61ZM56.8214 31.06C57.3914 29.77 58.3214 28.36 59.6714 26.86C61.0814 25.3 62.2814 24.37 63.2414 24.13C63.4814 24.07 63.6914 24.04 63.9314 24.04C64.7414 24.04 65.3114 24.49 65.3114 24.94C65.3114 25.03 65.2814 25.09 65.2214 25.15C62.4014 28.51 59.9114 30.91 57.6914 32.32C57.5414 32.41 57.3614 32.47 57.2414 32.47C56.8814 32.47 56.7014 32.26 56.7014 31.75C56.7014 31.54 56.7314 31.3 56.8214 31.06ZM71.287 30.82C70.987 30.67 70.657 30.28 70.267 29.71C69.907 29.14 69.667 28.63 69.607 28.18C69.457 27.19 70.357 26.05 72.247 24.76C73.777 23.68 75.097 23.02 76.207 22.75C76.387 22.72 76.627 22.69 76.867 22.69C77.287 22.69 77.947 22.81 78.847 23.11C79.117 23.2 79.927 22.66 80.197 22.27C80.287 22.18 80.287 22.06 80.197 21.88C80.107 21.76 79.987 21.7 79.867 21.7C77.647 21.67 75.067 22.51 72.217 24.19C69.337 25.9 67.957 27.4 68.137 28.72C68.197 29.26 68.437 29.77 68.857 30.34L69.817 31.63C67.477 33.25 66.127 34.27 65.767 34.72C65.617 34.96 65.647 35.08 65.947 35.11C66.127 35.17 66.487 35.08 67.027 34.99C67.207 35.05 67.387 35.08 67.657 35.08C68.317 35.08 69.247 34.84 70.387 34.33C71.707 33.76 72.367 33.22 72.367 32.65C72.367 32.38 72.157 31.93 71.647 31.24C74.827 29.41 77.767 28.21 80.557 27.67L80.527 27.64C77.557 28.15 74.497 29.02 71.287 30.82ZM67.297 34.42C67.477 34.12 67.987 33.73 68.767 33.16C69.457 32.65 69.937 32.32 70.237 32.14C70.687 32.56 70.927 32.92 70.927 33.25C70.927 33.34 70.897 33.46 70.807 33.58C70.597 33.88 70.057 34.12 69.247 34.42C68.407 34.72 67.777 34.84 67.417 34.75C67.207 34.72 67.147 34.6 67.297 34.42ZM84.6722 21.97C92.4722 21.97 100.392 20.08 108.432 16.3C110.622 15.28 112.272 14.05 113.382 12.55C114.402 11.23 114.912 9.85 114.912 8.38C114.912 6.43 114.102 4.72 112.482 3.34C110.772 1.9 108.612 1.21 106.032 1.21C104.532 1.21 102.972 1.48 101.382 2.02C95.5922 4.06 89.9222 9.19 84.3722 17.53C82.4522 17.98 80.9522 18.7 79.9622 19.75C79.8422 19.87 79.7522 20.05 79.7522 20.29C79.7522 20.83 80.2922 21.58 80.8322 21.7C81.1922 21.76 81.4922 21.79 81.7022 21.82H81.8222C80.9822 23.17 80.0222 24.85 78.9122 26.74C78.3722 26.62 77.8922 27.25 78.2222 28.27C77.6222 29.41 76.8722 31.33 75.7922 34.03C75.7622 34.12 75.7622 34.18 75.7622 34.27C75.8522 34.57 75.9122 34.75 76.0622 34.75C76.1522 34.75 76.2122 34.69 76.2422 34.6C77.2322 32.2 78.0422 30.34 78.8522 29.05C83.6222 34.96 87.7922 38.41 91.4522 39.4C91.7222 39.46 92.1722 39.67 93.0122 39.76C93.8822 39.88 94.3922 39.91 94.4822 39.85C95.3222 39.31 95.8022 38.53 96.1022 37.84C96.0722 37.75 96.0722 37.63 96.0422 37.6C95.9822 37.57 95.8922 37.63 95.8322 37.75C95.3522 38.83 94.3922 39.37 93.0722 39.37C92.7722 39.37 92.4422 39.31 92.1422 39.22C90.2222 38.65 87.9722 37.21 85.4522 34.87C83.1122 32.71 81.4322 30.61 80.2622 28.57C81.7022 28.57 83.2322 28.21 84.7622 27.52C86.4122 26.77 87.5222 25.93 88.0322 24.88C88.3322 24.25 88.4222 23.77 88.4222 23.41C88.3622 22.96 88.0622 22.72 87.4622 22.72C86.0822 22.72 83.5322 24.07 79.7222 26.83C81.0122 24.7 81.9122 23.14 82.4222 22.12C82.5722 22.06 82.7822 22 82.9322 21.94C83.5022 21.97 84.1022 21.97 84.6722 21.97ZM82.9322 21.4C88.7222 11.53 94.9022 5.2 101.592 2.41C102.942 1.84 104.352 1.54 105.882 1.54C108.102 1.54 110.052 2.14 111.732 3.31C113.412 4.48 114.252 5.92 114.252 7.63C114.252 10.3 112.182 12.88 108.012 15.28C104.112 17.53 99.9122 19.18 95.3822 20.26C91.8422 21.1 88.4522 21.46 85.1522 21.46C84.3422 21.46 83.6222 21.43 82.9322 21.4ZM85.1522 26.86C84.6422 27.25 83.8622 27.58 82.9022 27.88C82.0022 28.18 81.1922 28.3 80.5622 28.3C80.3822 28.3 80.2622 28.3 80.1722 28.27C79.9322 27.88 79.8122 27.58 79.7522 27.37C80.2022 26.89 81.0422 26.2 82.3322 25.36C83.8322 24.37 84.9422 23.83 85.5422 23.74C86.1722 23.65 86.5322 23.92 86.5622 24.46C86.5922 25.3 86.1722 26.08 85.1522 26.86ZM82.0022 21.34C81.8822 21.34 81.5522 21.28 80.9822 21.19C80.5622 21.1 80.3222 20.95 80.3222 20.62C80.3222 20.41 80.3822 20.2 80.5622 20.05C81.3422 19.12 82.5422 18.37 84.1922 17.86C83.4722 19 82.7522 20.14 82.0022 21.34ZM87.3961 33.61C88.6861 32.86 90.1861 31.75 91.9261 30.28C93.6661 28.78 95.0161 27.49 95.9761 26.35C96.0061 26.32 96.0361 26.29 96.0661 26.29C96.2461 26.29 96.2461 26.38 96.0961 26.62C95.4061 27.64 94.7461 28.9 94.0861 30.34C93.0061 32.71 91.6861 37 91.6261 38.68C91.5961 39.7 91.8661 40.54 92.6161 41.02C93.2461 41.41 94.0561 41.8 95.0161 41.8C95.6461 41.8 96.2161 41.68 96.7561 41.5C97.8661 41.11 99.2161 40.21 100.866 38.86C102.636 37.36 103.956 35.77 104.856 34.42C104.946 34.27 104.976 34.18 104.976 34.09C104.976 34.06 104.976 34.03 104.946 34C104.856 34 104.766 34.09 104.586 34.3C103.626 35.53 102.306 37 100.686 38.32C99.0061 39.67 97.6261 40.54 96.5461 40.9C95.8561 41.14 95.1061 41.26 94.4161 41.26C92.9761 41.26 92.0761 40.6 92.0761 39.25C92.0761 39.07 92.0761 38.89 92.1061 38.68C92.4661 36.37 94.0861 31.54 95.7661 28.72C96.8461 26.95 98.0161 25.18 99.1561 23.41C99.1861 23.32 99.0361 23.05 98.8861 23.05C98.8261 23.05 98.7361 23.08 98.7061 23.11C98.5261 23.32 98.2561 23.44 97.9261 23.5C97.8361 23.53 97.6561 23.5 97.3561 23.47C96.8761 23.32 96.3961 23.2 95.9161 23.2C95.4661 23.2 95.0461 23.29 94.6861 23.44C93.1261 24.04 91.3261 25.33 89.2861 27.34C87.0661 29.56 85.9561 31.39 85.9561 32.8C85.9561 33.52 86.1961 33.85 86.7061 33.85C86.9461 33.85 87.1561 33.76 87.3961 33.61ZM87.8761 31.06C88.4461 29.77 89.3761 28.36 90.7261 26.86C92.1361 25.3 93.3361 24.37 94.2961 24.13C94.5361 24.07 94.7461 24.04 94.9861 24.04C95.7961 24.04 96.3661 24.49 96.3661 24.94C96.3661 25.03 96.3361 25.09 96.2761 25.15C93.4561 28.51 90.9661 30.91 88.7461 32.32C88.5961 32.41 88.4161 32.47 88.2961 32.47C87.9361 32.47 87.7561 32.26 87.7561 31.75C87.7561 31.54 87.7861 31.3 87.8761 31.06ZM96.7917 29.32C96.8817 30.43 97.7517 31.66 99.2517 33.1C100.902 34.63 102.432 35.38 103.932 35.35C104.682 35.32 105.402 34.96 106.122 34.33C106.872 33.67 107.382 32.92 107.682 32.02C117.612 37.21 124.872 39.79 129.462 39.67C130.452 39.64 131.472 39.52 132.522 39.22C133.422 38.98 134.022 38.71 134.382 38.5C134.982 38.05 135.462 37.33 135.912 36.28C136.332 35.23 136.572 34.24 136.572 33.31C136.572 32.95 136.482 32.77 136.392 32.77C136.302 32.77 136.242 32.95 136.182 33.28C136.032 35.17 135.042 37.15 133.992 37.96C132.732 38.92 131.202 39.37 129.402 39.34C127.062 39.28 124.212 38.62 120.882 37.3C118.482 36.37 115.812 35.11 112.872 33.55C111.282 32.68 109.692 31.78 108.102 30.94C109.542 27.34 110.532 24.97 111.072 23.77C112.992 19.57 114.732 16.57 116.292 14.83C117.732 13.21 119.082 12.49 120.312 12.61C121.302 12.7 122.292 13.24 123.252 14.17C124.242 15.13 125.022 16.21 125.502 17.5C125.592 17.74 125.712 17.83 125.802 17.83C125.892 17.83 125.982 17.74 125.982 17.56C125.982 17.47 125.922 17.38 125.892 17.26C124.812 13.93 122.742 12.04 120.372 12.1C119.592 12.13 118.662 12.4 117.582 13C116.712 13.48 116.112 13.93 115.692 14.38C114.162 15.97 112.452 18.91 110.562 23.2C109.782 24.97 108.762 27.43 107.562 30.64C105.132 29.5 103.812 28.87 103.572 28.78C101.682 27.97 100.212 27.61 99.1917 27.61C98.9817 27.61 98.7417 27.64 98.5317 27.67C98.2317 27.73 97.9317 27.94 97.4817 28.27C97.0017 28.66 96.7617 29.02 96.7917 29.32ZM103.962 34.96C102.942 34.93 101.832 34.45 100.632 33.52C99.3417 32.5 98.4417 31.36 97.8717 30.04C97.7817 29.8 97.7217 29.59 97.7217 29.38C97.7217 28.81 98.1117 28.63 98.8617 28.72C100.692 28.99 103.452 30.01 107.112 31.78C106.482 33.94 105.432 34.99 103.962 34.96Z" fill="black"/>
</svg>
