<svg width="96" height="63" viewBox="0 0 96 63" fill="none" xmlns="http://www.w3.org/2000/svg">
<path d="M0.03 31.32C0.12 32.43 0.99 33.66 2.49 35.1C4.14 36.63 5.67 37.38 7.17 37.35C7.92 37.32 8.64 36.96 9.36 36.33C10.11 35.67 10.62 34.92 10.92 34.02C20.85 39.21 28.11 41.79 32.7 41.67C33.69 41.64 34.71 41.52 35.76 41.22C36.66 40.98 37.26 40.71 37.62 40.5C38.22 40.05 38.7 39.33 39.15 38.28C39.57 37.23 39.81 36.24 39.81 35.31C39.81 34.95 39.72 34.77 39.63 34.77C39.54 34.77 39.48 34.95 39.42 35.28C39.27 37.17 38.28 39.15 37.23 39.96C35.97 40.92 34.44 41.37 32.64 41.34C30.3 41.28 27.45 40.62 24.12 39.3C21.72 38.37 19.05 37.11 16.11 35.55C14.52 34.68 12.93 33.78 11.34 32.94C12.78 29.34 13.77 26.97 14.31 25.77C16.23 21.57 17.97 18.57 19.53 16.83C20.97 15.21 22.32 14.49 23.55 14.61C24.54 14.7 25.53 15.24 26.49 16.17C27.48 17.13 28.26 18.21 28.74 19.5C28.83 19.74 28.95 19.83 29.04 19.83C29.13 19.83 29.22 19.74 29.22 19.56C29.22 19.47 29.16 19.38 29.13 19.26C28.05 15.93 25.98 14.04 23.61 14.1C22.83 14.13 21.9 14.4 20.82 15C19.95 15.48 19.35 15.93 18.93 16.38C17.4 17.97 15.69 20.91 13.8 25.2C13.02 26.97 12 29.43 10.8 32.64C8.37 31.5 7.05 30.87 6.81 30.78C4.92 29.97 3.45 29.61 2.43 29.61C2.22 29.61 1.98 29.64 1.77 29.67C1.47 29.73 1.17 29.94 0.72 30.27C0.24 30.66 0 31.02 0.03 31.32ZM7.2 36.96C6.18 36.93 5.07 36.45 3.87 35.52C2.58 34.5 1.68 33.36 1.11 32.04C1.02 31.8 0.96 31.59 0.96 31.38C0.96 30.81 1.35 30.63 2.1 30.72C3.93 30.99 6.69 32.01 10.35 33.78C9.72 35.94 8.67 36.99 7.2 36.96ZM24.6045 33.66C25.0545 33.21 25.1145 32.61 24.4245 33.3C23.3445 34.32 22.2645 35.07 20.7645 35.43C19.9845 35.61 18.8145 35.61 19.8045 33.6C21.2445 30.63 19.0545 34.74 23.1345 27.03C23.9145 25.56 22.1145 25.32 21.9645 26.28C21.8745 26.79 18.7245 32.46 18.6945 34.41C18.6645 35.88 20.4945 36.42 20.9445 36.21C22.6845 35.43 23.6445 34.62 24.6045 33.66ZM25.1145 22.83C25.2345 22.47 24.7245 22.02 24.3045 22.11C24.0045 22.17 23.6445 22.44 23.1945 22.92C22.7145 23.4 22.5045 23.76 22.5045 24.03C22.5045 24.27 22.7145 24.45 23.1645 24.54C23.4645 24.6 23.8245 24.42 24.2745 24C24.7845 23.55 25.0545 23.16 25.1145 22.83ZM24.0155 33.33C24.1355 37.05 27.1055 37.11 29.8955 34.62C30.1955 34.35 30.4055 33.81 29.6555 34.35C27.7355 35.73 25.1555 36.42 25.2455 32.67C25.3055 31.05 25.8155 28.8 26.4755 26.94C32.5355 25.8 38.4155 24.12 44.1155 21.96C52.4555 18.78 57.5555 15.42 59.4455 11.82C59.8055 11.1 60.0455 10.35 60.1055 9.6C60.3455 7.2 59.2955 5.07 57.0455 3.18C54.8555 1.29 52.2755 0.389999 49.3655 0.569997C40.8755 1.08 32.9555 9.75 25.5455 26.55V26.64C24.5555 28.95 23.9255 31.26 24.0155 33.33ZM58.8155 11.01C57.1955 14.34 52.9655 17.52 46.1255 20.52C40.4255 23.01 33.9155 24.99 26.6255 26.49C26.7455 26.28 26.8055 26.1 26.8955 25.89H26.8655C29.0555 20.79 31.6355 16.17 34.6355 11.97C39.6455 4.98 44.5655 1.29 49.3655 1.11C52.2155 0.989998 54.6455 1.8 56.6555 3.48C58.6355 5.1 59.5655 6.99 59.3255 9.09C59.2655 9.75 59.1155 10.38 58.8155 11.01ZM29.9334 33.33C30.0534 37.05 33.0234 37.11 35.8134 34.62C36.1134 34.35 36.3234 33.81 35.5734 34.35C33.6534 35.73 31.0734 36.42 31.1634 32.67C31.2234 31.05 31.7334 28.8 32.3934 26.94C34.1634 22.92 35.8434 20.01 38.2734 16.41C42.6234 10.44 45.7134 7.29 47.6034 6.9C47.8134 6.84 47.9034 6.81 47.9034 6.69C47.9034 6.54 47.8134 6.42 47.5734 6.42C47.0934 6.42 46.8234 6.6 45.8634 6.93C44.9034 7.29 44.3334 7.53 44.1834 7.71C41.4534 10.89 38.8134 13.89 36.8934 16.83C33.8634 21.51 29.6934 28.08 29.9334 33.33ZM41.5673 33.66C42.0173 33.21 42.0773 32.61 41.3873 33.3C40.3073 34.32 39.2273 35.07 37.7273 35.43C36.9473 35.61 35.7773 35.61 36.7673 33.6C38.2073 30.63 36.0173 34.74 40.0973 27.03C40.8773 25.56 39.0773 25.32 38.9273 26.28C38.8373 26.79 35.6873 32.46 35.6573 34.41C35.6273 35.88 37.4573 36.42 37.9073 36.21C39.6473 35.43 40.6073 34.62 41.5673 33.66ZM42.0773 22.83C42.1973 22.47 41.6873 22.02 41.2673 22.11C40.9673 22.17 40.6073 22.44 40.1573 22.92C39.6773 23.4 39.4673 23.76 39.4673 24.03C39.4673 24.27 39.6773 24.45 40.1273 24.54C40.4273 24.6 40.7873 24.42 41.2373 24C41.7473 23.55 42.0173 23.16 42.0773 22.83ZM54.6066 27.66C54.8166 27.39 54.5766 27.27 54.3966 27.54C53.9166 27.96 52.9566 28.5 52.1166 28.59C50.8266 28.74 48.3966 28.74 46.2066 28.74C48.1866 28.44 49.8666 27.63 50.4966 26.52C51.1566 25.35 50.1966 23.28 48.6966 23.85C45.9066 24.9 41.1366 29.76 40.9266 34.14C40.8666 35.7 42.7266 37.08 43.9266 36.87C45.3966 36.6 47.1066 35.58 47.9466 34.98C48.2766 34.74 48.0366 34.59 47.7066 34.77C46.6266 35.4 44.9766 36.06 43.6566 36.21C42.6366 36.33 41.5566 35.91 41.6466 34.14C41.7666 32.25 42.9966 30.45 43.8966 29.25C46.2966 29.25 50.7666 29.25 52.1166 29.04C53.2266 28.89 54.2166 28.08 54.6066 27.66ZM49.7766 26.25C48.8166 27.69 46.3266 28.74 44.2266 28.74C45.5766 27.27 47.1666 25.77 48.6366 24.93C49.8366 24.27 50.6166 24.96 49.7766 26.25ZM72.3459 13.62C72.7959 14.04 73.1859 14.4 73.4559 15C75.2259 18.69 69.4659 18.57 60.7659 15.12C54.2259 12.54 44.1459 9.9 41.2659 16.68C39.1659 21.54 40.6959 28.53 45.7359 31.62C48.2259 33.15 53.5959 31.32 54.1059 27.69C54.1059 27.45 53.6259 27.57 53.5959 27.69C52.5459 31.2 48.1959 32.58 45.3459 30.75C39.7059 27.15 39.1659 14.79 46.1859 13.71C56.0259 12.15 64.2759 19.35 71.7159 18.48C74.9259 18.12 74.8059 14.67 72.6159 13.41C72.2559 13.2 71.8359 13.2 72.3459 13.62ZM63.4359 17.55C62.8359 18.09 61.6359 19.2 60.5259 19.74C60.1959 19.8 60.0759 20.37 60.7059 20.07C61.3059 19.8 61.8159 19.65 61.4259 20.28C60.3759 21.87 59.4459 23.64 58.7859 25.02C58.4859 25.62 58.3359 25.65 57.8559 25.77C56.8659 26.01 56.4159 26.22 56.2959 26.7C56.2059 27.06 56.6259 26.64 57.1359 26.67C57.5259 26.67 57.9759 26.82 57.8259 27.3C56.6859 30.33 55.6359 35.61 55.8459 37.26C55.9359 38.19 56.6259 37.86 56.8959 36.93C56.9859 36.33 56.5959 36.63 56.5659 36.12C56.4159 33.75 57.7359 30 58.7259 27.3C58.8759 26.82 59.0559 26.67 59.5059 26.64C61.1559 26.58 65.6559 26.64 66.7959 26.28C67.4259 26.16 67.4859 25.95 66.8259 25.95C65.6859 25.95 62.0859 26.13 59.9559 25.77C59.4759 25.71 59.4759 25.68 59.6259 25.26C60.8859 22.26 63.3759 19.29 63.9159 18.57C64.4559 18 63.9159 17.13 63.4359 17.55ZM63.8473 35.61C65.1373 34.86 66.6373 33.75 68.3773 32.28C70.1173 30.78 71.4673 29.49 72.4273 28.35C72.4573 28.32 72.4873 28.29 72.5173 28.29C72.6973 28.29 72.6973 28.38 72.5473 28.62C71.8573 29.64 71.1973 30.9 70.5373 32.34C69.4573 34.71 68.1373 39 68.0773 40.68C68.0473 41.7 68.3173 42.54 69.0673 43.02C69.6973 43.41 70.5073 43.8 71.4673 43.8C72.0973 43.8 72.6673 43.68 73.2073 43.5C74.3173 43.11 75.6673 42.21 77.3173 40.86C79.0873 39.36 80.4073 37.77 81.3073 36.42C81.3973 36.27 81.4273 36.18 81.4273 36.09C81.4273 36.06 81.4273 36.03 81.3973 36C81.3073 36 81.2173 36.09 81.0373 36.3C80.0773 37.53 78.7573 39 77.1373 40.32C75.4573 41.67 74.0773 42.54 72.9973 42.9C72.3073 43.14 71.5573 43.26 70.8673 43.26C69.4273 43.26 68.5273 42.6 68.5273 41.25C68.5273 41.07 68.5273 40.89 68.5573 40.68C68.9173 38.37 70.5373 33.54 72.2173 30.72C73.2973 28.95 74.4673 27.18 75.6073 25.41C75.6373 25.32 75.4873 25.05 75.3373 25.05C75.2773 25.05 75.1873 25.08 75.1573 25.11C74.9773 25.32 74.7073 25.44 74.3773 25.5C74.2873 25.53 74.1073 25.5 73.8073 25.47C73.3273 25.32 72.8473 25.2 72.3673 25.2C71.9173 25.2 71.4973 25.29 71.1373 25.44C69.5773 26.04 67.7773 27.33 65.7373 29.34C63.5173 31.56 62.4073 33.39 62.4073 34.8C62.4073 35.52 62.6473 35.85 63.1573 35.85C63.3973 35.85 63.6073 35.76 63.8473 35.61ZM64.3273 33.06C64.8973 31.77 65.8273 30.36 67.1773 28.86C68.5873 27.3 69.7873 26.37 70.7473 26.13C70.9873 26.07 71.1973 26.04 71.4373 26.04C72.2473 26.04 72.8173 26.49 72.8173 26.94C72.8173 27.03 72.7873 27.09 72.7273 27.15C69.9073 30.51 67.4173 32.91 65.1973 34.32C65.0473 34.41 64.8673 34.47 64.7473 34.47C64.3873 34.47 64.2073 34.26 64.2073 33.75C64.2073 33.54 64.2373 33.3 64.3273 33.06ZM81.1929 36C75.2229 37.17 69.4929 38.85 63.9729 41.01C55.9329 44.19 51.1329 47.55 49.5729 51.15C49.2729 51.87 49.1229 52.62 49.1229 53.4C49.1229 55.77 50.3529 57.9 52.7529 59.79C55.1529 61.71 57.7929 62.58 60.6729 62.4C69.0729 61.86 76.2129 53.19 82.1229 36.36C84.4329 35.88 87.4029 35.64 91.0029 35.64C91.9329 35.64 92.6529 35.67 93.2229 35.7C94.2129 35.79 94.6929 36.21 94.6929 36.9C94.6929 37.77 94.0929 38.76 92.9229 39.87C92.7129 40.02 92.6229 40.17 92.6229 40.26C92.6229 40.29 92.6529 40.29 92.6829 40.29C92.7729 40.29 92.9229 40.23 93.1029 40.05C94.1229 39.24 94.7829 38.58 95.0529 38.07C95.1729 37.89 95.2329 37.65 95.2329 37.41C95.2329 36.39 94.1529 35.4 93.2829 35.22C92.7429 35.13 91.9929 35.04 91.0029 35.04C88.2729 35.04 85.3629 35.31 82.2729 35.88C83.1429 33.3 83.7729 31.29 84.1629 29.85C84.3429 29.49 84.4929 29.28 84.6429 29.1C84.7329 28.71 84.3429 28.26 83.6829 28.29C83.4129 28.32 83.1129 28.62 82.9329 28.98C82.3929 29.49 81.4329 30.21 80.1129 31.14C78.4329 32.31 77.1429 33.03 76.2129 33.39C76.0629 33.45 75.8529 33.45 75.6729 33.39C75.5229 33.33 75.4329 33.18 75.4329 33C75.4329 32.91 75.4629 32.76 75.5229 32.61C75.8829 31.89 76.4829 30.9 77.3229 29.67C78.2829 28.32 79.0029 27.51 79.4229 27.33C79.3929 27 79.2429 26.82 78.9429 26.85C78.7629 26.88 78.3129 27.06 77.6229 27.36C76.9329 27.66 76.5729 27.87 76.4829 28.02C76.3629 28.26 76.5129 28.95 76.4229 29.1C74.7429 32.13 73.8129 33.9 73.6929 34.32C73.6029 34.59 73.9029 34.95 74.2629 34.95C74.3529 34.95 74.4429 34.92 74.5329 34.89C75.6729 34.44 77.2029 33.57 79.1229 32.28C80.5929 31.29 81.8229 30.36 82.7829 29.52C82.7229 30.06 82.5429 30.99 82.2129 32.34C81.8529 33.87 81.5229 35.07 81.1929 36ZM50.3229 51.96C51.6429 48.63 55.5429 45.48 62.0829 42.48C67.5729 39.96 73.9029 37.98 81.0729 36.51C79.3329 41.85 77.1129 46.68 74.4129 51.03C70.0629 58.05 65.4429 61.68 60.6129 61.86C57.7929 61.98 55.3029 61.17 53.1129 59.49C51.0129 57.87 49.9329 56.01 49.9329 53.88C49.9329 53.22 50.0829 52.59 50.3229 51.96Z" fill="black"/>
</svg>
