<svg width="137" height="40" viewBox="0 0 137 40" fill="none" xmlns="http://www.w3.org/2000/svg">
<path d="M0.244499 32.8606C0.0814995 32.7954 0 32.6976 0 32.5672C0 32.4368 0.162999 32.3716 0.488998 32.3716H0.929095C1.25509 32.3716 1.61369 32.2412 2.00489 31.9804C2.36349 31.7522 2.72209 31.4588 3.08068 31.1002C3.40668 30.7416 3.71638 30.3668 4.00978 29.9756C4.30318 29.617 4.54768 29.3073 4.74328 29.0465C5.26487 28.2967 5.83537 27.3024 6.45477 26.0636C7.10676 24.7922 7.74246 23.423 8.36186 21.956C9.01385 20.4564 9.63325 18.9568 10.22 17.4572C10.8394 15.925 11.3773 14.5395 11.8337 13.3007C12.2901 12.0293 12.6487 10.9861 12.9095 10.1712C13.2029 9.35615 13.3659 8.89976 13.3985 8.80196C13.3985 8.47596 13.3822 8.14996 13.3496 7.82396C13.3496 7.49796 13.3496 7.17197 13.3496 6.84597C13.3496 6.45477 13.3333 5.98207 13.3007 5.42787C13.3007 4.87368 13.317 4.33578 13.3496 3.81418C13.4148 3.25998 13.5126 2.80359 13.643 2.44499C13.806 2.05379 14.0505 1.85819 14.3765 1.85819C14.5069 1.85819 14.6047 1.90709 14.6699 2.00489C14.7677 2.10269 14.8166 2.39609 14.8166 2.88509C14.8166 3.73268 14.784 4.43358 14.7188 4.98778C14.6862 5.54197 14.6373 6.03097 14.5721 6.45477C14.5069 6.84597 14.4417 7.20456 14.3765 7.53056C14.3113 7.82396 14.2461 8.13366 14.1809 8.45966C14.2135 10.0897 14.295 11.687 14.4254 13.2518C14.5884 14.8166 14.784 16.3814 15.0122 17.9462C15.11 18.5982 15.2241 19.3154 15.3545 20.0978C15.4849 20.8802 15.6479 21.6789 15.8435 22.4939C16.0391 23.2763 16.2673 24.0587 16.5281 24.8411C16.7889 25.6235 17.0823 26.3081 17.4083 26.8949C17.6365 27.2535 17.9136 27.5795 18.2396 27.8729C18.5982 28.1337 18.9405 28.4271 19.2665 28.7531C19.6251 28.6879 20 28.639 20.3912 28.6064C20.7824 28.5738 21.1573 28.4597 21.5159 28.2641C22.2657 27.8729 22.9829 27.2372 23.6675 26.357C24.3521 25.4768 24.8737 24.6781 25.2323 23.9609C25.6887 23.0155 26.0147 22.0701 26.2103 21.1247C26.4385 20.1467 26.5526 19.1361 26.5526 18.0929C26.5526 15.7783 26.1125 13.4963 25.2323 11.2469C24.3847 8.99756 23.4067 6.89487 22.2983 4.93888C22.2657 4.84108 22.1353 4.58028 21.9071 4.15648C21.6789 3.70008 21.4181 3.21109 21.1247 2.68949C20.8313 2.16789 20.5542 1.67889 20.2934 1.2225C20.0326 0.766098 19.8533 0.488999 19.7555 0.391199C19.7555 0.358599 19.7392 0.3423 19.7066 0.3423C19.7066 0.3097 19.7066 0.2771 19.7066 0.244499C19.7066 0.0814995 19.7881 0 19.9511 0C20.1793 0 20.3586 0.195599 20.489 0.586798C20.652 0.977995 20.7824 1.27139 20.8802 1.46699C21.63 2.77099 22.3798 4.05868 23.1296 5.33007C23.912 6.60147 24.5966 7.92176 25.1834 9.29095C25.8028 10.6601 26.3081 12.1271 26.6993 13.6919C27.0905 15.2241 27.2861 16.903 27.2861 18.7286C27.2861 19.7718 27.172 20.7987 26.9438 21.8093C26.7156 22.7873 26.3407 23.6838 25.8191 24.4988C25.4931 25.053 25.1345 25.6398 24.7433 26.2592C24.3847 26.846 23.9609 27.4002 23.4719 27.9218C22.9829 28.4434 22.4287 28.8672 21.8093 29.1932C21.2225 29.5518 20.5379 29.7311 19.7555 29.7311C19.1035 29.7311 18.5004 29.5355 17.9462 29.1443C17.392 28.7857 16.9519 28.1826 16.6259 27.335C16.3651 26.683 16.0717 26.0147 15.7457 25.3301C15.4523 24.6455 15.2404 23.9446 15.11 23.2274C14.8492 21.9886 14.6373 20.9943 14.4743 20.2445C14.3113 19.4621 14.1646 18.7449 14.0342 18.0929C13.9364 17.4083 13.8386 16.6748 13.7408 15.8924C13.6756 15.11 13.6104 14.0668 13.5452 12.7628L13.4474 11.0513C13.2192 11.7359 12.9095 12.5998 12.5183 13.643C12.1271 14.6536 11.687 15.762 11.198 16.9682C10.709 18.1418 10.1874 19.3643 9.63325 20.6357C9.11165 21.8745 8.57376 23.0644 8.01956 24.2054C7.49796 25.3138 6.99266 26.3407 6.50367 27.2861C6.01467 28.1989 5.59087 28.8998 5.23227 29.3888C5.10187 29.5518 4.90628 29.7963 4.64548 30.1223C4.35208 30.4809 4.04238 30.8394 3.71638 31.198C3.35778 31.5566 2.99918 31.8826 2.64059 32.176C2.28199 32.4694 1.95599 32.665 1.66259 32.7628C1.43439 32.828 1.20619 32.8443 0.977995 32.8117C0.717196 32.8117 0.472698 32.828 0.244499 32.8606Z" fill="black"/>
<path d="M34.3074 23.7653C34.3074 23.9283 34.2422 24.0098 34.1118 24.0098C33.9488 24.0098 33.7695 23.8957 33.5739 23.6675C33.3783 23.4067 33.1012 23.2763 32.7426 23.2763C32.384 23.2763 31.9928 23.3578 31.569 23.5208C31.1778 23.6838 30.8029 23.8957 30.4443 24.1565C30.0857 24.4173 29.7923 24.7107 29.5641 25.0367C29.3359 25.3301 29.2218 25.6235 29.2218 25.9169C29.2218 26.1125 29.2707 26.2266 29.3685 26.2592C29.4663 26.2918 29.5804 26.3081 29.7108 26.3081C30.0368 26.3081 30.3465 26.2592 30.6399 26.1614C30.9659 26.0636 31.2593 25.9821 31.5201 25.9169C32.2047 25.7213 32.7589 25.6235 33.1827 25.6235C33.6065 25.6235 33.8836 25.7213 34.014 25.9169C34.177 26.0799 34.2748 26.3081 34.3074 26.6015C34.34 26.8949 34.3563 27.2209 34.3563 27.5795C34.3889 27.9381 34.4867 28.2804 34.6497 28.6064C34.6823 28.639 34.6986 28.6879 34.6986 28.7531C34.6986 28.9487 34.6334 29.0465 34.503 29.0465C34.3074 29.0465 34.1607 28.8998 34.0629 28.6064C33.9977 28.3456 33.9325 28.0522 33.8673 27.7262C33.8347 27.3676 33.7695 27.0579 33.6717 26.7971C33.5739 26.5037 33.4109 26.357 33.1827 26.357C32.9545 26.357 32.6937 26.4059 32.4003 26.5037C32.1069 26.6015 31.7972 26.6993 31.4712 26.7971C31.1452 26.8949 30.8029 26.9927 30.4443 27.0905C30.1183 27.1883 29.8086 27.2372 29.5152 27.2372C29.1892 27.2372 28.8958 27.1557 28.635 26.9927C28.3742 26.8297 28.2438 26.5037 28.2438 26.0147C28.2438 25.5909 28.3742 25.1834 28.635 24.7922C28.9284 24.3684 29.287 24.0098 29.7108 23.7164C30.1346 23.3904 30.6073 23.1296 31.1289 22.934C31.6505 22.7384 32.1395 22.6406 32.5959 22.6406C32.9545 22.6406 33.2805 22.7221 33.5739 22.8851C33.8999 23.0481 34.1444 23.3252 34.3074 23.7164V23.7653Z" fill="black"/>
<path d="M36.5805 8.80196C36.6457 8.31296 36.7435 7.66096 36.8738 6.84597C37.0368 5.99837 37.2161 5.18338 37.4117 4.40098C37.6399 3.58598 37.917 2.88509 38.243 2.29829C38.569 1.71149 38.9602 1.4181 39.4166 1.4181C39.9708 1.4181 40.4924 1.79299 40.9814 2.54279C41.503 3.25998 41.9594 4.14018 42.3506 5.18337C42.7418 6.22657 43.0515 7.33496 43.2797 8.50856C43.5405 9.64955 43.6709 10.6438 43.6709 11.4914C43.6709 13.8386 43.1167 15.9576 42.0083 17.8484C40.9325 19.7066 39.221 21.2714 36.8738 22.5428C36.8738 22.771 36.8902 22.9503 36.9228 23.0807C36.9554 23.2111 36.9716 23.3252 36.9716 23.423C37.0042 23.5208 37.0368 23.6349 37.0695 23.7653C37.1021 23.8957 37.1184 24.0587 37.1184 24.2543V24.6944C37.5096 24.401 38.0474 24.1565 38.732 23.9609C39.4492 23.7653 40.1827 23.6675 40.9325 23.6675C41.2259 23.6675 41.5356 23.7001 41.8616 23.7653C42.2202 23.7979 42.5462 23.8794 42.8396 24.0098C43.1656 24.1076 43.4264 24.238 43.622 24.401C43.8176 24.5314 43.9154 24.6944 43.9154 24.89C43.9154 24.89 43.8828 24.9552 43.8176 25.0856C43.5568 25.4442 43.1656 25.8191 42.644 26.2103C42.155 26.5689 41.6171 26.9112 41.0303 27.2372C40.4761 27.5632 39.9056 27.824 39.3188 28.0196C38.732 28.2152 38.2104 28.313 37.754 28.313C37.428 28.313 37.265 28.2315 37.265 28.0685C37.265 27.9055 37.3465 27.824 37.5095 27.824H37.6073C37.9333 27.824 38.3734 27.7262 38.9276 27.5306C39.4818 27.3024 40.036 27.0416 40.5902 26.7482C41.177 26.4222 41.7149 26.0962 42.2039 25.7702C42.6929 25.4116 43.0189 25.1182 43.1819 24.89C42.9211 24.4988 42.2854 24.3032 41.2748 24.3032C40.4598 24.3032 39.6285 24.401 38.7809 24.5966C37.9659 24.7922 37.428 25.0204 37.1673 25.2812C37.0695 25.4442 37.0205 25.7376 37.0205 26.1614C37.0205 26.2592 37.0205 26.4059 37.0205 26.6015C37.0532 26.7645 37.0695 26.9438 37.0695 27.1394C37.0695 27.5632 37.0206 28.0359 36.9228 28.5575C36.8576 29.1117 36.6619 29.3888 36.336 29.3888C36.1404 29.3888 35.9937 29.3073 35.8959 29.1443C35.8307 28.9813 35.7818 28.7857 35.7492 28.5575C35.7166 28.3293 35.7003 28.1011 35.7003 27.8729C35.7329 27.6121 35.7492 27.4165 35.7492 27.2861C35.7492 26.5689 35.7818 25.9495 35.847 25.4279C35.9448 24.9063 35.9937 24.238 35.9937 23.423V22.934C35.8307 23.0318 35.6351 23.0807 35.4069 23.0807C35.3743 23.0807 35.3091 23.0481 35.2113 22.9829C35.1461 22.9177 35.1135 22.8362 35.1135 22.7384C35.1135 22.6732 35.1461 22.608 35.2113 22.5428C35.3091 22.445 35.3906 22.3961 35.4558 22.3961C35.5536 22.3961 35.6351 22.445 35.7003 22.5428C35.8307 22.5428 35.9122 22.5102 35.9448 22.445C35.9448 22.0538 35.9285 21.6626 35.8959 21.2714C35.8959 20.8476 35.8959 20.4401 35.8959 20.0489C35.8959 18.2233 35.9448 16.3651 36.0426 14.4743C36.173 12.5835 36.3523 10.6927 36.5805 8.80196ZM37.7051 21.1736C39.4655 19.9674 40.7858 18.4352 41.666 16.577C42.5462 14.7188 42.9863 12.7791 42.9863 10.7579C42.9863 9.09536 42.6929 7.49796 42.1061 5.96577C41.5519 4.43358 40.7043 3.08069 39.5633 1.90709C38.6831 2.88509 38.1289 3.96088 37.9007 5.13448C37.7051 6.30807 37.5258 7.54686 37.3629 8.85086C37.1999 10.5786 37.0695 12.2901 36.9716 13.9853C36.9064 15.6805 36.8738 17.392 36.8738 19.1198V21.0758V21.3203V21.7604L37.7051 21.1736Z" fill="black"/>
<path d="M45.6445 23.5697C45.5793 23.5045 45.5467 23.4393 45.5467 23.3741C45.5467 23.2111 45.6445 23.1296 45.8401 23.1296C46.0031 23.1296 46.1335 23.2111 46.2313 23.3741C46.3617 23.5371 46.4595 23.7327 46.5247 23.9609C46.5899 24.1565 46.6388 24.3847 46.6714 24.6455C46.704 24.8737 46.7203 25.0856 46.7203 25.2812C46.7203 25.7376 46.6877 26.2266 46.6225 26.7482C46.5573 27.2372 46.4758 27.7099 46.378 28.1663C46.2802 28.6227 46.1824 28.9976 46.0846 29.291C45.9868 29.5844 45.889 29.7311 45.7912 29.7311C45.6282 29.7311 45.5304 29.5844 45.4978 29.291C45.4978 28.9976 45.4978 28.7368 45.4978 28.5086C45.4978 27.8892 45.5304 27.2861 45.5956 26.6993C45.6608 26.0799 45.726 25.4605 45.7912 24.8411V25.0856C45.8238 24.9552 45.8401 24.7107 45.8401 24.3521C45.8401 24.1891 45.8238 24.0424 45.7912 23.912C45.7586 23.749 45.7097 23.6349 45.6445 23.5697ZM46.3291 21.5648C46.2313 21.6626 46.1661 21.7115 46.1335 21.7115C45.9379 21.7115 45.8401 21.6137 45.8401 21.4181V21.3203C45.6119 21.2225 45.4978 21.0921 45.4978 20.9291C45.4978 20.7987 45.5467 20.6683 45.6445 20.5379C45.7423 20.4075 45.8727 20.3423 46.0357 20.3423C46.1009 20.3423 46.215 20.4075 46.378 20.5379C46.541 20.6357 46.6225 20.7335 46.6225 20.8313C46.6225 20.8965 46.541 21.0106 46.378 21.1736C46.4106 21.1736 46.4269 21.2062 46.4269 21.2714C46.4269 21.3366 46.4106 21.4018 46.378 21.467L46.3291 21.5648Z" fill="black"/>
<path d="M47.9172 26.0147C47.7542 26.0147 47.6727 25.9332 47.6727 25.7702C47.6727 25.5746 47.8357 25.4442 48.1617 25.379C48.5203 25.2812 48.7811 25.1671 48.9441 25.0367L49.2375 24.7433C48.9441 23.2763 48.7322 21.7767 48.6018 20.2445C48.4714 18.6797 48.4062 17.2779 48.4062 16.0391C48.4062 15.7783 48.4062 15.5338 48.4062 15.3056C48.4062 15.0774 48.4225 14.8492 48.4551 14.621C48.4551 14.3602 48.4714 13.8223 48.504 13.0073C48.5366 12.1923 48.5855 11.3284 48.6507 10.4156C48.7159 9.47025 48.8137 8.59006 48.9441 7.77506C49.0745 6.92747 49.2538 6.34067 49.482 6.01467C49.7102 5.72127 49.971 5.36267 50.2644 4.93888C50.5904 4.48248 50.8512 4.25428 51.0468 4.25428C51.275 4.25428 51.5684 4.43358 51.9269 4.79218C52.3181 5.15077 52.6278 5.44417 52.856 5.67237C53.4428 6.45477 53.8829 7.44906 54.1763 8.65526C54.5023 9.86145 54.6653 10.9535 54.6653 11.9315C54.6653 13.0399 54.5186 14.1646 54.2252 15.3056C53.9644 16.414 53.6058 17.5224 53.1494 18.6308C52.7257 19.7066 52.2204 20.7661 51.6336 21.8093C51.0794 22.8525 50.5089 23.8631 49.9221 24.8411C50.2155 26.4711 50.7045 27.987 51.389 29.3888C51.6498 29.8778 51.9596 30.3179 52.3181 30.7091C52.6767 31.1002 53.0353 31.524 53.3939 31.9804V32.0782C53.3939 32.2412 53.3287 32.3227 53.1983 32.3227C53.1005 32.3227 52.9375 32.2086 52.7094 31.9804C52.4812 31.7848 52.2529 31.5403 52.0247 31.2469C51.7966 30.9535 51.5684 30.6439 51.3402 30.3179C51.1446 30.0245 50.9979 29.7963 50.9001 29.6333C50.5415 29.1117 50.2318 28.4923 49.971 27.7751C49.7428 27.0253 49.5309 26.2103 49.3353 25.3301L49.2375 25.4279C49.0745 25.5583 48.8789 25.6561 48.6507 25.7213C48.4225 25.7865 48.178 25.8843 47.9172 26.0147ZM49.3353 14.7188C49.3027 15.0774 49.2864 15.4523 49.2864 15.8435C49.2864 16.2347 49.2864 16.6259 49.2864 17.0171C49.2864 18.1581 49.319 19.348 49.3842 20.5868C49.4494 21.793 49.5961 22.9829 49.8243 24.1565C50.2807 23.2763 50.7371 22.3309 51.1935 21.3203C51.6825 20.3097 52.1226 19.2665 52.5137 18.1907C52.9049 17.1149 53.2146 16.0391 53.4428 14.9633C53.7036 13.8549 53.834 12.7791 53.834 11.7359C53.834 10.5297 53.6221 9.38875 53.1983 8.31296C52.7745 7.23716 52.09 6.25917 51.1446 5.37897C50.6882 6.03097 50.3296 6.74817 50.0688 7.53056C49.8406 8.28036 49.6776 9.06276 49.5798 9.87775C49.482 10.6927 49.4168 11.524 49.3842 12.3716C49.3516 13.1866 49.3353 13.969 49.3353 14.7188Z" fill="black"/>
<path d="M89.0499 3.61858C88.8543 3.61858 88.7565 3.53708 88.7565 3.37408C88.7565 3.34148 88.8054 3.27628 88.9032 3.17848C90.0768 2.78729 90.6636 2.51019 90.6636 2.34719C90.6636 2.24939 90.3539 2.15159 89.7345 2.05379C89.1477 1.95599 88.4631 1.87449 87.6807 1.80929C86.9309 1.74409 86.2137 1.69519 85.5291 1.66259C84.8445 1.62999 84.4044 1.61369 84.2088 1.61369C83.3612 1.61369 82.1876 1.64629 80.688 1.71149C79.221 1.77669 77.6073 1.93969 75.847 2.20049C74.0866 2.46129 72.2936 2.83619 70.468 3.32518C68.675 3.81418 67.0287 4.46618 65.5291 5.28117C64.0621 6.09617 62.8559 7.12307 61.9105 8.36186C60.9977 9.56805 60.5413 11.035 60.5413 12.7628C60.5413 13.9038 60.8021 14.8981 61.3237 15.7457C61.8779 16.5933 62.5788 17.3431 63.4264 17.9951C64.3066 18.6145 65.2683 19.1524 66.3115 19.6088C67.3873 20.0326 68.4631 20.3912 69.5389 20.6846C70.7777 21.0106 72.0328 21.2877 73.3042 21.5159C74.5756 21.7115 75.8469 21.9071 77.1183 22.1027C78.3897 22.2983 79.6448 22.5102 80.8836 22.7384C82.155 22.934 83.4101 23.1948 84.6489 23.5208C85.3987 23.7164 86.1648 23.9609 86.9472 24.2543C87.7622 24.5151 88.5283 24.8411 89.2455 25.2323C89.9953 25.6235 90.6636 26.0962 91.2504 26.6504C91.8698 27.2046 92.3588 27.8729 92.7174 28.6553C92.8478 28.9487 92.913 29.2584 92.913 29.5844C92.913 30.1386 92.75 30.6928 92.424 31.2469C92.098 31.8337 91.7068 32.3879 91.2504 32.9095C90.794 33.4637 90.305 33.9364 89.7834 34.3276C89.2944 34.7514 88.8706 35.0611 88.512 35.2567C86.23 36.5607 84.0784 37.555 82.0572 38.2396C80.036 38.9242 77.9007 39.2665 75.6514 39.2665C74.7712 39.2665 73.8747 39.2013 72.9619 39.0709C72.0817 38.9731 71.1526 38.8264 70.1746 38.6308C69.3596 38.3374 68.5772 37.9299 67.8274 37.4083C67.1102 36.8867 66.7516 36.251 66.7516 35.5012C66.7516 34.9796 66.9309 34.4906 67.2895 34.0342C67.4851 33.8386 67.8274 33.6756 68.3164 33.5452C68.838 33.4148 69.3922 33.3007 69.979 33.2029C70.5658 33.1377 71.1363 33.0725 71.6905 33.0073C72.2447 32.9421 72.6848 32.8932 73.0108 32.8606C75.1624 32.665 77.3302 32.5672 79.5144 32.5672C81.177 32.5672 82.8233 32.6324 84.4533 32.7628C86.0833 32.8932 87.7296 33.0888 89.3922 33.3496C89.4248 33.3496 89.4737 33.3822 89.5389 33.4474C90.1257 32.9258 90.6636 32.3227 91.1526 31.6381C91.6742 30.9535 91.935 30.269 91.935 29.5844C91.935 28.802 91.6416 28.1337 91.0548 27.5795C90.5006 26.9927 89.816 26.5037 89.001 26.1125C88.186 25.6887 87.3547 25.3464 86.5071 25.0856C85.6595 24.8248 84.9749 24.6129 84.4533 24.4499C83.6383 24.2217 82.8233 24.0424 82.0083 23.912C81.1933 23.749 80.3783 23.6023 79.5633 23.4719C78.5853 23.3089 77.4117 23.1296 76.0425 22.934C74.706 22.7384 73.3042 22.4939 71.8372 22.2005C70.3702 21.9071 68.9195 21.5322 67.4851 21.0758C66.0833 20.6194 64.8119 20.0326 63.6709 19.3154C62.5299 18.5656 61.6008 17.6691 60.8836 16.6259C60.199 15.5827 59.8567 14.3113 59.8567 12.8117C59.8567 11.1817 60.2316 9.76365 60.9814 8.55746C61.7312 7.31866 62.7255 6.25917 63.9643 5.37897C65.2031 4.49878 66.6212 3.78158 68.2186 3.22739C69.8486 2.64059 71.5438 2.18419 73.3042 1.85819C75.0646 1.53219 76.8249 1.30399 78.5853 1.17359C80.3783 1.0432 82.0409 0.977997 83.5731 0.977997C83.9643 0.977997 84.5837 1.0106 85.4313 1.0758C86.2789 1.10839 87.1265 1.17359 87.9741 1.27139C88.8217 1.36919 89.5715 1.48329 90.2235 1.61369C90.8755 1.74409 91.2015 1.89079 91.2015 2.05379C91.2015 2.21679 91.1037 2.37979 90.9081 2.54279C90.7451 2.70579 90.5332 2.86879 90.2724 3.03179C90.0442 3.16219 89.7997 3.29258 89.5389 3.42298C89.3107 3.52078 89.1477 3.58598 89.0499 3.61858ZM88.023 34.4743C88.186 34.4091 88.349 34.3113 88.512 34.1809C88.675 34.0505 88.8543 33.9364 89.0499 33.8386C87.5503 33.5778 86.067 33.3985 84.6 33.3007C83.133 33.2029 81.6497 33.154 80.1501 33.154C78.9113 33.154 77.6562 33.1866 76.3848 33.2518C75.1461 33.317 73.891 33.4148 72.6196 33.5452C72.6848 33.5452 72.8315 33.5289 73.0597 33.4963C73.3205 33.4963 73.4672 33.4963 73.4998 33.4963C73.1086 33.5615 72.5544 33.6267 71.8372 33.6919C71.1526 33.7571 70.468 33.8549 69.7834 33.9853C69.0988 34.1157 68.4957 34.2787 67.9741 34.4743C67.4851 34.7025 67.2406 34.9959 67.2406 35.3545C67.2406 35.8761 67.534 36.3325 68.1208 36.7237C68.7076 37.1149 69.4248 37.4246 70.2724 37.6528C71.12 37.9136 72.0165 38.0929 72.9619 38.1907C73.9073 38.3211 74.7549 38.3863 75.5047 38.3863C76.9064 38.3863 78.2919 38.2559 79.6611 37.9951C81.0303 37.7343 82.2691 37.392 83.3775 36.9682C84.2251 36.6422 85.0238 36.251 85.7736 35.7946C86.5234 35.3708 87.2732 34.9307 88.023 34.4743Z" fill="black"/>
<path d="M91.914 25.9658C91.8814 25.9332 91.8651 25.868 91.8651 25.7702C91.8651 25.6072 91.9466 25.5257 92.1096 25.5257C92.24 25.5257 92.403 25.5746 92.5985 25.6724C92.7942 25.7702 93.0224 25.8191 93.2831 25.8191C93.544 25.8191 93.8373 25.7865 94.1633 25.7213C94.4893 25.6235 94.8316 25.5257 95.1902 25.4279C95.6792 24.5151 96.2334 23.749 96.8528 23.1296C97.4722 22.5102 98.0916 22.2005 98.711 22.2005C98.9066 22.2005 99.1185 22.2657 99.3467 22.3961C99.5749 22.5265 99.689 22.7384 99.689 23.0318C99.689 23.6838 99.2815 24.2543 98.4665 24.7433C97.6841 25.2323 96.7713 25.6561 95.7281 26.0147C95.5325 26.3081 95.4347 26.6341 95.4347 26.9927C95.4347 27.6447 95.8911 27.9707 96.8039 27.9707C97.2929 27.9707 97.7982 27.9055 98.3198 27.7751C98.874 27.6121 99.2652 27.498 99.4934 27.4328L101.449 26.7482H101.498C101.661 26.7482 101.743 26.8297 101.743 26.9927C101.743 27.1231 101.531 27.2861 101.107 27.4817C100.716 27.6773 100.243 27.8729 99.689 28.0685C99.1674 28.2315 98.6295 28.3782 98.0753 28.5086C97.5537 28.639 97.1462 28.7042 96.8528 28.7042C96.0052 28.7042 95.4184 28.5901 95.0924 28.3619C94.7664 28.1011 94.6034 27.7425 94.6034 27.2861C94.6034 27.1231 94.6198 26.9601 94.6523 26.7971C94.6849 26.6341 94.7338 26.4548 94.799 26.2592C94.31 26.357 93.8699 26.4059 93.4788 26.4059C92.8594 26.4059 92.3378 26.2592 91.914 25.9658ZM97.7819 23.5697C97.3581 23.8957 96.8854 24.3684 96.3638 24.9878L97.2929 24.5477C97.7167 24.2543 97.9775 24.0424 98.0753 23.912C98.2057 23.749 98.4176 23.4882 98.711 23.1296H98.6621C98.6295 23.1296 98.6132 23.1296 98.6132 23.1296C98.6132 23.097 98.5969 23.0807 98.5643 23.0807C98.3687 23.0807 98.1079 23.2437 97.7819 23.5697ZM98.8577 23.2274L98.8088 23.1785C98.8414 23.2111 98.8577 23.2274 98.8577 23.2274Z" fill="black"/>
<path d="M102.943 23.3252C102.943 23.1296 103.025 23.0318 103.188 23.0318C103.318 23.0318 103.383 23.097 103.383 23.2274C103.448 24.401 103.579 25.216 103.774 25.6724C104.003 26.0962 104.296 26.3081 104.655 26.3081C105.046 26.3081 105.502 26.1451 106.024 25.8191C106.545 25.4605 107.132 25.0856 107.784 24.6944C108.012 24.7596 108.224 24.9226 108.42 25.1834C108.616 25.4116 108.779 25.6724 108.909 25.9658C109.072 26.2592 109.202 26.5526 109.3 26.846C109.398 27.1394 109.479 27.3676 109.545 27.5306C109.708 28.0848 109.822 28.639 109.887 29.1932C109.985 29.78 110.034 30.3994 110.034 31.0513C110.034 32.0945 109.903 33.154 109.642 34.2298C109.414 35.3056 109.056 36.2673 108.567 37.1149C108.078 37.9625 107.475 38.6471 106.757 39.1687C106.04 39.7229 105.209 40 104.263 40C102.959 40 101.867 39.4784 100.987 38.4352C100.955 38.37 100.938 38.3048 100.938 38.2396C100.938 38.0766 101.02 37.9951 101.183 37.9951C101.248 37.9951 101.297 37.9951 101.329 37.9951C101.329 38.0277 101.346 38.044 101.378 38.044C101.737 38.5004 102.144 38.8101 102.601 38.9731C103.057 39.1687 103.53 39.2665 104.019 39.2665C104.834 39.2665 105.551 39.0383 106.171 38.5819C106.823 38.1255 107.36 37.5061 107.784 36.7237C108.208 35.9413 108.518 35.0285 108.713 33.9853C108.942 32.9747 109.056 31.9152 109.056 30.8069C109.056 29.7963 108.925 28.8346 108.664 27.9218C108.436 26.9764 108.045 26.1777 107.491 25.5257C107.165 25.6887 106.839 25.8843 106.513 26.1125C106.219 26.3407 105.926 26.5689 105.633 26.7971C105.372 27.0253 105.127 27.2209 104.899 27.3839C104.671 27.5143 104.475 27.5795 104.312 27.5795C104.019 27.5795 103.774 27.4491 103.579 27.1883C103.416 26.9275 103.285 26.6015 103.188 26.2103C103.09 25.8191 103.025 25.3953 102.992 24.9389C102.959 24.4825 102.943 24.075 102.943 23.7164V23.3252Z" fill="black"/>
<path d="M111.115 23.5697C111.05 23.5045 111.017 23.4393 111.017 23.3741C111.017 23.2111 111.115 23.1296 111.31 23.1296C111.473 23.1296 111.604 23.2111 111.702 23.3741C111.832 23.5371 111.93 23.7327 111.995 23.9609C112.06 24.1565 112.109 24.3847 112.142 24.6455C112.174 24.8737 112.191 25.0856 112.191 25.2812C112.191 25.7376 112.158 26.2266 112.093 26.7482C112.028 27.2372 111.946 27.7099 111.848 28.1663C111.75 28.6227 111.653 28.9976 111.555 29.291C111.457 29.5844 111.359 29.7311 111.261 29.7311C111.098 29.7311 111.001 29.5844 110.968 29.291C110.968 28.9976 110.968 28.7368 110.968 28.5086C110.968 27.8892 111.001 27.2861 111.066 26.6993C111.131 26.0799 111.196 25.4605 111.261 24.8411V25.0856C111.294 24.9552 111.31 24.7107 111.31 24.3521C111.31 24.1891 111.294 24.0424 111.261 23.912C111.229 23.749 111.18 23.6349 111.115 23.5697ZM111.799 21.5648C111.702 21.6626 111.636 21.7115 111.604 21.7115C111.408 21.7115 111.31 21.6137 111.31 21.4181V21.3203C111.082 21.2225 110.968 21.0921 110.968 20.9291C110.968 20.7987 111.017 20.6683 111.115 20.5379C111.213 20.4075 111.343 20.3423 111.506 20.3423C111.571 20.3423 111.685 20.4075 111.848 20.5379C112.011 20.6357 112.093 20.7335 112.093 20.8313C112.093 20.8965 112.011 21.0106 111.848 21.1736C111.881 21.1736 111.897 21.2062 111.897 21.2714C111.897 21.3366 111.881 21.4018 111.848 21.467L111.799 21.5648Z" fill="black"/>
<path d="M116.81 23.2274C116.973 23.1948 117.12 23.1785 117.251 23.1785C117.414 23.1459 117.577 23.1133 117.74 23.0807C117.511 21.5811 117.299 20.0978 117.104 18.6308C116.941 17.1312 116.827 15.6153 116.762 14.0831C116.696 13.6919 116.631 13.0236 116.566 12.0782C116.501 11.1328 116.468 10.1712 116.468 9.19315C116.468 8.73676 116.484 8.28036 116.517 7.82396C116.55 7.36756 116.599 6.96007 116.664 6.60147C116.729 6.24287 116.827 5.94947 116.957 5.72127C117.088 5.49307 117.251 5.37897 117.446 5.37897C117.707 5.37897 117.951 5.54197 118.18 5.86797C118.408 6.19397 118.62 6.58517 118.815 7.04157C119.011 7.49796 119.19 7.97066 119.353 8.45966C119.516 8.91606 119.647 9.25836 119.744 9.48656C120.494 11.0839 121.163 12.7139 121.749 14.3765C122.336 16.0065 122.629 17.6365 122.629 19.2665C122.629 20.4401 122.418 21.5811 121.994 22.6895C121.603 23.7979 120.934 24.8737 119.989 25.9169L119.06 26.8949C119.386 28.8183 119.907 30.5297 120.625 32.0293C121.342 33.5289 122.532 34.8818 124.194 36.088C124.259 36.1532 124.292 36.2184 124.292 36.2836C124.292 36.4466 124.194 36.5281 123.999 36.5281H123.803C122.955 35.9087 122.238 35.2567 121.652 34.5721C121.065 33.9201 120.576 33.2029 120.185 32.4205C119.793 31.6707 119.467 30.872 119.207 30.0245C118.946 29.2095 118.718 28.3293 118.522 27.3839C118.163 27.6773 117.756 27.9218 117.299 28.1174C116.876 28.313 116.419 28.4108 115.93 28.4108C115.343 28.4108 114.806 28.2478 114.317 27.9218C113.86 27.5632 113.632 27.1068 113.632 26.5526C113.632 26.1288 113.73 25.7376 113.925 25.379C114.121 25.0204 114.365 24.7107 114.659 24.4499C114.985 24.1565 115.327 23.912 115.686 23.7164C116.077 23.4882 116.452 23.3252 116.81 23.2274ZM119.647 24.3032C119.647 24.4662 119.549 24.5477 119.353 24.5477C119.255 24.5477 119.141 24.4173 119.011 24.1565C118.881 23.8631 118.734 23.6838 118.571 23.6186L118.864 26.0147L119.451 25.4279C120.266 24.4825 120.837 23.5045 121.162 22.4939C121.521 21.4833 121.7 20.4401 121.7 19.3643C121.7 17.7669 121.407 16.1532 120.82 14.5232C120.233 12.8932 119.581 11.3284 118.864 9.82885C118.669 9.43765 118.489 8.98126 118.326 8.45966C118.163 7.90546 117.951 7.40016 117.691 6.94377C117.593 7.62836 117.528 8.29666 117.495 8.94866C117.462 9.60065 117.446 10.2527 117.446 10.9046C117.446 12.665 117.544 14.4091 117.74 16.1369C117.935 17.8321 118.131 19.5599 118.326 21.3203L118.522 23.1296C119.011 23.1948 119.386 23.5534 119.647 24.2054V24.3032ZM118.033 24.9389C117.968 24.7107 117.919 24.4988 117.886 24.3032C117.886 24.075 117.87 23.8468 117.837 23.6186C117.479 23.6512 117.088 23.749 116.664 23.912C116.273 24.0424 115.898 24.2217 115.539 24.4499C115.213 24.6781 114.936 24.9552 114.708 25.2812C114.48 25.6072 114.365 25.9495 114.365 26.3081C114.365 26.7319 114.512 27.0742 114.806 27.335C115.099 27.5958 115.474 27.7262 115.93 27.7262C116.354 27.7262 116.778 27.6121 117.202 27.3839C117.625 27.1231 118.017 26.846 118.375 26.5526L118.033 24.9389Z" fill="black"/>
<path d="M130.758 23.6186C130.79 23.6512 130.806 23.6838 130.806 23.7164C130.806 23.912 130.741 24.0098 130.611 24.0098C130.513 24.0098 130.415 23.9609 130.317 23.8631C130.057 23.5045 129.535 23.3252 128.753 23.3252C128.296 23.3252 127.791 23.4067 127.237 23.5697C126.683 23.7001 126.161 23.8794 125.672 24.1076C125.183 24.3358 124.775 24.5966 124.449 24.89C124.123 25.1508 123.96 25.4279 123.96 25.7213C123.96 26.0147 124.042 26.2592 124.205 26.4548C124.401 26.6504 124.629 26.7971 124.89 26.8949C125.183 26.9927 125.476 27.0742 125.77 27.1394C126.096 27.172 126.405 27.1883 126.699 27.1883C127.481 27.1883 128.264 27.0742 129.046 26.846C129.861 26.5852 130.529 26.2755 131.051 25.9169C131.051 25.7213 130.855 25.5257 130.464 25.3301C130.073 25.1345 129.633 24.9552 129.144 24.7922C128.655 24.5966 128.215 24.4173 127.824 24.2543C127.432 24.0913 127.237 23.9609 127.237 23.8631C127.237 23.7327 127.318 23.6675 127.481 23.6675C127.612 23.6675 127.872 23.7164 128.264 23.8142C128.687 23.912 129.128 24.0424 129.584 24.2054C130.04 24.3358 130.464 24.4988 130.855 24.6944C131.247 24.8574 131.507 25.0041 131.638 25.1345C131.703 25.2323 131.736 25.4116 131.736 25.6724C131.768 25.9006 131.784 26.0473 131.784 26.1125C131.719 26.3733 131.491 26.6341 131.1 26.8949C130.741 27.1231 130.285 27.335 129.731 27.5306C129.209 27.6936 128.622 27.824 127.97 27.9218C127.351 28.0196 126.731 28.0685 126.112 28.0685C125.199 28.0685 124.449 27.8729 123.863 27.4817C123.276 27.0579 122.982 26.5689 122.982 26.0147C122.982 25.3953 123.194 24.8737 123.618 24.4499C124.042 24.0261 124.547 23.7001 125.134 23.4719C125.753 23.2111 126.389 23.0318 127.041 22.934C127.693 22.8036 128.264 22.7384 128.753 22.7384C129.176 22.7384 129.551 22.8036 129.877 22.934C130.203 23.0318 130.497 23.26 130.758 23.6186Z" fill="black"/>
<path d="M133.458 24.4499C133.425 24.1891 133.393 23.9772 133.36 23.8142C133.327 23.6512 133.278 23.4882 133.213 23.3252C133.148 23.1948 133.099 23.0481 133.067 22.8851C133.067 22.7221 133.148 22.6406 133.311 22.6406C133.539 22.6406 133.719 22.8362 133.849 23.2274C134.012 23.6186 134.159 24.0587 134.289 24.5477C134.419 25.0367 134.517 25.5257 134.582 26.0147C134.68 26.5037 134.778 26.846 134.876 27.0416C134.974 26.846 135.104 26.5852 135.267 26.2592C135.463 25.9332 135.658 25.6072 135.854 25.2812C136.049 24.9552 136.229 24.6781 136.392 24.4499C136.587 24.2217 136.718 24.1076 136.783 24.1076C136.913 24.1076 136.979 24.1891 136.979 24.3521C136.979 24.6129 136.881 24.9878 136.685 25.4768C136.49 25.9332 136.261 26.3896 136.001 26.846C135.74 27.3024 135.479 27.7099 135.218 28.0685C134.99 28.4271 134.827 28.6064 134.729 28.6064C134.501 28.6064 134.322 28.4434 134.191 28.1174C134.061 27.7588 133.947 27.3513 133.849 26.8949C133.751 26.4385 133.67 25.9821 133.604 25.5257C133.539 25.0693 133.49 24.7107 133.458 24.4499Z" fill="black"/>
</svg>
