<svg width="89" height="52" viewBox="0 0 89 52" fill="none" xmlns="http://www.w3.org/2000/svg">
<path d="M16.78 14.01C15.07 13.92 12.85 14.64 10.27 16.14C7.9 17.52 5.8 19.2 3.94 21.21C2.08 23.19 1.09 24.81 1.03 26.13C0.969999 27.42 1.39 28.2 2.38 28.38C2.89 28.47 3.49 28.41 4.18 28.2C4.39 28.14 4.54 28.08 4.54 27.96C4.54 27.84 4.39 27.81 4.18 27.84C3.61 27.96 2.98 27.93 2.38 27.81C1.9 27.72 1.6 27.39 1.6 26.85C1.6 25.38 2.62 23.55 4.6 21.51C6.43 19.62 8.53 18 11.05 16.56C13.48 15.15 15.46 14.49 16.87 14.58C18.34 14.7 19.06 15.54 19.06 17.25C19.06 17.82 18.94 18.42 18.76 19.05C17.92 21.72 15.07 27.09 10.18 35.13C10.09 35.34 10.03 35.46 10.03 35.58C10.03 35.76 10.18 35.91 10.42 35.91C10.75 35.91 10.99 35.73 11.17 35.43C11.8 34.44 12.88 32.97 14.5 30.9C16.45 28.44 18.4 26.25 20.44 24.33C22.96 21.93 25.12 20.43 26.89 19.68C27.31 19.5 27.67 19.41 27.97 19.41C28.42 19.41 28.66 19.59 28.66 20.04C28.66 20.37 28.57 20.73 28.33 21.18L23.98 30C22.06 33.9 17.2 47.52 17.11 49.47C17.08 50.31 17.62 51.54 18.46 51.54C19.03 51.54 19.81 51.12 20.86 50.28C21.82 49.5 22.48 48.84 22.84 48.24C23.02 47.97 23.11 47.82 23.11 47.73C23.11 47.64 23.08 47.64 23.05 47.61C22.96 47.61 22.81 47.76 22.6 47.97C20.5 50.04 19.06 51.06 18.22 51.06C17.92 51.06 17.74 50.79 17.74 50.16C17.74 49.95 17.89 49.74 17.8 49.53C16.87 47.64 23.11 33.78 25.24 29.82C26.65 27.15 28.09 24.6 29.53 21.93C29.59 21.78 29.62 21.51 29.62 21.27C29.62 20.73 29.65 20.19 29.08 19.56C28.63 19.05 28.3 18.72 27.73 18.81C26.02 19.11 23.5 20.79 20.23 24C17.86 26.31 15.85 28.47 14.23 30.54C14.02 30.9 13.84 31.02 13.75 31.02C13.69 31.02 13.63 30.99 13.63 30.9C13.63 30.75 13.72 30.54 13.84 30.36C17.02 25.05 18.85 21.3 19.39 19.17C19.48 18.75 19.54 18.27 19.54 17.79C19.54 16.77 19.3 15.9 18.85 15.24C18.34 14.49 17.62 14.04 16.78 14.01ZM27.9747 36.51C29.7447 36.27 31.7847 35.1 34.1247 33.09C36.4947 31.05 37.6647 29.31 37.7847 27.81C37.7847 27.72 37.7247 27.6 37.6947 27.48C37.6647 27.42 37.6647 27.36 37.6947 27.3C37.8747 27.06 38.2647 26.94 38.8947 26.94C39.1947 26.94 39.3447 26.85 39.3447 26.76C39.3447 26.7 39.1947 26.64 38.8947 26.64C37.2147 26.58 35.8947 26.55 34.9947 26.52C34.9047 26.49 34.8447 26.43 34.7847 26.4C34.2147 26.07 33.7647 25.83 33.4347 25.86C32.9847 25.89 32.5647 26.1 32.1147 26.52C31.9647 26.61 31.8447 26.64 31.7847 26.64C31.7547 26.61 31.3947 26.64 30.6447 26.67C29.7147 26.7 29.7747 26.97 29.7747 27.09C29.7747 27.33 30.2247 27.6 30.5847 27.81C30.6747 27.84 30.7047 27.96 30.6447 28.08C27.9747 31.35 26.6547 33.81 26.6247 35.43C26.6247 36.06 27.4047 36.6 27.9747 36.51ZM27.5547 34.92C28.7247 32.16 30.3747 29.79 32.5047 27.81C32.7747 27.63 32.9547 27.51 33.0147 27.54C33.7347 27.27 34.5747 27.15 35.5347 27.27C36.4047 27.36 36.8247 27.69 36.6747 28.32C36.3747 29.76 35.2347 31.38 33.2247 33.18C31.3047 34.95 29.6847 35.91 28.3347 36.12C27.7047 36.24 27.3747 36.06 27.3747 35.58C27.3747 35.37 27.4347 35.13 27.5547 34.92ZM38.8202 33.33C38.9402 37.05 41.9102 37.11 44.7002 34.62C45.0002 34.35 45.2102 33.81 44.4602 34.35C42.5402 35.73 39.9602 36.42 40.0502 32.67C40.1102 31.05 40.6202 28.8 41.2802 26.94C47.3402 25.8 53.2202 24.12 58.9202 21.96C67.2602 18.78 72.3602 15.42 74.2502 11.82C74.6102 11.1 74.8502 10.35 74.9102 9.6C75.1502 7.2 74.1002 5.07 71.8502 3.18C69.6602 1.29 67.0802 0.389999 64.1702 0.569997C55.6802 1.08 47.7602 9.75 40.3502 26.55V26.64C39.3602 28.95 38.7302 31.26 38.8202 33.33ZM73.6202 11.01C72.0002 14.34 67.7702 17.52 60.9302 20.52C55.2302 23.01 48.7202 24.99 41.4302 26.49C41.5502 26.28 41.6102 26.1 41.7002 25.89H41.6702C43.8602 20.79 46.4402 16.17 49.4402 11.97C54.4502 4.98 59.3702 1.29 64.1702 1.11C67.0202 0.989998 69.4502 1.8 71.4602 3.48C73.4402 5.1 74.3702 6.99 74.1302 9.09C74.0702 9.75 73.9202 10.38 73.6202 11.01ZM45.1363 35.61C46.4263 34.86 47.9263 33.75 49.6663 32.28C51.4063 30.78 52.7563 29.49 53.7163 28.35C53.7463 28.32 53.7763 28.29 53.8063 28.29C53.9863 28.29 53.9863 28.38 53.8363 28.62C53.1463 29.64 52.4863 30.9 51.8263 32.34C50.7463 34.71 49.4263 39 49.3663 40.68C49.3363 41.7 49.6063 42.54 50.3563 43.02C50.9863 43.41 51.7963 43.8 52.7563 43.8C53.3863 43.8 53.9563 43.68 54.4963 43.5C55.6063 43.11 56.9563 42.21 58.6063 40.86C60.3763 39.36 61.6963 37.77 62.5963 36.42C62.6863 36.27 62.7163 36.18 62.7163 36.09C62.7163 36.06 62.7163 36.03 62.6863 36C62.5963 36 62.5063 36.09 62.3263 36.3C61.3663 37.53 60.0463 39 58.4263 40.32C56.7463 41.67 55.3663 42.54 54.2863 42.9C53.5963 43.14 52.8463 43.26 52.1563 43.26C50.7163 43.26 49.8163 42.6 49.8163 41.25C49.8163 41.07 49.8163 40.89 49.8463 40.68C50.2063 38.37 51.8263 33.54 53.5063 30.72C54.5863 28.95 55.7563 27.18 56.8963 25.41C56.9263 25.32 56.7763 25.05 56.6263 25.05C56.5663 25.05 56.4763 25.08 56.4463 25.11C56.2663 25.32 55.9963 25.44 55.6663 25.5C55.5763 25.53 55.3963 25.5 55.0963 25.47C54.6163 25.32 54.1363 25.2 53.6563 25.2C53.2063 25.2 52.7863 25.29 52.4263 25.44C50.8663 26.04 49.0663 27.33 47.0263 29.34C44.8063 31.56 43.6963 33.39 43.6963 34.8C43.6963 35.52 43.9363 35.85 44.4463 35.85C44.6863 35.85 44.8963 35.76 45.1363 35.61ZM45.6163 33.06C46.1863 31.77 47.1163 30.36 48.4663 28.86C49.8763 27.3 51.0763 26.37 52.0363 26.13C52.2763 26.07 52.4863 26.04 52.7263 26.04C53.5363 26.04 54.1063 26.49 54.1063 26.94C54.1063 27.03 54.0763 27.09 54.0163 27.15C51.1963 30.51 48.7063 32.91 46.4863 34.32C46.3363 34.41 46.1563 34.47 46.0363 34.47C45.6763 34.47 45.4963 34.26 45.4963 33.75C45.4963 33.54 45.5263 33.3 45.6163 33.06ZM63.712 37.59C64.072 37.26 64.072 36.69 63.532 37.08C63.202 37.32 62.512 37.62 62.242 37.68C61.372 37.92 61.342 37.59 61.522 36.45C61.792 34.71 66.832 29.04 67.852 26.79C68.092 26.28 67.432 25.65 66.802 25.71C64.822 25.89 59.752 30.66 57.052 33.6C56.632 34.05 55.882 34.02 56.362 33.15C57.832 30.42 60.502 26.13 62.002 24.84C62.842 24.15 61.822 23.28 61.102 24.03C59.062 26.13 55.102 33.06 54.502 35.13C54.262 36.03 54.652 36.87 55.102 36.36C58.042 33 62.362 28.83 65.272 27C66.292 26.37 66.802 27.12 66.442 27.78C65.782 29.04 60.322 34.89 60.382 36.66C60.322 37.38 61.042 38.34 61.882 38.49C62.302 38.55 63.292 37.98 63.712 37.59ZM88.4835 13.68C88.6335 13.44 88.0635 12.93 87.7335 13.23C87.4935 13.5 87.1035 13.8 86.5635 13.89C84.5235 14.61 75.4935 15.24 71.5035 22.08C69.9735 24.72 70.0935 28.11 71.2035 30.12C71.4135 30.48 71.5935 30.3 71.4435 30C70.2435 27.6 71.5035 24.6 72.6735 22.68C75.5835 17.94 81.1335 14.91 86.4435 14.94C84.7635 18.87 81.6735 24.93 79.0935 29.82C72.6735 31.8 62.2035 37.38 58.2135 43.29C55.8435 46.83 57.5535 49.29 61.1535 48.45C66.1635 47.25 69.8235 44.28 72.7035 40.89C75.5535 37.59 77.8335 33.9 80.0235 30.18C80.3235 30.06 80.7735 29.88 80.9235 29.85C81.2535 29.79 81.2835 29.49 80.9535 29.49C80.6835 29.49 80.5935 29.19 80.7735 28.86C82.7835 25.02 86.1735 18.69 88.4835 13.68ZM78.8535 30.42C77.2335 33 74.0235 38.13 72.0435 40.41C69.4035 43.41 65.8935 46.65 61.1235 47.91C58.0935 48.72 56.5635 47.07 58.9935 43.71C63.2235 37.86 72.1035 32.64 78.8535 30.42Z" fill="black"/>
</svg>
