<svg width="87" height="62" viewBox="0 0 87 62" fill="none" xmlns="http://www.w3.org/2000/svg">
<path d="M3.36 33.28C4.17 33.1 4.68 32.89 4.89 32.62C7.23 29.89 9.51 27.7 11.76 26.11C11.91 26.02 12.06 25.96 12.24 25.96C12.6 25.96 12.78 26.11 12.78 26.44C12.78 26.53 12.75 26.65 12.69 26.74C11.52 28.33 10.53 30.04 9.6 31.87C8.49 34.06 7.83 35.89 7.71 37.3C7.62 38.56 7.83 39.49 8.4 40.12C8.91 40.63 9.57 40.87 10.38 40.78C12.6 40.54 14.67 39.49 16.62 37.57C18.03 36.16 18.96 34.9 19.32 33.73C19.44 33.37 19.5 33.07 19.5 32.86C19.5 32.41 19.32 32.17 18.99 32.17C18.72 32.17 18.27 32.35 18.27 32.59C18.27 32.8 19.17 32.5 19.17 33.34C19.17 34.33 18.21 35.62 16.32 37.24C14.61 38.68 13.17 39.58 12.03 39.91C11.73 40 11.46 40.03 11.16 40.03C10.47 40.03 9.93 39.82 9.51 39.37C9.06 38.89 8.88 38.17 8.94 37.24C9.06 35.83 9.63 33.94 10.71 31.6C11.82 29.26 13.11 27.13 14.55 25.3C14.85 24.94 14.85 24.7 14.58 24.61C14.34 24.49 13.98 24.52 13.53 24.73C13.26 24.82 13.02 25 12.78 25.21C12.3 25.39 11.28 26.08 9.75 27.31C8.46 28.36 7.23 29.41 6.12 30.49C6 30.64 5.85 30.7 5.76 30.7C5.61 30.7 5.52 30.61 5.52 30.37C5.52 30.25 5.55 30.1 5.64 29.98C6.42 28.21 7.53 26.44 9.03 24.7C9.09 24.64 9.12 24.55 9.12 24.49C9.09 24.46 9.03 24.46 8.91 24.49C8.49 24.55 8.28 24.7 8.16 24.88C7.38 25.84 6.45 27.1 5.4 28.69C4.32 30.34 3.54 31.66 3.06 32.68C2.94 32.92 2.91 33.07 3 33.16C3.03 33.28 3.15 33.31 3.36 33.28ZM23.0346 28.72C24.0246 26.98 25.4946 25.18 26.6346 23.41C26.6646 23.32 26.5146 23.05 26.3646 23.05C26.3046 23.05 26.2146 23.08 26.1846 23.11C26.0046 23.32 25.7346 23.44 25.4046 23.5C25.3146 23.53 25.1346 23.5 24.8346 23.47C24.3546 23.32 23.8746 23.2 23.3946 23.2C22.9446 23.2 22.5246 23.29 22.1646 23.44C20.6046 24.04 18.8046 25.33 16.7646 27.34C14.5446 29.56 13.4346 31.39 13.4346 32.8C13.4346 33.52 13.6746 33.85 14.1846 33.85C14.4246 33.85 14.6346 33.76 14.8746 33.61C16.1646 32.86 17.6646 31.75 19.4046 30.28C21.1446 28.78 22.4946 27.49 23.4546 26.35C23.4846 26.32 23.5146 26.29 23.5446 26.29C23.7246 26.29 23.7246 26.38 23.5746 26.62C22.3146 28.48 20.3946 31.99 20.3946 33.97C20.3346 34.69 20.7546 35.35 21.5946 35.5C22.0146 35.56 23.0046 34.99 23.4246 34.6C23.7846 34.27 23.7846 33.7 23.2446 34.09C22.9146 34.33 22.2246 34.63 21.9546 34.69C21.0846 34.93 20.8746 34.36 21.0546 33.22C21.2646 31.84 21.8046 30.88 23.0346 28.72ZM15.3546 31.06C15.9246 29.77 16.8546 28.36 18.2046 26.86C19.6146 25.3 20.8146 24.37 21.7746 24.13C22.0146 24.07 22.2246 24.04 22.4646 24.04C23.2746 24.04 23.8446 24.49 23.8446 24.94C23.8446 25.03 23.8146 25.09 23.7546 25.15C20.9346 28.51 18.4446 30.91 16.2246 32.32C16.0746 32.41 15.8946 32.47 15.7746 32.47C15.4146 32.47 15.2346 32.26 15.2346 31.75C15.2346 31.54 15.2646 31.3 15.3546 31.06ZM35.4902 25.39C33.4502 25.36 31.2602 26.08 28.9202 27.55C26.6102 29.02 24.9602 30.7 24.0002 32.65C23.8202 32.98 23.7302 33.28 23.7302 33.58C23.7302 34.3 24.0902 34.66 24.8102 34.66C25.0202 34.66 25.2302 34.63 25.3802 34.57C26.5502 34.06 28.2302 33.04 30.4802 31.45C32.2502 30.19 33.5102 29.29 34.1702 28.66C34.0202 29.14 33.9002 29.71 33.6902 30.4C33.0602 32.65 32.5202 34.27 32.0702 35.29C26.1002 36.43 20.3702 38.08 14.8502 40.27C6.81023 43.45 2.01023 46.81 0.480233 50.41C0.180233 51.13 0.000233531 51.88 0.000233531 52.66C0.000233531 55.03 1.23023 57.16 3.63023 59.05C6.06023 60.97 8.70023 61.84 11.5502 61.66C19.9802 61.15 27.0902 52.45 33.0002 35.62C35.3102 35.11 38.2802 34.9 41.8802 34.9C42.8102 34.9 43.5302 34.93 44.1002 34.96C45.0902 35.05 45.5702 35.44 45.5702 36.16C45.5702 37.03 45.0002 38.02 43.8002 39.13C43.5902 39.28 43.5002 39.4 43.5002 39.52C43.5002 39.55 43.5302 39.55 43.5602 39.55C43.6802 39.55 43.8002 39.49 44.0102 39.31C45.0302 38.5 45.6902 37.84 45.9602 37.33C46.0502 37.15 46.1102 36.91 46.1102 36.67C46.1102 35.65 45.0602 34.63 44.1602 34.45C43.6202 34.36 42.8702 34.3 41.8802 34.3C39.1802 34.3 36.2702 34.57 33.2102 35.11C34.4402 31.54 35.3402 28.78 35.9702 26.89C36.1802 26.62 36.2702 26.38 36.3002 26.17C36.3002 25.87 36.0002 25.57 35.6702 25.45C35.6402 25.42 35.5502 25.39 35.4902 25.39ZM1.20023 51.22C2.52023 47.89 6.45023 44.71 12.9902 41.71C18.4502 39.19 24.7802 37.24 31.9502 35.74C30.2102 41.11 27.9602 45.94 25.2902 50.26C20.9402 57.31 16.3502 60.94 11.4902 61.12C8.70023 61.24 6.18023 60.43 3.99023 58.75C1.89023 57.13 0.840233 55.24 0.840233 53.14C0.840233 52.48 0.960234 51.85 1.20023 51.22ZM33.6602 28.54C32.8202 29.23 31.6202 30.19 30.0002 31.36C27.9902 32.8 26.7302 33.55 26.3102 33.55C25.8002 33.55 25.5902 33.22 25.5902 32.59C25.5902 32.41 25.6202 32.29 25.6502 32.11C26.0702 30.85 27.0302 29.65 28.5602 28.45C30.0002 27.34 31.4702 26.62 32.9102 26.29C33.6302 26.11 34.1102 26.08 34.2902 26.14C34.4402 26.17 34.5002 26.35 34.5002 26.71C34.4702 26.74 34.4702 26.8 34.4702 26.83C34.4702 26.86 34.5002 26.86 34.5002 26.89C34.4402 27.61 34.1402 28.12 33.6602 28.54ZM43.939 21.1C44.569 21.13 45.259 21.16 45.949 21.16C53.749 21.16 61.669 19.27 69.709 15.49C71.899 14.47 73.549 13.24 74.659 11.77C75.679 10.45 76.189 9.04 76.189 7.57C76.189 5.62 75.349 3.94 73.729 2.56C72.019 1.12 69.889 0.4 67.309 0.4C65.779 0.4 64.249 0.669998 62.659 1.24C56.869 3.25 51.199 8.38 45.649 16.75C43.699 17.17 42.229 17.89 41.239 18.94C41.119 19.09 41.029 19.24 41.029 19.48C41.029 20.05 41.569 20.77 42.109 20.89C42.469 20.95 42.769 21.01 42.979 21.04C40.129 25.96 37.879 30.07 36.289 33.46C36.259 33.55 36.259 33.61 36.259 33.7C36.259 34 36.319 34.18 36.499 34.18C36.559 34.18 36.619 34.12 36.649 34.03C36.829 33.79 36.949 33.73 36.979 33.79C37.879 32.71 39.169 31.36 40.849 29.74C42.859 27.82 44.419 26.56 45.529 25.96C45.769 25.81 45.949 25.75 46.129 25.75C46.429 25.75 46.579 25.87 46.579 26.17C46.579 26.32 46.549 26.44 46.459 26.56C44.689 28.9 43.609 30.82 43.249 32.41C43.129 32.86 43.309 33.25 43.789 33.64C44.179 34 44.539 34.18 44.899 34.18C46.099 34.18 46.849 33.82 49.429 31.72L49.639 31.51C49.609 31.48 49.609 31.45 49.579 31.42C49.549 31.45 49.429 31.48 49.309 31.57C47.059 33.28 46.579 33.37 45.619 33.37C45.079 33.37 44.809 33.1 44.809 32.59C44.809 31.9 45.289 30.64 46.279 28.84C47.119 27.37 47.869 26.17 48.559 25.33C48.589 25.3 48.589 25.21 48.589 25.18C48.589 24.88 48.109 24.49 47.869 24.52C47.179 24.7 46.789 24.82 46.699 24.94C46.069 25 44.809 25.72 42.949 27.22C41.419 28.45 39.979 29.77 38.689 31.06C38.149 31.63 37.819 31.99 37.639 32.14C39.859 28.09 41.959 24.43 43.939 21.1ZM44.209 20.59C49.999 10.72 56.179 4.39 62.869 1.6C64.219 1.03 65.629 0.729997 67.129 0.729997C69.379 0.729997 71.329 1.36 73.009 2.53C74.689 3.7 75.529 5.11 75.529 6.85C75.529 9.52 73.459 12.04 69.289 14.47C65.389 16.72 61.159 18.4 56.659 19.45C53.119 20.29 49.729 20.68 46.429 20.68C45.619 20.68 44.899 20.62 44.209 20.59ZM43.279 20.53C43.159 20.53 42.829 20.5 42.259 20.41C41.839 20.35 41.599 20.14 41.599 19.81C41.599 19.6 41.659 19.42 41.839 19.24C42.619 18.34 43.819 17.56 45.469 17.08C44.749 18.19 43.999 19.36 43.279 20.53ZM55.1728 31.66C55.6228 31.21 55.6828 30.61 54.9928 31.3C53.9128 32.32 52.8328 33.07 51.3328 33.43C50.5528 33.61 49.3828 33.61 50.3728 31.6C51.8128 28.63 49.6228 32.74 53.7028 25.03C54.4828 23.56 52.6828 23.32 52.5328 24.28C52.4428 24.79 49.2928 30.46 49.2628 32.41C49.2328 33.88 51.0628 34.42 51.5128 34.21C53.2528 33.43 54.2128 32.62 55.1728 31.66ZM55.6828 20.83C55.8028 20.47 55.2928 20.02 54.8728 20.11C54.5728 20.17 54.2128 20.44 53.7628 20.92C53.2828 21.4 53.0728 21.76 53.0728 22.03C53.0728 22.27 53.2828 22.45 53.7328 22.54C54.0328 22.6 54.3928 22.42 54.8428 22C55.3528 21.55 55.6228 21.16 55.6828 20.83ZM61.312 34C55.342 35.17 49.612 36.85 44.092 39.01C36.052 42.19 31.252 45.55 29.692 49.15C29.392 49.87 29.242 50.62 29.242 51.4C29.242 53.77 30.472 55.9 32.872 57.79C35.272 59.71 37.912 60.58 40.792 60.4C49.192 59.86 56.332 51.19 62.242 34.36C64.552 33.88 67.522 33.64 71.122 33.64C72.052 33.64 72.772 33.67 73.342 33.7C74.332 33.79 74.812 34.21 74.812 34.9C74.812 35.77 74.212 36.76 73.042 37.87C72.832 38.02 72.742 38.17 72.742 38.26C72.742 38.29 72.772 38.29 72.802 38.29C72.892 38.29 73.042 38.23 73.222 38.05C74.242 37.24 74.902 36.58 75.172 36.07C75.292 35.89 75.352 35.65 75.352 35.41C75.352 34.39 74.272 33.4 73.402 33.22C72.862 33.13 72.112 33.04 71.122 33.04C68.392 33.04 65.482 33.31 62.392 33.88C63.262 31.3 63.892 29.29 64.282 27.85C64.462 27.49 64.612 27.28 64.762 27.1C64.852 26.71 64.462 26.26 63.802 26.29C63.532 26.32 63.232 26.62 63.052 26.98C62.512 27.49 61.552 28.21 60.232 29.14C58.552 30.31 57.262 31.03 56.332 31.39C56.182 31.45 55.972 31.45 55.792 31.39C55.642 31.33 55.552 31.18 55.552 31C55.552 30.91 55.582 30.76 55.642 30.61C56.002 29.89 56.602 28.9 57.442 27.67C58.402 26.32 59.122 25.51 59.542 25.33C59.512 25 59.362 24.82 59.062 24.85C58.882 24.88 58.432 25.06 57.742 25.36C57.052 25.66 56.692 25.87 56.602 26.02C56.482 26.26 56.632 26.95 56.542 27.1C54.862 30.13 53.932 31.9 53.812 32.32C53.722 32.59 54.022 32.95 54.382 32.95C54.472 32.95 54.562 32.92 54.652 32.89C55.792 32.44 57.322 31.57 59.242 30.28C60.712 29.29 61.942 28.36 62.902 27.52C62.842 28.06 62.662 28.99 62.332 30.34C61.972 31.87 61.642 33.07 61.312 34ZM30.442 49.96C31.762 46.63 35.662 43.48 42.202 40.48C47.692 37.96 54.022 35.98 61.192 34.51C59.452 39.85 57.232 44.68 54.532 49.03C50.182 56.05 45.562 59.68 40.732 59.86C37.912 59.98 35.422 59.17 33.232 57.49C31.132 55.87 30.052 54.01 30.052 51.88C30.052 51.22 30.202 50.59 30.442 49.96ZM79.3448 25.66C79.5548 25.39 79.3148 25.27 79.1348 25.54C78.6548 25.96 77.6948 26.5 76.8548 26.59C75.5648 26.74 73.1348 26.74 70.9448 26.74C72.9248 26.44 74.6048 25.63 75.2348 24.52C75.8948 23.35 74.9348 21.28 73.4348 21.85C70.6448 22.9 65.8748 27.76 65.6648 32.14C65.6048 33.7 67.4648 35.08 68.6648 34.87C70.1348 34.6 71.8448 33.58 72.6848 32.98C73.0148 32.74 72.7748 32.59 72.4448 32.77C71.3648 33.4 69.7148 34.06 68.3948 34.21C67.3748 34.33 66.2948 33.91 66.3848 32.14C66.5048 30.25 67.7348 28.45 68.6348 27.25C71.0348 27.25 75.5048 27.25 76.8548 27.04C77.9648 26.89 78.9548 26.08 79.3448 25.66ZM74.5148 24.25C73.5548 25.69 71.0648 26.74 68.9648 26.74C70.3148 25.27 71.9048 23.77 73.3748 22.93C74.5748 22.27 75.3548 22.96 74.5148 24.25ZM75.4842 33.67C75.7542 33.7 75.9642 33.67 76.0542 33.64C76.2942 33.55 76.4142 33.46 76.4142 33.46C76.7742 33.46 77.2242 33.22 77.7042 32.8C78.7242 31.9 79.9542 30.64 81.4242 28.9C82.7142 27.37 83.6742 26.11 84.3342 25.12C84.5142 24.88 84.6042 24.79 84.6942 24.88C84.9042 25.09 85.2342 25.21 85.6542 25.33C85.9542 25.39 86.0742 25.33 86.0742 25.12C86.0742 25.06 86.0442 25 85.9842 24.97C85.7442 24.79 85.6242 24.61 85.5942 24.34C85.5642 23.95 85.8342 23.35 86.4042 22.54C86.5242 22.42 85.8642 21.85 85.6842 21.94C85.4142 22.09 85.0242 22.39 84.4542 22.81C84.1842 23.56 84.1242 24.13 84.0042 24.31C83.0142 25.69 82.0242 27.07 81.0042 28.45C79.4742 30.49 78.3342 31.9 77.4942 32.59C77.2242 32.8 76.9842 32.95 76.7442 32.95C76.4442 32.95 76.2942 32.71 76.2942 32.29C76.2942 32.11 76.3242 31.9 76.3842 31.66C76.8342 30.04 77.9742 27.79 79.7742 24.94C79.8042 24.85 79.8642 24.79 79.8642 24.73C79.8642 24.46 79.6842 24.34 79.3842 24.34C79.2642 24.34 79.1442 24.37 79.0842 24.46C76.6242 27.85 75.1242 30.67 74.6142 32.92C74.4942 33.22 75.0042 33.64 75.4842 33.67Z" fill="black"/>
</svg>
