<svg xmlns="http://www.w3.org/2000/svg" xmlns:xlink="http://www.w3.org/1999/xlink" width="252" height="100" fill="none" xmlns:v="https://vecta.io/nano"><style><![CDATA[.B{fill-rule:evenodd}.C{fill:#335abc}.D{fill:#e5e5e5}.E{fill:#fff}]]></style><path d="M112.64 31.2V62h12.32c4.268 0 7.788-1.452 10.648-4.4s4.312-6.644 4.312-11-1.452-8.008-4.312-10.956-6.38-4.444-10.648-4.444h-12.32zm7.04 24.024V37.976h5.28c2.42 0 4.4.792 5.896 2.376 1.54 1.54 2.288 3.652 2.288 6.248s-.748 4.708-2.288 6.292c-1.496 1.54-3.476 2.332-5.896 2.332h-5.28zm30.05-18.304c1.584-1.584 1.584-4.048 0-5.588-1.54-1.584-4.004-1.584-5.588 0-1.54 1.54-1.54 4.004 0 5.588 1.584 1.54 4.048 1.54 5.588 0zm.528 25.08V40h-6.6v22h6.6zm11.43 0V29.88h-6.6V62h6.6zm17.986-22.616c-2.816 0-5.016.88-6.556 2.684V31.2h-6.6V62h6.6v-2.068c1.54 1.804 3.74 2.684 6.556 2.684 2.904 0 5.368-1.1 7.436-3.344s3.08-5.016 3.08-8.272-1.012-5.984-3.08-8.228-4.532-3.388-7.436-3.388zm-5.104 15.532c-.968-.968-1.452-2.288-1.452-3.916s.484-2.948 1.452-3.916c1.012-.968 2.244-1.452 3.784-1.452s2.772.484 3.74 1.452c1.012.968 1.496 2.288 1.496 3.916s-.484 2.948-1.496 3.916c-.968.968-2.2 1.452-3.74 1.452s-2.772-.484-3.784-1.452zm35.334-12.848c-1.54-1.804-3.74-2.684-6.556-2.684-2.904 0-5.368 1.144-7.436 3.388s-3.08 4.972-3.08 8.228 1.012 6.028 3.08 8.272 4.532 3.344 7.436 3.344c2.816 0 5.016-.88 6.556-2.684V62h6.6V40h-6.6v2.068zm-9.02 12.848c-.968-.968-1.452-2.288-1.452-3.916s.484-2.948 1.452-3.916 2.244-1.452 3.784-1.452 2.816.484 3.784 1.452 1.452 2.288 1.452 3.916-.484 2.948-1.452 3.916-2.244 1.452-3.784 1.452-2.816-.484-3.784-1.452zM237.846 44.4V40h-16.72v6.16h7.876l-8.316 11.44V62h17.6v-6.16h-8.756l8.316-11.44zm10.455-7.48c1.584-1.584 1.584-4.048 0-5.588-1.54-1.584-4.004-1.584-5.588 0-1.54 1.54-1.54 4.004 0 5.588 1.584 1.54 4.048 1.54 5.588 0zm.528 25.08V40h-6.6v22h6.6z" class="C"/><g fill="#0d3594"><path d="M45.001 96.405c-11.288-3.337-21.495-7.578-28.561-14.918-9.01-9.361-12.587-21.014-12.649-32.698L3.587 9.556c21.222-7.949 61.603-7.951 82.825 0l-.204 39.233c-.06 11.682-3.637 23.337-12.649 32.698-7.062 7.34-17.269 11.581-28.557 14.918z" class="B"/><path d="M45.001 100a3.61 3.61 0 0 1-1.016-.146c-6.669-1.972-11.891-3.936-16.436-6.181-5.604-2.77-10.082-5.938-13.692-9.689C4.996 74.777.277 62.615.205 48.808L0 9.576C-.008 8.07.923 6.718 2.331 6.191 12.834 2.257 28.386 0 45.001 0s32.167 2.257 42.668 6.189c1.408.527 2.339 1.878 2.331 3.384l-.205 39.233c-.072 13.804-4.792 25.969-13.653 35.174-3.61 3.749-8.089 6.919-13.693 9.689-4.545 2.245-9.767 4.209-16.436 6.182a3.44 3.44 0 0 1-1.012.15zM7.189 12.106l.191 36.666c.029 5.713.954 11.097 2.749 16.001a40.37 40.37 0 0 0 8.895 14.22c3.672 3.815 9.942 8.793 25.977 13.662 16.035-4.869 22.307-9.847 25.977-13.662 3.951-4.106 6.944-8.891 8.895-14.22 1.793-4.904 2.718-10.289 2.749-16.001l.191-36.666c-9.658-3.139-23.245-4.917-37.812-4.917S16.845 8.967 7.189 12.106z"/></g><path d="M45.002 96.405c-11.288-3.337-21.495-7.578-28.561-14.918-9.01-9.361-12.587-21.014-12.649-32.698L3.588 9.556c21.222-7.949 61.603-7.951 82.825 0l-.204 39.233c-.06 11.682-3.637 23.337-12.649 32.698-7.062 7.34-17.269 11.581-28.557 14.918z" class="B C"/><path d="M45.001 97.236a.86.86 0 0 1-.234-.033c-6.513-1.925-11.595-3.837-15.996-6.01-5.314-2.626-9.541-5.612-12.925-9.129C7.489 73.38 3.034 61.875 2.966 48.795L2.759 9.56c-.002-.347.212-.659.537-.78C24.733.751 65.267.751 86.702 8.78c.325.121.539.433.537.78l-.204 39.233c-.068 13.081-4.521 24.586-12.881 33.27-7.853 8.159-19.581 12.377-28.921 15.139-.074.023-.154.035-.232.035zM4.418 10.133l.201 38.652c.066 12.646 4.36 23.755 12.417 32.127 7.52 7.812 18.858 11.924 27.963 14.63 17.236-5.126 23.999-10.508 27.965-14.63 8.057-8.372 12.351-19.481 12.415-32.127l.201-38.651C75.56 6.501 60.82 4.424 44.999 4.424S14.438 6.501 4.418 10.133z" class="D"/><path d="M31.054 39.429c1.877-.952 3.24-1.806 4.399-3.347.364-.486 1.03-.837 1.737-1.281.623-.392 1.143-.704 1.881-.31.347.185 1.011 1.163 1.371 1.806.389.694.171 1.845.084 2.081-.39 1.045.469 1.744 1.03.854.109.365.164.769-.152 1.457l.615 1.272 1.174.045c-.218-.46-.277-1.003-.171-1.631.095-.575.461-.946.111-1.51-.21-.363-.053-.755-.197-1.192l-2.189-4.91c-.224-.548-.22-1.28-1.081-1.549-.88-.275-1.593-.035-2.021.259-.547.377-1.199.486-1.694.573-.857.15-1.692.402-2.465.798l-3.184 1.773.752 4.81z" class="B E"/><path d="M43.193 42.145l-1.18-.045c-.051-.002-.097-.031-.119-.078l-.615-1.272c-.017-.037-.017-.08-.002-.117.226-.494.249-.823.208-1.09-.271.269-.563.277-.769.174-.343-.17-.572-.714-.321-1.387.084-.224.284-1.326-.074-1.966-.405-.724-1.03-1.599-1.316-1.752-.646-.345-1.083-.109-1.741.304l-.368.226c-.563.343-1.047.642-1.332 1.02-1.153 1.531-2.502 2.403-4.447 3.388a.14.14 0 0 1-.125 0c-.039-.02-.066-.059-.074-.101l-.752-4.808c-.01-.056.02-.113.07-.142l3.184-1.773c.736-.376 1.577-.65 2.508-.813l.023-.004c.491-.086 1.102-.193 1.616-.546.284-.195 1.061-.614 2.14-.277.742.232.903.78 1.048 1.262l.121.367 2.185 4.902c.078.232.082.439.086.62.004.211.008.392.105.562.276.445.154.802.035 1.147a2.71 2.71 0 0 0-.128.456c-.099.595-.045 1.116.16 1.549.021.043.017.096-.01.135a.14.14 0 0 1-.115.06zm-1.087-.318l.876.033c-.158-.439-.191-.944-.097-1.508.031-.185.09-.353.14-.501.115-.335.199-.577-.01-.913-.134-.234-.14-.47-.144-.698-.004-.17-.008-.347-.066-.523l-2.185-4.902c-.051-.127-.092-.261-.13-.392-.134-.456-.263-.889-.864-1.077-.964-.3-1.651.068-1.901.242-.563.388-1.235.505-1.725.591l-.023.004c-.904.16-1.719.423-2.426.784l-3.096 1.724.707 4.526c1.817-.932 3.096-1.777 4.183-3.223.317-.421.824-.731 1.41-1.09l.364-.224c.615-.388 1.197-.753 2.017-.314.399.213 1.087 1.254 1.427 1.861.417.743.193 1.927.093 2.196-.193.521-.049.926.187 1.042.193.096.417-.019.6-.31.029-.047.082-.07.136-.062s.097.045.113.098c.127.427.152.846-.132 1.496l.547 1.141z" class="C"/><path d="M41.403 40.69l-1.68 1.049 2.136 3.072c.678-1.036 1.071-1.678 1.334-2.805l-1.789-1.317z" fill="#f5ee16" class="B"/><path d="M41.858 44.948c-.045 0-.088-.022-.113-.059l-2.136-3.072a.14.14 0 0 1-.021-.107c.008-.037.029-.07.062-.09l1.68-1.049c.049-.029.109-.027.154.006l1.789 1.317c.045.033.066.09.053.142-.271 1.155-.67 1.802-1.353 2.848-.025.039-.068.062-.113.062zm-1.939-3.168l1.935 2.783c.582-.895.939-1.506 1.182-2.501l-1.639-1.207-1.478.925z" class="C"/><path d="M58.986 39.429c-1.877-.952-3.24-1.806-4.399-3.347-.364-.486-1.03-.837-1.737-1.282-.623-.392-1.143-.704-1.881-.31-.347.185-1.011 1.163-1.371 1.806-.389.694-.171 1.845-.084 2.081.389 1.046-.469 1.744-1.03.854-.109.365-.164.769.152 1.457l-.615 1.272-1.174.045c.218-.46.276-1.003.171-1.631-.095-.576-.462-.946-.111-1.51.21-.363.052-.755.197-1.192l2.189-4.91c.224-.548.22-1.28 1.081-1.549.88-.275 1.593-.035 2.021.259.547.377 1.2.486 1.694.573.857.15 1.692.402 2.465.798l3.184 1.773-.752 4.81z" class="B E"/><path d="M46.847 42.145c-.047 0-.09-.023-.115-.062s-.029-.092-.01-.135c.204-.431.259-.952.16-1.549a2.7 2.7 0 0 0-.128-.456c-.119-.345-.241-.702.037-1.151.095-.166.099-.347.103-.558.004-.181.008-.388.08-.605l2.191-4.918c.047-.113.082-.236.121-.367.142-.482.304-1.03 1.046-1.262 1.079-.338 1.856.082 2.14.277.514.353 1.124.46 1.616.546l.023.004c.931.164 1.774.437 2.504.812l3.188 1.777c.051.027.078.086.07.142l-.752 4.808c-.008.043-.033.082-.074.102a.14.14 0 0 1-.125 0c-1.943-.985-3.295-1.857-4.447-3.388-.284-.379-.771-.677-1.332-1.02l-.368-.226c-.658-.413-1.094-.649-1.741-.304-.286.152-.911 1.03-1.316 1.752-.358.638-.158 1.742-.074 1.966.251.673.021 1.217-.321 1.387-.206.103-.498.096-.769-.174-.041.267-.017.597.208 1.09a.13.13 0 0 1-.002.117l-.615 1.272c-.021.047-.068.076-.119.078l-1.174.045zm4.29-10.912a2.42 2.42 0 0 0-.722.115c-.602.187-.728.62-.864 1.077l-.13.392-2.193 4.917c-.053.16-.056.337-.06.507-.004.228-.01.462-.142.694-.212.341-.129.583-.012.917.051.148.109.314.14.501.093.562.06 1.069-.097 1.508l.876-.033.551-1.139c-.284-.648-.259-1.069-.132-1.496.016-.053.06-.09.113-.097s.107.017.136.062c.183.289.407.406.6.31.236-.117.38-.521.187-1.042-.099-.269-.323-1.455.093-2.196.339-.607 1.028-1.646 1.427-1.861.82-.439 1.402-.072 2.019.314l.364.224c.586.359 1.092.669 1.41 1.09 1.087 1.445 2.364 2.29 4.182 3.222l.707-4.525-3.1-1.726c-.703-.359-1.519-.622-2.422-.782l-.023-.004c-.491-.086-1.162-.205-1.725-.591-.185-.129-.6-.359-1.182-.359z" class="C"/><path d="M48.635 40.69l1.68 1.049-2.136 3.072c-.678-1.036-1.071-1.678-1.334-2.805l1.79-1.317z" fill="#f5ee16" class="B"/><path d="M48.181 44.948c-.049 0-.09-.023-.115-.062-.684-1.046-1.085-1.693-1.353-2.848-.012-.055.008-.109.053-.142l1.789-1.317c.047-.033.107-.035.154-.006l1.681 1.049c.031.02.055.053.062.09s0 .076-.021.107l-2.136 3.072a.14.14 0 0 1-.113.057zm-1.178-2.885c.243.993.6 1.605 1.182 2.501l1.935-2.783-1.478-.923-1.64 1.206z" class="C"/><use xlink:href="#B" class="B E"/><use xlink:href="#C" class="C"/><path d="M53.456 33.494v18.1h-4.913c-1.809 0-2.642.414-3.544.93-.75-.585-1.817-.94-3.036-.93h-5.392V33.492h6.819c.717.055 1.24.406 1.632.958.469-.597 1.022-1.116 2.257-1.01l6.176.055z" class="B E"/><path d="M44.988 52.69l-.074-.057c-.757-.591-1.809-.919-2.948-.901h-5.53V33.356h6.957c.664.051 1.209.343 1.636.872.438-.527 1.04-1.028 2.265-.925l6.299.055v18.375h-5.049c-1.754 0-2.547.378-3.474.913l-.082.045zm-2.969-1.235c1.147 0 2.204.32 2.993.903.904-.515 1.766-.903 3.532-.903h4.775V33.631l-6.036-.053c-1.207-.102-1.723.417-2.148.958l-.115.144-.107-.15c-.395-.558-.896-.852-1.53-.899H36.71v17.825h5.254.054z" class="C"/><use xlink:href="#B" class="B D"/><use xlink:href="#C" class="C"/><path d="M53.456 33.494v18.1h-4.913c-1.809 0-2.642.413-3.544.93-.75-.585-1.817-.94-3.036-.93h-5.392V33.478h6.579c.923.01 1.585.423 1.867 1.01.384-.544.907-1.008 1.571-1.018l6.866.023z" class="B E"/><g class="C"><path d="M44.988 52.69l-.074-.057c-.757-.591-1.809-.919-2.948-.901h-5.53V33.34h6.718c.833.01 1.521.341 1.883.897.465-.591.987-.895 1.554-.905l3.435.012 3.431.012h.138v18.377h-5.051c-1.754 0-2.547.379-3.474.913l-.082.045zm-2.969-1.235c1.147 0 2.204.32 2.993.903.905-.515 1.766-.903 3.532-.903h4.775V33.631a607.58 607.58 0 0 1-3.295-.012l-3.431-.012c-.524.008-1.014.332-1.458.96l-.136.191-.101-.213c-.276-.575-.927-.923-1.745-.932H36.71v17.838h5.254c.019.004.037.004.054.004z"/><path d="M45.138 34.305h-.277V52.39h.277V34.305z"/></g><path d="M32.802 78.765c15.546 3.23 25.107 3.714 38.659-1.839-1.275 1.89-2.107 4.042-4.59 5.671-8.122 5.333-26.84.954-34.833-.919l.763-2.912z" class="B D"/><path d="M55.243 85.293c-8.398 0-18.062-2.265-23.237-3.478-.037-.008-.068-.031-.088-.064s-.025-.07-.016-.107l.765-2.912c.02-.07.09-.115.162-.099 15.332 3.187 25.015 3.726 38.577-1.832.056-.023.121-.006.16.041s.041.115.008.164c-.298.441-.576.905-.847 1.356-.911 1.517-1.856 3.088-3.781 4.354-2.894 1.9-7.109 2.579-11.703 2.579zm-23.037-3.716c8.048 1.886 26.552 6.183 34.588.907 1.875-1.231 2.8-2.774 3.698-4.266l.611-.995c-7.15 2.881-13.241 4.067-19.676 4.069-5.604 0-11.467-.899-18.523-2.362l-.697 2.647z" class="C"/><path d="M25.306 77.131c2.477.702 4.998 1.155 7.497 1.635l-.765 2.912-6.58-1.533c-.789-.213-1.459-.651-2.091-.817-.658-.174-.97.277-.816.868.099.38.056.872-.51 1.123-.461.207-1.057.07-1.581-.716-.607-.913-.724-2.011-.051-3.117.395-.65.901-1.383 1.988-1.278.962.096 1.879.632 2.909.923z" class="B D"/><path d="M32.037 81.817c-.01 0-.02-.002-.029-.004l-1.02-.224-5.565-1.311c-.424-.113-.806-.289-1.176-.457-.321-.146-.625-.285-.915-.361-.243-.064-.434-.035-.553.082-.129.129-.162.353-.093.616.152.583-.062 1.051-.588 1.285-.6.267-1.254-.017-1.752-.765-.687-1.034-.707-2.192-.055-3.265.333-.546.892-1.465 2.121-1.342.61.058 1.186.285 1.795.523l1.135.402c2.191.62 4.451 1.051 6.638 1.471l.849.162c.037.008.07.029.091.062s.027.072.017.109l-.765 2.912c-.018.063-.072.103-.134.103zM23.1 79.154c.095 0 .197.014.302.041.314.082.627.226.958.376.358.164.73.334 1.133.441l5.553 1.307.89.195.693-2.641-.703-.135-6.661-1.475c-.403-.113-.789-.265-1.161-.41-.592-.232-1.151-.451-1.721-.505-.976-.096-1.437.519-1.858 1.211-.594.975-.576 2.029.049 2.967.423.634.937.878 1.41.665.506-.226.514-.648.432-.964-.093-.361-.033-.683.166-.882.132-.127.31-.193.518-.193z" class="C"/><path d="M31.34 84.415c-.193.556.247.936.573.819.23-.082.399-.33.783-.154.345.158.537.447.553.728.049.909-.87 1.648-1.943 1.648s-2.019-.741-1.943-1.648c.078-.923.475-1.812.798-2.746l2.598-7.498c.193-.556-.247-.936-.572-.819-.23.082-.399.33-.783.154-.345-.158-.537-.447-.553-.728-.049-.909.87-1.648 1.943-1.648s2.019.741 1.943 1.648c-.078.923-.475 1.812-.798 2.747l-2.597 7.498z" class="B D"/><g class="C"><path d="M31.305 87.592c-.652 0-1.279-.259-1.678-.692-.292-.318-.436-.712-.403-1.104.062-.743.319-1.445.592-2.187l.214-.593 2.598-7.498c.074-.216.041-.423-.092-.554-.09-.088-.208-.123-.304-.09-.049.018-.099.047-.152.078-.164.098-.388.23-.734.07-.372-.17-.613-.493-.633-.845-.021-.406.132-.804.436-1.125.395-.419 1.011-.669 1.643-.669.652 0 1.279.259 1.678.692.292.318.436.712.403 1.104-.062.743-.319 1.445-.592 2.187l-.214.593-2.598 7.498c-.074.216-.041.423.092.554.089.088.208.123.304.09.049-.018.099-.047.152-.078.164-.098.387-.23.734-.07.372.17.613.493.633.845.021.406-.132.804-.436 1.125-.397.419-1.011.669-1.643.669zm1.007-13.009a.6.6 0 0 1 .419.183c.21.207.269.523.158.841l-2.597 7.498-.216.597c-.267.724-.518 1.408-.576 2.114-.027.32.088.63.331.893.347.378.898.603 1.474.603.559 0 1.098-.219 1.443-.583.255-.269.38-.587.36-.919-.014-.248-.195-.482-.471-.609-.216-.099-.327-.033-.481.057-.062.037-.127.074-.199.101-.199.072-.425.012-.592-.152-.21-.207-.269-.523-.158-.841l2.598-7.498.216-.599c.267-.724.518-1.408.576-2.114.027-.32-.088-.63-.331-.893-.347-.378-.898-.603-1.474-.603-.559 0-1.098.218-1.443.581-.255.269-.38.587-.362.921.014.248.195.482.471.609.216.1.327.033.479-.057.062-.037.127-.074.199-.101a.57.57 0 0 1 .177-.029z"/><path d="M30.76 81.471c-.053 0-.103-.031-.127-.084-.226-.519-.134-.985-.037-1.478l.021-.115a2.14 2.14 0 0 0-.166-1.397c-.033-.068-.004-.152.064-.183a.14.14 0 0 1 .185.064c.15.312.331.815.187 1.566l-.023.115c-.091.47-.171.876.02 1.315.031.07-.002.152-.072.181-.016.012-.035.016-.053.016zm-1.032-.181c-.053 0-.103-.031-.127-.084-.239-.552-.136-1.096-.035-1.621.13-.677-.016-1.1-.156-1.395a.14.14 0 0 1 .064-.185.14.14 0 0 1 .185.064c.146.306.325.802.181 1.553-.099.519-.193.997.014 1.471.031.07-.002.152-.072.181-.017.012-.037.016-.055.016zm-1.108-.23c-.053 0-.103-.031-.127-.084-.236-.544-.138-1.049-.035-1.586l.008-.039c.129-.671-.031-1.116-.163-1.393a.14.14 0 0 1 .064-.185.14.14 0 0 1 .185.064c.15.312.331.813.187 1.564l-.008.039c-.099.515-.185.958.018 1.424.031.07-.002.152-.072.181-.019.01-.039.014-.056.014zm-1.168-.271c-.053 0-.103-.031-.127-.084-.208-.478-.109-.94-.014-1.387l.051-.242c.127-.663-.014-1.075-.15-1.362-.033-.068-.004-.152.064-.183a.14.14 0 0 1 .185.064c.156.324.314.79.171 1.533l-.051.248c-.09.423-.175.823-.004 1.219.031.07-.002.152-.072.181-.018.008-.037.012-.055.012zm-1.036-.273c-.053 0-.103-.031-.127-.084-.239-.552-.136-1.096-.035-1.621.129-.673 0-1.069-.144-1.369a.14.14 0 0 1 .064-.185c.068-.033.152-.004.185.064.154.322.312.786.169 1.527-.099.519-.191.997.014 1.471.031.07-.002.152-.072.181-.017.012-.035.016-.054.016zm-1.166-.293c-.053 0-.103-.031-.127-.084-.234-.536-.138-1.032-.037-1.555l.012-.061a2.16 2.16 0 0 0-.169-1.406c-.033-.068-.004-.152.064-.183a.14.14 0 0 1 .185.064 2.41 2.41 0 0 1 .193 1.576l-.012.06c-.097.501-.181.934.018 1.393.031.07-.002.152-.072.181-.017.01-.035.014-.055.014z"/></g><path d="M15.938 49.539c-1.057 6.209-7.316 4.412-7.312-.987.002-2.421 2.619-9.316-2.551-6.78.214-1.652 1.544-3.499 4.216-3.726l1.938 3.061-1.361 8.817 2.041 2.054 2.177-1.038.853-1.401z" class="B D"/><path d="M12.48 53.599a2.83 2.83 0 0 1-.257-.012c-1.813-.154-3.737-1.972-3.735-5.036 0-.568.142-1.377.292-2.233.319-1.824.717-4.092-.167-4.757-.469-.353-1.303-.24-2.477.335-.045.022-.099.018-.14-.012s-.062-.08-.056-.131c.226-1.75 1.657-3.618 4.342-3.845.053-.006.101.02.128.064l1.938 3.06c.018.029.025.062.019.096l-1.349 8.749 1.922 1.935 2.05-.977.829-1.366c.035-.056.105-.082.166-.058s.099.088.088.152c-.506 2.986-2.142 4.036-3.592 4.036zM7.925 41.082c.343 0 .625.086.855.259 1.018.767.623 3.029.273 5.027l-.288 2.187c-.002 2.899 1.791 4.615 3.482 4.76 1.25.107 2.73-.646 3.376-2.988l-.419.689c-.014.023-.035.041-.058.053l-2.177 1.038a.14.14 0 0 1-.158-.027l-2.041-2.054c-.031-.031-.045-.076-.039-.119l1.351-8.766-1.86-2.946c-1.731.176-3.571 1.266-3.968 3.343.664-.304 1.219-.455 1.671-.455z" class="C"/><path d="M15.7 49.953c-.203.568-.38 1.319-1.326 1.921-2.189 1.397-4.319-.433-4.488-2.507-.306-3.718 3.199-8.179.068-10.721-1.875-1.523-1.067-3.228.169-4.633l3.945 3.039-.306 4.211-2.041 5.825.238 2.86.748 1.038 1.495.027 1.497-1.061z" class="B D"/><path d="M12.807 52.505a2.67 2.67 0 0 1-1.203-.289c-1.028-.511-1.756-1.623-1.856-2.834-.115-1.404.302-2.906.705-4.36.674-2.431 1.312-4.724-.586-6.265-.707-.574-1.094-1.221-1.153-1.921-.074-.876.354-1.828 1.307-2.91.049-.055.13-.062.187-.017l3.945 3.039c.037.029.056.074.053.119l-.306 4.211c0 .012-.004.023-.008.035l-2.031 5.797.232 2.793.685.95 1.383.025 1.458-1.038a.14.14 0 0 1 .164.002c.049.037.066.099.047.156l-.058.17c-.191.558-.428 1.252-1.322 1.822-.534.343-1.092.515-1.641.515zm-2.664-18.299c-.841.981-1.219 1.834-1.155 2.606.053.624.405 1.205 1.052 1.73 2.039 1.656 1.379 4.036.68 6.554-.397 1.43-.808 2.908-.697 4.262.091 1.116.759 2.14 1.702 2.61.814.406 1.729.332 2.574-.209.697-.445.952-.962 1.127-1.442l-1.143.813c-.023.018-.049.025-.082.025l-1.496-.027c-.043 0-.084-.022-.109-.057l-.748-1.038c-.016-.02-.023-.045-.025-.07l-.238-2.86c-.002-.02 0-.039.008-.056l2.035-5.807.3-4.118-3.785-2.918z" class="C"/><path d="M15.632 49.639c-1.297 1.804-3.48 1.176-3.236-1.202.471-4.615 7.997-13.069 1.503-15.529-1.965-.743-2.767-1.867-2.907-3.458-3.018 3.355-.939 4.793 1.48 6.486 2.822 1.976-1.285 9.462-1.48 12.777-.107 1.818 2.029 3.532 3.824 2.337.615-.408.746-1.012.816-1.41z" class="B D"/><path d="M13.545 51.586c-.422 0-.849-.115-1.254-.349-.917-.529-1.495-1.547-1.437-2.534.066-1.122.569-2.702 1.102-4.375 1.048-3.291 2.233-7.018.436-8.278l-.025-.018c-1.46-1.022-2.839-1.99-2.997-3.371-.109-.964.387-2.042 1.521-3.3.037-.041.094-.057.146-.039s.09.064.094.119c.142 1.627 1.012 2.657 2.818 3.341 1.233.466 2.054 1.188 2.442 2.146.894 2.204-.549 5.302-1.947 8.296-.905 1.943-1.762 3.78-1.91 5.23-.101.989.245 1.758.903 2.009.685.259 1.503-.094 2.083-.901.037-.053.107-.072.165-.047s.094.088.082.152c-.06.337-.185 1.042-.876 1.502-.419.277-.88.417-1.345.417zm-2.654-21.81c-.933 1.096-1.342 2.031-1.248 2.854.142 1.258 1.472 2.191 2.882 3.176l.025.017c1.965 1.377.746 5.208-.331 8.589-.528 1.656-1.026 3.222-1.088 4.309-.053.884.471 1.8 1.301 2.276.755.435 1.597.412 2.311-.062a1.58 1.58 0 0 0 .61-.761c-.61.579-1.355.794-2.011.544-.781-.297-1.194-1.176-1.081-2.296.152-1.496 1.018-3.353 1.935-5.319 1.371-2.941 2.79-5.983 1.941-8.075-.364-.895-1.11-1.547-2.284-1.992-1.803-.679-2.728-1.693-2.962-3.26z" class="C"/><path d="M21.236 53.365c1.334 2.317 4.627 5.984 2.923 8.04-.491.593-.528 1.166-.132 1.781 1.414 2.2 5.144 1.761 6.498 4.545.46 1.161 1.815 1.301 1.64.181.389.265 1.24.525 1.365 1.346l1.336.441 1.012-1.213c-.356-.275-1.094-.501-1.39-.913-.436-.607-.432-1.178-1.275-1.504-1.733-.72-3.828-2.013-4.751-3.482-.391-.622.306-1.599.514-2.13 1.684-4.264 1.427-7.102-1.201-9.254-1.497-1.227-1.838-2.107-2.27-3.3l-4.266 5.462z" class="B E"/><path d="M34.867 69.84a.11.11 0 0 1-.043-.008l-1.336-.441c-.049-.016-.086-.058-.094-.111-.088-.577-.59-.85-.995-1.071l-.082-.045c-.02.326-.181.554-.461.63-.46.125-1.147-.226-1.458-1.012-.703-1.443-2.099-1.999-3.452-2.536-1.213-.482-2.36-.936-3.034-1.986-.432-.671-.386-1.309.142-1.945 1.275-1.541-.477-4.149-1.885-6.246l-1.052-1.637c-.027-.049-.023-.109.012-.154l4.268-5.46a.14.14 0 0 1 .13-.051c.049.008.092.043.107.09.407 1.126.728 2.013 2.228 3.24 2.627 2.15 2.999 4.964 1.242 9.412-.049.125-.123.271-.201.425-.261.519-.588 1.164-.325 1.58.929 1.477 3.03 2.739 4.687 3.429.635.244.829.628 1.036 1.034.086.168.173.343.3.517.168.232.518.414.83.572.203.103.391.203.534.312.029.023.049.057.053.094s-.008.074-.031.103l-1.013 1.213a.14.14 0 0 1-.107.051zm-1.215-.685l1.168.386.855-1.024c-.107-.066-.238-.133-.374-.203-.337-.174-.721-.371-.927-.657-.138-.193-.232-.376-.321-.554-.197-.388-.352-.694-.892-.901-1.7-.706-3.855-2.005-4.817-3.538-.345-.55.035-1.303.312-1.853l.191-.402c1.704-4.315 1.357-7.036-1.16-9.096-1.453-1.188-1.84-2.068-2.228-3.125L21.4 53.379l.995 1.541c1.459 2.173 3.275 4.877 1.867 6.577-.446.538-.485 1.053-.123 1.619.627.975 1.733 1.414 2.905 1.878 1.4.556 2.849 1.129 3.602 2.68.273.691.833.938 1.133.858.282-.078.276-.406.247-.593-.008-.055.016-.109.062-.139s.105-.027.152.002c.078.053.179.107.288.168.419.222.981.529 1.122 1.184z" class="C"/><path d="M19.006 31.767c2.477 6.177 1.155 10.313-2.475 15.267-2.161 2.951-.952 6.589.448 9.513.329.687.407 1.328-.162 1.789-.999.806-1.451 1.859-2.187 2.448-.6.48-1.268.597-1.412 1.313-.518 2.565 2.132 5.077 1.164 8.019-.479 1.153.391 2.249 1.052 1.33.088-.123.148-.298.136-.546.36.304 1.137.802 1.178 1.631l1.328.423 1.028-1.168c-.327-.308-.935-.546-1.188-.985-.253-.767-.265-.968-.812-1.652-1.077-1.348-.57-3.609-.341-5.185.105-.728 1.332-.934 1.852-1.168 3.328-1.5 4.965-3.275 5.647-5.551.273-.909.699-1.553.444-2.228-.454-1.2-.902-2.204-1.04-3.26.459-1.049 1.25-2.456 2.781-3.339 2.002-1.155 3.604-3.813 4.373-5.532a8.94 8.94 0 0 0 1.624-.158c.596-.113 1.324.076 2.146.224.722.131 1.318.25 1.599 1.038.132.371-.033 1.541-.199 2.261-.179.776-1.114 1.48-1.336 1.596-.989.511-.824 1.607.189 1.326-.166.343-.395.679-1.092.975l-.399 1.354.839.825c.148-.488.471-.928.97-1.32.458-.361.977-.39 1.096-1.042.09-.41.469-.593.654-1.014.514-1.715 1.065-3.425 1.68-5.107.203-.556.697-1.096.242-1.875-.465-.798-1.155-1.1-1.669-1.17-.656-.09-1.213-.449-1.638-.718-.736-.466-2.138-1.399-2.975-1.627.146-2.144-.843-4.785-3.01-6.794-1.127-2.479-2.387-4.356-4.671-5.752-1.425-.872-2.537-2.397-3.382-3.156-.043.002.008.008.105.031.463.111 2.245.355 2.823-.447.383.455 1.065.829 1.76 1.284-.818 2.739 4.856 1.752 1.54.443-.656-.259-.146-1.89 1.022.117.979 1.679 2.997-2.382.041-3.131-.843-1.016-1.573-2.029-2.193-3.033-.491-1.508-1.386-1.787-2.171-2.666-.415-.386-.794-1.215-1.209-1.601.87-1.085.241-1.828-.09-2.641-.238.642-.584 1.204-1.174 1.586-.072-.757-.386-1.282-.732-1.773-.23.638-.463 1.278-1.162 2.12-1.63 1.601-2.253 2.881-2.845 4.149l-2.044 10.03c.602.878 3.326 3.657 3.846 4.549z" class="B E"/><path d="M18.076 73.091c-.014 0-.027-.002-.041-.006l-1.328-.423c-.055-.018-.094-.068-.095-.125-.031-.63-.547-1.067-.917-1.362a.83.83 0 0 1-.146.351c-.273.379-.623.499-.939.322-.428-.24-.672-1.014-.352-1.785.506-1.539-.023-2.984-.537-4.383-.452-1.233-.88-2.397-.635-3.611.113-.556.506-.79.921-1.038l.539-.357c.327-.261.606-.632.898-1.022.347-.46.738-.983 1.287-1.426.444-.357.483-.872.125-1.621-1.381-2.885-2.679-6.591-.434-9.655 3.4-4.643 4.998-8.792 2.461-15.125-.286-.482-1.26-1.568-2.12-2.526-.74-.825-1.441-1.603-1.716-2.005-.021-.031-.029-.068-.021-.105l2.044-10.03a.2.2 0 0 1 .01-.031c.551-1.182 1.174-2.52 2.868-4.19.678-.821.907-1.455 1.129-2.07.018-.049.06-.084.111-.09a.14.14 0 0 1 .131.057c.294.415.609.911.726 1.607.407-.32.709-.767.937-1.387.019-.053.07-.09.127-.09s.109.033.131.086c.055.133.117.263.179.394.304.64.645 1.362-.035 2.286.187.201.364.472.537.735.191.293.387.593.584.774.243.273.493.484.734.691.549.466 1.118.948 1.468 2.021.604.979 1.324 1.978 2.144 2.969 1.011.271 1.595.975 1.606 1.939.01.841-.446 1.68-.995 1.832-.189.053-.551.064-.849-.449-.426-.733-.761-.952-.917-.915-.09.021-.131.135-.138.224-.01.142.047.314.201.375 1.086.429 1.203.821 1.112 1.075-.177.49-1.213.616-1.937.376-.8-.265-1.133-.884-.927-1.705l-.345-.219c-.479-.302-.935-.589-1.252-.917-.571.575-1.78.542-2.489.441.181.185.374.392.571.607.701.759 1.495 1.619 2.442 2.196 2.524 1.543 3.758 3.692 4.714 5.787 2 1.863 3.156 4.445 3.04 6.775.771.248 1.9.969 2.658 1.455l.269.172c.421.267.946.599 1.562.685.341.047 1.198.261 1.768 1.239.393.671.146 1.186-.074 1.639-.058.123-.115.238-.156.353-.551 1.506-1.1 3.174-1.676 5.099-.097.224-.234.38-.352.517-.138.158-.257.294-.3.486-.093.515-.425.696-.744.87-.134.072-.271.148-.401.252-.473.373-.783.796-.923 1.252-.014.047-.051.082-.097.094s-.097-.002-.13-.035l-.839-.825c-.037-.035-.051-.09-.035-.139l.399-1.354a.14.14 0 0 1 .078-.088c.498-.213.738-.441.888-.665-.38.018-.602-.174-.685-.39-.14-.357.056-.915.693-1.242.212-.109 1.1-.79 1.266-1.504.187-.808.312-1.878.204-2.183-.245-.692-.728-.811-1.493-.948l-.425-.08c-.646-.125-1.205-.232-1.671-.144a9.08 9.08 0 0 1-1.56.16c-.894 1.966-2.506 4.424-4.395 5.514-1.153.665-2.039 1.726-2.706 3.24.117.843.428 1.648.791 2.579l.236.612c.204.542.014 1.053-.208 1.646-.08.213-.162.431-.234.671-.732 2.446-2.496 4.184-5.721 5.639-.125.057-.286.109-.456.168-.555.185-1.246.417-1.314.895l-.08.519c-.238 1.516-.534 3.4.391 4.559.487.609.567.858.74 1.404l.09.275c.144.242.422.423.691.599.173.113.337.22.467.343.055.051.058.136.008.191l-1.028 1.168c-.025.031-.064.049-.103.049zm-1.198-.665l1.155.367.876-.995c-.095-.076-.208-.148-.327-.226-.286-.187-.61-.4-.785-.704-.004-.008-.008-.016-.012-.025l-.095-.293c-.169-.529-.239-.747-.693-1.317-1.001-1.254-.695-3.205-.448-4.773l.08-.517c.093-.646.907-.919 1.501-1.118.163-.055.319-.107.43-.158 3.147-1.418 4.864-3.104 5.571-5.466.074-.248.158-.472.239-.689.21-.562.376-1.006.208-1.451l-.236-.611c-.374-.962-.697-1.793-.812-2.682-.004-.025 0-.051.01-.074.695-1.59 1.624-2.702 2.837-3.404 1.858-1.073 3.448-3.527 4.317-5.468.021-.049.072-.082.125-.082.534-.002 1.057-.053 1.599-.156.518-.097 1.1.014 1.774.144l.421.08c.717.129 1.392.25 1.704 1.128.152.427-.039 1.66-.195 2.337-.191.829-1.153 1.557-1.408 1.687-.493.255-.658.651-.563.897.078.201.321.265.65.175a.14.14 0 0 1 .142.045c.035.041.043.099.017.148-.193.402-.456.73-1.102 1.016l-.358 1.213.625.616c.177-.431.493-.827.94-1.18.148-.117.304-.201.44-.277.31-.17.535-.293.606-.683.058-.265.212-.443.362-.612.111-.129.228-.261.304-.431.574-1.914 1.124-3.587 1.677-5.099.047-.129.109-.256.167-.379.206-.429.403-.835.084-1.379-.51-.872-1.266-1.063-1.568-1.104-.676-.094-1.252-.458-1.673-.724l-.269-.172c-.732-.468-1.959-1.252-2.689-1.453-.064-.018-.105-.078-.101-.142.154-2.284-.981-4.843-2.965-6.683-.014-.012-.023-.027-.031-.045-.938-2.064-2.148-4.182-4.619-5.692-.977-.597-1.822-1.512-2.5-2.245-.312-.338-.608-.657-.87-.897-.049-.02-.099-.058-.093-.14.006-.068.076-.125.146-.129.029-.002.056.006.08.021l.064.014c.43.103 2.15.343 2.679-.392.025-.035.064-.056.107-.056s.084.016.111.049c.29.343.779.654 1.297.979l.432.277a.14.14 0 0 1 .056.156c-.29.971.327 1.334.72 1.465.697.23 1.501.039 1.591-.209.051-.14-.169-.413-.954-.724-.284-.113-.393-.41-.376-.654s.156-.429.35-.474c.243-.057.654.078 1.217 1.046.156.269.337.376.536.322.382-.105.8-.796.792-1.562-.006-.494-.201-1.369-1.441-1.685-.029-.008-.055-.023-.072-.045-.843-1.018-1.585-2.044-2.204-3.049-.006-.01-.01-.019-.014-.029-.327-1.008-.843-1.445-1.39-1.91a6.99 6.99 0 0 1-.753-.708c-.21-.195-.417-.511-.617-.817-.191-.293-.387-.593-.582-.774-.053-.049-.058-.131-.014-.187.672-.837.395-1.418.076-2.093-.018-.037-.035-.072-.051-.109-.271.607-.627 1.04-1.104 1.348-.041.025-.092.029-.134.008s-.072-.062-.078-.111c-.06-.628-.302-1.098-.557-1.486a6.08 6.08 0 0 1-1.092 1.91c-1.661 1.639-2.274 2.949-2.814 4.106l-2.031 9.956c.286.4.954 1.145 1.661 1.929.917 1.02 1.865 2.077 2.157 2.579.004.006.006.012.01.018 2.59 6.457.968 10.68-2.49 15.4-2.157 2.945-.886 6.556.461 9.371.417.87.351 1.51-.201 1.956-.522.421-.888.907-1.24 1.377-.304.406-.592.788-.946 1.073-.191.154-.384.267-.571.378-.393.234-.703.417-.793.854-.23 1.135.185 2.265.623 3.46.53 1.442 1.077 2.934.535 4.574-.263.636-.09 1.27.228 1.447.253.142.473-.092.58-.242.084-.115.119-.269.109-.457-.004-.055.027-.107.076-.131a.14.14 0 0 1 .15.017l.158.129c.397.312.983.778 1.065 1.504z" class="C"/><path d="M33.748 50.146l-1.947-.357-.485 3.712c1.196-.31 1.918-.519 2.87-1.174l-.438-2.181z" class="B D"/><path d="M31.317 53.638c-.033 0-.066-.012-.091-.035-.035-.031-.051-.076-.045-.121l.485-3.712c.004-.037.025-.072.056-.094a.14.14 0 0 1 .107-.023l1.947.357c.056.01.099.053.111.109l.438 2.179c.012.055-.012.109-.056.14-.975.671-1.706.882-2.915 1.194-.014.006-.025.006-.037.006zm.602-3.687l-.438 3.365c1.032-.269 1.708-.482 2.555-1.051l-.403-1.997-1.714-.316z" class="C"/><path d="M33.53 69.26l.027 2.596 4.292-.055c-.615-1.401-1.013-2.243-1.965-3.287l-2.354.745z" class="B D"/><path d="M33.558 71.995a.14.14 0 0 1-.097-.039c-.025-.025-.041-.06-.041-.097l-.027-2.596c0-.061.039-.115.097-.133l2.356-.745c.051-.016.107 0 .144.039.97 1.063 1.369 1.913 1.988 3.324.019.043.016.092-.01.131s-.068.062-.115.064l-4.295.053zm.111-2.633l.025 2.354 3.945-.051c-.549-1.243-.941-2.038-1.797-2.992l-2.173.689z" class="C"/><path d="M16.748 72.529l.027 2.596 4.292-.055c-.615-1.4-1.013-2.243-1.965-3.287l-2.354.745z" class="B D"/><path d="M16.777 75.264a.14.14 0 0 1-.097-.039c-.025-.025-.041-.06-.041-.098l-.027-2.596a.14.14 0 0 1 .097-.133l2.356-.745c.051-.016.107 0 .144.039.972 1.063 1.369 1.914 1.988 3.324.02.043.016.092-.01.131s-.068.063-.115.064l-4.295.053zm.111-2.633l.025 2.354 3.945-.051c-.549-1.243-.941-2.038-1.797-2.992l-2.173.689zm6.953-19.88a.13.13 0 0 1-.095-.039c-.055-.053-.058-.14-.006-.195.865-.913 1.529-1.74 1.556-3.361.002-.076.06-.139.14-.137a.14.14 0 0 1 .136.14c-.029 1.72-.724 2.588-1.632 3.546-.025.029-.062.045-.099.045zm6.938-9.728c-1.258 0-2.459-.261-3.875-.653-.074-.02-.117-.096-.095-.17s.095-.117.169-.096c1.408.39 2.603.644 3.842.644.076 0 .138.06.138.139s-.06.139-.138.139c-.014-.002-.027-.002-.041-.002zm1.768-4.434c-.023 0-.047-.006-.068-.018l-.351-.218c-.226-.146-.44-.287-.678-.373-.21-.076-.432-.103-.67-.135l-.596-.105c-.146-.041-.275-.113-.399-.183l-.173-.094a.14.14 0 0 1-.064-.185.14.14 0 0 1 .185-.064l.187.102c.115.064.224.127.337.158.177.051.362.072.557.097.241.031.491.062.728.148.267.098.504.252.734.4l.337.211c.066.037.09.123.051.189-.023.047-.07.07-.117.07z" class="C"/><path d="M21.935 12.441c.448.222 1.174.583 1.669 1.018.571.501 1.27.837 2.093.999-.586.652-1.665.804-2.348.215-.588-.505-1.289-.679-1.776-.687.378-.537.383-1.166.362-1.545z" class="B E"/><path d="M24.377 15.18c-.407 0-.806-.131-1.12-.402-.687-.591-1.466-.649-1.688-.653-.051 0-.097-.029-.121-.076s-.02-.101.01-.142c.39-.55.353-1.233.339-1.457a.14.14 0 0 1 .062-.123c.041-.027.093-.031.138-.008l-.06.123.064-.123c.444.22 1.188.591 1.696 1.038.551.484 1.233.809 2.029.967.049.01.088.045.103.092a.14.14 0 0 1-.029.137 1.93 1.93 0 0 1-1.423.628zm-2.568-1.317c.374.043 1.034.191 1.628.704.543.468 1.398.439 1.976-.031-.736-.183-1.375-.511-1.9-.975-.411-.361-.999-.677-1.431-.895 0 .3-.039.763-.273 1.198zm7.418 9.786c-.049 0-.097-.027-.121-.072-.037-.066-.012-.15.056-.187.133-.072.245-.259.317-.529.053-.195.07-.628-.082-.796-.031-.033-.084-.076-.199-.059-.187.029-.212.121-.23.267-.017.139.029.294.148.505a.14.14 0 0 1-.053.189.14.14 0 0 1-.189-.053c-.101-.179-.214-.419-.183-.675.016-.133.055-.443.459-.507a.47.47 0 0 1 .448.146c.247.275.203.829.142 1.053-.095.353-.247.589-.452.7a.15.15 0 0 1-.064.016zm-7.746-.761a.11.11 0 0 1-.043-.008c-.51-.168-.884-.447-1.141-.849-.041-.064-.023-.15.041-.191s.15-.023.191.041c.222.347.549.587.997.735.072.023.111.101.088.175a.14.14 0 0 1-.132.096z" class="C"/><path d="M25.346 36.029c-1.501-.587-2.977-.638-4.545-.258-1.871.454-2.572-.794-2.991-2.2-1.09-.72-1.258-1.477-1.233-2.241-1.359-.767-1.632-1.613-1.603-2.479-.886-.776-1.211-1.662-.716-2.707-.931-1.157-.828-2.124-.434-3.037-.495-1.424-.055-2.29.518-3.078-.016-1.921.684-2.672 1.528-3.183.202-.815.67-1.492 1.4-2.032.999-2.28 2.062-2.218 3.119-2.294-.491.749-.917 1.473-1.007 2.175-.154 1.2.271 2.073.518 2.94.228.794-.134 1.449-.633 1.873.263.577.674 1.129-.006 1.878.333.495.629 1.001-.191 1.759.685.628 1.225 1.317.734 2.421.57.316.966.946 1.012 1.964.557.199 1.059.527 1.182 1.765.66.373 1.297.778 1.201 2.21.572.347 1.124.729 1.024 2.218.777.593 1.203 1.338 1.12 2.308z" class="B E"/><g class="C"><path d="M25.347 36.168c-.018 0-.033-.004-.051-.01-1.419-.554-2.88-.636-4.463-.252-2.017.49-2.742-.93-3.141-2.247-1.1-.743-1.264-1.547-1.256-2.249-1.423-.831-1.616-1.761-1.602-2.499-.923-.833-1.172-1.758-.738-2.748-.97-1.25-.746-2.288-.421-3.062-.497-1.486.004-2.389.528-3.117-.004-1.978.771-2.748 1.546-3.226.214-.807.687-1.49 1.41-2.033.974-2.198 2.027-2.267 3.045-2.331l.175-.012c.053-.004.101.023.128.068s.025.101-.004.146c-.43.655-.896 1.414-.985 2.116-.119.927.119 1.652.349 2.352l.168.531c.203.704-.016 1.408-.596 1.947l.053.109c.242.495.514 1.053-.054 1.744.28.425.576.991-.164 1.746.633.605 1.12 1.317.707 2.366.426.275.898.825.972 1.923.617.24 1.052.655 1.18 1.777.59.334 1.283.776 1.215 2.222.611.38 1.098.843 1.022 2.228.818.651 1.194 1.453 1.112 2.386-.004.043-.027.082-.064.105-.019.012-.045.02-.07.02zm-2.615-.776c.851 0 1.677.146 2.486.441.014-.784-.339-1.441-1.073-2.003a.14.14 0 0 1-.055-.119c.097-1.451-.438-1.775-.958-2.089-.045-.027-.07-.076-.066-.127.092-1.391-.53-1.742-1.131-2.081-.039-.021-.064-.062-.07-.107-.121-1.205-.606-1.477-1.09-1.648-.053-.02-.09-.068-.091-.125-.041-.891-.366-1.529-.941-1.849-.062-.035-.088-.111-.058-.178.426-.958.047-1.576-.701-2.263-.029-.025-.045-.062-.045-.101s.016-.076.045-.101c.759-.702.471-1.128.169-1.58-.035-.053-.031-.123.012-.17.535-.591.325-1.02.082-1.52l-.099-.209c-.025-.056-.012-.123.037-.162.325-.277.835-.87.59-1.728l-.164-.521c-.228-.696-.487-1.485-.36-2.473.086-.675.479-1.375.878-2.001-.948.062-1.846.185-2.728 2.194-.01.021-.025.041-.045.057-.701.517-1.155 1.174-1.349 1.954-.008.035-.031.066-.062.086-.767.462-1.476 1.155-1.462 3.064 0 .029-.01.058-.027.082-.522.716-.991 1.535-.5 2.951.012.033.01.068-.004.1-.331.767-.539 1.711.415 2.897.033.041.041.098.018.146-.438.927-.214 1.759.684 2.546.031.027.049.068.047.109-.025.722.136 1.566 1.533 2.354.045.025.072.074.07.125-.021.687.105 1.418 1.172 2.12.027.017.047.045.056.076.685 2.294 1.813 2.351 2.827 2.105.672-.17 1.324-.252 1.961-.252z"/><path d="M24.237 33.867a.14.14 0 0 1-.056-.012c-1.104-.501-2.247-.573-3.596-.228-1.184.302-1.883.207-2.623.107l-.16-.021c-.076-.01-.129-.08-.119-.156s.08-.129.156-.119l.16.022c.744.101 1.386.189 2.518-.102 1.412-.361 2.613-.283 3.778.246.07.031.101.113.068.183-.021.049-.072.08-.125.08zm-1.057-2.241c-.02 0-.041-.004-.058-.014-1.059-.507-2.237-.581-3.709-.238-1.297.304-2.046.228-2.821.109-.076-.012-.127-.082-.115-.158s.084-.127.158-.115a6.3 6.3 0 0 0 2.718-.105c1.536-.359 2.773-.277 3.89.257.068.033.097.115.064.183-.025.051-.074.08-.127.08zm-1.198-2.208a.15.15 0 0 1-.064-.016c-1.328-.712-2.603-.558-3.902-.32-1.347.248-2.097.135-3.012-.051-.074-.016-.123-.088-.107-.164s.088-.123.164-.107c.911.185 1.606.289 2.907.051 1.348-.248 2.674-.408 4.081.349.068.035.094.119.056.187-.025.045-.074.07-.123.07zm-1.168-1.756c-.016 0-.031-.002-.047-.008-1.244-.445-2.566-.839-3.807-.724-1.437.135-1.982.004-2.777-.665-.058-.049-.066-.137-.017-.195s.136-.066.195-.018c.732.618 1.213.73 2.572.603 1.295-.123 2.652.283 3.925.737.072.025.109.105.084.178-.018.056-.072.092-.128.092zm-.987-1.953c-.021 0-.045-.006-.066-.016l-.312-.168c-1.199-.649-1.748-.946-2.508-1.022-2.551-.259-3.137-1.129-3.228-1.301a.14.14 0 0 1 .056-.187.14.14 0 0 1 .187.057c.179.334 1.014.954 3.014 1.157.816.082 1.416.408 2.611 1.055l.312.168c.066.037.091.121.056.187-.025.045-.074.07-.123.07zm-.752-2.428c-.033 0-.066-.012-.093-.035-.666-.605-1.507-1.075-2.646-1.485-1.476-.529-1.897-1.125-2.113-1.636-.029-.07.004-.152.074-.181s.152.004.181.074c.193.456.576.991 1.951 1.484 1.174.421 2.044.911 2.738 1.539.056.051.06.138.01.195-.025.031-.064.045-.101.045zm.203-1.742c-.041 0-.082-.018-.109-.053-.52-.673-1.199-1.077-1.92-1.508l-.619-.377c-1.229-.778-1.046-1.882-.925-2.612l.023-.138c.012-.076.082-.127.158-.115s.127.082.115.158l-.023.14c-.121.737-.273 1.654.8 2.335l.611.373c.744.443 1.445.862 1.996 1.576.047.06.035.146-.025.193a.13.13 0 0 1-.082.027zm-.014-1.919a.14.14 0 0 1-.119-.068c-.245-.423-.559-.79-.863-1.147l-.742-.95c-.831-1.276-.545-2.194-.422-2.587l.031-.107c.019-.074.093-.119.167-.1s.119.094.099.168c-.008.033-.021.074-.035.121-.121.384-.372 1.186.389 2.352.212.326.46.616.722.923.311.365.635.743.892 1.188.039.066.016.15-.051.189-.021.012-.047.018-.07.018z"/></g><path d="M74.102 49.539c1.057 6.209 7.316 4.412 7.312-.987-.002-2.421-2.619-9.316 2.551-6.78-.214-1.652-1.544-3.499-4.216-3.726l-1.937 3.061 1.361 8.817-2.041 2.054-2.177-1.038-.853-1.401z" class="B D"/><path d="M77.56 53.599c-1.451 0-3.086-1.049-3.594-4.036-.012-.066.025-.129.088-.152s.132.002.166.058l.829 1.365 2.05.977 1.922-1.935-1.349-8.748c-.006-.033.002-.066.019-.096l1.937-3.06a.14.14 0 0 1 .129-.064c2.685.226 4.116 2.095 4.342 3.845.006.051-.016.1-.056.131s-.095.035-.14.012c-1.174-.575-2.007-.689-2.477-.335-.882.665-.487 2.934-.167 4.758l.292 2.233c.004 3.064-1.922 4.88-3.735 5.036l-.255.012zm-3.145-3.275c.648 2.343 2.122 3.096 3.376 2.988 1.69-.144 3.485-1.861 3.481-4.759 0-.544-.14-1.342-.288-2.187-.349-1.997-.746-4.26.273-5.027.531-.4 1.359-.335 2.525.195-.397-2.075-2.235-3.168-3.968-3.343l-1.865 2.943 1.353 8.766c.006.043-.008.088-.039.119l-2.041 2.054c-.041.041-.105.053-.158.027l-2.177-1.038c-.023-.012-.045-.029-.058-.053l-.415-.687z" class="C"/><path d="M74.339 49.953c.203.568.38 1.319 1.326 1.921 2.189 1.397 4.319-.433 4.488-2.506.306-3.718-3.199-8.179-.068-10.721 1.875-1.523 1.067-3.228-.169-4.633l-3.945 3.039.306 4.211 2.041 5.825-.238 2.86-.748 1.038-1.496.027-1.497-1.061z" class="B D"/><path d="M77.233 52.505c-.551 0-1.108-.172-1.641-.511-.894-.57-1.131-1.264-1.322-1.822l-.058-.17c-.019-.056-.002-.121.047-.156s.115-.037.163-.002l1.458 1.038 1.383-.025.685-.95.232-2.793-2.031-5.797c-.004-.012-.006-.024-.008-.035l-.306-4.211c-.004-.047.017-.092.054-.119l3.945-3.039c.056-.045.14-.037.187.018.952 1.081 1.38 2.032 1.306 2.91-.058.702-.446 1.348-1.153 1.921-1.898 1.541-1.262 3.837-.586 6.265.403 1.453.82 2.955.705 4.36-.099 1.211-.828 2.323-1.856 2.834-.387.189-.794.285-1.205.285zm-2.621-2.187c.175.482.43.997 1.128 1.442.845.54 1.76.614 2.574.209.942-.468 1.61-1.492 1.702-2.61.111-1.356-.3-2.834-.697-4.262-.699-2.52-1.361-4.898.68-6.554.647-.525 1.001-1.106 1.052-1.73.064-.773-.314-1.625-1.155-2.606l-3.779 2.914.3 4.118 2.035 5.807c.006.018.01.037.008.057l-.238 2.86c-.002.025-.012.049-.025.07l-.748 1.038c-.025.035-.066.057-.109.057l-1.495.027c-.027 0-.058-.008-.082-.025l-1.149-.809z" class="C"/><path d="M74.407 49.639c1.297 1.804 3.48 1.176 3.236-1.202-.471-4.615-7.997-13.069-1.503-15.529 1.965-.743 2.767-1.867 2.907-3.458 3.018 3.355.939 4.793-1.48 6.486-2.822 1.976 1.285 9.462 1.48 12.777.107 1.818-2.029 3.532-3.824 2.337-.615-.408-.746-1.012-.816-1.41z" class="B D"/><path d="M76.495 51.586c-.465 0-.927-.14-1.347-.421-.691-.46-.816-1.164-.876-1.502-.012-.064.023-.127.082-.152s.129-.006.166.047c.58.808 1.4 1.163 2.083.901.658-.25 1.005-1.02.904-2.009-.148-1.449-1.005-3.287-1.91-5.23-1.396-2.994-2.841-6.092-1.947-8.296.388-.958 1.209-1.679 2.442-2.146 1.807-.685 2.675-1.715 2.818-3.341.004-.055.041-.101.093-.119s.109-.002.146.039c1.133 1.258 1.63 2.339 1.521 3.301-.158 1.383-1.536 2.348-2.997 3.371l-.025.018c-1.799 1.26-.611 4.99.436 8.278.534 1.674 1.036 3.256 1.102 4.375.058.987-.52 2.005-1.437 2.534a2.45 2.45 0 0 1-1.252.353zm-1.807-1.41a1.61 1.61 0 0 0 .609.759c.715.474 1.556.497 2.311.062.829-.478 1.351-1.393 1.301-2.276-.064-1.087-.563-2.651-1.088-4.309-1.077-3.38-2.296-7.213-.331-8.589l.025-.017c1.408-.987 2.738-1.918 2.882-3.176.093-.821-.316-1.758-1.248-2.854-.234 1.566-1.159 2.581-2.96 3.263-1.174.445-1.922 1.096-2.284 1.992-.849 2.093.569 5.134 1.941 8.075.917 1.966 1.782 3.821 1.936 5.319.115 1.12-.3 1.998-1.081 2.296-.656.246-1.404.033-2.013-.546z" class="C"/><path d="M68.803 53.365c-1.334 2.317-4.626 5.984-2.923 8.041.491.593.528 1.166.132 1.781-1.414 2.2-5.144 1.761-6.498 4.545-.46 1.161-1.815 1.301-1.639.181-.389.265-1.24.525-1.365 1.346l-1.336.441-1.012-1.213c.356-.275 1.094-.501 1.39-.913.436-.607.432-1.178 1.275-1.504 1.733-.72 3.828-2.013 4.751-3.482.391-.622-.306-1.6-.514-2.13-1.684-4.264-1.427-7.102 1.201-9.254 1.497-1.227 1.838-2.107 2.27-3.3l4.266 5.462z" class="B E"/><path d="M55.173 69.84c-.041 0-.08-.018-.105-.049l-1.013-1.213c-.023-.029-.035-.066-.031-.103s.023-.072.053-.094c.142-.109.333-.207.534-.312.31-.16.662-.341.829-.574.127-.175.214-.349.3-.517.206-.406.401-.788 1.038-1.034 1.653-.687 3.756-1.951 4.683-3.427.263-.418-.064-1.063-.325-1.58l-.2-.425c-1.756-4.447-1.385-7.262 1.242-9.412 1.499-1.227 1.821-2.114 2.227-3.24a.14.14 0 0 1 .107-.09.14.14 0 0 1 .13.051l4.268 5.46a.14.14 0 0 1 .012.154l-1.051 1.637c-1.408 2.097-3.16 4.705-1.885 6.246.528.636.574 1.274.142 1.945-.676 1.049-1.821 1.506-3.034 1.986-1.351.536-2.749 1.09-3.456 2.546-.306.776-.995 1.129-1.455 1.003-.28-.076-.444-.304-.462-.63l-.082.045c-.405.219-.907.492-.995 1.071-.008.051-.045.094-.093.111l-1.336.441c-.014.004-.029.006-.043.006zm-.81-1.323l.855 1.024 1.168-.386c.14-.655.705-.962 1.12-1.186l.288-.168c.045-.031.105-.033.152-.002s.072.084.062.138c-.029.189-.037.517.247.593.3.082.861-.168 1.129-.849.758-1.561 2.206-2.134 3.606-2.69 1.17-.464 2.276-.903 2.905-1.879.364-.566.325-1.079-.123-1.619-1.408-1.699.409-4.404 1.867-6.577l.995-1.541-4.056-5.191c-.388 1.057-.775 1.937-2.228 3.125-2.518 2.06-2.864 4.781-1.161 9.096.045.113.115.254.191.402.279.55.658 1.303.312 1.853-.962 1.531-3.117 2.83-4.815 3.536-.543.209-.697.515-.896.903-.089.177-.183.361-.321.554-.206.287-.588.484-.927.657l-.372.205z" class="C"/><path d="M71.033 31.767c-2.477 6.178-1.155 10.313 2.475 15.267 2.161 2.951.952 6.589-.448 9.513-.329.687-.407 1.328.162 1.789.999.806 1.451 1.859 2.187 2.448.6.48 1.268.597 1.412 1.313.518 2.565-2.132 5.077-1.164 8.019.479 1.153-.391 2.249-1.051 1.33-.088-.123-.148-.298-.136-.546-.36.304-1.137.802-1.178 1.631l-1.328.423-1.028-1.168c.327-.308.935-.546 1.188-.985.253-.767.265-.968.812-1.652 1.077-1.348.571-3.609.341-5.185-.105-.728-1.332-.934-1.852-1.168-3.328-1.5-4.965-3.275-5.647-5.551-.273-.909-.699-1.553-.444-2.228.454-1.2.901-2.204 1.04-3.259-.459-1.05-1.25-2.456-2.78-3.34-2.002-1.155-3.604-3.813-4.373-5.532a8.94 8.94 0 0 1-1.624-.158c-.596-.113-1.324.076-2.146.224-.722.131-1.318.25-1.599 1.038-.132.371.033 1.541.199 2.261.179.776 1.114 1.48 1.336 1.596.989.511.824 1.607-.189 1.326.166.343.395.679 1.092.975l.399 1.354-.839.825c-.148-.488-.471-.928-.97-1.32-.458-.361-.977-.39-1.096-1.042-.09-.41-.469-.593-.654-1.014-.516-1.715-1.065-3.425-1.68-5.107-.203-.556-.697-1.096-.242-1.875.465-.798 1.155-1.1 1.669-1.17.656-.09 1.213-.449 1.638-.718.736-.466 2.138-1.399 2.975-1.627-.146-2.144.843-4.785 3.01-6.794 1.127-2.479 2.387-4.356 4.671-5.752 1.425-.872 2.537-2.397 3.382-3.156.043.002-.008.008-.105.031-.463.111-2.245.355-2.823-.447-.384.454-1.065.829-1.76 1.284.818 2.739-4.856 1.752-1.54.443.656-.259.146-1.89-1.022.117-.98 1.68-2.997-2.382-.041-3.131.843-1.016 1.573-2.029 2.193-3.033.491-1.508 1.386-1.787 2.171-2.666.415-.386.794-1.215 1.209-1.601-.87-1.085-.241-1.828.09-2.641.238.642.584 1.204 1.174 1.586.072-.757.386-1.281.732-1.773.23.638.464 1.278 1.163 2.12 1.626 1.603 2.249 2.881 2.841 4.151l2.044 10.03c-.598.876-3.322 3.655-3.842 4.547z" class="B E"/><path d="M71.964 73.091c-.039 0-.076-.016-.103-.047l-1.028-1.168c-.049-.057-.045-.14.008-.191.13-.123.294-.23.465-.343.269-.175.545-.357.691-.599l.09-.277c.175-.546.253-.796.74-1.404.925-1.159.629-3.045.391-4.559l-.08-.519c-.07-.478-.759-.708-1.314-.895l-.456-.168c-3.225-1.453-4.991-3.193-5.721-5.639l-.234-.671c-.222-.593-.413-1.104-.208-1.646l.236-.61c.362-.931.676-1.738.79-2.581-.668-1.514-1.554-2.575-2.706-3.24-1.889-1.09-3.499-3.546-4.395-5.514a9.08 9.08 0 0 1-1.56-.16c-.465-.088-1.024.02-1.671.144l-.424.08c-.765.139-1.246.258-1.493.948-.109.304.017 1.375.204 2.183.164.714 1.053 1.395 1.266 1.504.637.33.833.886.693 1.242-.084.217-.31.408-.685.39.15.226.388.455.886.665a.14.14 0 0 1 .078.088l.399 1.354c.014.049 0 .101-.035.139l-.837.825c-.035.035-.084.047-.131.035s-.084-.047-.097-.094c-.138-.458-.448-.88-.923-1.252-.13-.103-.269-.178-.401-.252-.319-.176-.65-.355-.746-.876-.041-.185-.16-.324-.298-.482-.119-.137-.255-.293-.347-.501l-1.682-5.114a4.46 4.46 0 0 0-.156-.353c-.218-.452-.467-.967-.074-1.638.571-.975 1.427-1.19 1.768-1.239.617-.084 1.141-.417 1.562-.685l.269-.172c.757-.486 1.887-1.206 2.658-1.455-.117-2.329 1.04-4.912 3.04-6.775.956-2.095 2.191-4.244 4.714-5.787.944-.577 1.741-1.438 2.442-2.196l.57-.607c-.711.103-1.918.135-2.488-.441-.317.326-.773.612-1.252.915l-.345.218c.206.823-.127 1.442-.927 1.705-.724.24-1.76.113-1.937-.376-.091-.254.027-.648 1.112-1.075.154-.06.212-.232.201-.374-.008-.092-.047-.205-.138-.226-.158-.037-.491.181-.917.915-.298.511-.66.499-.849.449-.549-.152-1.005-.991-.995-1.832.01-.962.596-1.666 1.606-1.939.82-.991 1.54-1.99 2.144-2.969.352-1.071.919-1.553 1.468-2.021l.726-.681c.204-.191.401-.492.592-.784.173-.263.35-.537.537-.737-.68-.925-.337-1.646-.035-2.286l.179-.394c.021-.053.064-.09.13-.086.056 0 .107.037.127.09.23.622.53 1.069.937 1.387.117-.694.432-1.192.726-1.607.029-.041.082-.064.13-.057s.093.041.111.09c.222.614.45 1.248 1.139 2.079 1.684 1.66 2.307 2.998 2.858 4.18.004.01.008.02.01.031l2.045 10.03c.008.037 0 .074-.021.105-.275.402-.976 1.18-1.716 2.005l-2.12 2.526c-2.537 6.332-.939 10.483 2.461 15.125 2.245 3.064.946 6.769-.434 9.655-.358.749-.317 1.264.125 1.621.549.443.94.965 1.287 1.426.294.39.57.761.9 1.022.177.142.36.252.539.357.417.248.81.48.921 1.038.245 1.211-.183 2.376-.635 3.611-.512 1.398-1.044 2.844-.534 4.393.317.761.074 1.537-.354 1.775-.315.178-.668.057-.938-.322-.072-.101-.121-.218-.146-.351-.37.295-.888.732-.917 1.362-.002.058-.041.107-.095.125l-1.328.423c-.016.012-.029.014-.043.014zm-.833-1.293l.876.995 1.155-.367c.082-.728.668-1.192 1.061-1.504l.158-.129c.043-.035.101-.043.15-.017s.08.076.076.131c-.01.187.027.341.109.456.109.15.327.384.58.242.317-.177.491-.811.232-1.438-.543-1.65.004-3.142.534-4.584.438-1.196.853-2.325.623-3.46-.088-.437-.399-.62-.793-.854-.187-.111-.38-.224-.57-.378-.354-.285-.643-.667-.946-1.073-.352-.47-.717-.954-1.24-1.377-.551-.445-.617-1.085-.201-1.956 1.347-2.817 2.619-6.425.462-9.371-3.458-4.721-5.08-8.944-2.49-15.4.3-.521 1.25-1.576 2.165-2.596.705-.786 1.373-1.529 1.659-1.929l-2.031-9.956c-.539-1.157-1.155-2.467-2.806-4.096a6.06 6.06 0 0 1-1.102-1.919c-.255.388-.496.858-.557 1.486-.004.049-.033.09-.078.111s-.093.018-.134-.008c-.477-.308-.833-.741-1.104-1.348l-.051.109c-.319.673-.596 1.256.076 2.093.045.056.039.138-.014.187-.195.181-.393.484-.584.774-.201.306-.407.62-.625.825-.238.269-.495.488-.744.698-.547.464-1.063.903-1.39 1.91-.004.01-.008.02-.014.029a26.61 26.61 0 0 1-2.204 3.049.13.13 0 0 1-.072.045c-1.242.314-1.437 1.19-1.441 1.685-.008.767.411 1.457.792 1.563.201.055.38-.053.535-.322.563-.965.974-1.102 1.217-1.046.195.045.333.232.35.474s-.091.54-.376.654c-.785.31-1.005.583-.954.724.089.248.894.439 1.591.209.393-.131 1.011-.493.722-1.465a.14.14 0 0 1 .056-.156l.434-.277c.518-.328 1.009-.636 1.297-.979.027-.033.068-.049.111-.049s.082.023.107.057c.53.735 2.247.495 2.679.392l.064-.014c.023-.016.055-.023.08-.021.068.004.14.06.146.129.006.082-.045.121-.093.14-.263.24-.559.56-.87.897-.678.734-1.523 1.646-2.5 2.245-2.471 1.51-3.68 3.628-4.619 5.692-.008.018-.018.031-.031.045-1.984 1.838-3.121 4.399-2.966 6.683.004.066-.039.125-.101.142-.73.199-1.957.983-2.689 1.453l-.269.172c-.421.267-.997.632-1.671.724-.302.041-1.059.232-1.568 1.104-.319.544-.123.95.084 1.379.058.123.121.25.168.378.553 1.512 1.104 3.185 1.682 5.115.07.154.185.287.296.416.15.172.304.349.36.609.072.394.296.517.608.687.136.074.292.16.44.277.448.353.763.749.941 1.18l.625-.616-.358-1.213c-.646-.287-.909-.616-1.102-1.016-.023-.049-.016-.107.017-.148a.14.14 0 0 1 .142-.045c.329.092.572.025.65-.176.095-.244-.07-.642-.563-.897-.255-.131-1.217-.858-1.408-1.687-.156-.677-.347-1.91-.195-2.337.312-.878.989-.999 1.704-1.127l.421-.08c.674-.131 1.258-.242 1.774-.144a8.61 8.61 0 0 0 1.599.156c.054 0 .103.031.125.082.868 1.941 2.459 4.397 4.317 5.468 1.215.7 2.144 1.814 2.839 3.404.01.023.014.049.01.074-.117.889-.44 1.721-.812 2.682l-.234.609c-.169.445-.002.889.208 1.451a10.05 10.05 0 0 1 .239.688c.707 2.362 2.424 4.048 5.571 5.466.113.051.267.101.43.158.594.199 1.406.47 1.501 1.118l.08.515c.247 1.568.553 3.521-.448 4.775-.454.57-.524.788-.693 1.317l-.095.293c-.004.01-.008.017-.012.025-.175.306-.5.517-.785.704-.117.082-.23.156-.327.23z" class="C"/><path d="M56.291 50.146l1.947-.357.485 3.712c-1.196-.31-1.918-.519-2.87-1.174l.438-2.181z" class="B D"/><path d="M58.723 53.638c-.012 0-.023-.002-.035-.004-1.209-.312-1.939-.523-2.915-1.194-.045-.031-.068-.088-.056-.141l.438-2.181c.012-.055.055-.097.111-.109l1.947-.357c.037-.006.076.002.105.023s.051.056.056.094l.485 3.712a.14.14 0 0 1-.045.121c-.025.023-.058.035-.092.035zm-2.718-1.375c.847.569 1.523.782 2.555 1.051l-.438-3.365-1.713.314-.403 1.999z" class="C"/><path d="M56.509 69.26l-.027 2.596-4.292-.055c.615-1.401 1.013-2.243 1.965-3.287l2.354.745z" class="B D"/><path d="M56.48 71.995l-4.293-.055c-.047 0-.09-.025-.115-.064s-.029-.088-.01-.131c.619-1.41 1.018-2.261 1.988-3.324.037-.039.091-.055.144-.039l2.356.745c.058.018.097.072.097.133l-.027 2.596c0 .037-.016.072-.041.097s-.062.041-.099.041zm-4.079-.33l3.945.051.025-2.354-2.173-.689c-.857.954-1.248 1.75-1.797 2.992z" class="C"/><path d="M73.292 72.529l-.027 2.596-4.291-.055c.615-1.4 1.013-2.243 1.965-3.287l2.354.745z" class="B D"/><path d="M73.263 75.264l-4.294-.055c-.047 0-.09-.025-.115-.064s-.029-.088-.01-.131c.619-1.41 1.018-2.261 1.988-3.324a.14.14 0 0 1 .144-.039l2.356.745c.058.018.097.072.097.133l-.027 2.596c0 .037-.016.072-.041.098s-.062.041-.099.041zm-4.081-.33l3.945.051.025-2.354-2.173-.689c-.857.956-1.248 1.75-1.797 2.992zm-2.984-22.183a.13.13 0 0 1-.099-.043c-.907-.956-1.602-1.826-1.632-3.546-.002-.076.06-.139.136-.14.084.002.138.061.14.137.027 1.621.691 2.448 1.556 3.361.053.055.051.142-.006.195a.15.15 0 0 1-.095.037zm-6.938-9.728h-.041c-.076 0-.138-.062-.138-.138s.052-.141.138-.139c1.234 0 2.434-.254 3.842-.644.072-.022.15.023.169.096a.14.14 0 0 1-.096.17c-1.416.394-2.619.655-3.875.655zm-1.768-4.434c-.049 0-.095-.025-.121-.07a.14.14 0 0 1 .051-.189l.337-.211c.23-.148.467-.304.734-.4.238-.086.487-.117.728-.148l.557-.097c.115-.031.222-.094.337-.158l.187-.102c.068-.033.152-.006.185.064s.006.152-.064.185l-.173.094c-.125.07-.253.142-.399.183-.197.055-.399.08-.596.105-.236.029-.46.059-.67.135-.238.086-.452.224-.678.373l-.35.218c-.017.012-.041.017-.064.017z" class="C"/><path d="M68.104 12.441c-.448.222-1.174.583-1.669 1.018-.571.501-1.27.837-2.093.999.586.651 1.665.804 2.348.214.588-.505 1.289-.679 1.776-.687-.378-.536-.384-1.166-.362-1.545z" class="B E"/><path d="M65.661 15.18a1.92 1.92 0 0 1-1.421-.628.14.14 0 0 1-.029-.137.14.14 0 0 1 .105-.092c.794-.158 1.478-.484 2.029-.967.508-.447 1.25-.815 1.696-1.038a.14.14 0 0 1 .138.008c.041.027.066.074.064.123-.014.224-.051.907.339 1.457a.14.14 0 0 1 .01.142c-.023.044-.07.074-.121.076-.222.004-1.001.062-1.688.653-.313.269-.715.402-1.121.402zm-1.036-.642c.578.47 1.433.499 1.976.031a3.04 3.04 0 0 1 1.628-.704c-.236-.435-.273-.897-.273-1.196-.432.219-1.02.533-1.431.895-.526.462-1.164.79-1.9.973zm-3.813 9.111c-.021 0-.045-.006-.064-.016-.205-.111-.358-.347-.452-.7-.06-.224-.103-.778.144-1.053a.47.47 0 0 1 .448-.146c.407.064.444.375.459.507.031.258-.082.495-.183.675a.14.14 0 0 1-.189.053c-.068-.037-.09-.121-.053-.189.121-.213.166-.369.148-.505-.017-.146-.043-.238-.23-.267-.113-.017-.169.023-.199.059-.152.168-.134.601-.082.796.072.269.185.456.317.529a.14.14 0 0 1 .056.187c-.025.045-.074.072-.123.072zm7.746-.761c-.058 0-.111-.037-.131-.096a.14.14 0 0 1 .088-.175c.448-.148.773-.388.997-.735.041-.064.126-.082.191-.041s.082.127.041.191c-.259.402-.633.679-1.141.849-.018.006-.031.008-.045.008z" class="C"/><path d="M64.692 36.03c1.501-.587 2.977-.638 4.545-.258 1.871.455 2.572-.794 2.991-2.2 1.09-.72 1.258-1.477 1.233-2.241 1.359-.767 1.632-1.613 1.603-2.479.886-.776 1.211-1.662.717-2.707.931-1.157.828-2.124.434-3.037.495-1.424.055-2.29-.518-3.078.016-1.921-.683-2.672-1.528-3.183-.203-.815-.67-1.492-1.4-2.032-.999-2.28-2.062-2.218-3.119-2.294.491.749.917 1.473 1.007 2.175.154 1.2-.271 2.073-.518 2.939-.228.794.134 1.449.633 1.873-.263.577-.674 1.129.006 1.878-.333.495-.629 1.001.191 1.759-.685.628-1.225 1.317-.734 2.421-.571.316-.966.946-1.013 1.964-.557.199-1.059.527-1.182 1.765-.66.373-1.297.778-1.201 2.21-.572.347-1.124.73-1.024 2.218-.777.593-1.203 1.338-1.12 2.308z" class="B E"/><g class="C"><path d="M64.693 36.168c-.025 0-.051-.008-.072-.022-.037-.023-.06-.062-.064-.105-.08-.932.294-1.734 1.112-2.386-.076-1.385.411-1.847 1.022-2.228-.07-1.445.625-1.886 1.215-2.222.128-1.122.563-1.537 1.18-1.777.074-1.096.545-1.646.972-1.923-.413-1.049.074-1.761.707-2.366-.74-.755-.444-1.32-.163-1.746-.569-.691-.296-1.25-.055-1.744l.053-.109c-.582-.537-.798-1.241-.596-1.947l.167-.53c.23-.7.467-1.424.349-2.353-.09-.702-.555-1.461-.985-2.116-.029-.045-.031-.1-.004-.146s.078-.072.129-.068l.175.012c1.018.064 2.072.133 3.045 2.331.722.54 1.196 1.225 1.41 2.033.775.48 1.55 1.25 1.546 3.226.526.728 1.024 1.631.528 3.117.325.774.549 1.812-.421 3.062.434.991.185 1.916-.738 2.749.014.737-.179 1.668-1.602 2.499.01.702-.156 1.506-1.256 2.249-.399 1.317-1.127 2.737-3.141 2.247-1.583-.384-3.043-.302-4.463.252-.016.008-.033.012-.049.012zm5.22-23.491c.399.626.791 1.325.878 2.001.127.989-.131 1.777-.358 2.473l-.164.521c-.247.858.263 1.451.59 1.728.047.041.062.107.037.162l-.099.209c-.243.497-.454.928.082 1.52.043.047.049.117.012.17-.304.453-.59.878.169 1.58.029.025.045.062.045.101s-.016.076-.045.101c-.75.687-1.127 1.305-.701 2.263.029.066.004.142-.058.178-.576.32-.901.958-.941 1.849-.002.057-.039.105-.091.125-.487.174-.972.443-1.09 1.648-.004.045-.031.084-.07.107-.602.339-1.225.691-1.131 2.081.004.051-.021.101-.066.127-.518.314-1.055.64-.958 2.089.004.047-.018.092-.055.119-.734.562-1.087 1.219-1.073 2.003 1.418-.515 2.876-.579 4.449-.195 1.803.439 2.442-.817 2.827-2.105.01-.031.029-.059.056-.076 1.065-.702 1.194-1.436 1.172-2.12-.002-.051.025-.099.07-.125 1.394-.788 1.558-1.633 1.532-2.354-.002-.041.016-.082.047-.109.898-.786 1.122-1.619.683-2.546-.023-.049-.016-.105.017-.146.954-1.184.746-2.128.415-2.897-.014-.031-.016-.068-.004-.099.491-1.416.021-2.233-.5-2.951-.018-.023-.027-.053-.027-.082.016-1.91-.693-2.6-1.46-3.065-.031-.019-.054-.049-.062-.086-.193-.778-.646-1.436-1.349-1.954-.019-.014-.035-.033-.045-.057-.886-2.003-1.784-2.126-2.734-2.189z"/><path d="M65.801 33.867c-.053 0-.103-.029-.127-.082a.14.14 0 0 1 .068-.183c1.164-.529 2.366-.607 3.778-.246 1.131.289 1.774.203 2.518.101l.16-.021c.074-.01.144.043.154.119a.14.14 0 0 1-.119.156l-.16.021c-.74.101-1.439.195-2.623-.107-1.347-.345-2.49-.271-3.596.228-.014.01-.033.014-.053.014zm1.059-2.241a.14.14 0 0 1-.125-.078c-.033-.068-.004-.152.064-.183 1.118-.535 2.354-.616 3.89-.258a6.3 6.3 0 0 0 2.718.105.14.14 0 0 1 .158.115c.012.076-.041.146-.115.158a6.57 6.57 0 0 1-2.821-.109c-1.47-.343-2.65-.267-3.709.238-.021.006-.041.012-.06.012zm1.198-2.208c-.049 0-.097-.027-.123-.072-.035-.066-.01-.15.056-.187 1.408-.755 2.734-.595 4.081-.349 1.301.24 1.996.135 2.907-.051.074-.016.148.033.162.107s-.033.148-.107.164c-.913.185-1.665.298-3.012.051-1.297-.238-2.572-.394-3.902.32-.018.014-.041.018-.062.018zm1.168-1.756a.14.14 0 0 1-.13-.092.14.14 0 0 1 .084-.178c1.273-.454 2.631-.86 3.925-.737 1.361.129 1.842.016 2.572-.603.058-.049.146-.041.195.018s.041.146-.016.195c-.794.671-1.34.8-2.777.665-1.242-.117-2.564.279-3.807.724-.017.006-.033.008-.047.008zm.987-1.953c-.049 0-.097-.027-.121-.072-.037-.066-.012-.15.056-.187l.312-.168c1.195-.646 1.795-.971 2.611-1.053 2-.203 2.835-.823 3.014-1.157.035-.066.119-.092.187-.057s.093.119.056.187c-.091.172-.679 1.042-3.228 1.301-.759.078-1.306.373-2.508 1.022l-.312.17c-.023.008-.047.014-.068.014zm.752-2.428c-.037 0-.076-.016-.103-.045-.051-.057-.047-.144.01-.195.693-.628 1.564-1.118 2.738-1.539 1.377-.494 1.758-1.028 1.953-1.484.029-.07.111-.103.181-.074s.103.111.074.181c-.216.513-.637 1.108-2.113 1.637-1.139.41-1.98.88-2.646 1.484-.027.023-.06.035-.094.035zm-.202-1.742c-.029 0-.058-.01-.084-.029-.06-.047-.072-.133-.025-.193.551-.714 1.254-1.131 1.998-1.576l.612-.373c1.073-.681.921-1.598.8-2.335l-.023-.14c-.012-.076.039-.146.115-.158s.146.039.158.115l.023.139c.121.73.304 1.834-.925 2.612l-.617.377c-.721.429-1.4.835-1.92 1.508a.14.14 0 0 1-.111.055zm.014-1.919c-.023 0-.047-.006-.068-.02a.14.14 0 0 1-.051-.189c.257-.445.58-.821.892-1.188l.721-.923c.761-1.166.51-1.968.389-2.353l-.035-.121c-.019-.074.025-.148.099-.168s.15.025.167.1l.031.107c.123.392.411 1.311-.422 2.587-.222.341-.487.651-.742.95-.304.357-.617.724-.863 1.147-.025.045-.072.07-.119.07z"/><path d="M24.42 17.118c-.317-.037-.6.144-.631.406s.204.501.522.538.6-.144.631-.406-.202-.501-.522-.538z" class="B"/></g><path d="M24.394 18.205c-.033 0-.064-.002-.097-.006-.393-.045-.681-.355-.643-.693s.389-.572.783-.527c.185.021.354.101.475.226.129.133.187.296.167.466s-.115.316-.269.416a.79.79 0 0 1-.417.117zm-.056-.954c-.214 0-.391.121-.411.289-.021.185.158.357.401.386.123.014.239-.012.333-.07.084-.055.134-.129.144-.215s-.023-.17-.091-.242c-.076-.078-.185-.131-.308-.144l-.068-.004z" class="E"/><path d="M65.619 17.118c.317-.037.6.144.631.406s-.204.501-.522.538-.6-.144-.631-.406.203-.501.522-.538z" class="B C"/><path d="M65.647 18.205c-.352 0-.65-.224-.687-.533-.039-.335.249-.646.642-.692s.744.191.783.527-.249.646-.643.693a.78.78 0 0 1-.095.006zm-.012-.95c-.241.027-.421.201-.399.386s.236.312.477.285.421-.201.401-.386-.237-.312-.479-.285z" class="E"/><path d="M25.744 18.392a.14.14 0 0 1-.078-.023c-.407-.277-.454-.369-.604-.759l-.132-.335c-.033-.08-.123-.152-.251-.205-.232-.094-.502-.092-.633-.035-.162.07-.279.168-.393.261-.127.103-.257.211-.432.269-.072.025-.15-.014-.175-.086s.014-.15.086-.175c.128-.043.23-.127.347-.222.123-.101.263-.216.459-.3.214-.092.571-.078.845.033.201.08.339.203.401.353l.136.343c.132.347.15.39.501.628.062.043.08.129.037.191-.025.041-.07.062-.113.062zm38.552 0a.14.14 0 0 1-.115-.06c-.043-.062-.025-.148.037-.191.351-.238.368-.283.501-.628l.136-.343c.062-.15.203-.273.401-.353.276-.111.631-.125.845-.033.197.086.335.199.46.3.117.096.218.179.347.222.072.025.111.103.086.176s-.103.111-.175.086c-.175-.061-.306-.166-.432-.269-.115-.094-.234-.191-.393-.261-.131-.057-.401-.058-.633.035-.129.051-.216.125-.251.205l-.132.335c-.15.39-.195.482-.604.759-.022.014-.049.021-.076.021z" class="C"/><path d="M46.355 12.56c.07-.548-1.739.099-2.265.17-1.067.141-1.515-.136-1.538.897.426.01.913.08.913.456 0 1.018-1.661 6.646-2.008 8.046-.274 1.102-.742 2.811-1.233 3.794-1.106 2.218-2.424.226-2.845 2.027l8.365.189c1.819.012 4.412-.977 5.438-1.754 4.656-3.525 6.26-12.439.245-15.406-1.188-.585-2.903-1.012-4.617-1.012-5.69 0-11.866 4.219-11.866 9.449v1.067c0 1.471 1.275 3.81 2.586 3.81.354 0 .761-.406.761-.763v-.457c0-.827-2.282-.706-2.282-3.505v-.304c0-4.481 5.32-8.23 10.191-8.23 4.122 0 6.692 3.187 6.692 7.467v.611c0 6.256-5.653 8.353-10.801 7.923 1.052-2.698 3.511-8.563 4.261-14.475z" class="B D"/><defs ><path id="B" d="M45.021 34.491c-.282-.587-.944-1.001-1.867-1.01h-8.336v19.822h8.133c.911.023.867.934 2.062.995 1.221-.029 1.188-.952 2.284-1.005h7.999v-19.82h-8.702c-.664.01-1.19.474-1.573 1.018z"/><path id="C" d="M45.015 54.434c-.697-.035-1.009-.332-1.283-.593-.23-.218-.413-.392-.787-.402h-8.268V33.342h8.474c.833.01 1.521.341 1.883.897.465-.591.987-.895 1.554-.905h8.842v20.095h-8.137c-.475.023-.707.222-.976.453-.29.252-.621.536-1.303.552zm-10.059-1.27h7.995c.483.012.732.248.974.478.263.252.512.488 1.096.517.572-.014.839-.244 1.122-.486s.572-.492 1.149-.521h7.867V33.609h-8.564c-.524.008-1.014.332-1.458.96l-.136.191-.101-.213c-.276-.575-.927-.923-1.745-.932h-8.198v19.549z"/></defs></svg>