<svg width="201" height="32" viewBox="0 0 201 32" fill="none" xmlns="http://www.w3.org/2000/svg">
<path d="M4.07287 11.2081H6.30856V2.36894H9.403V0.52561H0.98584V2.36894H4.07287V11.2081Z" fill="#2A3D53"/>
<path d="M13.9114 3.10924C11.6461 3.10924 10.5505 4.44177 10.3062 5.61144L10.2839 5.70027H12.2679L12.2827 5.65586C12.4382 5.20428 12.9786 4.72308 13.867 4.72308C14.9626 4.72308 15.6511 5.46338 15.6807 6.72188H10.2173V7.38815C10.2173 9.7867 11.6757 11.3709 14.0002 11.3709C16.3248 11.3709 17.8127 9.74969 17.8127 7.23268V7.22528C17.8127 4.68607 16.3396 3.10924 13.9114 3.10924ZM13.9632 9.75709C13.0675 9.75709 12.4234 9.18706 12.2901 8.08402H15.6511C15.5104 9.16486 14.8516 9.75709 13.9632 9.75709Z" fill="#2A3D53"/>
<path d="M23.6833 11.3709C25.6821 11.3709 26.9184 9.81631 26.9184 7.24009V7.23268C26.9184 4.64905 25.6821 3.10924 23.6907 3.10924C22.558 3.10924 21.6771 3.68667 21.2403 4.64905H21.1959V0.52561H19.0342V11.2081H21.1959V9.85333H21.2403C21.6697 10.7935 22.5432 11.3709 23.6833 11.3709ZM22.9652 9.57942C21.914 9.57942 21.1959 8.67626 21.1959 7.24009V7.23268C21.1959 5.80391 21.9214 4.90075 22.9652 4.90075C24.0386 4.90075 24.7197 5.78171 24.7197 7.23268V7.24009C24.7197 8.68366 24.0386 9.57942 22.9652 9.57942Z" fill="#2A3D53"/>
<path d="M30.3904 11.3339C31.4342 11.3339 32.2781 10.8379 32.7297 10.0236H32.7741V11.2081H34.9358V5.7669C34.9358 4.16786 33.6106 3.10924 31.56 3.10924C29.465 3.10924 28.2065 4.16046 28.088 5.62624L28.0806 5.71508H30.0572L30.072 5.64845C30.1757 5.13765 30.6643 4.7601 31.4712 4.7601C32.3151 4.7601 32.7741 5.19687 32.7741 5.90015V6.38875L30.8123 6.50719C28.8431 6.63305 27.7253 7.47698 27.7253 8.92056V8.93536C27.7253 10.3345 28.7987 11.3339 30.3904 11.3339ZM29.8648 8.82432V8.80951C29.8648 8.24689 30.3015 7.89155 31.1381 7.83973L32.7741 7.73608V8.30611C32.7741 9.13524 32.0634 9.75709 31.0936 9.75709C30.3459 9.75709 29.8648 9.40915 29.8648 8.82432Z" fill="#2A3D53"/>
<path d="M41.0358 11.3709C43.0346 11.3709 44.2709 9.81631 44.2709 7.24009V7.23268C44.2709 4.64905 43.0346 3.10924 41.0432 3.10924C39.9106 3.10924 39.0296 3.68667 38.5928 4.64905H38.5484V0.52561H36.3868V11.2081H38.5484V9.85333H38.5928C39.0222 10.7935 39.8958 11.3709 41.0358 11.3709ZM40.3177 9.57942C39.2665 9.57942 38.5484 8.67626 38.5484 7.24009V7.23268C38.5484 5.80391 39.2739 4.90075 40.3177 4.90075C41.3912 4.90075 42.0722 5.78171 42.0722 7.23268V7.24009C42.0722 8.68366 41.3912 9.57942 40.3177 9.57942Z" fill="#2A3D53"/>
<path d="M48.8385 3.10924C46.5732 3.10924 45.4776 4.44177 45.2333 5.61144L45.2111 5.70027H47.1951L47.2099 5.65586C47.3653 5.20428 47.9058 4.72308 48.7941 4.72308C49.8897 4.72308 50.5782 5.46338 50.6078 6.72188H45.1445V7.38815C45.1445 9.7867 46.6028 11.3709 48.9274 11.3709C51.2519 11.3709 52.7399 9.74969 52.7399 7.23268V7.22528C52.7399 4.68607 51.2667 3.10924 48.8385 3.10924ZM48.8903 9.75709C47.9946 9.75709 47.3505 9.18706 47.2173 8.08402H50.5782C50.4376 9.16486 49.7787 9.75709 48.8903 9.75709Z" fill="#2A3D53"/>
<path d="M57.0632 11.3709C57.5148 11.3709 57.8627 11.3265 58.107 11.2895V9.70527C57.9738 9.72008 57.8331 9.74228 57.6406 9.74228C56.9892 9.74228 56.656 9.49058 56.656 8.75029V4.90075H58.107V3.2721H56.656V1.33253H54.4722V3.2721H53.3691V4.90075H54.4722V8.98718C54.4722 10.6899 55.3013 11.3709 57.0632 11.3709Z" fill="#2A3D53"/>
<path d="M60.4241 2.2505C61.0756 2.2505 61.579 1.73969 61.579 1.12525C61.579 0.510804 61.0756 0 60.4241 0C59.7727 0 59.2693 0.510804 59.2693 1.12525C59.2693 1.73969 59.7727 2.2505 60.4241 2.2505ZM59.3433 11.2081H61.505V3.2721H59.3433V11.2081Z" fill="#2A3D53"/>
<path d="M62.956 11.2081H65.1176V6.64785C65.1176 5.61144 65.7321 4.90075 66.7018 4.90075C67.6716 4.90075 68.1602 5.49299 68.1602 6.5294V11.2081H70.3219V6.08523C70.3219 4.22709 69.3299 3.10924 67.5828 3.10924C66.3835 3.10924 65.5692 3.66446 65.162 4.57502H65.1176V3.2721H62.956V11.2081Z" fill="#2A3D53"/>
<path d="M74.201 11.2081H76.5478L77.3547 8.61704H81.1302L81.9371 11.2081H84.2839L80.5602 0.52561H77.9321L74.201 11.2081ZM79.2202 2.59844H79.2647L80.612 6.94397H77.8729L79.2202 2.59844Z" fill="#2A3D53"/>
<path d="M85.2684 11.2081H87.4301V8.58002L87.9853 7.96558L90.258 11.2081H92.7528L89.6066 6.68487L92.6048 3.2721H90.1544L87.4745 6.44797H87.4301V0.52561H85.2684V11.2081Z" fill="#2A3D53"/>
<path d="M96.5061 11.3709C96.9577 11.3709 97.3056 11.3265 97.5499 11.2895V9.70527C97.4167 9.72008 97.276 9.74228 97.0836 9.74228C96.4321 9.74228 96.099 9.49058 96.099 8.75029V4.90075H97.5499V3.2721H96.099V1.33253H93.9151V3.2721H92.8121V4.90075H93.9151V8.98718C93.9151 10.6899 94.7442 11.3709 96.5061 11.3709Z" fill="#2A3D53"/>
<path d="M101.444 11.3709C102.643 11.3709 103.458 10.8083 103.865 9.89775H103.909V11.2081H106.071V3.2721H103.909V7.83232C103.909 8.86874 103.295 9.57942 102.325 9.57942C101.355 9.57942 100.866 8.97978 100.866 7.94337V3.2721H98.7048V8.39495C98.7048 10.2531 99.6968 11.3709 101.444 11.3709Z" fill="#2A3D53"/>
<path d="M109.839 11.3339C110.883 11.3339 111.727 10.8379 112.178 10.0236H112.223V11.2081H114.384V5.7669C114.384 4.16786 113.059 3.10924 111.009 3.10924C108.913 3.10924 107.655 4.16046 107.537 5.62624L107.529 5.71508H109.506L109.521 5.64845C109.624 5.13765 110.113 4.7601 110.92 4.7601C111.764 4.7601 112.223 5.19687 112.223 5.90015V6.38875L110.261 6.50719C108.292 6.63305 107.174 7.47698 107.174 8.92056V8.93536C107.174 10.3345 108.247 11.3339 109.839 11.3339ZM109.313 8.82432V8.80951C109.313 8.24689 109.75 7.89155 110.587 7.83973L112.223 7.73608V8.30611C112.223 9.13524 111.512 9.75709 110.542 9.75709C109.794 9.75709 109.313 9.40915 109.313 8.82432Z" fill="#2A3D53"/>
<path d="M115.835 11.2081H117.997V0.52561H115.835V11.2081Z" fill="#2A3D53"/>
<path d="M122.646 11.2081H124.882V7.83973H126.94C129.19 7.83973 130.693 6.38875 130.693 4.19007V4.17526C130.693 1.97659 129.19 0.52561 126.94 0.52561H122.646V11.2081ZM126.392 2.29492C127.673 2.29492 128.428 2.96858 128.428 4.18267V4.19747C128.428 5.41156 127.673 6.09263 126.392 6.09263H124.882V2.29492H126.392Z" fill="#2A3D53"/>
<path d="M131.833 11.2081H133.995V6.7663C133.995 5.61144 134.617 4.97478 135.683 4.97478C135.993 4.97478 136.29 5.0192 136.467 5.09323V3.19067C136.304 3.14625 136.082 3.10924 135.845 3.10924C134.92 3.10924 134.276 3.67927 134.039 4.65646H133.995V3.2721H131.833V11.2081Z" fill="#2A3D53"/>
<path d="M140.731 11.3709C143.13 11.3709 144.662 9.83112 144.662 7.24009V7.22528C144.662 4.65646 143.1 3.10924 140.724 3.10924C138.355 3.10924 136.8 4.67126 136.8 7.22528V7.24009C136.8 9.82372 138.318 11.3709 140.731 11.3709ZM140.739 9.67566C139.673 9.67566 138.999 8.79471 138.999 7.24009V7.22528C138.999 5.69287 139.68 4.80452 140.724 4.80452C141.775 4.80452 142.464 5.69287 142.464 7.22528V7.24009C142.464 8.7873 141.79 9.67566 140.739 9.67566Z" fill="#2A3D53"/>
<path d="M150.481 11.3709C152.48 11.3709 153.716 9.81631 153.716 7.24009V7.23268C153.716 4.64905 152.48 3.10924 150.488 3.10924C149.356 3.10924 148.475 3.68667 148.038 4.64905H147.994V0.52561H145.832V11.2081H147.994V9.85333H148.038C148.467 10.7935 149.341 11.3709 150.481 11.3709ZM149.763 9.57942C148.712 9.57942 147.994 8.67626 147.994 7.24009V7.23268C147.994 5.80391 148.719 4.90075 149.763 4.90075C150.836 4.90075 151.517 5.78171 151.517 7.23268V7.24009C151.517 8.68366 150.836 9.57942 149.763 9.57942Z" fill="#2A3D53"/>
<path d="M154.878 11.2081H157.04V0.52561H154.878V11.2081Z" fill="#2A3D53"/>
<path d="M162.111 11.3709C164.376 11.3709 165.472 10.031 165.716 8.86133L165.739 8.7799H163.755L163.74 8.82432C163.584 9.2685 163.044 9.75709 162.156 9.75709C161.052 9.75709 160.364 9.0168 160.342 7.75089H165.805V7.08463C165.805 4.68607 164.347 3.10924 162.022 3.10924C159.698 3.10924 158.21 4.72308 158.21 7.24749V7.25489C158.21 9.79411 159.683 11.3709 162.111 11.3709ZM162.059 4.72308C162.955 4.72308 163.599 5.29311 163.732 6.38875H160.364C160.505 5.31532 161.171 4.72308 162.059 4.72308Z" fill="#2A3D53"/>
<path d="M166.923 11.2081H169.085V6.41836C169.085 5.5226 169.64 4.90075 170.462 4.90075C171.261 4.90075 171.742 5.40416 171.742 6.25549V11.2081H173.823V6.38134C173.823 5.50039 174.363 4.90075 175.185 4.90075C176.021 4.90075 176.48 5.40416 176.48 6.32212V11.2081H178.642V5.78171C178.642 4.18267 177.598 3.10924 176.043 3.10924C174.881 3.10924 173.934 3.74589 173.578 4.74529H173.534C173.267 3.70148 172.46 3.10924 171.35 3.10924C170.284 3.10924 169.455 3.70148 169.129 4.60464H169.085V3.2721H166.923V11.2081Z" fill="#2A3D53"/>
<path d="M180.063 11.2081H182.225V0.52561H180.063V11.2081Z" fill="#2A3D53"/>
<path d="M187.14 3.10924C184.875 3.10924 183.78 4.44177 183.535 5.61144L183.513 5.70027H185.497L185.512 5.65586C185.667 5.20428 186.208 4.72308 187.096 4.72308C188.192 4.72308 188.88 5.46338 188.91 6.72188H183.446V7.38815C183.446 9.7867 184.905 11.3709 187.229 11.3709C189.554 11.3709 191.042 9.74969 191.042 7.23268V7.22528C191.042 4.68607 189.569 3.10924 187.14 3.10924ZM187.192 9.75709C186.297 9.75709 185.652 9.18706 185.519 8.08402H188.88C188.74 9.16486 188.081 9.75709 187.192 9.75709Z" fill="#2A3D53"/>
<path d="M192.212 11.2081H194.373V6.7663C194.373 5.61144 194.995 4.97478 196.061 4.97478C196.372 4.97478 196.668 5.0192 196.846 5.09323V3.19067C196.683 3.14625 196.461 3.10924 196.224 3.10924C195.299 3.10924 194.654 3.67927 194.418 4.65646H194.373V3.2721H192.212V11.2081Z" fill="#2A3D53"/>
<path d="M198.859 2.2505C199.511 2.2505 200.014 1.73969 200.014 1.12525C200.014 0.510804 199.511 0 198.859 0C198.208 0 197.704 0.510804 197.704 1.12525C197.704 1.73969 198.208 2.2505 198.859 2.2505ZM197.779 11.2081H199.94V3.2721H197.779V11.2081Z" fill="#2A3D53"/>
<path d="M37.3713 29.4016H41.6577C43.9304 29.4016 45.2999 28.2615 45.2999 26.3886V26.3738C45.2999 24.9672 44.3153 23.9234 42.7977 23.7679V23.7383C43.923 23.5754 44.7743 22.5316 44.7743 21.4064V21.3916C44.7743 19.7777 43.5306 18.7191 41.6354 18.7191H37.3713V29.4016ZM41.2357 20.0738C42.435 20.0738 43.1234 20.6143 43.1234 21.5914V21.6063C43.1234 22.6797 42.3313 23.2719 40.8655 23.2719H39.0296V20.0738H41.2357ZM41.2061 24.5526C42.7903 24.5526 43.6046 25.1449 43.6046 26.2923V26.3071C43.6046 27.4472 42.8051 28.0468 41.3171 28.0468H39.0296V24.5526H41.2061Z" fill="#2A3D53"/>
<path d="M49.8601 29.557C51.7479 29.557 52.9472 28.4318 53.1989 27.1955L53.2137 27.1141H51.6961L51.6739 27.1733C51.474 27.7581 50.8447 28.2467 49.8971 28.2467C48.6238 28.2467 47.8169 27.388 47.7873 25.9148H53.3025V25.3744C53.3025 23.035 51.9626 21.4656 49.7787 21.4656C47.5948 21.4656 46.1883 23.0942 46.1883 25.5298V25.5372C46.1883 27.995 47.5726 29.557 49.8601 29.557ZM49.7861 22.7759C50.8299 22.7759 51.585 23.4348 51.7183 24.7821H47.8095C47.9502 23.4792 48.7497 22.7759 49.7861 22.7759Z" fill="#2A3D53"/>
<path d="M55.168 32C56.6931 32 57.5074 31.3782 58.0848 29.7643L60.9868 21.6137H59.2989L57.3371 27.9506H57.2853L55.3235 21.6137H53.5912L56.4265 29.409L56.2933 29.7791C56.0268 30.5342 55.6122 30.7341 54.8571 30.7341C54.6424 30.7341 54.4574 30.7045 54.3315 30.6749V31.926C54.524 31.963 54.8571 32 55.168 32Z" fill="#2A3D53"/>
<path d="M61.9195 29.4016H63.5186V24.8636C63.5186 23.6495 64.2441 22.8351 65.3693 22.8351C66.4798 22.8351 67.0276 23.494 67.0276 24.6637V29.4016H68.634V24.3602C68.634 22.5686 67.6494 21.4656 65.9393 21.4656C64.7623 21.4656 63.9628 21.9986 63.5556 22.7907H63.5186V21.6137H61.9195V29.4016Z" fill="#2A3D53"/>
<path d="M73.3423 21.4656C71.4471 21.4656 70.2479 22.5908 70.0036 23.8271L69.9814 23.9012H71.5064L71.5286 23.8419C71.721 23.2645 72.3577 22.7759 73.3053 22.7759C74.5786 22.7759 75.3855 23.6347 75.4151 25.1005H69.8999V25.6409C69.8999 27.9876 71.2399 29.557 73.4237 29.557C75.6076 29.557 77.0142 27.9284 77.0142 25.4928V25.4854C77.0142 23.0202 75.6298 21.4656 73.3423 21.4656ZM73.4163 28.2467C72.3725 28.2467 71.61 27.5878 71.4768 26.2331H75.3929C75.2449 27.5434 74.4527 28.2467 73.4163 28.2467Z" fill="#2A3D53"/>
<path d="M78.3837 29.4016H79.9827V18.7191H78.3837V29.4016Z" fill="#2A3D53"/>
<path d="M81.0414 29.4016H82.7737L84.4985 26.5366H84.5356L86.2604 29.4016H88.0223L85.4905 25.4632L88.052 21.6137H86.2827L84.6096 24.4342H84.5726L82.8773 21.6137H81.0784L83.6176 25.515L81.0414 29.4016Z" fill="#2A3D53"/>
<path d="M91.213 29.5422C92.242 29.5422 93.1452 29.0092 93.5968 28.1727H93.6264V29.4016H95.2328V24.0344C95.2328 22.4724 94.0261 21.4656 92.1236 21.4656C90.2062 21.4656 89.044 22.4946 88.9329 23.8345L88.9255 23.916H90.4357L90.4505 23.8493C90.5838 23.2275 91.1538 22.7907 92.0792 22.7907C93.0712 22.7907 93.6264 23.3089 93.6264 24.1677V24.7525L91.5091 24.8784C89.6658 24.9894 88.6146 25.8185 88.6146 27.1733V27.1881C88.6146 28.5872 89.6584 29.5422 91.213 29.5422ZM90.2284 27.1511V27.1363C90.2284 26.4774 90.7614 26.0554 91.7238 25.9962L93.6264 25.8778V26.4848C93.6264 27.499 92.775 28.2615 91.6498 28.2615C90.7911 28.2615 90.2284 27.8321 90.2284 27.1511Z" fill="#2A3D53"/>
<path d="M96.8467 29.4016H98.4457V18.7191H96.8467V29.4016Z" fill="#2A3D53"/>
<path d="M105.471 31.9926H107.078V21.6137H105.471V22.9536H105.434C104.975 22.0652 104.116 21.473 103.021 21.473C101.044 21.473 99.7412 23.0276 99.7412 25.4928V25.5002C99.7412 27.9802 101.029 29.5422 102.984 29.5422C104.102 29.5422 104.99 28.9944 105.434 28.1209H105.471V31.9926ZM103.435 28.1653C102.169 28.1653 101.377 27.1511 101.377 25.5002V25.4928C101.377 23.879 102.169 22.85 103.435 22.85C104.649 22.85 105.471 23.8864 105.471 25.5002V25.5076C105.471 27.1215 104.657 28.1653 103.435 28.1653Z" fill="#2A3D53"/>
<path d="M111.919 29.4016H113.577V25.8333L114.666 24.5748L118.197 29.4016H120.247L115.85 23.4422L119.899 18.7191H117.93L113.622 23.8345H113.577V18.7191H111.919V29.4016Z" fill="#2A3D53"/>
<path d="M124.001 29.557C126.229 29.557 127.695 28.0172 127.695 25.5076V25.4928C127.695 22.998 126.214 21.4656 123.993 21.4656C121.78 21.4656 120.307 23.0054 120.307 25.4928V25.5076C120.307 28.0098 121.765 29.557 124.001 29.557ZM124.008 28.2171C122.757 28.2171 121.943 27.2325 121.943 25.5076V25.4928C121.943 23.7901 122.764 22.8055 123.993 22.8055C125.244 22.8055 126.059 23.7901 126.059 25.4928V25.5076C126.059 27.2251 125.259 28.2171 124.008 28.2171Z" fill="#2A3D53"/>
<path d="M128.931 29.4016H130.53V24.8636C130.53 23.6495 131.256 22.8351 132.381 22.8351C133.491 22.8351 134.039 23.494 134.039 24.6637V29.4016H135.646V24.3602C135.646 22.5686 134.661 21.4656 132.951 21.4656C131.774 21.4656 130.974 21.9986 130.567 22.7907H130.53V21.6137H128.931V29.4016Z" fill="#2A3D53"/>
<path d="M142.575 31.9926H144.181V21.6137H142.575V22.9536H142.538C142.079 22.0652 141.22 21.473 140.124 21.473C138.148 21.473 136.845 23.0276 136.845 25.4928V25.5002C136.845 27.9802 138.133 29.5422 140.087 29.5422C141.205 29.5422 142.094 28.9944 142.538 28.1209H142.575V31.9926ZM140.539 28.1653C139.273 28.1653 138.481 27.1511 138.481 25.5002V25.4928C138.481 23.879 139.273 22.85 140.539 22.85C141.753 22.85 142.575 23.8864 142.575 25.5002V25.5076C142.575 27.1215 141.76 28.1653 140.539 28.1653Z" fill="#2A3D53"/>
<path d="M145.751 29.4016H147.35V24.7599C147.35 23.5977 147.986 22.924 149.015 22.924C149.326 22.924 149.608 22.961 149.733 23.0128V21.5248C149.608 21.5026 149.408 21.4656 149.178 21.4656C148.29 21.4656 147.638 22.0356 147.387 22.9462H147.35V21.6137H145.751V29.4016Z" fill="#2A3D53"/>
<path d="M153.709 29.557C155.596 29.557 156.796 28.4318 157.047 27.1955L157.062 27.1141H155.545L155.522 27.1733C155.323 27.7581 154.693 28.2467 153.746 28.2467C152.472 28.2467 151.666 27.388 151.636 25.9148H157.151V25.3744C157.151 23.035 155.811 21.4656 153.627 21.4656C151.443 21.4656 150.037 23.0942 150.037 25.5298V25.5372C150.037 27.995 151.421 29.557 153.709 29.557ZM153.635 22.7759C154.679 22.7759 155.434 23.4348 155.567 24.7821H151.658C151.799 23.4792 152.598 22.7759 153.635 22.7759Z" fill="#2A3D53"/>
<path d="M161.312 29.557C163.148 29.557 164.48 28.5798 164.48 27.1585V27.1511C164.48 26.0332 163.873 25.404 162.281 25.0338L161.015 24.7451C160.179 24.5452 159.861 24.2195 159.861 23.7383V23.7309C159.861 23.1091 160.401 22.7019 161.26 22.7019C162.163 22.7019 162.696 23.1757 162.792 23.8568L162.8 23.9086H164.302L164.295 23.8197C164.214 22.4946 163.103 21.4656 161.26 21.4656C159.468 21.4656 158.254 22.4206 158.254 23.8123V23.8197C158.254 24.9524 158.987 25.6631 160.468 26.0036L161.741 26.2923C162.577 26.4922 162.859 26.7809 162.859 27.2843V27.2917C162.859 27.921 162.281 28.3207 161.319 28.3207C160.334 28.3207 159.801 27.8988 159.653 27.1807L159.639 27.1066H158.054L158.062 27.1733C158.225 28.5946 159.365 29.557 161.312 29.557Z" fill="#2A3D53"/>
</svg>
