<svg width="100" height="24" viewBox="0 0 100 24" fill="none" xmlns="http://www.w3.org/2000/svg">
<path d="M2.60823 6.37632C1.98285 6.37632 1.47842 6.22577 1.09494 5.92466C0.711449 5.61765 0.463658 5.20733 0.351562 4.69368H1.10378C1.21588 5.03021 1.39877 5.28408 1.65246 5.45529C1.91206 5.62651 2.23064 5.71212 2.60823 5.71212C3.11561 5.71212 3.4932 5.60585 3.74099 5.3933C3.98878 5.18076 4.11268 4.91803 4.11268 4.60512C4.11268 4.40438 4.05958 4.24202 3.95338 4.11804C3.85308 3.99406 3.71739 3.89369 3.5463 3.81694C3.3811 3.73428 3.18936 3.66638 2.97107 3.61325C2.75867 3.56011 2.54038 3.50402 2.31619 3.44498C2.0979 3.38594 1.87961 3.31805 1.66131 3.24129C1.44892 3.15864 1.25718 3.05237 1.08609 2.92248C0.920892 2.79259 0.785197 2.63023 0.679001 2.4354C0.578704 2.23466 0.528556 1.98374 0.528556 1.68264C0.528556 1.45238 0.572804 1.23394 0.661301 1.0273C0.755698 0.820656 0.891393 0.643536 1.06839 0.495936C1.24538 0.342432 1.46367 0.2214 1.72326 0.13284C1.98285 0.0442797 2.27784 0 2.60823 0C3.16281 0 3.62594 0.129888 3.99763 0.389664C4.37522 0.643536 4.62006 1.01549 4.73215 1.50552H3.97993C3.89143 1.25755 3.73509 1.05682 3.5109 0.903312C3.28671 0.743904 2.98582 0.6642 2.60823 0.6642C2.16575 0.6642 1.83241 0.761616 1.60822 0.956448C1.38992 1.15128 1.28078 1.39334 1.28078 1.68264C1.28078 1.89518 1.33093 2.06935 1.43122 2.20514C1.53742 2.33503 1.67311 2.44426 1.83831 2.53282C2.0094 2.61547 2.20114 2.68632 2.41354 2.74536C2.63183 2.7985 2.85012 2.85458 3.06841 2.91362C3.2926 2.97266 3.5109 3.04056 3.72329 3.11731C3.94158 3.18816 4.13332 3.28853 4.29852 3.41842C4.46961 3.5424 4.60531 3.69886 4.7056 3.88778C4.8118 4.07671 4.8649 4.31582 4.8649 4.60512C4.8649 4.83537 4.81475 5.05973 4.71445 5.27817C4.62006 5.49072 4.47551 5.67965 4.28082 5.84496C4.09203 6.00437 3.85603 6.13425 3.57284 6.23462C3.29555 6.32909 2.97402 6.37632 2.60823 6.37632Z" fill="#2E3131"/>
<path d="M5.83698 1.68264H6.5007V6.28776H5.83698V1.68264ZM6.17327 1.01844C6.04347 1.01844 5.93138 0.97416 5.83698 0.8856C5.74848 0.79704 5.70423 0.687816 5.70423 0.557928C5.70423 0.42804 5.74848 0.318816 5.83698 0.230256C5.92548 0.135792 6.03757 0.0885599 6.17327 0.0885599C6.30306 0.0885599 6.41221 0.135792 6.5007 0.230256C6.5892 0.318816 6.63345 0.42804 6.63345 0.557928C6.63345 0.681912 6.5892 0.791135 6.5007 0.8856C6.41221 0.97416 6.30306 1.01844 6.17327 1.01844Z" fill="#2E3131"/>
<path d="M9.19847 6.28776C8.86219 6.28776 8.5849 6.18149 8.3666 5.96894C8.15421 5.75049 8.04802 5.47301 8.04802 5.13648V2.30256H7.34004V1.68264H8.04802L8.13651 0.4428H8.71174V1.68264H9.90645V2.30256H8.71174V5.13648C8.71174 5.28998 8.76189 5.41692 8.86219 5.51729C8.96248 5.61765 9.08933 5.66784 9.24272 5.66784H9.90645V6.28776H9.19847Z" fill="#2E3131"/>
<path d="M12.7003 6.37632C12.3876 6.37632 12.1015 6.32613 11.8419 6.22577C11.5823 6.11949 11.3581 5.96599 11.1693 5.76525C10.9864 5.55861 10.8419 5.30769 10.7357 5.01249C10.6295 4.71729 10.5764 4.37486 10.5764 3.9852C10.5764 3.59553 10.6265 3.2531 10.7268 2.9579C10.833 2.6627 10.9776 2.41474 11.1605 2.214C11.3493 2.00736 11.5705 1.85386 11.8242 1.75349C12.0779 1.64722 12.3552 1.59408 12.6561 1.59408C13.0101 1.59408 13.3168 1.66198 13.5764 1.79777C13.836 1.92766 14.0514 2.09887 14.2225 2.31142C14.3995 2.51806 14.5293 2.74831 14.6118 3.00218C14.6944 3.25015 14.7357 3.48926 14.7357 3.71952C14.7357 3.78446 14.7328 3.8435 14.7269 3.89664C14.721 3.94977 14.7151 3.99701 14.7092 4.03833C14.7033 4.08557 14.6974 4.12689 14.6915 4.16232H11.2401C11.2637 4.69368 11.4112 5.0922 11.6826 5.35788C11.9599 5.62356 12.2991 5.7564 12.7003 5.7564C13.2313 5.7564 13.6295 5.535 13.895 5.0922H14.603C14.4496 5.51729 14.2048 5.83905 13.8685 6.0575C13.5322 6.27005 13.1428 6.37632 12.7003 6.37632ZM14.072 3.58668C14.0248 3.14388 13.8714 2.8044 13.6118 2.56824C13.3522 2.33208 13.0337 2.214 12.6561 2.214C12.2785 2.214 11.9599 2.33208 11.7003 2.56824C11.4407 2.8044 11.2873 3.14388 11.2401 3.58668H14.072Z" fill="#2E3131"/>
<path d="M19.9066 6.37632C19.5703 6.37632 19.2724 6.31433 19.0128 6.19034C18.7591 6.06636 18.5555 5.89219 18.4021 5.66784H18.3579L18.2694 6.28776H17.7384V0.0885599H18.4021V2.25828H18.4464C18.5998 2.05754 18.7974 1.89814 19.0393 1.78006C19.2812 1.65607 19.5703 1.59408 19.9066 1.59408C20.1957 1.59408 20.4612 1.64722 20.7031 1.75349C20.9449 1.85386 21.1544 2.00736 21.3314 2.214C21.5084 2.41474 21.647 2.6627 21.7473 2.9579C21.8476 3.2531 21.8978 3.59553 21.8978 3.9852C21.8978 4.37486 21.8476 4.71729 21.7473 5.01249C21.647 5.30769 21.5084 5.55861 21.3314 5.76525C21.1544 5.96599 20.9449 6.11949 20.7031 6.22577C20.4612 6.32613 20.1957 6.37632 19.9066 6.37632ZM19.8181 5.7564C20.2429 5.7564 20.5851 5.60585 20.8446 5.30474C21.1042 5.00364 21.234 4.56379 21.234 3.9852C21.234 3.40661 21.1042 2.96676 20.8446 2.66566C20.5851 2.36455 20.2429 2.214 19.8181 2.214C19.3933 2.214 19.0511 2.36455 18.7915 2.66566C18.5319 2.96676 18.4021 3.40661 18.4021 3.9852C18.4021 4.56379 18.5319 5.00364 18.7915 5.30474C19.0511 5.60585 19.3933 5.7564 19.8181 5.7564Z" fill="#2E3131"/>
<path d="M24.1551 6.28776L22.2524 1.68264H22.9604L24.4649 5.35788H24.5091L25.9693 1.68264H26.6773L24.1551 8.05896H23.4471L24.1551 6.28776Z" fill="#2E3131"/>
<path d="M3.06951 20.296V21.7508C3.06951 22.173 3.10715 22.4665 3.18431 22.6368C3.26147 22.8053 3.39133 22.8905 3.57764 22.8905C3.78466 22.8905 4.0105 22.8488 4.25139 22.7636C4.65602 22.7944 4.85927 22.9684 4.85927 23.2854C4.85927 23.6858 4.58638 23.8869 4.03873 23.8869C3.95027 23.8869 3.71314 23.8598 3.32357 23.8072C2.934 23.7547 2.63665 23.7275 2.42963 23.7275C2.25461 23.7275 1.97043 23.7529 1.57522 23.8072C1.18188 23.8598 0.929697 23.8869 0.820543 23.8869C0.272887 23.8851 0 23.684 0 23.2836C0 22.9684 0.191962 22.7944 0.574003 22.7618C0.760319 22.8252 0.984275 22.856 1.24775 22.856C1.48865 22.856 1.6392 22.7564 1.69943 22.5553C1.75965 22.3542 1.78976 22.0552 1.78976 21.6548V15.0799C1.78976 14.6686 1.75777 14.366 1.6919 14.1703C1.62603 13.9747 1.46794 13.8786 1.21576 13.8786C1.1066 13.8786 0.999331 13.8913 0.895822 13.9185C0.792313 13.9457 0.673748 13.9692 0.54201 13.9892C0.18067 13.9692 0 13.7736 0 13.4058C0.0112919 13.2155 0.0959809 13.076 0.254067 12.9872C0.412153 12.8985 0.55142 12.8532 0.673748 12.8532C0.760319 12.8532 0.914642 12.884 1.13295 12.9474C1.35126 13.0108 1.50558 13.0416 1.59215 13.0416C1.72389 13.0416 1.89892 13.0108 2.11723 12.9474C2.33554 12.884 2.4955 12.8532 2.59337 12.8532C2.86625 12.8532 3.00364 13.0905 3.00364 13.5652V13.8805C3.54 13.0579 4.42641 12.6484 5.66287 12.6484C6.68102 12.6702 7.55426 13.0325 8.28259 13.7391C9.01091 14.4457 9.3572 15.4893 9.3252 16.8681C9.29321 18.3429 8.89235 19.4481 8.12638 20.18C7.36042 20.912 6.45707 21.278 5.41633 21.278C4.93455 21.278 4.48287 21.1928 4.06131 21.0243C3.64163 20.8558 3.3104 20.613 3.06951 20.296ZM3.06951 16.8663V17.7667C3.06951 18.4099 3.22759 18.9788 3.54565 19.4734C3.8637 19.968 4.42077 20.2217 5.22061 20.2326C6.17289 20.2634 6.84852 19.9898 7.2475 19.41C7.64648 18.8302 7.86855 18.1237 7.91184 17.292C7.96642 16.2376 7.79892 15.3788 7.41123 14.7157C7.02166 14.0526 6.40626 13.7192 5.56501 13.7192C4.71059 13.7192 4.08201 13.962 3.67739 14.4457C3.27276 14.9331 3.06951 15.7393 3.06951 16.8663Z" fill="#2E3131"/>
<path d="M16.8783 15.1132C16.9441 14.9863 16.9761 14.8504 16.9761 14.7019C16.9761 14.4066 16.8369 14.1547 16.5564 13.9427C16.2779 13.7326 15.9128 13.6257 15.4649 13.6257C14.874 13.6257 14.3903 13.8558 14.012 14.3142C13.6337 14.7725 13.4455 15.5027 13.4455 16.5028V18.5411C13.4455 19.0991 13.4813 19.4886 13.5528 19.7115C13.6243 19.9325 13.7692 20.0539 13.9875 20.0756C14.1851 20.0122 14.4317 19.9814 14.7272 19.9814C15.0772 19.9814 15.2692 20.1608 15.3012 20.5195C15.3237 20.6572 15.2579 20.7822 15.1036 20.8982C14.9492 21.0141 14.7799 21.0721 14.5954 21.0721C14.475 21.083 14.2322 21.0594 13.8652 21.0015C13.4982 20.9435 13.167 20.9145 12.8715 20.9145C12.6965 20.9145 12.4123 20.9399 12.0171 20.9942C11.6238 21.0468 11.3603 21.0739 11.2286 21.0739C10.6696 21.0739 10.3911 20.8692 10.3911 20.4579C10.3911 20.3003 10.4588 20.1807 10.5962 20.1028C10.7336 20.0231 10.8672 19.985 10.999 19.985C11.2511 19.985 11.4638 20.0158 11.6388 20.0793C11.891 20.0684 12.0472 20.0032 12.1074 19.8818C12.1677 19.7604 12.1978 19.5412 12.1978 19.2259V14.9229C12.1978 14.2272 12.0115 13.8793 11.6388 13.8793C11.5617 13.8793 11.2775 13.9101 10.7844 13.9735C10.3911 13.9319 10.1878 13.7634 10.1765 13.4681C10.1652 13.2996 10.2311 13.1546 10.3741 13.0332C10.5172 12.9118 10.6753 12.8521 10.8503 12.8521C10.9481 12.8521 11.1138 12.8829 11.3434 12.9463C11.573 13.0097 11.748 13.0405 11.8684 13.0405C11.9117 13.0405 12.0491 13.0151 12.2787 12.9608C12.5083 12.9082 12.6833 12.881 12.8038 12.881C13.1312 12.881 13.2799 13.1927 13.2479 13.8141H13.2799C13.5095 13.4246 13.8351 13.1329 14.2567 12.9372C14.6782 12.7415 15.1243 12.6455 15.5948 12.6455C16.0427 12.6455 16.4755 12.7397 16.8914 12.93C17.3074 13.1202 17.6386 13.3829 17.8851 13.7199C18.1317 14.0569 18.254 14.4464 18.254 14.8903C18.254 15.2907 18.1561 15.6386 17.9585 15.9339C17.7609 16.2292 17.5144 16.4086 17.2189 16.472C17.1643 16.472 17.0702 16.4937 16.9404 16.5354C16.4586 16.5137 16.1349 16.2673 15.9711 15.7926C15.9711 15.6132 16.0333 15.4502 16.1593 15.3034C16.2854 15.1566 16.4473 15.0824 16.643 15.0824C16.7089 15.0824 16.7559 15.0842 16.7823 15.0896C16.8143 15.095 16.8444 15.1023 16.8783 15.1132Z" fill="#2E3131"/>
<path d="M19.1079 16.4408C19.2058 15.2087 19.6311 14.263 20.3801 13.6035C21.1292 12.9458 22.008 12.6269 23.0149 12.6469C23.7583 12.6469 24.4301 12.79 25.0267 13.0745C25.6233 13.3589 26.1013 13.8227 26.4627 14.4659C26.824 15.1091 27.0216 15.9099 27.0536 16.8683C27.0856 18.2272 26.7092 19.3088 25.9207 20.1078C25.1321 20.9086 24.1855 21.309 23.0808 21.309H23.0488C22.2489 21.309 21.5375 21.1188 20.9146 20.7401C20.2917 20.3615 19.8136 19.8016 19.4862 19.0642C19.1568 18.3268 19.0307 17.4517 19.1079 16.4408ZM20.4535 16.9299C20.4648 18.0261 20.7001 18.8504 21.1593 19.403C21.6185 19.9556 22.2151 20.2328 22.949 20.2328C23.7037 20.2328 24.353 19.9647 24.895 19.4266C25.437 18.8885 25.708 18.0786 25.708 16.9915C25.708 14.8736 24.8762 13.7829 23.2125 13.7195C22.3807 13.6887 21.7107 13.9495 21.2007 14.5021C20.6925 15.0547 20.4309 15.8429 20.4215 16.8647C20.4441 16.8865 20.4535 16.8991 20.4535 16.9046C20.4535 16.9118 20.4535 16.9191 20.4535 16.9299Z" fill="#2E3131"/>
<path d="M30.9833 20.2954V21.7502C30.9833 22.1724 31.021 22.4659 31.0981 22.6362C31.1753 22.8047 31.3051 22.8898 31.4915 22.8898C31.6985 22.8898 31.9243 22.8482 32.1652 22.763C32.5698 22.7938 32.7731 22.9677 32.7731 23.2848C32.7731 23.6852 32.5002 23.8863 31.9525 23.8863C31.8641 23.8863 31.627 23.8591 31.2374 23.8066C30.8478 23.7541 30.5505 23.7269 30.3435 23.7269C30.1684 23.7269 29.8842 23.7522 29.489 23.8066C29.0957 23.8591 28.8435 23.8863 28.7344 23.8863C28.1867 23.8863 27.9138 23.6852 27.9138 23.2848C27.9138 22.9695 28.1058 22.7956 28.4878 22.763C28.6741 22.8264 28.8981 22.8572 29.1616 22.8572C29.4025 22.8572 29.553 22.7576 29.6132 22.5565C29.6735 22.3554 29.7036 22.0564 29.7036 21.656V15.0792C29.7036 14.6679 29.6716 14.3654 29.6057 14.1697C29.5398 13.974 29.3818 13.878 29.1296 13.878C29.0204 13.878 28.9131 13.8907 28.8096 13.9179C28.7061 13.945 28.5876 13.9686 28.4558 13.9885C28.0945 13.9668 27.9138 13.7729 27.9138 13.4033C27.9251 13.2131 28.0098 13.0736 28.1679 12.9848C28.326 12.896 28.4652 12.8507 28.5876 12.8507C28.6741 12.8507 28.8285 12.8815 29.0468 12.9449C29.2651 13.0084 29.4194 13.0392 29.506 13.0392C29.6377 13.0392 29.8127 13.0084 30.031 12.9449C30.2494 12.8815 30.4093 12.8507 30.5072 12.8507C30.7801 12.8507 30.9175 13.0881 30.9175 13.5628V13.878C31.4538 13.0555 32.3402 12.646 33.5767 12.646C34.5948 12.6677 35.4681 13.0301 36.1964 13.7367C36.9247 14.4433 37.271 15.4869 37.239 16.8656C37.207 18.3404 36.8062 19.4456 36.0402 20.1776C35.2742 20.9095 34.3709 21.2755 33.3302 21.2755C32.8484 21.2755 32.3967 21.1904 31.9751 21.0219C31.5536 20.8552 31.2223 20.6124 30.9833 20.2954ZM30.9833 16.8656V17.7661C30.9833 18.4093 31.1414 18.9782 31.4595 19.4728C31.7775 19.9674 32.3346 20.2211 33.1344 20.2319C34.0867 20.2627 34.7623 19.9892 35.1613 19.4094C35.5603 18.8296 35.7824 18.123 35.8257 17.2914C35.8802 16.237 35.7127 15.3782 35.3251 14.7151C34.9355 14.0519 34.3201 13.7186 33.4788 13.7186C32.6244 13.7186 31.9958 13.9614 31.5912 14.4451C31.1847 14.9325 30.9833 15.7387 30.9833 16.8656Z" fill="#2E3131"/>
<path d="M40.4048 14.4642C40.4048 14.4425 40.4706 14.4914 40.6024 14.6074C40.7341 14.7233 40.8 14.9027 40.8 15.1455C40.8 15.5984 40.4989 15.8466 39.8966 15.8883C39.8533 15.8665 39.7875 15.8575 39.699 15.8575C39.1852 15.7633 38.9048 15.4208 38.8615 14.8302C38.9048 14.3664 39.11 13.9551 39.4769 13.5964C39.8439 13.2376 40.2824 12.9767 40.7906 12.8137C41.2987 12.6506 41.8106 12.5945 42.3263 12.647C43.4216 12.7412 44.1875 13.0257 44.6241 13.5004C45.0626 13.975 45.2697 14.6762 45.249 15.602L45.1511 18.9049C45.1511 19.2944 45.1812 19.6061 45.2414 19.838C45.3017 20.0699 45.4748 20.2221 45.759 20.2964C46.0225 20.2438 46.1881 20.126 46.2596 19.9412C46.3311 19.7564 46.3669 19.4955 46.3669 19.1586V18.606C46.3669 18.1113 46.5419 17.8631 46.8919 17.8631C47.274 17.8631 47.4659 18.0371 47.4659 18.3849V19.222V19.8706C47.4227 20.3344 47.2382 20.6786 46.9164 20.9051C46.5927 21.1316 46.1956 21.2457 45.7251 21.2457C45.3092 21.2457 44.9309 21.137 44.5922 20.9214C44.2534 20.7058 44.0671 20.4341 44.0332 20.1079C43.781 20.4975 43.414 20.7964 42.9323 21.0011C42.4505 21.2059 41.931 21.3091 41.3721 21.3091C40.6927 21.3091 40.066 21.1588 39.492 20.858C38.918 20.5573 38.5585 20.1659 38.4174 19.6804C38.3741 19.501 38.3289 19.2528 38.2856 18.9375C38.3176 17.8831 38.8446 17.1511 39.8627 16.7398C40.1469 16.613 40.5572 16.5188 41.0936 16.4554C41.6299 16.392 42.1042 16.3376 42.5145 16.2887C42.9247 16.2416 43.2183 16.1655 43.3933 16.0586C43.7321 15.8593 43.9015 15.5531 43.9015 15.1418C43.9015 14.7106 43.7227 14.3646 43.367 14.1073C43.0113 13.85 42.6029 13.7196 42.1437 13.7196C41.7504 13.7196 41.3664 13.7939 40.9938 13.9406C40.6249 14.091 40.4273 14.2649 40.4048 14.4642ZM43.9033 16.8358C43.574 17.142 42.9699 17.3522 42.0891 17.4682C41.2084 17.5841 40.6005 17.7001 40.2674 17.816C39.9343 17.932 39.7329 18.2744 39.6689 18.8433C39.6256 19.2963 39.7724 19.6369 40.113 19.8633C40.4518 20.0898 40.8847 20.213 41.4097 20.2348C41.9461 20.204 42.4279 20.0916 42.8551 19.9032C43.2484 19.7039 43.5119 19.4231 43.6436 19.0662C43.7754 18.7074 43.8469 18.2708 43.8563 17.7544C43.8638 17.2363 43.8808 16.9301 43.9033 16.8358Z" fill="#2E3131"/>
<path d="M49.4525 19.65C49.0253 19.5558 48.6941 19.3655 48.4589 19.0811C48.2236 18.7966 48.0956 18.4705 48.0731 18.1009C48.1163 17.3218 48.5661 16.8109 49.4187 16.5681C49.1458 16.146 48.9971 15.693 48.9745 15.2093C48.9745 14.5027 49.2756 13.8994 49.8779 13.3993C50.4801 12.8993 51.2348 12.6492 52.1438 12.6492C52.4073 12.6492 52.7178 12.6764 53.0791 12.729C53.1111 12.1818 53.3087 11.7832 53.6701 11.535C54.0314 11.2868 54.4643 11.1636 54.9667 11.1636C55.4372 11.1636 55.8644 11.2813 56.2465 11.5187C56.6304 11.756 56.8205 12.1003 56.8205 12.5532C56.8205 12.8377 56.7471 13.0424 56.5984 13.1692C56.4497 13.296 56.2239 13.4066 55.9171 13.5008C55.7421 13.5008 55.5934 13.441 55.473 13.3196C55.3525 13.1982 55.2867 13.0641 55.2754 12.9174C55.3074 12.6547 55.4391 12.459 55.6687 12.3322C55.5257 12.122 55.2904 12.0169 54.963 12.0169C54.7108 12.0169 54.4981 12.1093 54.3231 12.2941C54.1481 12.4789 54.0596 12.7507 54.0596 13.1076C54.4755 13.3812 54.7936 13.7164 55.0119 14.1113C55.2302 14.5063 55.3394 14.9103 55.3394 15.3198C55.3394 16.0373 55.0401 16.6605 54.4454 17.1932C53.8488 17.7259 53.1017 17.9976 52.204 18.0067C51.7335 17.965 51.3289 17.907 50.9882 17.8328C50.8904 17.802 50.7643 17.7567 50.61 17.6987C50.4575 17.6407 50.3013 17.59 50.1413 17.5483C49.9833 17.5066 49.8647 17.4849 49.7875 17.4849C49.6125 17.4849 49.4977 17.5465 49.4431 17.6661C49.3886 17.7875 49.334 17.9741 49.2794 18.2277C49.2794 18.4705 49.4318 18.6571 49.7386 18.7894C50.0454 18.9216 50.5648 18.9923 51.2988 19.0032C51.4512 18.9814 51.6977 18.9724 52.0384 18.9724C53.4179 18.9307 54.4624 19.1535 55.1738 19.6445C55.8851 20.1337 56.2408 20.7534 56.2408 21.5016C56.2408 22.3876 55.808 23.0235 54.9442 23.4149C54.0784 23.8044 53.1111 24.0001 52.0384 24.0001C50.9769 24.0001 50.036 23.8098 49.2135 23.4312C48.393 23.0525 47.9432 22.4202 47.8679 21.5342C47.9112 20.5957 48.4363 19.9906 49.445 19.717V19.65H49.4525ZM52.2115 20.0757C51.2592 20.0975 50.529 20.2261 50.019 20.4635C49.5109 20.7008 49.2549 21.0342 49.2549 21.4672C49.2549 21.8893 49.4958 22.2463 49.9776 22.5416C50.4594 22.8369 51.1049 22.9837 51.916 22.9837C52.6274 22.9837 53.3125 22.8786 53.9693 22.6666C54.6261 22.4564 54.9385 22.0651 54.9046 21.4962C54.9046 21.0541 54.675 20.7026 54.2158 20.4453C53.7547 20.1899 53.0866 20.0667 52.2115 20.0757ZM50.3239 15.2401C50.2919 15.7564 50.4519 16.1677 50.8076 16.4721C51.1633 16.7783 51.5867 16.9305 52.0798 16.9305C52.4073 16.9522 52.7253 16.8961 53.0321 16.7638C53.3388 16.6315 53.5873 16.4431 53.7792 16.1949C53.9712 15.9467 54.0672 15.6659 54.0672 15.3488C54.0784 14.8107 53.8921 14.4012 53.5082 14.1168C53.1243 13.8323 52.6594 13.6892 52.1118 13.6892C51.63 13.6675 51.2197 13.8033 50.881 14.0914C50.5422 14.3831 50.3559 14.7654 50.3239 15.2401Z" fill="#2E3131"/>
<path d="M59.3042 14.4642C59.3042 14.4425 59.3701 14.4914 59.5018 14.6074C59.6336 14.7233 59.6995 14.9027 59.6995 15.1455C59.6995 15.5984 59.3983 15.8466 58.7961 15.8883C58.7528 15.8665 58.6869 15.8575 58.5985 15.8575C58.0847 15.7633 57.8043 15.4208 57.761 14.8302C57.8043 14.3664 58.0094 13.9551 58.3764 13.5964C58.7434 13.2376 59.1819 12.9767 59.69 12.8137C60.1982 12.6506 60.7101 12.5945 61.2257 12.647C62.321 12.7412 63.087 13.0257 63.5236 13.5004C63.9621 13.975 64.1691 14.6762 64.1484 15.602L64.0506 18.9049C64.0506 19.2944 64.0807 19.6061 64.1409 19.838C64.2011 20.0699 64.3743 20.2221 64.6585 20.2964C64.9219 20.2438 65.0876 20.126 65.1591 19.9412C65.2306 19.7564 65.2663 19.4955 65.2663 19.1586V18.606C65.2663 18.1113 65.4414 17.8631 65.7914 17.8631C66.1735 17.8631 66.3654 18.0371 66.3654 18.3849V19.222V19.8706C66.3221 20.3344 66.1377 20.6786 65.8159 20.9051C65.4922 21.1316 65.0951 21.2457 64.6265 21.2457C64.2106 21.2457 63.8323 21.137 63.4935 20.9214C63.1548 20.7058 62.9685 20.4341 62.9346 20.1079C62.6824 20.4975 62.3154 20.7964 61.8336 21.0011C61.3518 21.2059 60.8324 21.3091 60.2735 21.3091C59.5941 21.3091 58.9674 21.1588 58.3934 20.858C57.8194 20.5573 57.4599 20.1659 57.3188 19.6804C57.2755 19.501 57.2303 19.2528 57.187 18.9375C57.219 17.8831 57.746 17.1511 58.7641 16.7398C59.0483 16.613 59.4586 16.5188 59.9949 16.4554C60.5313 16.392 61.0055 16.3376 61.4158 16.2887C61.8261 16.2416 62.1197 16.1655 62.2947 16.0586C62.6335 15.8593 62.8028 15.5531 62.8028 15.1418C62.8028 14.7106 62.624 14.3646 62.2684 14.1073C61.9127 13.85 61.5043 13.7196 61.0451 13.7196C60.6517 13.7196 60.2678 13.7939 59.8952 13.9406C59.5225 14.091 59.3268 14.2649 59.3042 14.4642ZM62.801 16.8358C62.4716 17.142 61.8675 17.3522 60.9867 17.4682C60.106 17.5841 59.4981 17.7001 59.165 17.816C58.8319 17.932 58.6305 18.2744 58.5665 18.8433C58.5232 19.2963 58.67 19.6369 59.0106 19.8633C59.3494 20.0898 59.7823 20.213 60.3073 20.2348C60.8437 20.204 61.3255 20.0916 61.7527 19.9032C62.146 19.7039 62.4095 19.4231 62.5412 19.0662C62.673 18.7074 62.7445 18.2708 62.7539 17.7544C62.7633 17.2363 62.7784 16.9301 62.801 16.8358Z" fill="#2E3131"/>
<path d="M69.6941 13.8153H69.7261C69.999 13.4475 70.3998 13.1521 70.9249 12.9293C71.45 12.7083 71.9807 12.614 72.5171 12.6448C73.2717 12.6756 73.9812 12.884 74.6437 13.2699C75.3062 13.654 75.6374 14.4113 75.6374 15.5383V19.0622C75.6374 19.4101 75.6694 19.6655 75.7352 19.8286C75.8011 19.9916 75.9272 20.084 76.1135 20.1058C76.3431 20.0424 76.5897 20.0116 76.8531 20.0116C77.2371 20.0116 77.4271 20.1801 77.4271 20.5171C77.4271 20.8867 77.1806 21.0696 76.6875 21.0696C76.6217 21.0696 76.3845 21.0425 75.9724 20.9899C75.5621 20.9374 75.2478 20.9102 75.0276 20.9102C74.8093 20.9102 74.4969 20.932 74.0923 20.9736C73.6876 21.0153 73.3978 21.037 73.2228 21.037C72.7956 21.037 72.5829 20.874 72.5829 20.5479C72.5829 20.1891 72.7636 20.0098 73.1249 20.0098C73.3113 20.0098 73.5032 20.0315 73.6989 20.0732C73.7855 20.0732 73.842 20.084 73.8627 20.104C74.1901 20.0822 74.3557 19.6728 74.3557 18.8701V15.6343C74.3557 15.2448 74.2711 14.9023 74.1017 14.607C73.9323 14.3117 73.6914 14.0852 73.379 13.9276C73.0666 13.77 72.6864 13.7011 72.2385 13.7229C71.6363 13.7229 71.0943 13.9077 70.6125 14.2755C70.1307 14.6451 69.8898 15.3661 69.8898 16.4405V19.064C69.8898 19.4427 69.9406 19.7181 70.046 19.8866C70.1495 20.055 70.334 20.1185 70.5956 20.0768C70.6181 20.0768 70.6821 20.0659 70.7932 20.046C70.9023 20.0242 70.9945 20.0152 71.0717 20.0152C71.4537 20.0152 71.6457 20.1837 71.6457 20.5207C71.6457 20.8903 71.4105 21.0733 70.94 21.0733C70.8967 21.0733 70.6746 21.0461 70.2756 20.9936C69.8766 20.941 69.5567 20.9138 69.3158 20.9138C69.0636 20.9138 68.7211 20.9392 68.2901 20.9936C67.8573 21.0461 67.6032 21.0733 67.5261 21.0733C67.3077 21.0733 67.1365 21.028 67.0179 20.9392C66.8975 20.8504 66.8372 20.6892 66.8372 20.4573C66.8372 20.142 67.0236 19.9826 67.3962 19.9826C67.5599 19.9826 67.7952 20.0242 68.1019 20.1094C68.3202 20.0985 68.4595 20.0152 68.5216 19.8558C68.5818 19.6981 68.612 19.4137 68.612 19.0024V14.7954C68.612 14.4784 68.5762 14.2483 68.5047 14.0997C68.4332 13.953 68.2995 13.8787 68.1019 13.8787C68.0135 13.8787 67.7895 13.9095 67.4282 13.9729C67.0236 13.9312 66.8203 13.7627 66.8203 13.4674C66.8203 13.3732 66.873 13.2536 66.9765 13.1123C67.08 12.9692 67.2193 12.8822 67.3962 12.8514C67.5054 12.8405 67.6503 12.8695 67.8309 12.9384C68.0116 13.0072 68.2054 13.0416 68.4143 13.0416C68.4689 13.0416 68.6025 13.0163 68.8171 12.9619C69.0298 12.9094 69.1972 12.8822 69.3177 12.8822C69.4701 12.8822 69.5718 12.9184 69.6207 12.9927C69.6696 13.067 69.6941 13.2137 69.6941 13.4348V13.8153Z" fill="#2E3131"/>
<path d="M84.2749 13.8154H84.3069V12.0453C84.3069 11.4982 84.2297 11.1594 84.0773 11.0343C84.034 10.9927 83.9512 10.9709 83.8307 10.9709C83.5353 10.9709 83.3113 11.0017 83.157 11.0651C82.7411 11.0343 82.5265 10.8495 82.5171 10.5126C82.5171 10.3549 82.5717 10.2227 82.6808 10.1176C82.79 10.0125 82.9274 9.95996 83.0911 9.95996C83.3094 9.95996 83.5296 9.98351 83.7479 10.0306C83.9662 10.0777 84.13 10.1013 84.241 10.1013C84.2843 10.1013 84.3182 10.1122 84.3389 10.1321C84.4706 10.1103 84.5779 10.0868 84.6588 10.0614C84.7416 10.0361 84.8395 10.0107 84.9543 9.99076C85.0691 9.96902 85.1651 9.95996 85.2422 9.95996C85.4718 9.95996 85.5866 10.1756 85.5866 10.6086V19.0334C85.5866 19.74 85.7447 20.1078 86.0628 20.1404C86.0853 20.1404 86.1889 20.115 86.3752 20.0607C86.5615 20.0081 86.6819 19.9809 86.7365 19.9809C87.1411 19.9809 87.3444 20.1603 87.3444 20.519C87.3444 20.8886 87.175 21.0716 86.8363 21.0716C86.793 21.0716 86.6443 21.0445 86.3921 20.9919C86.1399 20.9394 85.9385 20.9122 85.7842 20.9122C85.6638 20.9122 85.5076 20.9376 85.3156 20.9919C85.1237 21.0445 85.0013 21.0716 84.9467 21.0716C84.7378 21.0716 84.6023 21.0245 84.5365 20.9285C84.4706 20.8343 84.416 20.6658 84.3727 20.423C84.3953 20.3596 84.4047 20.2763 84.4047 20.1694H84.3727C84.1431 20.5172 83.795 20.7999 83.3301 21.0155C82.8653 21.2311 82.3364 21.3289 81.7455 21.3072C80.6502 21.2546 79.7732 20.8723 79.1107 20.1603C78.4483 19.4483 78.0851 18.4663 78.0192 17.2125C77.9759 16.2016 78.1208 15.3555 78.4539 14.676C78.787 13.9966 79.2425 13.4929 79.8165 13.1668C80.3905 12.8407 81.0115 12.6668 81.6796 12.645C82.2386 12.645 82.7655 12.7447 83.2643 12.9458C83.7649 13.1469 84.0999 13.4368 84.2749 13.8154ZM79.3667 16.9299C79.3987 17.9735 79.6377 18.787 80.0799 19.3722C80.5241 19.9574 81.1169 20.2437 81.8622 20.2328C82.6281 20.211 83.2285 19.9773 83.6595 19.5298C84.0923 19.0823 84.3088 18.2163 84.3088 16.9299C84.32 15.8229 84.1036 15.0167 83.6595 14.5112C83.2153 14.0057 82.5999 13.743 81.8114 13.7212C81.1113 13.7212 80.5241 14.0057 80.0555 14.5746C79.585 15.1435 79.3441 15.8754 79.3328 16.7723C79.3554 16.8139 79.3667 16.8665 79.3667 16.9299Z" fill="#2E3131"/>
<path d="M89.8457 14.4642C89.8457 14.4425 89.9115 14.4914 90.0433 14.6074C90.175 14.7233 90.2409 14.9027 90.2409 15.1455C90.2409 15.5984 89.9398 15.8466 89.3375 15.8883C89.2943 15.8665 89.2284 15.8575 89.1399 15.8575C88.6262 15.7633 88.3457 15.4208 88.3024 14.8302C88.3457 14.3664 88.5509 13.9551 88.9179 13.5964C89.2848 13.2376 89.7215 12.9767 90.2315 12.8137C90.7396 12.6506 91.2515 12.5945 91.7672 12.647C92.8625 12.7412 93.6284 13.0257 94.0651 13.5004C94.5036 13.975 94.7106 14.6762 94.688 15.602L94.5901 18.9067C94.5901 19.2963 94.6203 19.6079 94.6805 19.8398C94.7407 20.0717 94.912 20.2239 95.198 20.2982C95.4615 20.2456 95.6271 20.1279 95.6986 19.9431C95.7701 19.7583 95.8059 19.4974 95.8059 19.1604V18.6078C95.8059 18.1132 95.9809 17.8649 96.331 17.8649C96.713 17.8649 96.905 18.0389 96.905 18.3867V19.2238V19.8724C96.8617 20.3362 96.6773 20.6805 96.3554 20.9069C96.0317 21.1334 95.6365 21.2475 95.1641 21.2475C94.7482 21.2475 94.37 21.1388 94.0312 20.9232C93.6924 20.7076 93.5061 20.4359 93.4722 20.1097C93.2201 20.4993 92.8531 20.7982 92.3732 21.003C91.8914 21.2077 91.372 21.311 90.813 21.311C90.1336 21.311 89.5069 21.1606 88.9329 20.8598C88.3589 20.5591 87.9994 20.1677 87.8583 19.6822C87.815 19.5028 87.7698 19.2546 87.7266 18.9393C87.7586 17.8849 88.2855 17.1529 89.3018 16.7416C89.586 16.6148 89.9962 16.5206 90.5326 16.4572C91.069 16.3938 91.5432 16.3394 91.9535 16.2905C92.3638 16.2434 92.6574 16.1673 92.8324 16.0604C93.1711 15.8611 93.3405 15.5549 93.3405 15.1436C93.3405 14.7124 93.1617 14.3664 92.806 14.1091C92.4503 13.8518 92.0419 13.7214 91.5827 13.7214C91.1894 13.7214 90.8055 13.7957 90.4329 13.9424C90.064 14.091 89.8683 14.2649 89.8457 14.4642ZM93.3424 16.8358C93.0149 17.142 92.4089 17.3522 91.5282 17.4682C90.6474 17.5841 90.0395 17.7001 89.7064 17.816C89.3733 17.932 89.1719 18.2744 89.1079 18.8433C89.0646 19.2963 89.2114 19.6369 89.5521 19.8633C89.8908 20.0898 90.3237 20.213 90.8488 20.2348C91.3851 20.204 91.8669 20.0916 92.2941 19.9032C92.6875 19.7039 92.9509 19.4231 93.0827 19.0662C93.2144 18.7074 93.2859 18.2708 93.2953 17.7544C93.3047 17.2363 93.3217 16.9301 93.3424 16.8358Z" fill="#2E3131"/>
<path d="M98.0915 14.0222C98.6279 13.3482 98.9403 12.7521 99.0269 12.2357C99.0589 12.0672 99.0325 11.9694 98.9441 11.944C98.8556 11.9187 98.6956 11.8933 98.4604 11.8734C98.2251 11.8516 98.0388 11.7991 97.9014 11.7158C97.7641 11.6324 97.6587 11.4675 97.5815 11.2266C97.5702 11.1632 97.5627 11.1052 97.557 11.0527C97.5514 11.0001 97.5382 10.9421 97.5156 10.8787C97.5269 10.5091 97.6775 10.2392 97.9673 10.0652C98.2571 9.8913 98.5338 9.8152 98.7973 9.83513C99.7062 9.95109 100.1 10.6305 99.9791 11.8734C99.902 12.6108 99.5632 13.3591 98.961 14.1182C98.7088 14.4552 98.4961 14.6237 98.3211 14.6237C98.1122 14.6237 97.9937 14.5186 97.9598 14.3066C98.0144 14.149 98.0576 14.053 98.0915 14.0222Z" fill="#2E3131"/>
</svg>
