<svg width="12" height="7" viewBox="0 0 12 7" fill="none" xmlns="http://www.w3.org/2000/svg">
<path d="M11.1462 1.07143C11.1462 0.982143 11.1016 0.881696 11.0346 0.814732L10.4766 0.256696C10.4096 0.189732 10.3092 0.145089 10.2199 0.145089C10.1306 0.145089 10.0301 0.189732 9.96317 0.256696L5.57701 4.64286L1.19085 0.256696C1.12388 0.189732 1.02344 0.145089 0.934152 0.145089C0.833705 0.145089 0.74442 0.189732 0.677455 0.256696L0.11942 0.814732C0.0524554 0.881696 0.00781257 0.982143 0.00781257 1.07143C0.00781257 1.16071 0.0524554 1.26116 0.11942 1.32812L5.32031 6.52902C5.38728 6.59598 5.48772 6.64062 5.57701 6.64062C5.66629 6.64062 5.76674 6.59598 5.83371 6.52902L11.0346 1.32812C11.1016 1.26116 11.1462 1.16071 11.1462 1.07143Z" fill="#BDC3C7"/>
</svg>
