<svg width="158" height="158" viewBox="0 0 158 158" fill="none" xmlns="http://www.w3.org/2000/svg">
<path d="M158 0H0V158H158V0Z" fill="white"/>
<path d="M59.9317 10.8966H54.4834V16.3449H59.9317V10.8966Z" fill="#2E3131"/>
<path d="M87.1724 10.8966H81.7241V16.3449H87.1724V10.8966Z" fill="#2E3131"/>
<path d="M92.6211 10.8966H87.1729V16.3449H92.6211V10.8966Z" fill="#2E3131"/>
<path d="M98.0694 10.8966H92.6211V16.3449H98.0694V10.8966Z" fill="#2E3131"/>
<path d="M65.3804 16.3449H59.9321V21.7932H65.3804V16.3449Z" fill="#2E3131"/>
<path d="M81.7237 16.3449H76.2754V21.7932H81.7237V16.3449Z" fill="#2E3131"/>
<path d="M98.0694 16.3449H92.6211V21.7932H98.0694V16.3449Z" fill="#2E3131"/>
<path d="M59.9317 21.7932H54.4834V27.2415H59.9317V21.7932Z" fill="#2E3131"/>
<path d="M65.3804 21.7932H59.9321V27.2415H65.3804V21.7932Z" fill="#2E3131"/>
<path d="M70.8287 21.7932H65.3804V27.2415H70.8287V21.7932Z" fill="#2E3131"/>
<path d="M87.1724 21.7932H81.7241V27.2415H87.1724V21.7932Z" fill="#2E3131"/>
<path d="M70.8287 27.2414H65.3804V32.6897H70.8287V27.2414Z" fill="#2E3131"/>
<path d="M76.2754 27.2414H70.8271V32.6897H76.2754V27.2414Z" fill="#2E3131"/>
<path d="M81.7237 27.2414H76.2754V32.6897H81.7237V27.2414Z" fill="#2E3131"/>
<path d="M98.0694 27.2414H92.6211V32.6897H98.0694V27.2414Z" fill="#2E3131"/>
<path d="M65.3804 32.6897H59.9321V38.1379H65.3804V32.6897Z" fill="#2E3131"/>
<path d="M81.7237 32.6897H76.2754V38.1379H81.7237V32.6897Z" fill="#2E3131"/>
<path d="M98.0694 32.6897H92.6211V38.1379H98.0694V32.6897Z" fill="#2E3131"/>
<path d="M103.518 32.6897H98.0698V38.1379H103.518V32.6897Z" fill="#2E3131"/>
<path d="M59.9317 38.138H54.4834V43.5863H59.9317V38.138Z" fill="#2E3131"/>
<path d="M65.3804 38.138H59.9321V43.5863H65.3804V38.138Z" fill="#2E3131"/>
<path d="M70.8287 38.138H65.3804V43.5863H70.8287V38.138Z" fill="#2E3131"/>
<path d="M76.2754 38.138H70.8271V43.5863H76.2754V38.138Z" fill="#2E3131"/>
<path d="M87.1724 38.138H81.7241V43.5863H87.1724V38.138Z" fill="#2E3131"/>
<path d="M92.6211 38.138H87.1729V43.5863H92.6211V38.138Z" fill="#2E3131"/>
<path d="M103.518 38.138H98.0698V43.5863H103.518V38.138Z" fill="#2E3131"/>
<path d="M59.9317 43.5863H54.4834V49.0346H59.9317V43.5863Z" fill="#2E3131"/>
<path d="M70.8287 43.5863H65.3804V49.0346H70.8287V43.5863Z" fill="#2E3131"/>
<path d="M81.7237 43.5863H76.2754V49.0346H81.7237V43.5863Z" fill="#2E3131"/>
<path d="M92.6211 43.5863H87.1729V49.0346H92.6211V43.5863Z" fill="#2E3131"/>
<path d="M103.518 43.5863H98.0698V49.0346H103.518V43.5863Z" fill="#2E3131"/>
<path d="M81.7237 49.0346H76.2754V54.4829H81.7237V49.0346Z" fill="#2E3131"/>
<path d="M87.1724 49.0346H81.7241V54.4829H87.1724V49.0346Z" fill="#2E3131"/>
<path d="M98.0694 49.0346H92.6211V54.4829H98.0694V49.0346Z" fill="#2E3131"/>
<path d="M103.518 49.0346H98.0698V54.4829H103.518V49.0346Z" fill="#2E3131"/>
<path d="M16.3452 54.4828H10.897V59.931H16.3452V54.4828Z" fill="#2E3131"/>
<path d="M27.2422 54.4828H21.7939V59.931H27.2422V54.4828Z" fill="#2E3131"/>
<path d="M49.0347 54.4828H43.5864V59.931H49.0347V54.4828Z" fill="#2E3131"/>
<path d="M54.4829 54.4828H49.0347V59.931H54.4829V54.4828Z" fill="#2E3131"/>
<path d="M65.3804 54.4828H59.9321V59.931H65.3804V54.4828Z" fill="#2E3131"/>
<path d="M76.2754 54.4828H70.8271V59.931H76.2754V54.4828Z" fill="#2E3131"/>
<path d="M87.1724 54.4828H81.7241V59.931H87.1724V54.4828Z" fill="#2E3131"/>
<path d="M103.518 54.4828H98.0698V59.931H103.518V54.4828Z" fill="#2E3131"/>
<path d="M119.862 54.4828H114.414V59.931H119.862V54.4828Z" fill="#2E3131"/>
<path d="M136.208 54.4828H130.759V59.931H136.208V54.4828Z" fill="#2E3131"/>
<path d="M147.105 54.4828H141.656V59.931H147.105V54.4828Z" fill="#2E3131"/>
<path d="M16.3452 59.9311H10.897V65.3793H16.3452V59.9311Z" fill="#2E3131"/>
<path d="M21.794 59.9311H16.3457V65.3793H21.794V59.9311Z" fill="#2E3131"/>
<path d="M32.6909 59.9311H27.2427V65.3793H32.6909V59.9311Z" fill="#2E3131"/>
<path d="M54.4829 59.9311H49.0347V65.3793H54.4829V59.9311Z" fill="#2E3131"/>
<path d="M59.9317 59.9311H54.4834V65.3793H59.9317V59.9311Z" fill="#2E3131"/>
<path d="M70.8287 59.9311H65.3804V65.3793H70.8287V59.9311Z" fill="#2E3131"/>
<path d="M76.2754 59.9311H70.8271V65.3793H76.2754V59.9311Z" fill="#2E3131"/>
<path d="M81.7237 59.9311H76.2754V65.3793H81.7237V59.9311Z" fill="#2E3131"/>
<path d="M98.0694 59.9311H92.6211V65.3793H98.0694V59.9311Z" fill="#2E3131"/>
<path d="M114.415 59.9311H108.967V65.3793H114.415V59.9311Z" fill="#2E3131"/>
<path d="M119.862 59.9311H114.414V65.3793H119.862V59.9311Z" fill="#2E3131"/>
<path d="M130.759 59.9311H125.311V65.3793H130.759V59.9311Z" fill="#2E3131"/>
<path d="M141.656 59.9311H136.208V65.3793H141.656V59.9311Z" fill="#2E3131"/>
<path d="M147.105 59.9311H141.656V65.3793H147.105V59.9311Z" fill="#2E3131"/>
<path d="M21.794 65.3793H16.3457V70.8276H21.794V65.3793Z" fill="#2E3131"/>
<path d="M32.6909 65.3793H27.2427V70.8276H32.6909V65.3793Z" fill="#2E3131"/>
<path d="M49.0347 65.3793H43.5864V70.8276H49.0347V65.3793Z" fill="#2E3131"/>
<path d="M65.3804 65.3793H59.9321V70.8276H65.3804V65.3793Z" fill="#2E3131"/>
<path d="M70.8287 65.3793H65.3804V70.8276H70.8287V65.3793Z" fill="#2E3131"/>
<path d="M81.7237 65.3793H76.2754V70.8276H81.7237V65.3793Z" fill="#2E3131"/>
<path d="M87.1724 65.3793H81.7241V70.8276H87.1724V65.3793Z" fill="#2E3131"/>
<path d="M92.6211 65.3793H87.1729V70.8276H92.6211V65.3793Z" fill="#2E3131"/>
<path d="M98.0694 65.3793H92.6211V70.8276H98.0694V65.3793Z" fill="#2E3131"/>
<path d="M103.518 65.3793H98.0698V70.8276H103.518V65.3793Z" fill="#2E3131"/>
<path d="M114.415 65.3793H108.967V70.8276H114.415V65.3793Z" fill="#2E3131"/>
<path d="M125.31 65.3793H119.862V70.8276H125.31V65.3793Z" fill="#2E3131"/>
<path d="M130.759 65.3793H125.311V70.8276H130.759V65.3793Z" fill="#2E3131"/>
<path d="M136.208 65.3793H130.759V70.8276H136.208V65.3793Z" fill="#2E3131"/>
<path d="M147.105 65.3793H141.656V70.8276H147.105V65.3793Z" fill="#2E3131"/>
<path d="M16.3452 70.8277H10.897V76.2759H16.3452V70.8277Z" fill="#2E3131"/>
<path d="M21.794 70.8277H16.3457V76.2759H21.794V70.8277Z" fill="#2E3131"/>
<path d="M38.1372 70.8277H32.689V76.2759H38.1372V70.8277Z" fill="#2E3131"/>
<path d="M43.586 70.8277H38.1377V76.2759H43.586V70.8277Z" fill="#2E3131"/>
<path d="M65.3804 70.8277H59.9321V76.2759H65.3804V70.8277Z" fill="#2E3131"/>
<path d="M70.8287 70.8277H65.3804V76.2759H70.8287V70.8277Z" fill="#2E3131"/>
<path d="M81.7237 70.8277H76.2754V76.2759H81.7237V70.8277Z" fill="#2E3131"/>
<path d="M92.6211 70.8277H87.1729V76.2759H92.6211V70.8277Z" fill="#2E3131"/>
<path d="M98.0694 70.8277H92.6211V76.2759H98.0694V70.8277Z" fill="#2E3131"/>
<path d="M108.967 70.8277H103.519V76.2759H108.967V70.8277Z" fill="#2E3131"/>
<path d="M114.415 70.8277H108.967V76.2759H114.415V70.8277Z" fill="#2E3131"/>
<path d="M130.759 70.8277H125.311V76.2759H130.759V70.8277Z" fill="#2E3131"/>
<path d="M27.2422 76.276H21.7939V81.7243H27.2422V76.276Z" fill="#2E3131"/>
<path d="M43.586 76.276H38.1377V81.7243H43.586V76.276Z" fill="#2E3131"/>
<path d="M49.0347 76.276H43.5864V81.7243H49.0347V76.276Z" fill="#2E3131"/>
<path d="M65.3804 76.276H59.9321V81.7243H65.3804V76.276Z" fill="#2E3131"/>
<path d="M70.8287 76.276H65.3804V81.7243H70.8287V76.276Z" fill="#2E3131"/>
<path d="M87.1724 76.276H81.7241V81.7243H87.1724V76.276Z" fill="#2E3131"/>
<path d="M92.6211 76.276H87.1729V81.7243H92.6211V76.276Z" fill="#2E3131"/>
<path d="M114.415 76.276H108.967V81.7243H114.415V76.276Z" fill="#2E3131"/>
<path d="M119.862 76.276H114.414V81.7243H119.862V76.276Z" fill="#2E3131"/>
<path d="M147.105 76.276H141.656V81.7243H147.105V76.276Z" fill="#2E3131"/>
<path d="M21.794 81.7242H16.3457V87.1724H21.794V81.7242Z" fill="#2E3131"/>
<path d="M32.6909 81.7242H27.2427V87.1724H32.6909V81.7242Z" fill="#2E3131"/>
<path d="M43.586 81.7242H38.1377V87.1724H43.586V81.7242Z" fill="#2E3131"/>
<path d="M59.9317 81.7242H54.4834V87.1724H59.9317V81.7242Z" fill="#2E3131"/>
<path d="M87.1724 81.7242H81.7241V87.1724H87.1724V81.7242Z" fill="#2E3131"/>
<path d="M92.6211 81.7242H87.1729V87.1724H92.6211V81.7242Z" fill="#2E3131"/>
<path d="M98.0694 81.7242H92.6211V87.1724H98.0694V81.7242Z" fill="#2E3131"/>
<path d="M103.518 81.7242H98.0698V87.1724H103.518V81.7242Z" fill="#2E3131"/>
<path d="M114.415 81.7242H108.967V87.1724H114.415V81.7242Z" fill="#2E3131"/>
<path d="M119.862 81.7242H114.414V87.1724H119.862V81.7242Z" fill="#2E3131"/>
<path d="M141.656 81.7242H136.208V87.1724H141.656V81.7242Z" fill="#2E3131"/>
<path d="M147.105 81.7242H141.656V87.1724H147.105V81.7242Z" fill="#2E3131"/>
<path d="M16.3452 87.1725H10.897V92.6207H16.3452V87.1725Z" fill="#2E3131"/>
<path d="M21.794 87.1725H16.3457V92.6207H21.794V87.1725Z" fill="#2E3131"/>
<path d="M27.2422 87.1725H21.7939V92.6207H27.2422V87.1725Z" fill="#2E3131"/>
<path d="M32.6909 87.1725H27.2427V92.6207H32.6909V87.1725Z" fill="#2E3131"/>
<path d="M38.1372 87.1725H32.689V92.6207H38.1372V87.1725Z" fill="#2E3131"/>
<path d="M49.0347 87.1725H43.5864V92.6207H49.0347V87.1725Z" fill="#2E3131"/>
<path d="M59.9317 87.1725H54.4834V92.6207H59.9317V87.1725Z" fill="#2E3131"/>
<path d="M76.2754 87.1725H70.8271V92.6207H76.2754V87.1725Z" fill="#2E3131"/>
<path d="M98.0694 87.1725H92.6211V92.6207H98.0694V87.1725Z" fill="#2E3131"/>
<path d="M130.759 87.1725H125.311V92.6207H130.759V87.1725Z" fill="#2E3131"/>
<path d="M136.208 87.1725H130.759V92.6207H136.208V87.1725Z" fill="#2E3131"/>
<path d="M147.105 87.1725H141.656V92.6207H147.105V87.1725Z" fill="#2E3131"/>
<path d="M27.2422 92.6208H21.7939V98.069H27.2422V92.6208Z" fill="#2E3131"/>
<path d="M32.6909 92.6208H27.2427V98.069H32.6909V92.6208Z" fill="#2E3131"/>
<path d="M38.1372 92.6208H32.689V98.069H38.1372V92.6208Z" fill="#2E3131"/>
<path d="M43.586 92.6208H38.1377V98.069H43.586V92.6208Z" fill="#2E3131"/>
<path d="M65.3804 92.6208H59.9321V98.069H65.3804V92.6208Z" fill="#2E3131"/>
<path d="M87.1724 92.6208H81.7241V98.069H87.1724V92.6208Z" fill="#2E3131"/>
<path d="M108.967 92.6208H103.519V98.069H108.967V92.6208Z" fill="#2E3131"/>
<path d="M119.862 92.6208H114.414V98.069H119.862V92.6208Z" fill="#2E3131"/>
<path d="M125.31 92.6208H119.862V98.069H125.31V92.6208Z" fill="#2E3131"/>
<path d="M130.759 92.6208H125.311V98.069H130.759V92.6208Z" fill="#2E3131"/>
<path d="M16.3452 98.069H10.897V103.517H16.3452V98.069Z" fill="#2E3131"/>
<path d="M21.794 98.069H16.3457V103.517H21.794V98.069Z" fill="#2E3131"/>
<path d="M32.6909 98.069H27.2427V103.517H32.6909V98.069Z" fill="#2E3131"/>
<path d="M38.1372 98.069H32.689V103.517H38.1372V98.069Z" fill="#2E3131"/>
<path d="M49.0347 98.069H43.5864V103.517H49.0347V98.069Z" fill="#2E3131"/>
<path d="M65.3804 98.069H59.9321V103.517H65.3804V98.069Z" fill="#2E3131"/>
<path d="M70.8287 98.069H65.3804V103.517H70.8287V98.069Z" fill="#2E3131"/>
<path d="M76.2754 98.069H70.8271V103.517H76.2754V98.069Z" fill="#2E3131"/>
<path d="M81.7237 98.069H76.2754V103.517H81.7237V98.069Z" fill="#2E3131"/>
<path d="M87.1724 98.069H81.7241V103.517H87.1724V98.069Z" fill="#2E3131"/>
<path d="M98.0694 98.069H92.6211V103.517H98.0694V98.069Z" fill="#2E3131"/>
<path d="M103.518 98.069H98.0698V103.517H103.518V98.069Z" fill="#2E3131"/>
<path d="M108.967 98.069H103.519V103.517H108.967V98.069Z" fill="#2E3131"/>
<path d="M114.415 98.069H108.967V103.517H114.415V98.069Z" fill="#2E3131"/>
<path d="M119.862 98.069H114.414V103.517H119.862V98.069Z" fill="#2E3131"/>
<path d="M125.31 98.069H119.862V103.517H125.31V98.069Z" fill="#2E3131"/>
<path d="M141.656 98.069H136.208V103.517H141.656V98.069Z" fill="#2E3131"/>
<path d="M59.9317 103.517H54.4834V108.965H59.9317V103.517Z" fill="#2E3131"/>
<path d="M65.3804 103.517H59.9321V108.965H65.3804V103.517Z" fill="#2E3131"/>
<path d="M70.8287 103.517H65.3804V108.965H70.8287V103.517Z" fill="#2E3131"/>
<path d="M81.7237 103.517H76.2754V108.965H81.7237V103.517Z" fill="#2E3131"/>
<path d="M103.518 103.517H98.0698V108.965H103.518V103.517Z" fill="#2E3131"/>
<path d="M125.31 103.517H119.862V108.965H125.31V103.517Z" fill="#2E3131"/>
<path d="M147.105 103.517H141.656V108.965H147.105V103.517Z" fill="#2E3131"/>
<path d="M59.9317 108.966H54.4834V114.414H59.9317V108.966Z" fill="#2E3131"/>
<path d="M65.3804 108.966H59.9321V114.414H65.3804V108.966Z" fill="#2E3131"/>
<path d="M70.8287 108.966H65.3804V114.414H70.8287V108.966Z" fill="#2E3131"/>
<path d="M81.7237 108.966H76.2754V114.414H81.7237V108.966Z" fill="#2E3131"/>
<path d="M87.1724 108.966H81.7241V114.414H87.1724V108.966Z" fill="#2E3131"/>
<path d="M92.6211 108.966H87.1729V114.414H92.6211V108.966Z" fill="#2E3131"/>
<path d="M103.518 108.966H98.0698V114.414H103.518V108.966Z" fill="#2E3131"/>
<path d="M114.415 108.966H108.967V114.414H114.415V108.966Z" fill="#2E3131"/>
<path d="M125.31 108.966H119.862V114.414H125.31V108.966Z" fill="#2E3131"/>
<path d="M147.105 108.966H141.656V114.414H147.105V108.966Z" fill="#2E3131"/>
<path d="M65.3804 114.414H59.9321V119.862H65.3804V114.414Z" fill="#2E3131"/>
<path d="M70.8287 114.414H65.3804V119.862H70.8287V114.414Z" fill="#2E3131"/>
<path d="M76.2754 114.414H70.8271V119.862H76.2754V114.414Z" fill="#2E3131"/>
<path d="M81.7237 114.414H76.2754V119.862H81.7237V114.414Z" fill="#2E3131"/>
<path d="M92.6211 114.414H87.1729V119.862H92.6211V114.414Z" fill="#2E3131"/>
<path d="M98.0694 114.414H92.6211V119.862H98.0694V114.414Z" fill="#2E3131"/>
<path d="M103.518 114.414H98.0698V119.862H103.518V114.414Z" fill="#2E3131"/>
<path d="M125.31 114.414H119.862V119.862H125.31V114.414Z" fill="#2E3131"/>
<path d="M70.8287 119.862H65.3804V125.31H70.8287V119.862Z" fill="#2E3131"/>
<path d="M87.1724 119.862H81.7241V125.31H87.1724V119.862Z" fill="#2E3131"/>
<path d="M92.6211 119.862H87.1729V125.31H92.6211V119.862Z" fill="#2E3131"/>
<path d="M98.0694 119.862H92.6211V125.31H98.0694V119.862Z" fill="#2E3131"/>
<path d="M103.518 119.862H98.0698V125.31H103.518V119.862Z" fill="#2E3131"/>
<path d="M108.967 119.862H103.519V125.31H108.967V119.862Z" fill="#2E3131"/>
<path d="M114.415 119.862H108.967V125.31H114.415V119.862Z" fill="#2E3131"/>
<path d="M119.862 119.862H114.414V125.31H119.862V119.862Z" fill="#2E3131"/>
<path d="M125.31 119.862H119.862V125.31H125.31V119.862Z" fill="#2E3131"/>
<path d="M141.656 119.862H136.208V125.31H141.656V119.862Z" fill="#2E3131"/>
<path d="M147.105 119.862H141.656V125.31H147.105V119.862Z" fill="#2E3131"/>
<path d="M65.3804 125.31H59.9321V130.759H65.3804V125.31Z" fill="#2E3131"/>
<path d="M87.1724 125.31H81.7241V130.759H87.1724V125.31Z" fill="#2E3131"/>
<path d="M92.6211 125.31H87.1729V130.759H92.6211V125.31Z" fill="#2E3131"/>
<path d="M103.518 125.31H98.0698V130.759H103.518V125.31Z" fill="#2E3131"/>
<path d="M108.967 125.31H103.519V130.759H108.967V125.31Z" fill="#2E3131"/>
<path d="M125.31 125.31H119.862V130.759H125.31V125.31Z" fill="#2E3131"/>
<path d="M136.208 125.31H130.759V130.759H136.208V125.31Z" fill="#2E3131"/>
<path d="M141.656 125.31H136.208V130.759H141.656V125.31Z" fill="#2E3131"/>
<path d="M59.9317 130.759H54.4834V136.207H59.9317V130.759Z" fill="#2E3131"/>
<path d="M65.3804 130.759H59.9321V136.207H65.3804V130.759Z" fill="#2E3131"/>
<path d="M70.8287 130.759H65.3804V136.207H70.8287V130.759Z" fill="#2E3131"/>
<path d="M76.2754 130.759H70.8271V136.207H76.2754V130.759Z" fill="#2E3131"/>
<path d="M108.967 130.759H103.519V136.207H108.967V130.759Z" fill="#2E3131"/>
<path d="M119.862 130.759H114.414V136.207H119.862V130.759Z" fill="#2E3131"/>
<path d="M125.31 130.759H119.862V136.207H125.31V130.759Z" fill="#2E3131"/>
<path d="M130.759 130.759H125.311V136.207H130.759V130.759Z" fill="#2E3131"/>
<path d="M141.656 130.759H136.208V136.207H141.656V130.759Z" fill="#2E3131"/>
<path d="M147.105 130.759H141.656V136.207H147.105V130.759Z" fill="#2E3131"/>
<path d="M70.8287 136.207H65.3804V141.655H70.8287V136.207Z" fill="#2E3131"/>
<path d="M87.1724 136.207H81.7241V141.655H87.1724V136.207Z" fill="#2E3131"/>
<path d="M103.518 136.207H98.0698V141.655H103.518V136.207Z" fill="#2E3131"/>
<path d="M119.862 136.207H114.414V141.655H119.862V136.207Z" fill="#2E3131"/>
<path d="M125.31 136.207H119.862V141.655H125.31V136.207Z" fill="#2E3131"/>
<path d="M59.9317 141.655H54.4834V147.104H59.9317V141.655Z" fill="#2E3131"/>
<path d="M70.8287 141.655H65.3804V147.104H70.8287V141.655Z" fill="#2E3131"/>
<path d="M76.2754 141.655H70.8271V147.104H76.2754V141.655Z" fill="#2E3131"/>
<path d="M81.7237 141.655H76.2754V147.104H81.7237V141.655Z" fill="#2E3131"/>
<path d="M87.1724 141.655H81.7241V147.104H87.1724V141.655Z" fill="#2E3131"/>
<path d="M98.0694 141.655H92.6211V147.104H98.0694V141.655Z" fill="#2E3131"/>
<path d="M103.518 141.655H98.0698V147.104H103.518V141.655Z" fill="#2E3131"/>
<path d="M114.415 141.655H108.967V147.104H114.415V141.655Z" fill="#2E3131"/>
<path d="M130.759 141.655H125.311V147.104H130.759V141.655Z" fill="#2E3131"/>
<path d="M147.105 141.655H141.656V147.104H147.105V141.655Z" fill="#2E3131"/>
<path d="M43.3142 10.8966H16.6177H10.897V16.6173V43.3138V49.0345H16.6177H43.3142H49.0349V43.3138V16.6173V10.8966H43.3142ZM43.3142 43.3138H16.6177V16.6173H43.3142V43.3138Z" fill="#2E3131"/>
<path d="M141.384 10.8966H114.687H108.967V16.6173V43.3138V49.0345H114.687H141.384H147.105V43.3138V16.6173V10.8966H141.384ZM141.384 43.3138H114.687V16.6173H141.384V43.3138Z" fill="#2E3131"/>
<path d="M43.3142 108.966H16.6177H10.897V114.686V141.383V147.103H16.6177H43.3142H49.0349V141.383V114.686V108.966H43.3142ZM43.3142 141.383H16.6177V114.686H43.3142V141.383Z" fill="#2E3131"/>
<path d="M38.1388 21.7932H21.7939V38.138H38.1388V21.7932Z" fill="#2E3131"/>
<path d="M136.207 21.7932H119.862V38.138H136.207V21.7932Z" fill="#2E3131"/>
<path d="M38.1388 119.862H21.7939V136.207H38.1388V119.862Z" fill="#2E3131"/>
</svg>
