<svg width="24" height="24" viewBox="0 0 24 24" fill="none" xmlns="http://www.w3.org/2000/svg">
<path fill-rule="evenodd" clip-rule="evenodd" d="M18.2305 4.70915C16.9614 3.44005 14.9033 3.44005 13.6342 4.70915C13.6207 4.72267 13.6068 4.73557 13.5925 4.74784L6.24789 12.0925C6.23562 12.1067 6.22272 12.1206 6.2092 12.1342C4.35409 13.9893 4.35409 16.9964 6.2092 18.8515C8.06431 20.7066 11.0714 20.7066 12.9265 18.8515C12.9343 18.8437 12.9422 18.8361 12.9503 18.8288L18.2295 13.5495C18.5224 13.2566 18.9973 13.2566 19.2902 13.5495C19.5831 13.8424 19.5831 14.3173 19.2902 14.6102L13.9902 19.9102C13.982 19.9183 13.9737 19.9263 13.9652 19.934C11.5226 22.353 7.58212 22.3457 5.14854 19.9122C2.72099 17.4846 2.70772 13.5576 5.10873 11.1137C5.12164 11.0985 5.13524 11.0838 5.14954 11.0695L12.5695 3.64949C12.5841 3.63491 12.5992 3.62106 12.6146 3.60793C14.4725 1.7937 17.4499 1.80722 19.2912 3.64849C21.1463 5.50363 21.1448 8.51151 19.2902 10.3662L12.5722 17.0842C11.3032 18.3532 9.24549 18.3528 7.97581 17.0844L7.97554 17.0842C6.7065 15.8151 6.70689 13.7574 7.97527 12.4878L7.97554 12.4875L12.5715 7.89149C12.8644 7.5986 13.3393 7.5986 13.6322 7.89149C13.9251 8.18439 13.9251 8.65926 13.6322 8.95215L9.03647 13.5479C8.35294 14.2321 8.35324 15.3402 9.03593 16.0232C9.03594 16.0232 9.03596 16.0233 9.03597 16.0233M9.03597 16.0233C9.72029 16.7068 10.8286 16.7064 11.5115 16.0235L18.2295 9.30549C19.4989 8.03614 19.4994 5.97802 18.2305 4.70915" fill="#A0AEC0"/>
</svg>
