<svg width="32" height="32" viewBox="0 0 32 32" fill="none" xmlns="http://www.w3.org/2000/svg">
<path d="M8 0C6.9 0 6 0.9 6 2V30C6 31.1 6.9 32 8 32H28C29.1 32 30 31.1 30 30V8L22 0H8Z" fill="#E2E5E7"/>
<path d="M24 8H30L22 0V6C22 7.1 22.9 8 24 8Z" fill="#B0B7BD"/>
<path d="M30 14L24 8H30V14Z" fill="#CAD1D8"/>
<path d="M26 26C26 26.55 25.55 27 25 27H3C2.45 27 2 26.55 2 26V16C2 15.45 2.45 15 3 15H25C25.55 15 26 15.45 26 16V26Z" fill="#50BEE8"/>
<path d="M5.78637 24C5.52237 24 5.23438 23.855 5.23438 23.504V18.963C5.23438 18.675 5.52237 18.467 5.78637 18.467H7.61737C11.2714 18.467 11.1904 24 7.68837 24H5.78637ZM6.29037 19.442V23.024H7.61737C9.77637 23.024 9.87138 19.442 7.61737 19.442H6.29037Z" fill="white"/>
<path d="M14.2504 24.08C12.7714 24.144 11.2354 23.16 11.2354 21.201C11.2354 19.234 12.7704 18.267 14.2504 18.267C15.6494 18.338 17.1124 19.306 17.1124 21.201C17.1124 23.097 15.6494 24.08 14.2504 24.08ZM14.1624 19.307C13.2664 19.307 12.2914 19.939 12.2914 21.202C12.2914 22.458 13.2674 23.098 14.1624 23.098C15.0824 23.098 16.0654 22.458 16.0654 21.202C16.0654 19.938 15.0824 19.307 14.1624 19.307Z" fill="white"/>
<path d="M18.0537 21.193C18.0537 19.65 19.0217 18.323 20.8607 18.323C21.5567 18.323 22.1087 18.531 22.6917 19.035C22.9077 19.234 22.9317 19.586 22.7157 19.81C22.4997 20.001 22.1717 19.978 21.9797 19.786C21.6527 19.442 21.3167 19.347 20.8607 19.347C19.6297 19.347 19.0387 20.219 19.0387 21.194C19.0387 22.186 19.6217 23.097 20.8607 23.097C21.3167 23.097 21.7407 22.912 22.1087 22.585C22.3557 22.393 22.6997 22.488 22.8437 22.681C22.9717 22.857 23.0347 23.153 22.7557 23.432C22.1957 23.953 21.5247 24.057 20.8597 24.057C18.9257 24.057 18.0537 22.736 18.0537 21.193Z" fill="white"/>
<path d="M25 27H6V28H25C25.55 28 26 27.55 26 27V26C26 26.55 25.55 27 25 27Z" fill="#CAD1D8"/>
</svg>
