<svg width="4" height="20" viewBox="0 0 4 20" fill="none" xmlns="http://www.w3.org/2000/svg">
<path d="M3.75 18.1667C3.75 19.1332 2.9665 19.9167 2 19.9167C1.0335 19.9167 0.250001 19.1332 0.250001 18.1667C0.250001 17.2002 1.0335 16.4167 2 16.4167C2.9665 16.4167 3.75 17.2002 3.75 18.1667Z" fill="#718096"/>
<path d="M2 8.25001C1.0335 8.25001 0.25 9.03351 0.25 10C0.25 10.9665 1.0335 11.75 2 11.75C2.9665 11.75 3.75 10.9665 3.75 10C3.75 9.03351 2.9665 8.25001 2 8.25001Z" fill="#718096"/>
<path d="M2 0.0833435C1.0335 0.0833435 0.25 0.866844 0.25 1.83334C0.25 2.79984 1.0335 3.58334 2 3.58334C2.9665 3.58334 3.75 2.79984 3.75 1.83334C3.75 0.866844 2.9665 0.0833435 2 0.0833435Z" fill="#718096"/>
</svg>
