<svg width="58" height="64" viewBox="0 0 58 64" fill="none" xmlns="http://www.w3.org/2000/svg">
<path d="M28.4915 24.9816C24.6348 24.9816 21.5078 28.1086 21.5078 31.9653C21.5078 35.822 24.6348 38.9837 28.4915 38.9837C32.3482 38.9837 35.4752 35.822 35.4752 31.9653C35.51 28.1433 32.3829 24.9816 28.4915 24.9816ZM28.4915 37.0033C25.7467 37.0033 23.4883 34.7449 23.4883 32C23.4883 29.2552 25.7467 26.9968 28.4915 26.9968C31.2364 26.9968 33.4948 29.2552 33.4948 32C33.4948 34.7449 31.2711 37.0033 28.4915 37.0033Z" fill="#849097"/>
<path d="M2.98806 28.0738C4.65581 28.0738 5.97611 26.7188 5.97611 25.0858C5.97611 23.418 4.62106 22.0977 2.98806 22.0977C1.35505 22.063 0 23.418 0 25.0858C0 26.7188 1.35505 28.0738 2.98806 28.0738ZM2.98806 24.0782C3.54397 24.0782 3.99566 24.5298 3.99566 25.0858C3.99566 25.6417 3.54397 26.0934 2.98806 26.0934C2.43214 26.0934 1.98046 25.6417 1.98046 25.0858C2.0152 24.5298 2.43214 24.0782 2.98806 24.0782Z" fill="#849097"/>
<path d="M38.4978 46.2454C36.8301 46.2454 35.5098 47.6004 35.5098 49.2334C35.5098 50.9012 36.8648 52.2215 38.4978 52.2215C40.1656 52.2215 41.4859 50.8664 41.4859 49.2334C41.4859 47.6004 40.1656 46.2454 38.4978 46.2454ZM38.4978 50.241C37.9419 50.241 37.4902 49.7893 37.4902 49.2334C37.4902 48.6775 37.9419 48.2258 38.4978 48.2258C39.0537 48.2258 39.5054 48.6775 39.5054 49.2334C39.5054 49.7893 39.0537 50.241 38.4978 50.241Z" fill="#849097"/>
<path d="M47.322 16.33C48.9898 16.33 50.3101 14.9749 50.3101 13.3419C50.3101 11.6742 48.955 10.3539 47.322 10.3539C45.6543 10.3539 44.334 11.7089 44.334 13.3419C44.334 14.9749 45.689 16.33 47.322 16.33ZM47.322 12.3343C47.878 12.3343 48.3296 12.786 48.3296 13.3419C48.3296 13.8979 47.878 14.3495 47.322 14.3495C46.7661 14.3495 46.3144 13.8979 46.3144 13.3419C46.3492 12.786 46.7661 12.3343 47.322 12.3343Z" fill="#849097"/>
<path d="M49.8243 32C50.7971 30.9924 51.7005 30.0195 52.4996 29.0119C56.7037 23.7655 58.024 19.1444 56.2173 15.9826C55.4529 14.6276 54.0979 13.6895 52.3259 13.0641C52.3259 13.1336 52.3606 13.2378 52.3606 13.3073C52.3606 13.8979 52.2217 14.4886 52.0479 15.0098C53.0903 15.4267 53.9936 16.0174 54.5148 16.9555C55.8699 19.3181 54.5843 23.2443 50.9708 27.7264C50.2065 28.6645 49.3378 29.6026 48.4345 30.5755C46.315 28.5603 43.8829 26.5798 41.2075 24.6688C40.8948 21.3681 40.4084 18.3105 39.7135 15.4962C40.6864 15.253 41.694 14.975 42.6321 14.8013C42.4931 14.3149 42.3889 13.8284 42.3889 13.3073C42.3889 13.1335 42.4236 12.9598 42.4236 12.8208C41.3813 12.9946 40.3042 13.2725 39.2271 13.5505C36.8644 5.31596 32.973 0 28.4909 0C24.0436 0 20.1522 5.28122 17.8243 13.5157C14.8015 12.7514 11.9871 12.3344 9.52025 12.3344C5.17715 12.3344 2.18909 13.5852 0.799296 15.9826C0.00016482 17.3724 -0.138815 19.0749 0.243379 20.9164C0.799296 20.5342 1.4247 20.291 2.08486 20.152C1.91113 18.9359 2.05011 17.8588 2.53654 16.9902C3.8221 14.8013 7.05337 14.3496 9.555 14.3496C11.8482 14.3496 14.5235 14.7318 17.3726 15.4615C16.6777 18.2758 16.1913 21.3681 15.8786 24.7036C13.1337 26.6145 10.7016 28.595 8.61689 30.5755C7.88724 29.8806 7.22709 29.1509 6.63643 28.456C6.21949 28.9425 5.66357 29.3594 5.03817 29.6374C5.69832 30.4017 6.42796 31.2009 7.19235 32C1.21623 38.1151 -1.42437 44.1259 0.799296 48.0174C2.18909 50.4148 5.21189 51.6656 9.52025 51.6656C11.9871 51.6656 14.8015 51.2486 17.8243 50.4843C20.1522 58.7188 24.0089 64 28.4909 64C32.2434 64 35.5789 60.2476 37.9068 54.202C37.2119 54.1325 36.5865 53.924 36.0306 53.5765C33.9459 58.9273 31.1663 61.9848 28.4909 61.9848C25.2597 61.9848 21.8894 57.468 19.7352 49.9283C22.5496 49.0945 25.5029 47.9826 28.5257 46.5928C30.2282 47.3572 31.8959 48.0869 33.5289 48.6775C33.5984 47.9826 33.8069 47.3572 34.1543 46.7666C33.0773 46.3844 32.0002 45.8632 30.9231 45.4115C32.2781 44.7166 33.6332 44.0217 34.9882 43.2226C36.3433 42.4235 37.6636 41.6243 38.9491 40.7557C38.8102 41.937 38.7059 43.1184 38.5322 44.1954C39.2271 44.1954 39.8872 44.3344 40.4779 44.6124C40.7559 42.9099 40.9643 41.1031 41.1381 39.2617C43.8134 37.3507 46.2803 35.3703 48.3997 33.355C49.3031 34.2932 50.1717 35.2313 50.9361 36.2041C54.5496 40.6862 55.8351 44.6124 54.4801 46.975C53.1945 49.164 49.9632 49.6504 47.4616 49.6504C46.2455 49.6504 44.8905 49.5114 43.466 49.3029C43.466 49.9978 43.327 50.658 43.049 51.2486C44.6125 51.4919 46.1066 51.6656 47.4616 51.6656C51.8047 51.6656 54.8275 50.4148 56.1826 48.0174C57.9893 44.8556 56.7037 40.2345 52.4649 34.9881C51.7005 33.9805 50.7971 32.9729 49.8243 32ZM39.0186 23.2096C37.7331 22.3409 36.378 21.5071 35.023 20.7079C33.6332 19.9435 32.2781 19.2486 30.9231 18.5537C33.251 17.5461 35.5789 16.6428 37.7678 15.9826C38.289 18.2063 38.7059 20.6037 39.0186 23.2096ZM28.4909 1.98046C31.7222 1.98046 35.0925 6.49728 37.2466 14.0369C34.467 14.9055 31.5137 16.0174 28.5257 17.4072C25.5376 16.0174 22.5843 14.9055 19.7352 14.0717C21.8894 6.49729 25.2597 1.98046 28.4909 1.98046ZM19.2488 16.0174C21.4725 16.6775 23.8004 17.5114 26.163 18.5537C24.7732 19.2486 23.3834 19.9435 21.9936 20.7427C20.6039 21.5418 19.2836 22.3757 17.998 23.2096C18.3107 20.6037 18.7276 18.2063 19.2488 16.0174ZM15.6701 27.2747C15.5659 28.8035 15.4964 30.367 15.4964 32C15.4964 33.5983 15.5659 35.1618 15.6353 36.7253C13.5507 35.127 11.6744 33.5635 10.0067 32C11.6744 30.4365 13.5507 28.8382 15.6701 27.2747ZM9.52025 49.6504C7.01862 49.6504 3.78735 49.1987 2.50179 46.975C0.868786 44.1607 3.09246 39.0185 8.58214 33.355C10.6668 35.3703 13.099 37.3507 15.8438 39.2617C16.1565 42.5972 16.6429 45.6895 17.3378 48.5038C14.4888 49.2334 11.8482 49.6504 9.52025 49.6504ZM19.2488 47.9826C18.7276 45.7937 18.3107 43.3616 17.998 40.7557C19.2836 41.5896 20.6039 42.4235 21.9936 43.2573C23.3834 44.0565 24.7732 44.7514 26.1978 45.4463C23.8351 46.4539 21.4725 47.3225 19.2488 47.9826ZM34.0154 41.5201C32.1739 42.5624 30.3324 43.5353 28.5257 44.4039C26.6842 43.5353 24.8427 42.5972 23.036 41.5201C21.1598 40.443 19.4225 39.3312 17.7895 38.2193C17.6158 36.2389 17.5463 34.1889 17.5463 32C17.5463 29.8458 17.6505 27.7611 17.7895 25.7807C19.3878 24.6688 21.125 23.557 23.0012 22.4799C24.8427 21.4376 26.6842 20.4647 28.4909 19.5961C30.3324 20.4647 32.1739 21.4028 33.9806 22.4799C35.8221 23.5223 37.5593 24.6341 39.2271 25.8154C39.3661 27.7959 39.4703 29.8458 39.4703 32.0347C39.4703 34.1889 39.3661 36.2736 39.2271 38.2541C37.5941 39.3312 35.8221 40.443 34.0154 41.5201ZM41.3465 27.2747C43.3965 28.8035 45.3074 30.4017 46.9752 32C45.2727 33.5983 43.3965 35.1965 41.3118 36.7253C41.416 35.1618 41.4855 33.633 41.4855 32C41.4855 30.367 41.4508 28.8035 41.3465 27.2747Z" fill="#849097"/>
</svg>
