<svg width="32" height="32" viewBox="0 0 32 32" fill="none" xmlns="http://www.w3.org/2000/svg">
<path d="M8 0C6.9 0 6 0.9 6 2V30C6 31.1 6.9 32 8 32H28C29.1 32 30 31.1 30 30V8L22 0H8Z" fill="#E2E5E7"/>
<path d="M24 8H30L22 0V6C22 7.1 22.9 8 24 8Z" fill="#B0B7BD"/>
<path d="M30 14L24 8H30V14Z" fill="#CAD1D8"/>
<path d="M26 26C26 26.55 25.55 27 25 27H3C2.45 27 2 26.55 2 26V16C2 15.45 2.45 15 3 15H25C25.55 15 26 15.45 26 16V26Z" fill="#50BEE8"/>
<path d="M8.87282 18.9471C8.87282 18.2751 9.92882 18.2751 9.92882 18.9471V22.1051C9.92882 23.3611 9.32882 24.1211 7.94582 24.1211C7.26582 24.1211 6.69882 23.9361 6.20282 23.2971C5.79482 22.8091 6.56282 22.1061 6.97882 22.6171C7.31482 23.0331 7.67482 23.1291 8.02582 23.1131C8.47282 23.0971 8.86582 22.8961 8.87382 22.1051V18.9471H8.87282Z" fill="white"/>
<path d="M11.334 18.9471C11.334 18.6831 11.542 18.3951 11.878 18.3951H13.725C14.765 18.3951 15.701 19.0911 15.701 20.4251C15.701 21.6891 14.765 22.3931 13.725 22.3931H12.39V23.4491C12.39 23.8011 12.166 24.0001 11.878 24.0001C11.614 24.0001 11.334 23.8011 11.334 23.4491V18.9471ZM12.39 19.4021V21.3941H13.725C14.261 21.3941 14.685 20.9211 14.685 20.4251C14.685 19.8661 14.261 19.4021 13.725 19.4021H12.39Z" fill="white"/>
<path d="M21.4112 23.3851C20.8432 23.8571 20.1472 24.0571 19.4442 24.0571C17.7642 24.0571 16.5732 23.0981 16.5732 21.1941C16.5732 19.5801 17.8292 18.3251 19.5152 18.3251C20.1472 18.3251 20.8422 18.5401 21.3382 19.0281C21.8252 19.5071 21.1222 20.2191 20.6432 19.7961C20.3472 19.5081 19.9312 19.2921 19.5152 19.2921C18.5482 19.2921 17.6132 20.0671 17.6132 21.1941C17.6132 22.3781 18.3962 23.0981 19.4442 23.0981C19.9312 23.0981 20.3472 22.9531 20.6432 22.7381V21.7551H19.4442C18.7322 21.7551 18.8042 20.7791 19.4442 20.7791H21.0432C21.3392 20.7791 21.6102 21.0031 21.6102 21.2511V22.9541C21.6102 23.0981 21.5472 23.2321 21.4112 23.3851Z" fill="white"/>
<path d="M25 27H6V28H25C25.55 28 26 27.55 26 27V26C26 26.55 25.55 27 25 27Z" fill="#CAD1D8"/>
</svg>
