<svg width="14" height="16" viewBox="0 0 14 16" fill="none" xmlns="http://www.w3.org/2000/svg">
<path fill-rule="evenodd" clip-rule="evenodd" d="M0.63904 0.63904C1.04821 0.229869 1.60316 0 2.18182 0H8C8.19289 0 8.37787 0.0766231 8.51426 0.213013L12.8779 4.57665C13.0143 4.71304 13.0909 4.89802 13.0909 5.09091V13.8182C13.0909 14.3968 12.861 14.9518 12.4519 15.361C12.0427 15.7701 11.4877 16 10.9091 16H2.18182C1.60316 16 1.04821 15.7701 0.63904 15.361C0.229869 14.9518 0 14.3968 0 13.8182V2.18182C0 1.60316 0.229869 1.04821 0.63904 0.63904ZM2.18182 1.45455C1.98893 1.45455 1.80395 1.53117 1.66756 1.66756C1.53117 1.80395 1.45455 1.98893 1.45455 2.18182V13.8182C1.45455 14.0111 1.53117 14.1961 1.66756 14.3324C1.80395 14.4688 1.98893 14.5455 2.18182 14.5455H10.9091C11.102 14.5455 11.287 14.4688 11.4234 14.3324C11.5597 14.1961 11.6364 14.0111 11.6364 13.8182V5.39216L7.69875 1.45455H2.18182Z" fill="#2E3131"/>
<path fill-rule="evenodd" clip-rule="evenodd" d="M7.99998 0C8.40164 0 8.72725 0.325611 8.72725 0.727273V4.36364H12.3636C12.7653 4.36364 13.0909 4.68925 13.0909 5.09091C13.0909 5.49257 12.7653 5.81818 12.3636 5.81818H7.99998C7.59832 5.81818 7.27271 5.49257 7.27271 5.09091V0.727273C7.27271 0.325611 7.59832 0 7.99998 0Z" fill="#2E3131"/>
<path fill-rule="evenodd" clip-rule="evenodd" d="M2.90918 8.72727C2.90918 8.32561 3.23479 8 3.63645 8H9.45463C9.8563 8 10.1819 8.32561 10.1819 8.72727C10.1819 9.12893 9.8563 9.45455 9.45463 9.45455H3.63645C3.23479 9.45455 2.90918 9.12893 2.90918 8.72727Z" fill="#2E3131"/>
<path fill-rule="evenodd" clip-rule="evenodd" d="M2.90918 11.6364C2.90918 11.2347 3.23479 10.9091 3.63645 10.9091H9.45463C9.8563 10.9091 10.1819 11.2347 10.1819 11.6364C10.1819 12.038 9.8563 12.3636 9.45463 12.3636H3.63645C3.23479 12.3636 2.90918 12.038 2.90918 11.6364Z" fill="#2E3131"/>
<path fill-rule="evenodd" clip-rule="evenodd" d="M2.90918 5.81818C2.90918 5.41652 3.23479 5.09091 3.63645 5.09091H5.091C5.49266 5.09091 5.81827 5.41652 5.81827 5.81818C5.81827 6.21985 5.49266 6.54546 5.091 6.54546H3.63645C3.23479 6.54546 2.90918 6.21985 2.90918 5.81818Z" fill="#2E3131"/>
</svg>
