<svg width="72" height="72" viewBox="0 0 72 72" fill="none" xmlns="http://www.w3.org/2000/svg">
<path d="M16.0556 62.0421C4.4768 50.4554 3.50414 32.3448 13.0396 19.6867C13.9143 18.4216 14.8894 17.2522 16.0556 16.0852C17.6114 14.5284 17.6114 12.0938 16.0556 10.5346C14.4998 8.97774 12.067 8.97774 10.5088 10.5346C-3.50292 24.5558 -3.50292 47.4349 10.5088 61.4561C19.3631 70.3165 32.0126 73.8224 44.0765 71.0961C34.1515 72.653 23.7413 69.6349 16.0556 62.0421Z" fill="white"/>
<path d="M27.6318 0.995051C37.6524 -0.659838 48.2586 2.35819 55.9443 10.0491C67.9126 22.0256 68.5937 41.0115 57.9876 53.7652C57.4045 54.5448 56.7234 55.322 55.9443 56.0036C54.3885 57.5604 54.3885 59.9949 55.9443 61.5542C57.5 63.111 59.9329 63.111 61.4911 61.5542C75.5028 47.533 75.5028 24.6538 61.4911 10.6326C52.5412 1.67662 39.7962 -1.92736 27.6318 0.995051Z" fill="white"/>
</svg>
