<svg width="301" height="74" viewBox="0 0 301 74" fill="none" xmlns="http://www.w3.org/2000/svg">
<path d="M99.82 20H103.44L98.36 5.96H94.4L89.32 20H92.9L93.74 17.52H98.98L99.82 20ZM98.1 14.88H94.64L96.36 9.74L98.1 14.88ZM112.926 8.84H104.406V11.66H109.006L104.366 17.28V20H113.026V17.18H108.186L112.926 11.56V8.84ZM119.828 17.42C118.688 17.42 117.728 16.72 117.728 15.5H122.008C121.808 16.74 120.948 17.42 119.828 17.42ZM119.788 20.16C123.108 20.16 125.428 17.96 125.428 14.42C125.428 10.88 123.068 8.68 119.788 8.68C117.008 8.68 115.028 10.36 114.488 12.54H118.128C118.408 11.94 118.948 11.46 119.908 11.46C121.008 11.46 121.908 12.14 122.028 13.6H114.288C114.248 13.94 114.228 14.28 114.228 14.6C114.228 18 116.528 20.16 119.788 20.16ZM130.652 14.82C130.652 12.9 131.592 12.34 133.212 12.34H134.152V8.72C132.652 8.72 131.432 9.52 130.652 10.7V8.84H127.232V20H130.652V14.82ZM139.207 10.42V5.2H135.787V20H139.207V18.44C139.827 19.42 141.007 20.16 142.647 20.16C145.387 20.16 147.567 17.92 147.567 14.4C147.567 10.88 145.407 8.68 142.647 8.68C141.047 8.68 139.827 9.42 139.207 10.42ZM144.087 14.4C144.087 16.18 142.927 17.18 141.627 17.18C140.347 17.18 139.187 16.2 139.187 14.42C139.187 12.64 140.347 11.66 141.627 11.66C142.927 11.66 144.087 12.62 144.087 14.4ZM148.681 14.4C148.681 17.92 150.861 20.16 153.581 20.16C155.241 20.16 156.421 19.4 157.041 18.42V20H160.461V8.84H157.041V10.42C156.441 9.44 155.261 8.68 153.601 8.68C150.861 8.68 148.681 10.88 148.681 14.4ZM157.041 14.42C157.041 16.2 155.901 17.18 154.601 17.18C153.321 17.18 152.161 16.18 152.161 14.4C152.161 12.62 153.321 11.66 154.601 11.66C155.901 11.66 157.041 12.64 157.041 14.42ZM168.075 15.82L165.495 8.84H161.675L166.215 19.62L163.655 25.3H167.335L174.335 8.84H170.635L168.075 15.82ZM174.892 14.42C174.892 17.96 177.212 20.16 180.492 20.16C183.292 20.16 185.272 18.54 185.852 15.96H182.212C181.912 16.78 181.372 17.24 180.432 17.24C179.212 17.24 178.372 16.28 178.372 14.42C178.372 12.56 179.212 11.6 180.432 11.6C181.372 11.6 181.932 12.1 182.212 12.88H185.852C185.272 10.22 183.292 8.68 180.492 8.68C177.212 8.68 174.892 10.9 174.892 14.42ZM187.001 14.4C187.001 17.92 189.181 20.16 191.901 20.16C193.561 20.16 194.741 19.4 195.361 18.42V20H198.781V8.84H195.361V10.42C194.761 9.44 193.581 8.68 191.921 8.68C189.181 8.68 187.001 10.88 187.001 14.4ZM195.361 14.42C195.361 16.2 194.221 17.18 192.921 17.18C191.641 17.18 190.481 16.18 190.481 14.4C190.481 12.62 191.641 11.66 192.921 11.66C194.221 11.66 195.361 12.64 195.361 14.42ZM208.956 20H212.356V13.48C212.356 10.48 210.636 8.72 208.056 8.72C206.556 8.72 205.356 9.38 204.676 10.32V8.84H201.256V20H204.676V13.94C204.676 12.42 205.516 11.58 206.816 11.58C208.116 11.58 208.956 12.42 208.956 13.94V20ZM99.82 68H103.44L98.36 53.96H94.4L89.32 68H92.9L93.74 65.52H98.98L99.82 68ZM98.1 62.88H94.64L96.36 57.74L98.1 62.88ZM114.046 64.76C113.986 60.6 107.946 61.86 107.946 60.08C107.946 59.54 108.386 59.22 109.186 59.22C110.146 59.22 110.726 59.72 110.826 60.48H113.986C113.766 58.28 112.166 56.68 109.286 56.68C106.366 56.68 104.746 58.24 104.746 60.14C104.746 64.24 110.826 62.94 110.826 64.74C110.826 65.24 110.366 65.64 109.486 65.64C108.546 65.64 107.846 65.12 107.766 64.34H104.386C104.546 66.5 106.546 68.16 109.526 68.16C112.326 68.16 114.046 66.7 114.046 64.76ZM125.198 64.76C125.138 60.6 119.098 61.86 119.098 60.08C119.098 59.54 119.538 59.22 120.338 59.22C121.298 59.22 121.878 59.72 121.978 60.48H125.138C124.918 58.28 123.318 56.68 120.438 56.68C117.518 56.68 115.898 58.24 115.898 60.14C115.898 64.24 121.978 62.94 121.978 64.74C121.978 65.24 121.518 65.64 120.638 65.64C119.698 65.64 118.998 65.12 118.918 64.34H115.538C115.698 66.5 117.698 68.16 120.678 68.16C123.478 68.16 125.198 66.7 125.198 64.76ZM138.211 62.42C138.211 58.88 135.691 56.68 132.411 56.68C129.151 56.68 126.611 58.88 126.611 62.42C126.611 65.96 129.091 68.16 132.371 68.16C135.651 68.16 138.211 65.96 138.211 62.42ZM130.091 62.42C130.091 60.52 131.171 59.64 132.411 59.64C133.611 59.64 134.731 60.52 134.731 62.42C134.731 64.3 133.591 65.2 132.371 65.2C131.131 65.2 130.091 64.3 130.091 62.42ZM149.085 64.76C149.025 60.6 142.985 61.86 142.985 60.08C142.985 59.54 143.425 59.22 144.225 59.22C145.185 59.22 145.765 59.72 145.865 60.48H149.025C148.805 58.28 147.205 56.68 144.325 56.68C141.405 56.68 139.785 58.24 139.785 60.14C139.785 64.24 145.865 62.94 145.865 64.74C145.865 65.24 145.405 65.64 144.525 65.64C143.585 65.64 142.885 65.12 142.805 64.34H139.425C139.585 66.5 141.585 68.16 144.565 68.16C147.365 68.16 149.085 66.7 149.085 64.76ZM151.178 68H154.598V56.84H151.178V68ZM152.898 55.68C154.098 55.68 154.918 54.86 154.918 53.84C154.918 52.8 154.098 51.98 152.898 51.98C151.678 51.98 150.858 52.8 150.858 53.84C150.858 54.86 151.678 55.68 152.898 55.68ZM156.396 62.4C156.396 65.92 158.576 68.16 161.296 68.16C162.956 68.16 164.136 67.4 164.756 66.42V68H168.176V56.84H164.756V58.42C164.156 57.44 162.976 56.68 161.316 56.68C158.576 56.68 156.396 58.88 156.396 62.4ZM164.756 62.42C164.756 64.2 163.616 65.18 162.316 65.18C161.036 65.18 159.876 64.18 159.876 62.4C159.876 60.62 161.036 59.66 162.316 59.66C163.616 59.66 164.756 60.64 164.756 62.42ZM179.71 64.76C179.65 60.6 173.61 61.86 173.61 60.08C173.61 59.54 174.05 59.22 174.85 59.22C175.81 59.22 176.39 59.72 176.49 60.48H179.65C179.43 58.28 177.83 56.68 174.95 56.68C172.03 56.68 170.41 58.24 170.41 60.14C170.41 64.24 176.49 62.94 176.49 64.74C176.49 65.24 176.03 65.64 175.15 65.64C174.21 65.64 173.51 65.12 173.43 64.34H170.05C170.21 66.5 172.21 68.16 175.19 68.16C177.99 68.16 179.71 66.7 179.71 64.76ZM181.803 68H185.223V56.84H181.803V68ZM183.523 55.68C184.723 55.68 185.543 54.86 185.543 53.84C185.543 52.8 184.723 51.98 183.523 51.98C182.303 51.98 181.483 52.8 181.483 53.84C181.483 54.86 182.303 55.68 183.523 55.68ZM192.841 63.82L190.261 56.84H186.441L190.981 67.62L188.421 73.3H192.101L199.101 56.84H195.401L192.841 63.82ZM199.658 62.4C199.658 65.92 201.838 68.16 204.558 68.16C206.218 68.16 207.398 67.4 208.018 66.42V68H211.438V56.84H208.018V58.42C207.418 57.44 206.238 56.68 204.578 56.68C201.838 56.68 199.658 58.88 199.658 62.4ZM208.018 62.42C208.018 64.2 206.878 65.18 205.578 65.18C204.298 65.18 203.138 64.18 203.138 62.4C203.138 60.62 204.298 59.66 205.578 59.66C206.878 59.66 208.018 60.64 208.018 62.42ZM222.972 64.76C222.912 60.6 216.872 61.86 216.872 60.08C216.872 59.54 217.312 59.22 218.112 59.22C219.072 59.22 219.652 59.72 219.752 60.48H222.912C222.692 58.28 221.092 56.68 218.212 56.68C215.292 56.68 213.672 58.24 213.672 60.14C213.672 64.24 219.752 62.94 219.752 64.74C219.752 65.24 219.292 65.64 218.412 65.64C217.472 65.64 216.772 65.12 216.692 64.34H213.312C213.472 66.5 215.472 68.16 218.452 68.16C221.252 68.16 222.972 66.7 222.972 64.76ZM225.324 68H228.744V56.84H225.324V68Z" fill="#71859E"/>
<path d="M96.8 29.8C92.6 29.8 89.66 32.76 89.66 36.96C89.66 41.16 92.62 44.1 96.82 44.1C100.52 44.1 102.86 41.68 103.58 39.26V36.08H96.14V38.6H100.48C99.96 40.18 98.78 41.08 97.08 41.08C94.62 41.08 93.14 39.56 93.14 36.96C93.14 34.52 94.6 32.96 96.8 32.96C98.08 32.96 99.04 33.46 99.56 34.4H103.34C102.6 31.52 100.16 29.8 96.8 29.8ZM110.394 41.42C109.254 41.42 108.294 40.72 108.294 39.5H112.574C112.374 40.74 111.514 41.42 110.394 41.42ZM110.354 44.16C113.674 44.16 115.994 41.96 115.994 38.42C115.994 34.88 113.634 32.68 110.354 32.68C107.574 32.68 105.594 34.36 105.054 36.54H108.694C108.974 35.94 109.514 35.46 110.474 35.46C111.574 35.46 112.474 36.14 112.594 37.6H104.854C104.814 37.94 104.794 38.28 104.794 38.6C104.794 42 107.094 44.16 110.354 44.16ZM125.499 44H128.899V37.48C128.899 34.48 127.179 32.72 124.599 32.72C123.099 32.72 121.899 33.38 121.219 34.32V32.84H117.799V44H121.219V37.94C121.219 36.42 122.059 35.58 123.359 35.58C124.659 35.58 125.499 36.42 125.499 37.94V44ZM130.595 38.42C130.595 41.96 132.915 44.16 136.195 44.16C138.995 44.16 140.975 42.54 141.555 39.96H137.915C137.615 40.78 137.075 41.24 136.135 41.24C134.915 41.24 134.075 40.28 134.075 38.42C134.075 36.56 134.915 35.6 136.135 35.6C137.075 35.6 137.635 36.1 137.915 36.88H141.555C140.975 34.22 138.995 32.68 136.195 32.68C132.915 32.68 130.595 34.9 130.595 38.42ZM147.623 44H151.043V35.56L154.203 44H156.963L160.103 35.58V44H163.523V29.96H159.503L155.603 39.68L151.663 29.96H147.623V44ZM177.002 32.84H173.582V38.9C173.582 40.42 172.742 41.26 171.422 41.26C170.142 41.26 169.282 40.42 169.282 38.9V32.84H165.882V39.36C165.882 42.34 167.622 44.12 170.202 44.12C171.702 44.12 172.902 43.44 173.582 42.48V44H177.002V32.84ZM169.482 31.6C170.322 31.6 170.962 30.96 170.962 30.14C170.962 29.3 170.322 28.66 169.482 28.66C168.662 28.66 168.022 29.3 168.022 30.14C168.022 30.96 168.662 31.6 169.482 31.6ZM173.482 31.6C174.322 31.6 174.962 30.96 174.962 30.14C174.962 29.3 174.322 28.66 173.482 28.66C172.662 28.66 172.022 29.3 172.022 30.14C172.022 30.96 172.662 31.6 173.482 31.6ZM184.379 41.42C183.239 41.42 182.279 40.72 182.279 39.5H186.559C186.359 40.74 185.499 41.42 184.379 41.42ZM184.339 44.16C187.659 44.16 189.979 41.96 189.979 38.42C189.979 34.88 187.619 32.68 184.339 32.68C181.559 32.68 179.579 34.36 179.039 36.54H182.679C182.959 35.94 183.499 35.46 184.459 35.46C185.559 35.46 186.459 36.14 186.579 37.6H178.839C178.799 37.94 178.779 38.28 178.779 38.6C178.779 42 181.079 44.16 184.339 44.16ZM191.783 44H195.203V29.2H191.783V44ZM197.681 44H201.101V29.2H197.681V44ZM203.58 44H207V32.84H203.58V44ZM205.3 31.68C206.5 31.68 207.32 30.86 207.32 29.84C207.32 28.8 206.5 27.98 205.3 27.98C204.08 27.98 203.26 28.8 203.26 29.84C203.26 30.86 204.08 31.68 205.3 31.68ZM224.858 44H228.258V37.48C228.258 34.48 226.478 32.72 223.718 32.72C222.098 32.72 220.698 33.62 219.958 34.8C219.198 33.46 217.838 32.72 216.158 32.72C214.698 32.72 213.558 33.34 212.898 34.24V32.84H209.478V44H212.898V37.94C212.898 36.48 213.738 35.68 215.038 35.68C216.338 35.68 217.178 36.48 217.178 37.94V44H220.578V37.94C220.578 36.48 221.418 35.68 222.718 35.68C224.018 35.68 224.858 36.48 224.858 37.94V44ZM230.65 44H234.07V29.2H230.65V44ZM241.469 41.42C240.329 41.42 239.369 40.72 239.369 39.5H243.649C243.449 40.74 242.589 41.42 241.469 41.42ZM241.429 44.16C244.749 44.16 247.069 41.96 247.069 38.42C247.069 34.88 244.709 32.68 241.429 32.68C238.649 32.68 236.669 34.36 236.129 36.54H239.769C240.049 35.94 240.589 35.46 241.549 35.46C242.649 35.46 243.549 36.14 243.669 37.6H235.929C235.889 37.94 235.869 38.28 235.869 38.6C235.869 42 238.169 44.16 241.429 44.16ZM252.293 38.82C252.293 36.9 253.233 36.34 254.853 36.34H255.793V32.72C254.293 32.72 253.073 33.52 252.293 34.7V32.84H248.873V44H252.293V38.82Z" fill="#AB417F"/>
<path fill-rule="evenodd" clip-rule="evenodd" d="M36.1453 60.4345V73.0001H35.8003C35.6921 73.0001 35.5839 72.975 35.4883 72.9295C35.3801 72.8778 35.2797 72.8072 35.1919 72.7241C35.1056 72.641 35.0351 72.5437 34.9802 72.4371C34.9316 72.343 34.9065 72.238 34.9065 72.1329C34.9065 72.0843 34.9143 72.0372 34.9269 71.9902C34.9426 71.9337 34.9614 71.8773 34.9865 71.824C35.0115 71.7675 35.0413 71.7126 35.0727 71.6593C35.1025 71.6107 35.1386 71.5668 35.1778 71.5244C35.2358 71.4617 35.2844 71.3943 35.3252 71.3206C35.3581 71.261 35.3769 71.1951 35.3801 71.1261C35.3863 71.0289 35.3801 70.9333 35.3644 70.8376C35.3267 70.6149 35.286 70.3922 35.2436 70.1711C35.1245 69.5486 34.9818 68.9307 34.814 68.3192C34.6587 67.7546 34.4753 67.1979 34.2651 66.6507C34.0299 66.0406 33.768 65.4432 33.4811 64.8536C33.1063 64.0836 32.7143 63.3199 32.3097 62.5656C32.0055 61.9995 31.7107 61.4272 31.4253 60.8532C31.2449 60.4894 31.0866 60.1146 30.9517 59.732C30.8388 59.4137 30.751 59.0859 30.693 58.7535C30.624 58.3693 30.5785 57.9835 30.5503 57.5962C30.5173 57.0944 30.5189 56.5926 30.5565 56.0908C30.5926 55.636 30.6726 55.1844 30.7965 54.7453C30.9156 54.3172 31.0771 53.9016 31.281 53.5064C31.4943 53.0909 31.7436 52.6941 32.0243 52.3225L32.6029 51.5541L32.5041 49.975L32.4555 49.0858C32.4492 48.9494 32.4508 48.8098 32.4602 48.6734C32.4665 48.6013 32.4822 48.5307 32.5088 48.4633C32.5261 48.4209 32.5669 48.3943 32.6139 48.3943C32.6625 48.3943 32.7111 48.4147 32.7441 48.4507C32.951 48.6719 33.1549 48.8961 33.3603 49.1188C33.6002 49.3807 33.8339 49.6457 34.0644 49.9154C34.3341 50.229 34.5991 50.5442 34.861 50.861C35.1229 51.1777 35.3848 51.4945 35.6513 51.8081C35.8756 52.0747 36.1014 52.3413 36.3303 52.6063C36.5311 52.84 36.7318 53.0721 36.9325 53.3042C36.9497 53.323 36.9748 53.3339 37.0015 53.3339C37.0281 53.3339 37.0501 53.323 37.0673 53.3042C37.2681 53.0705 37.4704 52.8384 37.6711 52.6063C37.8984 52.3413 38.1258 52.0747 38.3501 51.8081C38.6135 51.4929 38.8769 51.1777 39.1388 50.861C39.4023 50.5442 39.6673 50.2275 39.9354 49.9154C40.1675 49.6457 40.4027 49.3807 40.6411 49.1188C40.8434 48.8961 41.0504 48.6719 41.2558 48.4507C41.2887 48.4147 41.3373 48.3943 41.3859 48.3943C41.433 48.3943 41.4737 48.4225 41.491 48.4633C41.5177 48.5307 41.5349 48.6013 41.5396 48.6734C41.549 48.8098 41.5506 48.9494 41.5443 49.0858C41.5302 49.3822 41.5145 49.6786 41.4957 49.975L41.3969 51.5541L41.9771 52.3225C42.2578 52.6941 42.5056 53.0909 42.7188 53.5064C42.9211 53.9016 43.0842 54.3172 43.2034 54.7453C43.3273 55.1844 43.4057 55.6344 43.4417 56.0908C43.4809 56.5926 43.4841 57.0944 43.448 57.5962C43.4213 57.9851 43.3743 58.3693 43.3069 58.7535C43.2473 59.0859 43.1626 59.4137 43.0481 59.732C42.9133 60.1146 42.7533 60.4894 42.5746 60.8532C42.2892 61.4287 41.9944 61.9995 41.6901 62.5656C41.284 63.3199 40.8935 64.0836 40.5172 64.8536C40.2302 65.4416 39.9699 66.0406 39.7347 66.6507C39.523 67.1964 39.3411 67.7531 39.1859 68.3192C39.0181 68.9307 38.8738 69.5486 38.7546 70.1711C38.7123 70.3922 38.6731 70.6149 38.6355 70.8376C38.6198 70.9333 38.6135 71.0289 38.6182 71.1261C38.6213 71.1936 38.6417 71.261 38.6731 71.3206C38.7154 71.3943 38.764 71.4633 38.8221 71.5244C38.8597 71.5668 38.8942 71.6107 38.9256 71.6593C38.9585 71.7111 38.9883 71.7659 39.0118 71.824C39.0369 71.8773 39.0573 71.9337 39.073 71.9902C39.0871 72.0372 39.0918 72.0843 39.0918 72.1329C39.0918 72.238 39.0667 72.343 39.0196 72.4371C38.9648 72.5437 38.8942 72.641 38.8064 72.7241C38.7201 72.8072 38.6213 72.8778 38.5116 72.9295C38.4128 72.9766 38.3062 73.0001 38.198 73.0001H37.853V60.4345C38.764 60.0158 39.2564 59.0169 39.0369 58.0415C38.8158 57.0646 37.9988 56.3746 36.9983 56.3887C35.9963 56.4028 35.1401 57.1148 34.9457 58.098C34.7559 59.0796 35.2232 60.0409 36.1453 60.4345Z" fill="#71859E"/>
<path d="M36.1453 60.4345V73.0001H35.8003C35.6921 73.0001 35.5839 72.975 35.4883 72.9295C35.3801 72.8778 35.2797 72.8072 35.1919 72.7241C35.1056 72.641 35.0351 72.5453 34.9802 72.4371C34.9316 72.343 34.9065 72.238 34.9065 72.1329C34.9065 72.0843 34.9143 72.0372 34.9269 71.9902C34.9426 71.9337 34.9614 71.8773 34.9865 71.824C35.0115 71.7675 35.0413 71.7126 35.0727 71.6593C35.1025 71.6107 35.1386 71.5668 35.1778 71.5244C35.2358 71.4617 35.2844 71.3943 35.3252 71.3206C35.3581 71.261 35.3769 71.1951 35.3801 71.1261C35.3863 71.0289 35.3801 70.9333 35.3644 70.8376C35.3267 70.6149 35.286 70.3922 35.2436 70.1711C35.1245 69.5486 34.9818 68.9307 34.814 68.3192C34.6587 67.7546 34.4753 67.1979 34.2651 66.6507C34.0299 66.0406 33.768 65.4416 33.4811 64.8536C33.1063 64.0836 32.7143 63.3215 32.3097 62.5656C32.0055 61.9995 31.7107 61.4272 31.4253 60.8532C31.2449 60.4894 31.0866 60.1146 30.9517 59.732C30.8388 59.4137 30.751 59.0859 30.693 58.7535C30.624 58.3693 30.5785 57.9835 30.5503 57.5962C30.5173 57.0944 30.5189 56.5926 30.5565 56.0908C30.5926 55.636 30.6726 55.1844 30.7965 54.7453C30.9156 54.3172 31.0771 53.9016 31.281 53.5064C31.4943 53.0909 31.7436 52.6941 32.0243 52.3225L32.6029 51.5541L32.5041 49.975L32.4555 49.0858C32.4492 48.9494 32.4508 48.8098 32.4602 48.6734C32.4665 48.6013 32.4822 48.5307 32.5088 48.4633C32.5261 48.4209 32.5669 48.3943 32.6139 48.3943C32.6625 48.3943 32.7111 48.4147 32.7441 48.4507C32.951 48.6719 33.1549 48.8961 33.3603 49.1188C33.6002 49.3807 33.8339 49.6457 34.0644 49.9154C34.3341 50.229 34.5991 50.5442 34.861 50.861C35.1229 51.1777 35.3848 51.4945 35.6513 51.8081C35.8756 52.0747 36.1014 52.3413 36.3303 52.6063C36.5311 52.84 36.7318 53.0721 36.9325 53.3042C36.9497 53.323 36.9748 53.3339 37.0015 53.3339C37.0281 53.3339 37.0501 53.3214 37.0673 53.3042C37.2681 53.0705 37.4704 52.8384 37.6711 52.6063C37.8984 52.3413 38.1258 52.0747 38.3501 51.8081C38.6135 51.4945 38.8769 51.1777 39.1388 50.861C39.4023 50.5442 39.6673 50.2275 39.9354 49.9154C40.1675 49.6457 40.4027 49.3807 40.6411 49.1188C40.8434 48.8961 41.0504 48.6719 41.2558 48.4507C41.2887 48.4147 41.3373 48.3943 41.3859 48.3943C41.433 48.3943 41.4737 48.4225 41.491 48.4633C41.5177 48.5307 41.5349 48.6013 41.5396 48.6734C41.549 48.8098 41.5506 48.9494 41.5443 49.0858C41.5302 49.3822 41.5145 49.6786 41.4957 49.975L41.3969 51.5541L41.9771 52.3225C42.2578 52.6941 42.5056 53.0909 42.7188 53.5064C42.9211 53.9016 43.0842 54.3172 43.2034 54.7453C43.3273 55.1844 43.4057 55.6344 43.4417 56.0908C43.4809 56.5926 43.4841 57.0944 43.448 57.5962C43.4213 57.9851 43.3743 58.3693 43.3069 58.7535C43.2473 59.0859 43.1626 59.4137 43.0481 59.732C42.9133 60.1146 42.7533 60.4894 42.5746 60.8532C42.2892 61.4287 41.9944 61.9995 41.6901 62.5656C41.284 63.3199 40.8935 64.0836 40.5172 64.8536C40.2302 65.4416 39.9699 66.0406 39.7347 66.6507C39.523 67.1964 39.3411 67.7531 39.1859 68.3192C39.0181 68.9307 38.8738 69.5486 38.7546 70.1711C38.7123 70.3922 38.6731 70.6149 38.6355 70.8376C38.6198 70.9333 38.6135 71.0289 38.6182 71.1261C38.6213 71.1936 38.6417 71.261 38.6731 71.3206C38.7154 71.3943 38.764 71.4633 38.8221 71.5244C38.8597 71.5668 38.8942 71.6107 38.9256 71.6593C38.9585 71.7111 38.9883 71.7659 39.0118 71.824C39.0369 71.8773 39.0573 71.9337 39.073 71.9902C39.0871 72.0372 39.0918 72.0843 39.0918 72.1329C39.0918 72.238 39.0667 72.343 39.0196 72.4371C38.9648 72.5437 38.8942 72.641 38.8064 72.7241C38.7201 72.8088 38.6213 72.8778 38.5116 72.9295C38.4128 72.9766 38.3062 73.0001 38.198 73.0001H37.853V60.4345C38.764 60.0158 39.2564 59.0169 39.0369 58.04C38.8158 57.063 37.9988 56.373 36.9983 56.3887C35.9963 56.4012 35.1401 57.1148 34.9457 58.098C34.7559 59.0796 35.2232 60.0409 36.1453 60.4345Z" stroke="#71859E" stroke-width="0.162" stroke-linejoin="bevel"/>
<path fill-rule="evenodd" clip-rule="evenodd" d="M36.1453 13.5671V1H35.8003C35.6921 1 35.5839 1.02509 35.4883 1.07213C35.3801 1.12388 35.2797 1.19288 35.1919 1.27599C35.1056 1.36067 35.0351 1.45633 34.9802 1.56296C34.9316 1.65705 34.9065 1.76212 34.9065 1.86719C34.9065 1.9158 34.9143 1.96441 34.9269 2.01145C34.9426 2.06791 34.9614 2.12279 34.9865 2.17768C35.0115 2.23413 35.0413 2.28902 35.0727 2.34077C35.1025 2.38938 35.1386 2.43329 35.1778 2.47563C35.2358 2.53678 35.2844 2.60421 35.3252 2.67792C35.3581 2.73907 35.3769 2.80494 35.3801 2.87394C35.3863 2.96959 35.3801 3.06682 35.3644 3.16091C35.3267 3.38358 35.286 3.60626 35.2436 3.82737C35.1245 4.44992 34.9818 5.06934 34.814 5.68092C34.6587 6.24545 34.4753 6.80057 34.2651 7.34786C34.0299 7.95787 33.768 8.55847 33.4811 9.14495C33.1063 9.91648 32.7143 10.6786 32.3097 11.4329C32.0055 11.999 31.7107 12.5698 31.4253 13.1469C31.2449 13.5107 31.0866 13.8839 30.9517 14.2665C30.8388 14.5849 30.751 14.9126 30.693 15.245C30.624 15.6277 30.5785 16.015 30.5503 16.4023C30.5173 16.9041 30.5189 17.4059 30.5565 17.9062C30.5926 18.3609 30.6726 18.811 30.7965 19.2517C30.9156 19.6798 31.0771 20.0938 31.281 20.4889C31.4943 20.9045 31.7436 21.3012 32.0243 21.6744L32.6029 22.4413L32.5041 24.022L32.4555 24.9111C32.4492 25.0491 32.4508 25.1871 32.4602 25.3235C32.4665 25.3941 32.4822 25.4662 32.5088 25.5321C32.5261 25.576 32.5669 25.6027 32.6139 25.6027C32.6641 25.6027 32.7111 25.5823 32.7441 25.5462C32.951 25.3251 33.1549 25.1008 33.3603 24.8766C33.6002 24.6147 33.8339 24.3497 34.0644 24.08C34.3341 23.7663 34.5991 23.4527 34.861 23.1344C35.1229 22.8176 35.3848 22.5024 35.6513 22.1888C35.8756 21.9206 36.1014 21.6556 36.3303 21.3906C36.5311 21.157 36.7318 20.9233 36.9325 20.6928C36.9497 20.6724 36.9748 20.663 37.0015 20.663C37.0266 20.663 37.0501 20.6724 37.0673 20.6928C37.2681 20.9249 37.4704 21.1585 37.6711 21.3906C37.8984 21.6556 38.1258 21.9206 38.3501 22.1888C38.6135 22.504 38.8769 22.8192 39.1388 23.1344C39.4023 23.4527 39.6673 23.7679 39.9354 24.08C40.1675 24.3497 40.4027 24.6147 40.6411 24.8766C40.8434 25.1008 41.0504 25.3251 41.2558 25.5462C41.2887 25.5823 41.3373 25.6027 41.3859 25.6027C41.433 25.6027 41.4737 25.5744 41.491 25.5321C41.5177 25.4647 41.5349 25.3941 41.5396 25.3235C41.549 25.1855 41.5506 25.0475 41.5443 24.9111C41.5302 24.6147 41.5145 24.3183 41.4957 24.022L41.3969 22.4413L41.9771 21.6744C42.2578 21.3028 42.5056 20.9045 42.7188 20.4889C42.9211 20.0938 43.0842 19.6782 43.2034 19.2517C43.3273 18.811 43.4057 18.3609 43.4417 17.9062C43.4809 17.4059 43.4841 16.9041 43.448 16.4023C43.4213 16.0134 43.3743 15.6277 43.3069 15.245C43.2473 14.9126 43.1626 14.5849 43.0481 14.2665C42.9117 13.8839 42.7533 13.5107 42.5746 13.1469C42.2892 12.5698 41.9944 11.999 41.6901 11.4329C41.284 10.6786 40.8935 9.91648 40.5172 9.14495C40.2302 8.55847 39.9699 7.95787 39.7347 7.34786C39.523 6.80214 39.3411 6.24545 39.1859 5.68092C39.0181 5.06934 38.8738 4.45149 38.7546 3.82737C38.7123 3.60626 38.6731 3.38358 38.6355 3.16091C38.6198 3.06682 38.6135 2.96959 38.6182 2.87394C38.6213 2.80494 38.6417 2.73907 38.6731 2.67792C38.7154 2.60421 38.764 2.53678 38.8221 2.47563C38.8597 2.43329 38.8942 2.38938 38.9256 2.34077C38.9585 2.28902 38.9883 2.23413 39.0118 2.17768C39.0369 2.12279 39.0573 2.06791 39.073 2.01145C39.0871 1.96441 39.0918 1.9158 39.0918 1.86719C39.0918 1.76212 39.0667 1.65705 39.0196 1.56296C38.9648 1.45633 38.8942 1.36067 38.8064 1.27599C38.7201 1.19288 38.6213 1.12388 38.5116 1.07213C38.4128 1.02352 38.3062 1 38.198 1H37.853V13.5671C38.7703 13.9576 39.2878 14.9345 39.0965 15.9115C38.9052 16.8885 37.9941 17.5988 36.9983 17.6129C36.0026 17.6271 35.1323 16.9433 34.9112 15.9727C34.6948 15.002 35.2405 13.9827 36.1453 13.5671Z" fill="#71859E"/>
<path d="M36.1453 13.5671V1H35.8003C35.6921 1 35.5839 1.02509 35.4883 1.07213C35.3801 1.12388 35.2797 1.19288 35.1919 1.27599C35.1056 1.36067 35.0351 1.45633 34.9802 1.56296C34.9316 1.65705 34.9065 1.76212 34.9065 1.86719C34.9065 1.9158 34.9143 1.96441 34.9269 2.00989C34.9426 2.06634 34.9614 2.12122 34.9865 2.17611C35.0115 2.23256 35.0413 2.28745 35.0727 2.3392C35.1025 2.38781 35.1386 2.43172 35.1778 2.47406C35.2358 2.53522 35.2844 2.60265 35.3252 2.67635C35.3581 2.73751 35.3769 2.80337 35.3801 2.87237C35.3863 2.96802 35.3801 3.06525 35.3644 3.15934C35.3267 3.38201 35.286 3.60469 35.2436 3.8258C35.1245 4.44835 34.9818 5.06777 34.814 5.67935C34.6587 6.24231 34.4753 6.79901 34.2651 7.34629C34.0299 7.9563 33.768 8.5569 33.4811 9.14338C33.1063 9.91491 32.7143 10.677 32.3097 11.4313C32.0055 11.9974 31.7107 12.5682 31.4253 13.1453C31.2449 13.5091 31.0866 13.8823 30.9517 14.265C30.8388 14.5833 30.751 14.911 30.693 15.2435C30.624 15.6261 30.5785 16.0134 30.5503 16.4008C30.5173 16.9026 30.5189 17.4044 30.5565 17.9046C30.5926 18.3594 30.6726 18.8094 30.7965 19.2501C30.9156 19.6782 31.0771 20.0922 31.281 20.4874C31.4943 20.9029 31.7436 21.2997 32.0243 21.6729L32.6029 22.4397L32.5041 24.0204L32.4555 24.9095C32.4492 25.0475 32.4508 25.1855 32.4602 25.322C32.4665 25.3925 32.4822 25.4647 32.5088 25.5305C32.5261 25.5744 32.5669 25.6011 32.6139 25.6011C32.6641 25.6011 32.7111 25.5807 32.7441 25.5446C32.951 25.3235 33.1549 25.0993 33.3603 24.875C33.6002 24.6131 33.8339 24.3481 34.0644 24.0784C34.3341 23.7664 34.5991 23.4512 34.861 23.1328C35.1229 22.8161 35.3848 22.5009 35.6513 22.1872C35.8756 21.9191 36.1014 21.6541 36.3303 21.389C36.5311 21.1554 36.7318 20.9217 36.9325 20.6912C36.9497 20.6708 36.9748 20.6614 37.0015 20.6614C37.0266 20.6614 37.0501 20.6708 37.0673 20.6912C37.2681 20.9233 37.4704 21.157 37.6711 21.389C37.8984 21.6541 38.1258 21.9191 38.3501 22.1872C38.6135 22.5024 38.8769 22.8176 39.1388 23.1328C39.4023 23.4512 39.6673 23.7664 39.9354 24.0784C40.1675 24.3481 40.4027 24.6131 40.6411 24.875C40.8434 25.0993 41.0504 25.3235 41.2558 25.5446C41.2887 25.5807 41.3373 25.6011 41.3859 25.6011C41.433 25.6011 41.4737 25.5729 41.491 25.5305C41.5177 25.4647 41.5349 25.3925 41.5396 25.322C41.549 25.184 41.5506 25.046 41.5443 24.9095C41.5302 24.6132 41.5145 24.3168 41.4957 24.0204L41.3969 22.4397L41.9771 21.6729C42.2578 21.3012 42.5056 20.9029 42.7188 20.4874C42.9211 20.0922 43.0842 19.6766 43.2034 19.2501C43.3273 18.8094 43.4057 18.3594 43.4417 17.9046C43.4809 17.4044 43.4841 16.9026 43.448 16.4008C43.4213 16.0119 43.3743 15.6261 43.3069 15.2435C43.2473 14.911 43.1626 14.5833 43.0481 14.265C42.9117 13.8823 42.7533 13.5075 42.5746 13.1453C42.2892 12.5682 41.9944 11.9974 41.6901 11.4313C41.284 10.677 40.8935 9.91491 40.5172 9.14338C40.2302 8.5569 39.9699 7.9563 39.7347 7.34629C39.523 6.80057 39.3411 6.24388 39.1859 5.67935C39.0181 5.06777 38.8738 4.44992 38.7546 3.8258C38.7123 3.60469 38.6731 3.38201 38.6355 3.15934C38.6198 3.06525 38.6135 2.96802 38.6182 2.87237C38.6213 2.80337 38.6417 2.73751 38.6731 2.67635C38.7154 2.60265 38.764 2.53365 38.8221 2.47406C38.8597 2.43172 38.8942 2.38781 38.9256 2.3392C38.9585 2.28745 38.9883 2.23256 39.0118 2.17611C39.0369 2.12122 39.0573 2.06634 39.073 2.00989C39.0871 1.96284 39.0918 1.91423 39.0918 1.86719C39.0918 1.76212 39.0667 1.65705 39.0196 1.56296C38.9648 1.4579 38.8942 1.36067 38.8064 1.27599C38.7201 1.19131 38.6213 1.12388 38.5116 1.07213C38.4128 1.02352 38.3062 1 38.198 1H37.853V13.5671C38.7703 13.9576 39.2878 14.9345 39.0965 15.9115C38.9052 16.8885 37.9941 17.5988 36.9983 17.6129C36.0026 17.6271 35.1323 16.9433 34.9112 15.9727C34.6948 15.002 35.2405 13.9827 36.1453 13.5671Z" stroke="#71859E" stroke-width="0.162" stroke-linejoin="bevel"/>
<path fill-rule="evenodd" clip-rule="evenodd" d="M60.435 37.8562H73.0003V38.2012C73.0003 38.3079 72.9752 38.4161 72.9297 38.5149C72.878 38.6231 72.8074 38.7234 72.7243 38.8097C72.6412 38.8959 72.5456 38.9681 72.4374 39.0229C72.3433 39.0715 72.2382 39.0951 72.1331 39.0951C72.0845 39.0951 72.0375 39.0888 71.9904 39.0763C71.934 39.0606 71.8775 39.0402 71.8242 39.0151C71.7678 38.99 71.7129 38.9618 71.6596 38.9273C71.611 38.8975 71.5655 38.8614 71.5247 38.8238C71.462 38.7658 71.3946 38.7171 71.3209 38.6748C71.2613 38.6434 71.1954 38.6231 71.1248 38.6199C71.0292 38.6152 70.9335 38.6215 70.8379 38.6372C70.6152 38.6748 70.3925 38.714 70.1714 38.7564C69.5489 38.8771 68.931 39.0198 68.3195 39.1876C67.755 39.3428 67.1983 39.5247 66.651 39.7364C66.041 39.9717 65.442 40.232 64.8539 40.5189C64.084 40.8937 63.3219 41.2858 62.5661 41.6919C62 41.9961 61.4276 42.291 60.8537 42.5764C60.4899 42.7567 60.1151 42.9151 59.7325 43.0499C59.4142 43.1628 59.0864 43.2491 58.754 43.3087C58.3698 43.3761 57.984 43.4247 57.5967 43.4514C57.0949 43.4859 56.5931 43.4827 56.0913 43.4435C55.6366 43.409 55.185 43.3291 54.7459 43.2052C54.3178 43.0844 53.9022 42.9229 53.5071 42.7206C53.0915 42.5074 52.6948 42.2596 52.3216 41.9789L51.5548 41.3987L49.9741 41.4975L49.0866 41.5461C48.9486 41.5524 48.8106 41.5524 48.6741 41.5414C48.602 41.5367 48.5314 41.5194 48.464 41.4928C48.4217 41.4755 48.395 41.4332 48.395 41.3877C48.395 41.3391 48.4154 41.2905 48.4515 41.2575C48.6726 41.0521 48.8952 40.8467 49.1195 40.6428C49.3814 40.4045 49.6464 40.1693 49.9161 39.9372C50.2297 39.669 50.5449 39.404 50.8617 39.1405C51.1784 38.8802 51.4952 38.6168 51.8088 38.3518C52.0754 38.1275 52.342 37.9017 52.607 37.6728C52.8391 37.472 53.0727 37.2697 53.3048 37.069C53.3236 37.0518 53.3346 37.0283 53.3346 37.0032C53.3346 36.9765 53.322 36.953 53.3048 36.9342C53.0711 36.7334 52.8375 36.5312 52.607 36.332C52.342 36.103 52.0754 35.8772 51.8088 35.653C51.4952 35.388 51.1784 35.1261 50.8617 34.8626C50.5449 34.6008 50.2281 34.3357 49.9161 34.066C49.6464 33.8355 49.3814 33.6003 49.1195 33.3619C48.8952 33.1581 48.6726 32.9542 48.4515 32.7472C48.4154 32.7127 48.395 32.6657 48.395 32.6155C48.395 32.5684 48.4232 32.5277 48.464 32.5104C48.5314 32.4822 48.602 32.4665 48.6741 32.4618C48.8106 32.4524 48.9486 32.4508 49.0866 32.4571C49.3829 32.4712 49.6793 32.4869 49.9741 32.5057L51.5548 32.6045L52.3216 32.0259C52.6948 31.7452 53.0915 31.4958 53.5071 31.2826C53.9022 31.0803 54.3162 30.9172 54.7459 30.798C55.185 30.6741 55.635 30.5957 56.0913 30.5597C56.5931 30.5204 57.0949 30.5189 57.5967 30.5518C57.9856 30.58 58.3698 30.6255 58.754 30.6945C59.0864 30.7541 59.4142 30.8403 59.7325 30.9533C60.1151 31.0881 60.4899 31.2465 60.8537 31.4268C61.4292 31.7122 62 32.007 62.5661 32.3113C63.3203 32.7159 64.084 33.1063 64.8539 33.4827C65.442 33.7696 66.041 34.0315 66.651 34.2667C67.1967 34.4769 67.7534 34.6604 68.3195 34.8156C68.931 34.9834 69.5489 35.1277 70.1714 35.2453C70.3925 35.2876 70.6152 35.3284 70.8379 35.366C70.9335 35.3817 71.0292 35.388 71.1248 35.3817C71.1938 35.3786 71.2613 35.3597 71.3209 35.3268C71.3946 35.286 71.4636 35.2374 71.5247 35.1794C71.5655 35.1402 71.611 35.1057 71.6596 35.0743C71.7113 35.043 71.7662 35.0132 71.8242 34.9881C71.8775 34.9646 71.934 34.9442 71.9904 34.9285C72.0375 34.916 72.0845 34.9081 72.1331 34.9081C72.2382 34.9081 72.3433 34.9348 72.4374 34.9818C72.544 35.0367 72.6412 35.1073 72.7243 35.1935C72.809 35.2798 72.878 35.3801 72.9297 35.4899C72.9768 35.5871 73.0003 35.6938 73.0003 35.802V36.1454H60.435C60.0163 35.2359 59.0174 34.7435 58.0405 34.963C57.0636 35.1825 56.3736 36.0011 56.3893 37.0016C56.4018 38.0021 57.1153 38.8583 58.0985 39.0512C59.0802 39.2456 60.0414 38.7783 60.435 37.8562Z" fill="#71859E"/>
<path d="M60.435 37.8562H73.0003V38.2012C73.0003 38.3079 72.9752 38.4161 72.9297 38.5149C72.878 38.6231 72.8074 38.7234 72.7243 38.8097C72.6412 38.8959 72.5456 38.9681 72.4374 39.0229C72.3433 39.0716 72.2382 39.0951 72.1331 39.0951C72.0845 39.0951 72.0375 39.0888 71.9904 39.0763C71.934 39.0606 71.8775 39.0402 71.8242 39.0151C71.7678 38.99 71.7129 38.9618 71.6596 38.9289C71.611 38.8991 71.5655 38.863 71.5247 38.8254C71.462 38.7673 71.3946 38.7187 71.3209 38.6764C71.2613 38.645 71.1954 38.6246 71.1248 38.6215C71.0292 38.6168 70.9335 38.6231 70.8379 38.6388C70.6152 38.6764 70.3925 38.7156 70.1714 38.7579C69.5489 38.8787 68.931 39.0214 68.3195 39.1892C67.755 39.3444 67.1983 39.5263 66.651 39.738C66.041 39.9717 65.442 40.2336 64.8539 40.5205C64.084 40.8953 63.3219 41.2873 62.5661 41.6935C62 41.9977 61.4276 42.2925 60.8537 42.5779C60.4899 42.7567 60.1151 42.9167 59.7325 43.0515C59.4142 43.1644 59.0864 43.2507 58.754 43.3103C58.3698 43.3777 57.984 43.4263 57.5967 43.4514C57.0949 43.4859 56.5931 43.4828 56.0913 43.4451C55.6366 43.4106 55.185 43.3306 54.7459 43.2068C54.3178 43.086 53.9022 42.9245 53.5071 42.7222C53.0915 42.5089 52.6948 42.2612 52.3216 41.9805L51.5548 41.4003L49.9741 41.4991L49.0866 41.5477C48.9486 41.5539 48.8106 41.5539 48.6741 41.543C48.602 41.5383 48.5314 41.521 48.464 41.4943C48.4217 41.4771 48.395 41.4348 48.395 41.3893C48.395 41.3407 48.4154 41.2921 48.4515 41.2591C48.6726 41.0537 48.8952 40.8483 49.1195 40.6444C49.3814 40.4061 49.6464 40.1708 49.9161 39.9387C50.2297 39.6706 50.5449 39.4056 50.8617 39.1421C51.1784 38.8818 51.4952 38.6184 51.8088 38.3533C52.0754 38.1291 52.342 37.9033 52.607 37.6743C52.8391 37.4736 53.0727 37.2713 53.3048 37.0706C53.3236 37.0534 53.3346 37.0298 53.3346 37.0047C53.3346 36.9781 53.322 36.9546 53.3048 36.9357C53.0711 36.735 52.8375 36.5327 52.607 36.3336C52.342 36.1046 52.0754 35.8788 51.8088 35.6546C51.4952 35.3896 51.1784 35.1277 50.8617 34.8642C50.5449 34.6023 50.2281 34.3373 49.9161 34.0676C49.6464 33.8371 49.3814 33.6019 49.1195 33.3635C48.8952 33.1596 48.6726 32.9558 48.4515 32.7488C48.4154 32.7143 48.395 32.6673 48.395 32.6171C48.395 32.57 48.4232 32.5293 48.464 32.512C48.5314 32.4838 48.602 32.4681 48.6741 32.4634C48.8106 32.4556 48.9486 32.454 49.0866 32.4587C49.3829 32.4728 49.6793 32.4885 49.9741 32.5073L51.5548 32.6061L52.3216 32.0274C52.6948 31.7467 53.0915 31.4974 53.5071 31.2841C53.9022 31.0819 54.3162 30.9188 54.7459 30.7996C55.185 30.6757 55.635 30.5973 56.0913 30.5597C56.5931 30.5205 57.0949 30.5189 57.5967 30.5534C57.9856 30.5816 58.3698 30.6271 58.754 30.6961C59.0864 30.7557 59.4142 30.8419 59.7325 30.9548C60.1151 31.0897 60.4899 31.2481 60.8537 31.4284C61.4292 31.7138 62 32.0086 62.5661 32.3128C63.3203 32.7174 64.084 33.1079 64.8539 33.4843C65.442 33.7712 66.041 34.0331 66.651 34.2683C67.1967 34.4785 67.7534 34.6619 68.3195 34.8172C68.931 34.985 69.5489 35.1292 70.1714 35.2469C70.3925 35.2892 70.6152 35.33 70.8379 35.3676C70.9335 35.3833 71.0292 35.3896 71.1248 35.3833C71.1938 35.3801 71.2613 35.3613 71.3209 35.3284C71.3946 35.2876 71.4636 35.239 71.5247 35.181C71.5655 35.1418 71.611 35.1073 71.6596 35.0759C71.7113 35.0446 71.7662 35.0148 71.8242 34.9897C71.8775 34.9662 71.934 34.9458 71.9904 34.9301C72.0375 34.9175 72.0845 34.9097 72.1331 34.9097C72.2382 34.9097 72.3433 34.9364 72.4374 34.9834C72.544 35.0383 72.6412 35.1089 72.7243 35.1951C72.809 35.2814 72.878 35.3817 72.9297 35.4915C72.9768 35.5887 73.0003 35.6953 73.0003 35.8035V36.147H60.435C60.0163 35.2374 59.0174 34.745 58.0405 34.9646C57.0636 35.1841 56.3736 36.0011 56.3893 37.0032C56.4018 38.0037 57.1153 38.8599 58.0985 39.0527C59.0802 39.2456 60.0414 38.7783 60.435 37.8562Z" stroke="#71859E" stroke-width="0.162" stroke-linejoin="bevel"/>
<path fill-rule="evenodd" clip-rule="evenodd" d="M13.5669 37.8562H1V38.2012C1 38.3079 1.02509 38.4161 1.07213 38.5149C1.12388 38.6231 1.19288 38.7234 1.27599 38.8097C1.36067 38.8959 1.45632 38.9681 1.56295 39.0229C1.65704 39.0715 1.7621 39.0951 1.86717 39.0951C1.91578 39.0951 1.96282 39.0888 2.00987 39.0763C2.06632 39.0606 2.1212 39.0402 2.17609 39.0151C2.23254 38.99 2.28742 38.9618 2.33917 38.9273C2.38778 38.8975 2.43169 38.8614 2.47403 38.8238C2.53518 38.7658 2.60261 38.7171 2.67631 38.6748C2.73747 38.6434 2.80333 38.6231 2.87233 38.6199C2.96798 38.6152 3.06521 38.6215 3.15929 38.6372C3.38197 38.6748 3.60464 38.714 3.82574 38.7564C4.44828 38.8771 5.06769 39.0198 5.67925 39.1876C6.24221 39.3428 6.79889 39.5247 7.34616 39.7364C7.95616 39.9717 8.55674 40.232 9.14322 40.5189C9.91473 40.8937 10.6768 41.2858 11.4311 41.6919C11.9972 41.9961 12.568 42.291 13.145 42.5764C13.5088 42.7567 13.8821 42.9151 14.2647 43.0499C14.583 43.1628 14.9107 43.2491 15.2432 43.3087C15.6258 43.3761 16.0131 43.4247 16.4005 43.4514C16.9023 43.4859 17.404 43.4827 17.9043 43.4435C18.359 43.409 18.8091 43.3291 19.2497 43.2052C19.6778 43.0844 20.0918 42.9229 20.487 42.7206C20.9025 42.5074 21.2992 42.2596 21.6725 41.9789L22.4393 41.3987L24.0199 41.4975L24.909 41.5461C25.047 41.5524 25.185 41.5524 25.3215 41.5414C25.392 41.5367 25.4642 41.5194 25.53 41.4928C25.5739 41.4755 25.6006 41.4332 25.6006 41.3877C25.6006 41.3391 25.5802 41.2905 25.5441 41.2575C25.323 41.0521 25.0988 40.8467 24.8745 40.6428C24.6127 40.4045 24.3477 40.1693 24.0779 39.9372C23.7659 39.669 23.4507 39.404 23.1324 39.1405C22.8156 38.8802 22.5004 38.6168 22.1868 38.3518C21.9186 38.1275 21.6521 37.9017 21.3886 37.6728C21.155 37.472 20.9213 37.2697 20.6908 37.069C20.6704 37.0518 20.661 37.0283 20.661 37.0032C20.661 36.9765 20.6704 36.953 20.6908 36.9342C20.9229 36.7334 21.1565 36.5312 21.3886 36.332C21.6521 36.103 21.9186 35.8772 22.1868 35.653C22.502 35.388 22.8172 35.1261 23.1324 34.8626C23.4507 34.6008 23.7659 34.3357 24.0779 34.066C24.3477 33.8355 24.6127 33.6003 24.8745 33.3619C25.0988 33.1581 25.323 32.9542 25.5441 32.7472C25.5802 32.7127 25.6006 32.6657 25.6006 32.6155C25.6006 32.5684 25.5724 32.5277 25.53 32.5104C25.4642 32.4822 25.392 32.4665 25.3215 32.4618C25.1835 32.4524 25.0455 32.4508 24.909 32.4571C24.6127 32.4712 24.3163 32.4869 24.0199 32.5057L22.4393 32.6045L21.6725 32.0259C21.3008 31.7452 20.9025 31.4958 20.487 31.2826C20.0918 31.0803 19.6762 30.9172 19.2497 30.798C18.8091 30.6741 18.359 30.5957 17.9043 30.5597C17.404 30.5204 16.9023 30.5189 16.4005 30.5518C16.0116 30.58 15.6258 30.6255 15.2432 30.6945C14.9107 30.7541 14.583 30.8403 14.2647 30.9533C13.8821 31.0881 13.5073 31.2465 13.145 31.4268C12.568 31.7122 11.9972 32.007 11.4311 32.3113C10.6768 32.7159 9.91473 33.1063 9.14322 33.4827C8.55674 33.7696 7.95616 34.0315 7.34616 34.2667C6.80046 34.4769 6.24378 34.6604 5.67925 34.8156C5.06769 34.9834 4.44985 35.1277 3.82574 35.2453C3.60464 35.2876 3.38197 35.3284 3.15929 35.366C3.06521 35.3817 2.96798 35.388 2.87233 35.3817C2.80333 35.3786 2.73747 35.3597 2.67631 35.3268C2.60261 35.286 2.53362 35.2374 2.47403 35.1794C2.43169 35.1402 2.38778 35.1057 2.33917 35.0743C2.28742 35.043 2.23254 35.0132 2.17609 34.9881C2.1212 34.9646 2.06632 34.9442 2.00987 34.9285C1.96282 34.916 1.91421 34.9081 1.86717 34.9081C1.7621 34.9081 1.65704 34.9348 1.56295 34.9818C1.45789 35.0367 1.36067 35.1073 1.27599 35.1935C1.19131 35.2798 1.12388 35.3801 1.07213 35.4899C1.02352 35.5871 1 35.6938 1 35.802V36.1454H13.5669C13.9573 35.2296 14.9343 34.7105 15.9112 34.9018C16.8881 35.0947 17.5985 36.0058 17.6126 37.0016C17.6267 37.9974 16.943 38.8661 15.9724 39.0872C15.0017 39.3068 13.9824 38.7611 13.5669 37.8562Z" fill="#71859E"/>
<path d="M13.5669 37.8562H1V38.2012C1 38.3079 1.02509 38.4161 1.07213 38.5149C1.12388 38.6231 1.19288 38.7234 1.27599 38.8097C1.36067 38.8959 1.45632 38.9681 1.56295 39.0229C1.65704 39.0716 1.7621 39.0951 1.86717 39.0951C1.91578 39.0951 1.96282 39.0888 2.00987 39.0763C2.06632 39.0606 2.1212 39.0402 2.17609 39.0151C2.23254 38.99 2.28742 38.9618 2.33917 38.9289C2.38778 38.8991 2.43169 38.863 2.47403 38.8254C2.53518 38.7673 2.60261 38.7187 2.67631 38.6764C2.73747 38.645 2.80333 38.6246 2.87233 38.6215C2.96798 38.6168 3.06521 38.6231 3.15929 38.6388C3.38197 38.6764 3.60464 38.7156 3.82574 38.7579C4.44828 38.8787 5.06769 39.0214 5.67925 39.1892C6.24221 39.3444 6.79889 39.5263 7.34616 39.738C7.95616 39.9717 8.55674 40.2336 9.14322 40.5205C9.91473 40.8953 10.6768 41.2873 11.4311 41.6935C11.9972 41.9977 12.568 42.2925 13.145 42.5779C13.5088 42.7567 13.8821 42.9167 14.2647 43.0515C14.583 43.1644 14.9107 43.2507 15.2432 43.3103C15.6258 43.3777 16.0131 43.4263 16.4005 43.4514C16.9023 43.4859 17.404 43.4828 17.9043 43.4451C18.359 43.4106 18.8091 43.3306 19.2497 43.2068C19.6778 43.086 20.0918 42.9245 20.487 42.7222C20.9025 42.5089 21.2992 42.2612 21.6725 41.9805L22.4393 41.4003L24.0199 41.4991L24.909 41.5477C25.047 41.5539 25.185 41.5539 25.3215 41.543C25.392 41.5383 25.4642 41.521 25.53 41.4943C25.5739 41.4771 25.6006 41.4348 25.6006 41.3893C25.6006 41.3407 25.5802 41.2921 25.5441 41.2591C25.323 41.0537 25.0988 40.8483 24.8745 40.6444C24.6127 40.4061 24.3477 40.1708 24.0779 39.9387C23.7659 39.6706 23.4507 39.4056 23.1324 39.1421C22.8156 38.8818 22.5004 38.6184 22.1868 38.3533C21.9186 38.1291 21.6521 37.9033 21.3886 37.6743C21.155 37.4736 20.9213 37.2713 20.6908 37.0706C20.6704 37.0534 20.661 37.0298 20.661 37.0047C20.661 36.9781 20.6704 36.9546 20.6908 36.9357C20.9229 36.735 21.1565 36.5327 21.3886 36.3336C21.6521 36.1046 21.9186 35.8788 22.1868 35.6546C22.502 35.3896 22.8172 35.1277 23.1324 34.8642C23.4507 34.6023 23.7659 34.3373 24.0779 34.0676C24.3477 33.8371 24.6127 33.6019 24.8745 33.3635C25.0988 33.1596 25.323 32.9558 25.5441 32.7488C25.5802 32.7143 25.6006 32.6673 25.6006 32.6171C25.6006 32.57 25.5724 32.5293 25.53 32.512C25.4642 32.4838 25.392 32.4681 25.3215 32.4634C25.1835 32.4556 25.0455 32.454 24.909 32.4587C24.6127 32.4728 24.3163 32.4885 24.0199 32.5073L22.4393 32.6061L21.6725 32.0274C21.3008 31.7467 20.9025 31.4974 20.487 31.2841C20.0918 31.0819 19.6762 30.9188 19.2497 30.7996C18.8091 30.6757 18.359 30.5973 17.9043 30.5597C17.404 30.5205 16.9023 30.5189 16.4005 30.5534C16.0116 30.5816 15.6258 30.6271 15.2432 30.6961C14.9107 30.7557 14.583 30.8419 14.2647 30.9548C13.8821 31.0897 13.5073 31.2481 13.145 31.4284C12.568 31.7138 11.9972 32.0086 11.4311 32.3128C10.6768 32.7174 9.91473 33.1079 9.14322 33.4843C8.55674 33.7712 7.95616 34.0331 7.34616 34.2683C6.80046 34.4785 6.24378 34.6619 5.67925 34.8172C5.06769 34.985 4.44985 35.1292 3.82574 35.2469C3.60464 35.2892 3.38197 35.33 3.15929 35.3676C3.06521 35.3833 2.96798 35.3896 2.87233 35.3833C2.80333 35.3801 2.73747 35.3613 2.67631 35.3284C2.60261 35.2876 2.53362 35.239 2.47403 35.181C2.43169 35.1418 2.38778 35.1073 2.33917 35.0759C2.28742 35.0446 2.23254 35.0148 2.17609 34.9897C2.1212 34.9662 2.06632 34.9458 2.00987 34.9301C1.96282 34.9175 1.91421 34.9097 1.86717 34.9097C1.7621 34.9097 1.65704 34.9364 1.56295 34.9834C1.45789 35.0383 1.36067 35.1089 1.27599 35.1951C1.19131 35.2814 1.12388 35.3817 1.07213 35.4915C1.02352 35.5887 1 35.6953 1 35.8035V36.147H13.5669C13.9573 35.2312 14.9343 34.7121 15.9112 34.9034C16.8881 35.0963 17.5985 36.0074 17.6126 37.0032C17.6267 37.9989 16.943 38.8677 15.9724 39.0888C15.0017 39.3068 13.9824 38.7611 13.5669 37.8562Z" stroke="#71859E" stroke-width="0.162" stroke-linejoin="bevel"/>
<path fill-rule="evenodd" clip-rule="evenodd" d="M52.9655 54.1759L61.852 63.0611L61.609 63.3041C61.5321 63.381 61.4396 63.439 61.3361 63.4751C61.2232 63.5158 61.1025 63.5362 60.9833 63.5393C60.8641 63.5409 60.745 63.5221 60.632 63.486C60.5301 63.4547 60.4392 63.3982 60.3655 63.3229C60.331 63.29 60.3012 63.2508 60.2777 63.2085C60.2494 63.1583 60.2243 63.105 60.2024 63.0501C60.1804 62.9921 60.1616 62.9325 60.1491 62.8713C60.1365 62.8164 60.1287 62.76 60.1271 62.7035C60.124 62.6188 60.1114 62.5357 60.0879 62.4542C60.0691 62.3883 60.0346 62.3287 59.9891 62.277C59.9233 62.2064 59.8511 62.1406 59.7727 62.0857C59.5892 61.954 59.4026 61.8254 59.216 61.6983C58.6923 61.3424 58.1529 61.0068 57.6024 60.6932C57.0944 60.4031 56.5706 60.1396 56.0359 59.9028C55.4369 59.6378 54.8285 59.3994 54.2122 59.1862C53.403 58.9086 52.586 58.6452 51.7644 58.3974C51.1497 58.2124 50.5365 58.0163 49.9281 57.8109C49.5423 57.6823 49.166 57.5302 48.8006 57.3546C48.4948 57.2087 48.2016 57.0394 47.9256 56.8449C47.6073 56.6223 47.2999 56.3823 47.0067 56.1283C46.6272 55.7974 46.2744 55.4399 45.9482 55.0588C45.6518 54.7107 45.3884 54.3359 45.1657 53.9392C44.9462 53.5518 44.769 53.1441 44.6326 52.7207C44.4883 52.2754 44.3848 51.8206 44.319 51.3564L44.1872 50.4061L42.9986 49.3586L42.3369 48.7643C42.2334 48.6718 42.1377 48.573 42.0467 48.4679C41.9997 48.4146 41.9621 48.3534 41.9338 48.2876C41.915 48.2452 41.9244 48.1966 41.9589 48.1637C41.9934 48.1292 42.042 48.1104 42.0907 48.1119C42.3933 48.1229 42.696 48.1354 42.997 48.1496C43.3514 48.1668 43.7058 48.1888 44.0586 48.2154C44.4695 48.2468 44.8819 48.2813 45.2912 48.3205C45.7005 48.3597 46.1082 48.3973 46.519 48.4318C46.8671 48.4632 47.2153 48.4898 47.5634 48.5165C47.8707 48.54 48.1781 48.562 48.4854 48.5839C48.5121 48.5871 48.5356 48.5761 48.5529 48.5573C48.5717 48.54 48.5811 48.5149 48.5795 48.4898C48.5576 48.1825 48.5356 47.8751 48.5121 47.5678C48.4854 47.2196 48.4588 46.8715 48.4274 46.5234C48.3929 46.1141 48.3553 45.7048 48.3161 45.2955C48.2769 44.8862 48.2424 44.4738 48.2094 44.063C48.1828 43.7101 48.1608 43.3557 48.1451 43.0013C48.131 42.7003 48.1185 42.3976 48.1075 42.0949C48.1059 42.0463 48.1248 41.9977 48.1593 41.9632C48.1922 41.9303 48.2408 41.9193 48.2831 41.9381C48.349 41.9664 48.4102 42.004 48.4635 42.051C48.567 42.142 48.6658 42.2376 48.7599 42.3411C48.9606 42.5607 49.1566 42.7802 49.3542 43.0029L50.4017 44.1916L51.3519 44.3233C51.8161 44.3891 52.2709 44.4926 52.7162 44.6369C53.1396 44.7733 53.5473 44.9521 53.9346 45.1701C54.3314 45.3928 54.7061 45.6546 55.0543 45.9526C55.4353 46.2788 55.7928 46.6316 56.1221 47.0127C56.3793 47.3059 56.6177 47.6133 56.8403 47.9316C57.0348 48.2076 57.2041 48.5008 57.35 48.8066C57.524 49.172 57.6777 49.5483 57.8063 49.9341C58.0117 50.5426 58.2077 51.1557 58.3928 51.7704C58.6405 52.5921 58.904 53.4076 59.1831 54.2183C59.3964 54.8361 59.6347 55.4446 59.8997 56.042C60.1365 56.5768 60.4 57.1005 60.6901 57.6086C61.0053 58.159 61.3393 58.6985 61.6952 59.2222C61.8207 59.4088 61.9508 59.5939 62.0826 59.7789C62.1374 59.8573 62.2017 59.9295 62.2739 59.9953C62.324 60.0408 62.3852 60.0753 62.4511 60.0941C62.5326 60.1177 62.6157 60.1302 62.7004 60.1333C62.7568 60.1349 62.8133 60.1412 62.8682 60.1553C62.9293 60.1694 62.9889 60.1866 63.0454 60.2086C63.1018 60.2306 63.1551 60.2557 63.2053 60.2854C63.2477 60.309 63.2869 60.3372 63.3198 60.3717C63.3951 60.4454 63.4515 60.5379 63.4829 60.6383C63.5189 60.7512 63.5378 60.8719 63.5346 60.9895C63.5331 61.1103 63.5127 61.231 63.4719 61.3424C63.4358 61.4459 63.3778 61.5384 63.301 61.6152L63.0579 61.8583L54.173 52.9716C54.5211 52.0323 54.1651 50.9785 53.3168 50.4438C52.47 49.909 51.4053 49.9984 50.7074 50.7182C50.0096 51.4348 49.9077 52.5435 50.466 53.3778C51.0258 54.201 52.0356 54.5492 52.9655 54.1759Z" fill="#71859E"/>
<path d="M52.9655 54.1759L61.852 63.061L61.609 63.3041C61.5321 63.3809 61.4396 63.439 61.3361 63.475C61.2232 63.5158 61.1025 63.5362 60.9833 63.5393C60.8641 63.5409 60.745 63.5221 60.632 63.486C60.5301 63.4546 60.4392 63.3982 60.3655 63.3229C60.331 63.29 60.3012 63.2508 60.2777 63.2084C60.2494 63.1583 60.2243 63.1049 60.2024 63.0485C60.1804 62.9905 60.1616 62.9309 60.1491 62.8697C60.1365 62.8148 60.1287 62.7584 60.1271 62.7019C60.124 62.6172 60.1114 62.5341 60.0879 62.4526C60.0691 62.3867 60.0346 62.3271 59.9891 62.2754C59.9233 62.2048 59.8511 62.139 59.7727 62.0841C59.5892 61.9523 59.4026 61.8238 59.216 61.6967C58.6923 61.3408 58.1529 61.0052 57.6024 60.6916C57.0944 60.4015 56.5706 60.138 56.0359 59.9012C55.4369 59.6362 54.8285 59.3978 54.2122 59.1846C53.403 58.907 52.586 58.642 51.7644 58.3942C51.1497 58.2092 50.5365 58.0132 49.9281 57.8077C49.5423 57.6791 49.166 57.527 48.8006 57.3514C48.4948 57.2056 48.2016 57.0346 47.9256 56.8418C47.6073 56.6191 47.2999 56.3792 47.0067 56.1251C46.6272 55.7942 46.2744 55.4367 45.9482 55.0556C45.6518 54.7075 45.3884 54.3327 45.1657 53.936C44.9462 53.5487 44.769 53.1409 44.6326 52.7175C44.4883 52.2722 44.3848 51.8174 44.319 51.3532L44.1872 50.4029L42.9986 49.3554L42.3369 48.7611C42.2334 48.6686 42.1377 48.5698 42.0467 48.4647C41.9997 48.4114 41.9621 48.3502 41.9338 48.2844C41.915 48.242 41.9244 48.1934 41.9589 48.1605C41.9934 48.126 42.042 48.1072 42.0907 48.1088C42.3933 48.1197 42.696 48.1323 42.997 48.1464C43.3514 48.1636 43.7058 48.1856 44.0586 48.2107C44.4695 48.242 44.8819 48.2781 45.2912 48.3173C45.7005 48.3565 46.1082 48.3942 46.519 48.4287C46.8671 48.4584 47.2153 48.4867 47.5634 48.5133C47.8707 48.5369 48.1781 48.5588 48.4854 48.5808C48.5121 48.5839 48.5356 48.5729 48.5529 48.5541C48.5717 48.5369 48.5811 48.5118 48.5795 48.4867C48.5576 48.1793 48.5356 47.872 48.5121 47.5646C48.4854 47.2165 48.4588 46.8683 48.4274 46.5202C48.3929 46.1094 48.3553 45.7016 48.3161 45.2924C48.2769 44.8831 48.2424 44.4707 48.2094 44.0598C48.1828 43.707 48.1608 43.3526 48.1451 42.9982C48.131 42.6971 48.1185 42.3944 48.1075 42.0918C48.1059 42.0432 48.1248 41.9945 48.1593 41.96C48.1922 41.9271 48.2408 41.9161 48.2831 41.935C48.349 41.9632 48.4102 42.0008 48.4635 42.0479C48.567 42.1388 48.6658 42.2345 48.7599 42.338C48.9606 42.5559 49.1566 42.7771 49.3542 42.9997L50.4017 44.1884L51.3519 44.3201C51.8161 44.386 52.2709 44.4895 52.7162 44.6337C53.1396 44.7702 53.5473 44.9489 53.9346 45.1669C54.3314 45.3896 54.7061 45.6515 55.0543 45.9494C55.4353 46.2756 55.7928 46.6284 56.1221 47.0079C56.3793 47.3012 56.6177 47.6085 56.8403 47.9268C57.0348 48.2028 57.2041 48.4961 57.35 48.8019C57.524 49.1673 57.6777 49.5436 57.8063 49.9294C58.0117 50.5378 58.2077 51.151 58.3928 51.7657C58.6405 52.5874 58.904 53.4028 59.1831 54.2135C59.3964 54.8314 59.6347 55.4398 59.8997 56.0373C60.1365 56.572 60.4 57.0958 60.6901 57.6039C61.0053 58.1543 61.3393 58.6937 61.6952 59.2175C61.8207 59.4041 61.9508 59.5892 62.0826 59.7742C62.1374 59.8526 62.2017 59.9247 62.2739 59.9906C62.324 60.0361 62.3852 60.0706 62.4511 60.0894C62.5326 60.1129 62.6157 60.1255 62.7004 60.1286C62.7568 60.1302 62.8133 60.1364 62.8682 60.1505C62.9293 60.1647 62.9889 60.1819 63.0454 60.2039C63.1018 60.2258 63.1551 60.2509 63.2053 60.2807C63.2477 60.3042 63.2869 60.3325 63.3198 60.367C63.3951 60.4407 63.4515 60.5316 63.4829 60.6335C63.5189 60.7464 63.5378 60.8672 63.5346 60.9848C63.5331 61.1056 63.5127 61.2263 63.4719 61.3376C63.4358 61.4411 63.3778 61.5337 63.301 61.6105L63.0579 61.8536L54.173 52.9669C54.5211 52.0276 54.1651 50.9738 53.3168 50.4374C52.47 49.9027 51.4053 49.9921 50.7074 50.7119C50.0096 51.4285 49.9077 52.5372 50.466 53.3715C51.0258 54.201 52.0356 54.5491 52.9655 54.1759Z" stroke="#71859E" stroke-width="0.162" stroke-linejoin="bevel"/>
<path fill-rule="evenodd" clip-rule="evenodd" d="M19.8252 21.0362L10.9387 12.1511L10.6972 12.3941C10.6204 12.4694 10.5608 12.5635 10.5263 12.6654C10.4855 12.7799 10.4636 12.8991 10.462 13.0183C10.4604 13.139 10.4777 13.2582 10.5138 13.3727C10.5467 13.473 10.6031 13.564 10.6784 13.6393C10.7129 13.6722 10.7505 13.7035 10.7929 13.7271C10.8446 13.7553 10.8979 13.782 10.9544 13.8023C11.0124 13.8259 11.072 13.8431 11.1332 13.8572C11.188 13.8698 11.2445 13.876 11.301 13.8792C11.3841 13.8823 11.4687 13.8949 11.5487 13.9184C11.6161 13.9372 11.6757 13.9701 11.7275 14.0172C11.798 14.083 11.8623 14.1536 11.9188 14.232C12.0489 14.4155 12.1775 14.6021 12.3061 14.7887C12.6605 15.3125 12.9977 15.8519 13.3097 16.4039C13.5998 16.912 13.8633 17.4342 14.1 17.9705C14.3651 18.5679 14.605 19.1764 14.8167 19.7942C15.0958 20.605 15.3608 21.4204 15.607 22.2405C15.792 22.8568 15.988 23.4684 16.1935 24.0784C16.3236 24.4626 16.4757 24.839 16.6514 25.2059C16.7956 25.5101 16.9681 25.8034 17.1594 26.0809C17.3821 26.3993 17.6236 26.7066 17.8776 26.9999C18.2085 27.3778 18.5645 27.7322 18.9471 28.0599C19.2936 28.3547 19.6684 28.6182 20.0667 28.8424C20.454 29.0604 20.8602 29.2392 21.2836 29.3756C21.7289 29.5199 22.1852 29.6234 22.6463 29.6877L23.5981 29.821L24.6456 31.0096L25.2399 31.6714C25.3309 31.7733 25.4297 31.8705 25.5332 31.9599C25.588 32.0085 25.6492 32.0462 25.7166 32.0744C25.759 32.0916 25.8076 32.0807 25.8405 32.0493C25.8766 32.0148 25.8954 31.9662 25.8923 31.916C25.8829 31.6149 25.8687 31.3123 25.8546 31.0096C25.8389 30.6568 25.817 30.3008 25.7888 29.948C25.759 29.5371 25.7213 29.1263 25.6837 28.717C25.6461 28.3077 25.6084 27.8984 25.5724 27.4891C25.5426 27.1394 25.5143 26.7929 25.4893 26.4432C25.4673 26.1374 25.4438 25.83 25.4218 25.5227C25.4203 25.496 25.4281 25.4725 25.4485 25.4537C25.4657 25.4349 25.4924 25.4254 25.5175 25.427C25.8248 25.449 26.1322 25.4725 26.438 25.4944C26.7877 25.5211 27.1342 25.5478 27.4839 25.5776C27.8932 25.6136 28.3009 25.6513 28.7117 25.6889C29.121 25.7281 29.5319 25.7642 29.9427 25.794C30.2955 25.8222 30.6515 25.8426 31.0043 25.8614C31.307 25.8739 31.6096 25.888 31.9107 25.8975C31.9609 25.9006 32.0095 25.8818 32.044 25.8457C32.0753 25.8143 32.0863 25.7642 32.0691 25.7218C32.0408 25.6544 32.0016 25.5948 31.9546 25.5399C31.8652 25.4349 31.768 25.3392 31.6661 25.2451C31.4465 25.0444 31.2254 24.8468 31.0043 24.6508L29.8157 23.6033L29.6824 22.6514C29.6181 22.1888 29.5146 21.7325 29.3703 21.2887C29.2339 20.8653 29.0551 20.4576 28.8372 20.0718C28.6129 19.6735 28.3495 19.2987 28.0547 18.9521C27.727 18.5711 27.3741 18.2135 26.9962 17.8827C26.703 17.6271 26.3956 17.3871 26.0773 17.1644C25.7997 16.9716 25.5065 16.8006 25.2023 16.6564C24.8354 16.4807 24.459 16.3286 24.0748 16.1985C23.4648 15.993 22.8533 15.797 22.237 15.612C21.4169 15.3658 20.6014 15.1023 19.7907 14.8216C19.1713 14.6099 18.5629 14.3716 17.967 14.1066C17.4307 13.8682 16.9085 13.6048 16.3989 13.3146C15.8485 13.001 15.3091 12.667 14.7853 12.311C14.5987 12.184 14.4137 12.0539 14.2286 11.9237C14.1502 11.8672 14.0797 11.803 14.0138 11.7324C13.9667 11.6822 13.9338 11.6211 13.915 11.5536C13.8915 11.4736 13.8789 11.389 13.8758 11.3059C13.8727 11.2494 13.8648 11.1929 13.8523 11.1381C13.8397 11.0769 13.8225 11.0173 13.799 10.9593C13.7786 10.9044 13.7519 10.8511 13.7237 10.7978C13.7002 10.7554 13.6704 10.7178 13.6359 10.6833C13.5606 10.608 13.4697 10.5531 13.3693 10.5186C13.2548 10.4826 13.1356 10.4653 13.0165 10.4669C12.8957 10.4685 12.7781 10.4904 12.6636 10.5312C12.5617 10.5657 12.4676 10.6253 12.3908 10.7021L12.1493 10.9436L21.0342 19.8303C21.9579 19.4571 23.0148 19.7817 23.5715 20.6097C24.1266 21.4361 23.9839 22.5824 23.2908 23.2959C22.5961 24.011 21.4984 24.1411 20.6548 23.6095C19.8142 23.0764 19.4802 21.9708 19.8252 21.0362Z" fill="#71859E"/>
<path d="M19.8252 21.0358L10.9387 12.1491L10.6972 12.3922C10.6204 12.4674 10.5608 12.5615 10.5263 12.6634C10.4855 12.7779 10.4636 12.8971 10.462 13.0163C10.4604 13.137 10.4777 13.2562 10.5138 13.3691C10.5467 13.4695 10.6031 13.5604 10.6784 13.6357C10.7129 13.6686 10.7505 13.7 10.7929 13.7235C10.8446 13.7517 10.8979 13.7784 10.9544 13.7988C11.0124 13.8223 11.072 13.8396 11.1332 13.8537C11.188 13.8646 11.2445 13.8725 11.301 13.8756C11.3841 13.8788 11.4687 13.8913 11.5487 13.9148C11.6161 13.9336 11.6757 13.9666 11.7275 14.0136C11.798 14.0795 11.8623 14.15 11.9188 14.2285C12.0489 14.4119 12.1775 14.5985 12.3061 14.7851C12.6605 15.3089 12.9977 15.8484 13.3097 16.4003C13.5998 16.9084 13.8633 17.4306 14.1 17.9669C14.3651 18.5644 14.605 19.1728 14.8167 19.7907C15.0958 20.6014 15.3608 21.4168 15.607 22.237C15.792 22.8533 15.988 23.4648 16.1935 24.0748C16.3236 24.459 16.4757 24.8354 16.6514 25.2023C16.7956 25.5066 16.9681 25.7998 17.1594 26.0774C17.3821 26.3957 17.6236 26.7031 17.8776 26.9963C18.2085 27.3742 18.5645 27.7286 18.9471 28.0548C19.2936 28.3512 19.6684 28.6131 20.0667 28.8373C20.454 29.0553 20.8602 29.2341 21.2836 29.3705C21.7289 29.5147 22.1852 29.6182 22.6463 29.6825L23.5981 29.8158L24.6456 31.0045L25.2399 31.6662C25.3309 31.7682 25.4297 31.8654 25.5332 31.9548C25.588 32.0034 25.6492 32.041 25.7166 32.0693C25.759 32.0865 25.8076 32.0755 25.8405 32.0442C25.8766 32.0097 25.8954 31.9611 25.8923 31.9109C25.8829 31.6098 25.8687 31.3071 25.8546 31.0045C25.8389 30.6501 25.817 30.2957 25.7888 29.9429C25.759 29.532 25.7213 29.1211 25.6837 28.7119C25.6461 28.3026 25.6084 27.8933 25.5724 27.484C25.5426 27.1343 25.5143 26.7877 25.4893 26.438C25.4673 26.1323 25.4438 25.8249 25.4218 25.5175C25.4203 25.4909 25.4281 25.4674 25.4485 25.4485C25.4657 25.4297 25.4924 25.4219 25.5175 25.4219C25.8248 25.4438 26.1322 25.4674 26.438 25.4893C26.7877 25.516 27.1342 25.5426 27.4839 25.5724C27.8932 25.6085 28.3009 25.6461 28.7117 25.6838C29.121 25.723 29.5319 25.759 29.9427 25.7888C30.2955 25.8171 30.6515 25.8374 31.0043 25.8563C31.307 25.8688 31.6096 25.8829 31.9107 25.8923C31.9609 25.8955 32.0095 25.8766 32.044 25.8406C32.0753 25.8092 32.0863 25.759 32.0691 25.7167C32.0408 25.6493 32.0016 25.5897 31.9546 25.5332C31.8652 25.4297 31.768 25.3325 31.6661 25.24C31.4465 25.0393 31.2254 24.8417 31.0043 24.6457L29.8157 23.5981L29.6824 22.6463C29.6181 22.1837 29.5146 21.7273 29.3703 21.2835C29.2339 20.8601 29.0551 20.4524 28.8372 20.0667C28.6129 19.6684 28.3495 19.2936 28.0547 18.947C27.727 18.5659 27.3741 18.2084 26.9962 17.8775C26.703 17.6219 26.3956 17.382 26.0773 17.1593C25.7997 16.9664 25.5065 16.7955 25.2023 16.6512C24.8354 16.4756 24.459 16.3235 24.0748 16.1933C23.4648 15.9879 22.8533 15.7919 22.237 15.6069C21.4169 15.3607 20.6014 15.0972 19.7907 14.8165C19.1713 14.6048 18.5629 14.3665 17.967 14.0999C17.4307 13.8631 16.9085 13.5981 16.3989 13.3095C15.8485 12.9959 15.3091 12.6619 14.7853 12.3059C14.5987 12.1789 14.4137 12.0487 14.2286 11.9186C14.1502 11.8621 14.0797 11.7978 14.0138 11.7273C13.9667 11.6771 13.9338 11.6159 13.915 11.5485C13.8915 11.4685 13.8789 11.3854 13.8758 11.3007C13.8727 11.2443 13.8648 11.1878 13.8523 11.1329C13.8397 11.0718 13.8225 11.0122 13.799 10.9542C13.7786 10.8993 13.7519 10.846 13.7237 10.7926C13.7002 10.7503 13.6704 10.7127 13.6359 10.6782C13.5606 10.6029 13.4697 10.548 13.3693 10.5135C13.2548 10.4774 13.1356 10.4602 13.0165 10.4618C12.8957 10.4633 12.7781 10.4853 12.6636 10.5261C12.5617 10.5606 12.4676 10.6202 12.3908 10.697L12.1493 10.9385L21.0342 19.8252C21.9579 19.4535 23.0148 19.7766 23.5715 20.6045C24.1266 21.431 23.9839 22.5773 23.2908 23.2908C22.5961 24.0043 21.4984 24.136 20.6548 23.6044C19.8142 23.0759 19.4802 21.9704 19.8252 21.0358Z" stroke="#71859E" stroke-width="0.162" stroke-linejoin="bevel"/>
<path fill-rule="evenodd" clip-rule="evenodd" d="M54.1765 21.0362L63.0615 12.1511L63.3045 12.3941C63.3814 12.4694 63.4394 12.5635 63.4754 12.6654C63.5162 12.7799 63.5366 12.8991 63.5382 13.0183C63.5413 13.139 63.5225 13.2582 63.4864 13.3727C63.4551 13.473 63.3986 13.564 63.3233 13.6393C63.2904 13.6722 63.2512 13.7035 63.2089 13.7271C63.1587 13.7553 63.1054 13.782 63.0489 13.8023C62.9925 13.8259 62.9329 13.8431 62.8717 13.8572C62.8168 13.8698 62.7604 13.876 62.7039 13.8792C62.6193 13.8823 62.5361 13.8949 62.4546 13.9184C62.3887 13.9372 62.3292 13.9701 62.2774 14.0172C62.2053 14.083 62.141 14.1536 62.0861 14.232C61.9544 14.4155 61.8258 14.6021 61.6988 14.7887C61.3428 15.3125 61.0072 15.8519 60.6936 16.4039C60.4035 16.912 60.1401 17.4342 59.9033 17.9705C59.6383 18.5679 59.3999 19.1764 59.1867 19.7942C58.9091 20.605 58.6441 21.4204 58.3963 22.2405C58.2113 22.8568 58.0153 23.4684 57.8099 24.0784C57.6813 24.4626 57.5276 24.839 57.3535 25.2059C57.2077 25.5101 57.0368 25.8034 56.8439 26.0809C56.6212 26.3993 56.3813 26.7066 56.1257 26.9999C55.7964 27.3778 55.4389 27.7322 55.0578 28.0599C54.7097 28.3547 54.3349 28.6182 53.9382 28.8424C53.5509 29.0604 53.1431 29.2392 52.7198 29.3756C52.2744 29.5199 51.8197 29.6234 51.3555 29.6877L50.4052 29.821L49.3577 31.0096L48.7634 31.6714C48.6709 31.7733 48.5721 31.8705 48.467 31.9599C48.4137 32.0085 48.3526 32.0462 48.2867 32.0744C48.2428 32.0916 48.1957 32.0807 48.1628 32.0493C48.1283 32.0148 48.1095 31.9662 48.1111 31.916C48.122 31.6149 48.1346 31.3123 48.1487 31.0096C48.1644 30.6568 48.1879 30.3008 48.213 29.948C48.2444 29.5371 48.2804 29.1263 48.3196 28.717C48.3588 28.3077 48.3965 27.8984 48.431 27.4891C48.4608 27.1394 48.489 26.7929 48.5156 26.4432C48.5392 26.1374 48.5611 25.83 48.5831 25.5227C48.5862 25.496 48.5752 25.4725 48.5564 25.4537C48.5392 25.4349 48.5125 25.4254 48.489 25.427C48.1816 25.449 47.8743 25.4725 47.5669 25.4944C47.2188 25.5211 46.8707 25.5478 46.5226 25.5776C46.1117 25.6136 45.704 25.6513 45.2947 25.6889C44.8855 25.7281 44.473 25.7642 44.0622 25.794C43.7094 25.8222 43.355 25.8426 43.0006 25.8614C42.6995 25.8739 42.3969 25.888 42.0942 25.8975C42.0456 25.9006 41.997 25.8818 41.9625 25.8457C41.9296 25.8143 41.9186 25.7642 41.9374 25.7218C41.9656 25.6544 42.0033 25.5948 42.0503 25.5399C42.1413 25.4349 42.2369 25.3392 42.3404 25.2451C42.5584 25.0444 42.7795 24.8468 43.0022 24.6508L44.1908 23.6033L44.3225 22.6514C44.3884 22.1888 44.4919 21.7325 44.6361 21.2887C44.7725 20.8653 44.9513 20.4576 45.1693 20.0718C45.392 19.6735 45.6538 19.2987 45.9518 18.9521C46.2779 18.5711 46.6308 18.2135 47.0103 17.8827C47.3035 17.6271 47.6108 17.3871 47.9292 17.1644C48.2052 16.9716 48.4984 16.8006 48.8042 16.6564C49.1695 16.4807 49.5459 16.3286 49.9316 16.1985C50.5401 15.993 51.1532 15.797 51.7679 15.612C52.5896 15.3658 53.405 15.1023 54.2157 14.8216C54.8336 14.6099 55.442 14.3716 56.0395 14.1066C56.5742 13.8682 57.0979 13.6048 57.606 13.3146C58.1564 13.001 58.6958 12.667 59.2196 12.311C59.4062 12.184 59.5928 12.0539 59.7763 11.9237C59.8547 11.8672 59.9268 11.803 59.9927 11.7324C60.0381 11.6822 60.0726 11.6211 60.0915 11.5536C60.115 11.4736 60.1275 11.389 60.1307 11.3059C60.1322 11.2494 60.1385 11.1929 60.1526 11.1381C60.1652 11.0769 60.184 11.0173 60.2059 10.9593C60.2279 10.9044 60.253 10.8511 60.2812 10.7978C60.3063 10.7554 60.3345 10.7178 60.369 10.6833C60.4427 10.6096 60.5337 10.5531 60.6356 10.5186C60.7485 10.4826 60.8692 10.4653 60.9868 10.4669C61.1076 10.4685 61.2283 10.4904 61.3397 10.5312C61.4432 10.5657 61.5357 10.6253 61.6125 10.7021L61.8556 10.9436L52.9691 19.8303C52.0298 19.4822 50.976 19.8381 50.4397 20.6849C49.905 21.5333 49.9944 22.5981 50.7141 23.2959C51.4308 23.9937 52.5394 24.0941 53.3737 23.5358C54.2016 22.976 54.5497 21.9645 54.1765 21.0362Z" fill="#71859E"/>
<path d="M54.1765 21.0359L63.0615 12.1508L63.3045 12.3939C63.3814 12.4691 63.4394 12.5632 63.4754 12.6652C63.5162 12.7796 63.5366 12.8988 63.5382 13.018C63.5413 13.1387 63.5225 13.2579 63.4864 13.3708C63.4551 13.4712 63.3986 13.5621 63.3233 13.6374C63.2904 13.6703 63.2512 13.7017 63.2089 13.7252C63.1587 13.7534 63.1054 13.7801 63.0489 13.8005C62.9925 13.824 62.9329 13.8413 62.8717 13.8554C62.8168 13.8664 62.7604 13.8742 62.7039 13.8773C62.6193 13.8805 62.5361 13.893 62.4546 13.9165C62.3887 13.9354 62.3292 13.9683 62.2774 14.0153C62.2053 14.0812 62.141 14.1518 62.0861 14.2302C61.9544 14.4136 61.8258 14.6002 61.6988 14.7869C61.3428 15.3106 61.0072 15.8501 60.6936 16.402C60.4035 16.9101 60.1401 17.4323 59.9033 17.9686C59.6383 18.5661 59.3999 19.1745 59.1867 19.7924C58.9091 20.6031 58.6441 21.4185 58.3963 22.2387C58.2113 22.855 58.0153 23.4665 57.8099 24.0766C57.6813 24.4608 57.5276 24.8371 57.3535 25.2041C57.2077 25.5083 57.0368 25.8015 56.8439 26.0791C56.6212 26.3974 56.3813 26.7048 56.1257 26.998C55.7964 27.3759 55.4389 27.7303 55.0578 28.0565C54.7097 28.3529 54.3349 28.6148 53.9382 28.839C53.5509 29.057 53.1431 29.2358 52.7198 29.3722C52.2744 29.5165 51.8197 29.62 51.3555 29.6842L50.4052 29.8175L49.3577 31.0062L48.7634 31.668C48.6709 31.7699 48.5721 31.8671 48.467 31.9565C48.4137 32.0051 48.3526 32.0427 48.2867 32.071C48.2428 32.0882 48.1957 32.0772 48.1628 32.0459C48.1283 32.0114 48.1095 31.9628 48.1111 31.9126C48.122 31.6115 48.1346 31.3088 48.1487 31.0062C48.1644 30.6518 48.1879 30.2974 48.213 29.9446C48.2444 29.5337 48.2804 29.1229 48.3196 28.7136C48.3588 28.3043 48.3965 27.895 48.431 27.4857C48.4608 27.136 48.489 26.7894 48.5156 26.4398C48.5392 26.134 48.5611 25.8266 48.5831 25.5193C48.5862 25.4926 48.5752 25.4691 48.5564 25.4503C48.5392 25.4314 48.5125 25.4236 48.489 25.4236C48.1816 25.4455 47.8743 25.4691 47.5669 25.491C47.2188 25.5177 46.8707 25.5443 46.5226 25.5741C46.1117 25.6102 45.704 25.6478 45.2947 25.6855C44.8855 25.7247 44.473 25.7607 44.0622 25.7905C43.7094 25.8188 43.355 25.8392 43.0006 25.858C42.6995 25.8705 42.3969 25.8846 42.0942 25.894C42.0456 25.8972 41.997 25.8784 41.9625 25.8423C41.9296 25.8109 41.9186 25.7607 41.9374 25.7184C41.9656 25.651 42.0033 25.5914 42.0503 25.5349C42.1413 25.4314 42.2369 25.3342 42.3404 25.2417C42.5584 25.041 42.7795 24.8434 43.0022 24.6474L44.1908 23.5998L44.3225 22.648C44.3884 22.1854 44.4919 21.729 44.6361 21.2853C44.7725 20.8619 44.9513 20.4541 45.1693 20.0684C45.392 19.6701 45.6538 19.2953 45.9518 18.9487C46.2779 18.5677 46.6308 18.2101 47.0103 17.8792C47.3035 17.6236 47.6108 17.3837 47.9292 17.161C48.2052 16.9681 48.4984 16.7972 48.8042 16.653C49.1695 16.4773 49.5459 16.3252 49.9316 16.1951C50.5401 15.9896 51.1532 15.7936 51.7679 15.6086C52.5896 15.3624 53.405 15.0989 54.2157 14.8182C54.8336 14.6065 55.442 14.3682 56.0395 14.1016C56.5742 13.8648 57.0979 13.5998 57.606 13.3112C58.1564 12.9976 58.6958 12.6636 59.2196 12.3076C59.4062 12.1806 59.5928 12.0504 59.7763 11.9203C59.8547 11.8638 59.9268 11.7995 59.9927 11.729C60.0381 11.6788 60.0726 11.6176 60.0915 11.5502C60.115 11.4702 60.1275 11.3871 60.1307 11.3024C60.1322 11.246 60.1385 11.1895 60.1526 11.1346C60.1652 11.0735 60.184 11.0139 60.2059 10.9559C60.2279 10.901 60.253 10.8477 60.2812 10.7944C60.3063 10.752 60.3345 10.7144 60.369 10.6799C60.4427 10.6062 60.5337 10.5497 60.6356 10.5152C60.7485 10.4792 60.8692 10.4619 60.9868 10.4635C61.1076 10.465 61.2283 10.487 61.3397 10.5278C61.4432 10.5623 61.5357 10.6219 61.6125 10.6987L61.8556 10.9402L52.9691 19.8269C52.0298 19.4788 50.976 19.8347 50.4397 20.6815C49.905 21.5299 49.9944 22.5947 50.7141 23.2925C51.4308 23.9903 52.5394 24.0907 53.3737 23.5324C54.2016 22.9757 54.5497 21.9643 54.1765 21.0359Z" stroke="#71859E" stroke-width="0.162" stroke-linejoin="bevel"/>
<path fill-rule="evenodd" clip-rule="evenodd" d="M21.0357 54.1759L12.1508 63.0611L12.3923 63.3041C12.4691 63.381 12.5632 63.439 12.6651 63.4751C12.7796 63.5158 12.8988 63.5362 13.0179 63.5393C13.1387 63.5409 13.2579 63.5221 13.3708 63.486C13.4711 63.4547 13.5621 63.3982 13.6373 63.3229C13.6703 63.29 13.7016 63.2508 13.7252 63.2085C13.7534 63.1583 13.78 63.105 13.8004 63.0501C13.8239 62.9921 13.8412 62.9325 13.8537 62.8713C13.8663 62.8164 13.8741 62.76 13.8773 62.7035C13.8804 62.6188 13.8929 62.5357 13.9165 62.4542C13.9353 62.3883 13.9682 62.3287 14.0153 62.277C14.0811 62.2064 14.1517 62.1406 14.2301 62.0857C14.4136 61.954 14.6002 61.8254 14.7868 61.6983C15.3105 61.3424 15.85 61.0068 16.4004 60.6932C16.91 60.4031 17.4322 60.1396 17.9685 59.9028C18.5659 59.6378 19.1744 59.3994 19.7922 59.1862C20.6029 58.9086 21.4183 58.6452 22.2385 58.3974C22.8547 58.2124 23.4663 58.0163 24.0763 57.8109C24.4605 57.6823 24.8368 57.5302 25.2038 57.3546C25.508 57.2087 25.8012 57.0394 26.0788 56.8449C26.3971 56.6223 26.7044 56.3823 26.9977 56.1283C27.3756 55.7974 27.73 55.4399 28.0562 55.0588C28.3525 54.7107 28.6144 54.3359 28.8386 53.9392C29.0566 53.5518 29.2354 53.1441 29.3718 52.7207C29.5161 52.2754 29.6196 51.8206 29.6839 51.3564L29.8171 50.4061L31.0058 49.3586L31.6675 48.7643C31.7694 48.6718 31.8667 48.573 31.9561 48.4679C32.0047 48.4146 32.0423 48.3534 32.0705 48.2876C32.0878 48.2436 32.0768 48.1966 32.0454 48.1637C32.0109 48.1292 31.9623 48.1104 31.9121 48.1119C31.6111 48.1229 31.3084 48.1354 31.0058 48.1496C30.6514 48.1668 30.297 48.1888 29.9442 48.2154C29.5333 48.2468 29.1225 48.2813 28.7132 48.3205C28.3039 48.3597 27.8946 48.3973 27.4854 48.4318C27.1357 48.4632 26.7891 48.4898 26.4394 48.5165C26.1336 48.54 25.8263 48.562 25.5189 48.5839C25.4923 48.5871 25.4688 48.5761 25.4499 48.5588C25.4311 48.54 25.4217 48.5149 25.4233 48.4898C25.4452 48.1825 25.4688 47.8751 25.4907 47.5678C25.5174 47.2196 25.544 46.8715 25.5738 46.5234C25.6099 46.1141 25.6475 45.7048 25.6852 45.2955C25.7244 44.8862 25.7604 44.4738 25.7902 44.063C25.8185 43.7101 25.8388 43.3557 25.8561 43.0013C25.8702 42.7003 25.8843 42.3976 25.8937 42.0949C25.8969 42.0463 25.878 41.9977 25.842 41.9632C25.8106 41.9303 25.7604 41.9193 25.7181 41.9381C25.6507 41.9664 25.5911 42.004 25.5346 42.051C25.4311 42.142 25.3323 42.2376 25.2414 42.3411C25.0407 42.5607 24.8431 42.7802 24.6471 43.0029L23.5996 44.1916L22.6477 44.3233C22.1851 44.3891 21.7288 44.4926 21.285 44.6369C20.8616 44.7733 20.4539 44.9521 20.0682 45.1701C19.6699 45.3928 19.2951 45.6546 18.9485 45.9526C18.5659 46.2788 18.21 46.6316 17.8791 47.0127C17.6235 47.3059 17.3836 47.6133 17.1609 47.9316C16.968 48.2076 16.7971 48.5008 16.6528 48.8066C16.4772 49.172 16.3251 49.5483 16.1949 49.9341C15.9895 50.5426 15.7935 51.1557 15.6085 51.7704C15.3623 52.5921 15.0988 53.4076 14.8181 54.2183C14.6064 54.8361 14.3681 55.4446 14.1015 56.042C13.8647 56.5768 13.5997 57.1005 13.3112 57.6086C12.9975 58.159 12.662 58.6985 12.3076 59.2222C12.1806 59.4088 12.0504 59.5939 11.9203 59.7789C11.8638 59.8573 11.7995 59.9295 11.7289 59.9953C11.6788 60.0408 11.6176 60.0753 11.5502 60.0941C11.4702 60.1177 11.3871 60.1302 11.3024 60.1333C11.246 60.1349 11.1895 60.1412 11.1346 60.1553C11.0735 60.1694 11.0139 60.1866 10.9559 60.2086C10.901 60.2306 10.8477 60.2557 10.7943 60.2854C10.752 60.309 10.7144 60.3372 10.6799 60.3717C10.6046 60.4454 10.5497 60.5379 10.5152 60.6383C10.4792 60.7512 10.4619 60.8719 10.4635 60.9895C10.465 61.1103 10.487 61.231 10.5278 61.3424C10.5623 61.4459 10.6219 61.5384 10.6987 61.6152L10.9402 61.8583L19.8267 52.9716C19.455 52.048 19.7781 50.991 20.606 50.4359C21.4324 49.8808 22.5787 50.0235 23.2922 50.7166C24.0057 51.4097 24.1374 52.509 23.6058 53.3511C23.0758 54.1885 21.9703 54.5209 21.0357 54.1759Z" fill="#71859E"/>
<path fill-rule="evenodd" clip-rule="evenodd" d="M15.5584 28.3611C12.2136 29.8634 8.81236 31.2292 5.35937 32.4586C5.34526 32.4649 5.32644 32.4586 5.31703 32.4445C5.30762 32.4304 5.31389 32.41 5.32644 32.3991C5.37819 32.3583 5.4315 32.3191 5.48639 32.2799C5.62124 32.1795 5.76081 32.0839 5.90037 31.9913C6.86633 31.35 7.77897 30.6318 8.63202 29.843C9.34238 29.1844 9.95708 28.4285 10.462 27.6005C10.9356 26.8227 11.2884 25.9759 11.5079 25.0915C11.7463 24.1302 11.8717 23.1439 11.8796 22.1528C11.8827 21.7952 11.8702 21.4377 11.8467 21.0786C11.8184 20.6364 11.7777 20.1942 11.7291 19.7551C11.682 19.3301 11.6287 18.9083 11.5644 18.4865C11.5221 18.2042 11.4625 17.9219 11.3856 17.6475C11.3668 17.5785 11.3543 17.5064 11.3464 17.4342C11.3464 17.4233 11.3527 17.4138 11.3621 17.4091C11.3731 17.4044 11.3841 17.4076 11.3903 17.417C11.4327 17.475 11.4687 17.5362 11.4985 17.5989C13.0165 21.0253 14.4184 24.5034 15.6964 28.0255C15.7466 28.1572 15.6838 28.3031 15.5584 28.3611Z" fill="#AB417F"/>
<path d="M15.5584 28.3612C12.2136 29.8635 8.81236 31.2293 5.35937 32.4587C5.34526 32.465 5.32644 32.4587 5.31703 32.4446C5.30762 32.4305 5.31389 32.4101 5.32644 32.3992C5.37819 32.3584 5.4315 32.3192 5.48639 32.28C5.62124 32.1796 5.76081 32.084 5.90037 31.9914C6.86633 31.3501 7.77897 30.6319 8.63202 29.8431C9.34238 29.1829 9.95708 28.4286 10.462 27.6006C10.9356 26.8228 11.2884 25.976 11.5079 25.0916C11.7463 24.1303 11.8717 23.144 11.8796 22.1529C11.8827 21.7954 11.8702 21.4378 11.8467 21.0787C11.8184 20.6365 11.7777 20.1943 11.7291 19.7536C11.682 19.3287 11.6287 18.9068 11.5644 18.485C11.5221 18.2027 11.4625 17.922 11.3856 17.646C11.3668 17.577 11.3543 17.5049 11.3464 17.4328C11.3464 17.4218 11.3527 17.4124 11.3621 17.4077C11.3731 17.403 11.3841 17.4061 11.3903 17.4155C11.4327 17.4735 11.4687 17.5347 11.4985 17.5974C13.0165 21.0238 14.4184 24.502 15.6964 28.024C15.7466 28.1573 15.6838 28.3047 15.5584 28.3612Z" stroke="#AB417F" stroke-width="0.162" stroke-linejoin="bevel"/>
<path fill-rule="evenodd" clip-rule="evenodd" d="M27.9466 15.7295C24.5218 14.4264 21.1472 12.9884 17.8385 11.414C17.8228 11.4077 17.8134 11.3904 17.8181 11.3748C17.8228 11.3591 17.8401 11.3465 17.8573 11.3481C17.9232 11.3591 17.9875 11.3669 18.0533 11.3779C18.2195 11.4045 18.3858 11.4343 18.5504 11.4673C19.6889 11.6978 20.8414 11.8358 22.0018 11.8781C22.9694 11.9142 23.94 11.817 24.8825 11.5865C25.7669 11.37 26.6137 11.0219 27.3946 10.5515C28.2429 10.0403 29.0286 9.43182 29.7342 8.73713C29.9898 8.48623 30.236 8.22592 30.4712 7.95463C30.7629 7.62061 31.0483 7.28032 31.3243 6.93376C31.5909 6.60132 31.8512 6.26416 32.1052 5.92231C32.2746 5.69179 32.4314 5.45186 32.5725 5.20253C32.607 5.1398 32.6493 5.08021 32.6964 5.02533C32.7042 5.01749 32.7136 5.01435 32.7246 5.01906C32.7356 5.02376 32.7403 5.03317 32.7403 5.04415C32.7293 5.11471 32.7121 5.18371 32.687 5.24957C31.34 8.74654 29.8706 12.1965 28.2837 15.5915C28.2241 15.7185 28.0767 15.7781 27.9466 15.7295Z" fill="#AB417F"/>
<path d="M27.9466 15.7291C24.5218 14.426 21.1472 12.988 17.8385 11.4136C17.8228 11.4073 17.8134 11.39 17.8181 11.3744C17.8228 11.3587 17.8401 11.3461 17.8573 11.3477C17.9232 11.3587 17.9875 11.3665 18.0533 11.3759C18.2195 11.4026 18.3858 11.4324 18.5504 11.4653C19.6889 11.6958 20.8414 11.8338 22.0018 11.8762C22.9694 11.9122 23.94 11.815 24.8825 11.5845C25.7669 11.3681 26.6137 11.0184 27.3946 10.5495C28.2429 10.0383 29.0286 9.42987 29.7342 8.73518C29.9898 8.48427 30.236 8.22396 30.4712 7.95267C30.7629 7.61866 31.0483 7.27837 31.3243 6.93181C31.5909 6.59936 31.8512 6.26221 32.1052 5.92036C32.2746 5.68984 32.4314 5.44991 32.5725 5.20058C32.607 5.13785 32.6493 5.07826 32.6964 5.02338C32.7042 5.01553 32.7136 5.0124 32.7246 5.0171C32.7356 5.02181 32.7403 5.03122 32.7403 5.04219C32.7293 5.11276 32.7121 5.18176 32.687 5.24762C31.34 8.74459 29.8706 12.1945 28.2837 15.5895C28.2241 15.7181 28.0767 15.7777 27.9466 15.7291Z" stroke="#AB417F" stroke-width="0.162" stroke-linejoin="bevel"/>
<path fill-rule="evenodd" clip-rule="evenodd" d="M45.6408 15.5586C44.1401 12.2153 42.7712 8.81243 41.5449 5.35937C41.5371 5.34526 41.5433 5.32644 41.5575 5.31703C41.5716 5.30762 41.592 5.31389 41.6029 5.32644C41.6437 5.37819 41.6829 5.4315 41.7237 5.48639C41.8225 5.62125 41.9181 5.76082 42.0107 5.90038C42.652 6.86636 43.3718 7.77902 44.159 8.63209C44.8176 9.34246 45.5734 9.95874 46.4014 10.4621C47.1792 10.9357 48.0259 11.2885 48.9104 11.5081C49.8732 11.748 50.8579 11.8719 51.849 11.8797C52.2065 11.8829 52.5656 11.8719 52.9232 11.8468C53.3669 11.8186 53.806 11.7794 54.2482 11.7292C54.6716 11.6821 55.095 11.6288 55.5168 11.5645C55.7991 11.5222 56.0782 11.4626 56.3558 11.3858C56.4232 11.3669 56.4953 11.3544 56.5675 11.3466C56.5769 11.3466 56.5878 11.3528 56.5925 11.3622C56.5972 11.3732 56.5941 11.3842 56.5863 11.3905C56.5298 11.4328 56.4687 11.4689 56.4044 11.4987C52.978 13.0166 49.5015 14.4186 45.978 15.6966C45.8431 15.7468 45.6989 15.684 45.6408 15.5586Z" fill="#AB417F"/>
<path d="M45.6408 15.5586C44.1401 12.2153 42.7712 8.81243 41.5449 5.35937C41.5371 5.34526 41.5433 5.32644 41.5575 5.31703C41.5716 5.30762 41.592 5.31389 41.6029 5.32644C41.6437 5.37819 41.6829 5.4315 41.7237 5.48639C41.8225 5.62125 41.9181 5.76082 42.0107 5.90038C42.652 6.86636 43.3718 7.77902 44.159 8.63209C44.8176 9.34246 45.5734 9.95874 46.4014 10.4621C47.1792 10.9357 48.0259 11.2885 48.9104 11.5081C49.8732 11.748 50.8579 11.8719 51.849 11.8797C52.2065 11.8829 52.5656 11.8703 52.9232 11.8468C53.3669 11.8186 53.806 11.7778 54.2482 11.7292C54.6716 11.6821 55.095 11.6288 55.5168 11.5645C55.7991 11.5222 56.0782 11.4626 56.3558 11.3858C56.4232 11.3669 56.4953 11.3544 56.5675 11.3466C56.5769 11.3466 56.5878 11.3528 56.5925 11.3622C56.5972 11.3732 56.5941 11.3842 56.5863 11.3905C56.5298 11.4328 56.4687 11.4689 56.4044 11.4987C52.978 13.0166 49.5015 14.4186 45.978 15.6966C45.8431 15.7468 45.6989 15.684 45.6408 15.5586Z" stroke="#AB417F" stroke-width="0.162" stroke-linejoin="bevel"/>
<path fill-rule="evenodd" clip-rule="evenodd" d="M58.2726 27.947C59.5741 24.5206 61.0121 21.1475 62.5865 17.8387C62.5943 17.8231 62.61 17.8136 62.6257 17.8184C62.6429 17.8231 62.6539 17.8403 62.6523 17.8576C62.6445 17.9234 62.6335 17.9877 62.6241 18.0536C62.599 18.2198 62.5692 18.386 62.5347 18.5507C62.3058 19.6876 62.1678 20.8433 62.1223 22.0022C62.0862 22.9697 62.185 23.9404 62.414 24.8829C62.6304 25.7689 62.9785 26.6141 63.4489 27.395C63.9601 28.2434 64.5686 29.029 65.2648 29.7347C65.5157 29.9903 65.776 30.2365 66.0457 30.4717C66.3797 30.7634 66.7216 31.0488 67.0666 31.3248C67.3974 31.5914 67.7362 31.8517 68.0796 32.1057C68.3085 32.2751 68.5484 32.4319 68.7978 32.573C68.8605 32.6075 68.9217 32.6499 68.9765 32.6969C68.9844 32.7048 68.9859 32.7157 68.9844 32.7252C68.9797 32.7361 68.9703 32.7408 68.9577 32.7408C68.8887 32.7299 68.8197 32.7126 68.7539 32.6875C65.257 31.3405 61.8071 29.8711 58.4122 28.2842C58.282 28.2246 58.2224 28.0772 58.2726 27.947Z" fill="#AB417F"/>
<path d="M58.2726 27.947C59.5741 24.5222 61.0121 21.1475 62.5865 17.8387C62.5943 17.8231 62.61 17.8136 62.6257 17.8184C62.6429 17.8231 62.6539 17.8403 62.6523 17.8576C62.6445 17.9234 62.6335 17.9877 62.6241 18.0536C62.599 18.2198 62.5692 18.386 62.5347 18.5507C62.3058 19.6892 62.1678 20.8433 62.1223 22.0022C62.0862 22.9697 62.185 23.9404 62.414 24.8829C62.6304 25.7673 62.9785 26.6141 63.4489 27.395C63.9601 28.2434 64.5686 29.029 65.2648 29.7347C65.5157 29.9903 65.776 30.2365 66.0457 30.4717C66.3797 30.7634 66.7216 31.0488 67.0666 31.3248C67.3974 31.5914 67.7362 31.8517 68.0796 32.1057C68.3085 32.2751 68.5484 32.4319 68.7978 32.573C68.8605 32.6075 68.9217 32.6499 68.9765 32.6969C68.9844 32.7048 68.9859 32.7157 68.9844 32.7252C68.9797 32.7361 68.9703 32.7408 68.9577 32.7408C68.8887 32.7299 68.8197 32.7126 68.7539 32.6875C65.257 31.3405 61.8071 29.8711 58.4122 28.2842C58.282 28.2246 58.2224 28.0772 58.2726 27.947Z" stroke="#AB417F" stroke-width="0.162" stroke-linejoin="bevel"/>
<path fill-rule="evenodd" clip-rule="evenodd" d="M58.4435 45.6406C61.7867 44.1399 65.1879 42.7709 68.6425 41.5446C68.6582 41.5368 68.6754 41.5446 68.6848 41.5572C68.6927 41.5713 68.6895 41.5917 68.6754 41.6042C68.6221 41.6434 68.5704 41.6826 68.5171 41.7234C68.3806 41.8222 68.2426 41.9179 68.1031 42.0104C67.1355 42.6518 66.2229 43.3715 65.3714 44.1587C64.6595 44.8174 64.0448 45.5732 63.5399 46.4012C63.0679 47.1806 62.715 48.0258 62.4955 48.9102C62.2571 49.8715 62.1317 50.8563 62.1223 51.8474C62.1191 52.2049 62.1301 52.564 62.1536 52.9215C62.1834 53.3653 62.2226 53.806 62.2713 54.2466C62.3183 54.67 62.3732 55.0934 62.4343 55.5153C62.4767 55.7975 62.5378 56.0782 62.6147 56.3542C62.6335 56.4216 62.646 56.4954 62.6523 56.5659C62.6539 56.5753 62.6476 56.5863 62.6382 56.591C62.6288 56.5957 62.6162 56.5926 62.61 56.5847C62.5676 56.5283 62.5316 56.4671 62.5033 56.4028C60.9838 52.9764 59.5835 49.4999 58.3039 45.9762C58.2537 45.8429 58.3165 45.6987 58.4435 45.6406Z" fill="#AB417F"/>
<path d="M58.4435 45.6406C61.7867 44.1399 65.1879 42.7709 68.6425 41.5446C68.6582 41.5368 68.6754 41.5446 68.6848 41.5572C68.6927 41.5713 68.6895 41.5917 68.6754 41.6042C68.6221 41.6434 68.5704 41.6826 68.5171 41.7234C68.3806 41.8222 68.2426 41.9179 68.1031 42.0104C67.1355 42.6518 66.2229 43.3715 65.3714 44.1587C64.6595 44.8174 64.0448 45.5732 63.5399 46.4012C63.0679 47.1806 62.715 48.0258 62.4955 48.9118C62.2571 49.8731 62.1317 50.8579 62.1223 51.8489C62.1191 52.2065 62.1301 52.5656 62.1536 52.9231C62.1834 53.3669 62.2226 53.806 62.2713 54.2482C62.3183 54.6716 62.3732 55.095 62.4343 55.5168C62.4767 55.7991 62.5378 56.0782 62.6147 56.3558C62.6335 56.4232 62.646 56.4953 62.6523 56.5675C62.6539 56.5769 62.6476 56.5879 62.6382 56.5926C62.6288 56.5973 62.6162 56.5941 62.61 56.5863C62.5676 56.5298 62.5316 56.4687 62.5033 56.4044C60.9838 52.978 59.5835 49.5014 58.3039 45.9778C58.2537 45.8429 58.3165 45.6987 58.4435 45.6406Z" stroke="#AB417F" stroke-width="0.162" stroke-linejoin="bevel"/>
<path fill-rule="evenodd" clip-rule="evenodd" d="M46.0547 58.2734C49.4795 59.575 52.8525 61.0145 56.1628 62.5874C56.1769 62.5952 56.1863 62.6109 56.1816 62.6282C56.1769 62.6438 56.1596 62.6548 56.144 62.6533C56.0781 62.6454 56.0122 62.6344 55.9464 62.625C55.7802 62.5999 55.6139 62.5701 55.4493 62.5356C54.3124 62.3067 53.1583 62.1687 51.9994 62.1248C51.0303 62.0887 50.0612 62.1875 49.1188 62.4165C48.2328 62.6329 47.386 62.981 46.6051 63.453C45.7568 63.9627 44.9727 64.5711 44.2655 65.2674C44.0099 65.5183 43.7637 65.7786 43.5285 66.0483C43.2352 66.3823 42.9514 66.7242 42.6739 67.0692C42.4073 67.4016 42.1485 67.7388 41.8945 68.0822C41.7236 68.3127 41.5683 68.5511 41.4256 68.8004C41.3911 68.8647 41.3504 68.9243 41.3033 68.9792C41.297 68.9886 41.2845 68.9901 41.2751 68.987C41.2657 68.9823 41.2594 68.9729 41.261 68.9603C41.2704 68.8913 41.2892 68.8223 41.3127 68.7565C42.6613 65.2579 44.1291 61.8096 45.7176 58.4146C45.7771 58.2813 45.9246 58.2217 46.0547 58.2734Z" fill="#AB417F"/>
<path d="M46.0547 58.2719C49.4795 59.5734 52.8525 61.013 56.1628 62.5858C56.1769 62.5937 56.1863 62.6094 56.1816 62.6266C56.1769 62.6423 56.1596 62.6533 56.144 62.6517C56.0781 62.6439 56.0122 62.6329 55.9464 62.6235C55.7802 62.5984 55.6139 62.5686 55.4493 62.5341C54.3124 62.3051 53.1583 62.1671 51.9994 62.1217C51.0303 62.0856 50.0612 62.1844 49.1188 62.4133C48.2328 62.6297 47.386 62.9779 46.6051 63.4499C45.7568 63.9595 44.9727 64.568 44.2655 65.2642C44.0099 65.5151 43.7637 65.7754 43.5285 66.0452C43.2352 66.3792 42.9514 66.721 42.6739 67.066C42.4073 67.3985 42.1485 67.7356 41.8945 68.079C41.7236 68.3096 41.5683 68.5479 41.4256 68.7973C41.3911 68.86 41.3504 68.9211 41.3033 68.976C41.297 68.9854 41.2845 68.987 41.2751 68.9839C41.2657 68.9792 41.2594 68.9698 41.261 68.9572C41.2704 68.8882 41.2892 68.8192 41.3127 68.7534C42.6613 65.2564 44.1291 61.8065 45.7176 58.4114C45.7771 58.2813 45.9246 58.2217 46.0547 58.2719Z" stroke="#AB417F" stroke-width="0.162" stroke-linejoin="bevel"/>
<path fill-rule="evenodd" clip-rule="evenodd" d="M28.3607 58.4428C29.863 61.7861 31.2288 65.1874 32.4582 68.642C32.4645 68.6577 32.4582 68.6749 32.4441 68.6844C32.43 68.6922 32.4096 68.6891 32.3986 68.6765C32.3578 68.6232 32.3186 68.5699 32.2794 68.5166C32.1791 68.3801 32.0834 68.2421 31.9909 68.1026C31.3495 67.135 30.6313 66.2208 29.8426 65.3709C29.1824 64.6589 28.4281 64.0442 27.6002 63.5393C26.8224 63.0673 25.9756 62.7144 25.0912 62.4949C24.1299 62.2565 23.1436 62.1311 22.1525 62.1232C21.795 62.1201 21.4375 62.1295 21.0784 62.1546C20.6362 62.186 20.194 62.2236 19.7533 62.2722C19.3284 62.3192 18.9066 62.3741 18.4847 62.4353C18.2025 62.4776 17.9218 62.5388 17.6458 62.6156C17.5768 62.6344 17.5047 62.647 17.4325 62.6533C17.4215 62.6548 17.4121 62.6486 17.4074 62.6391C17.4027 62.6297 17.4059 62.6172 17.4153 62.6109C17.4733 62.5686 17.5345 62.5325 17.5972 62.5043C21.0219 60.9848 24.5016 59.5844 28.0236 58.3048C28.1569 58.253 28.3043 58.3158 28.3607 58.4428Z" fill="#AB417F"/>
<path d="M28.3607 58.443C29.863 61.7863 31.2288 65.1876 32.4582 68.6422C32.4645 68.6579 32.4582 68.6752 32.4441 68.6846C32.43 68.6924 32.4096 68.6893 32.3986 68.6752C32.3578 68.6218 32.3186 68.5701 32.2794 68.5168C32.1791 68.3803 32.0834 68.2423 31.9909 68.1028C31.3495 67.1352 30.6313 66.2226 29.8426 65.3711C29.1824 64.6591 28.4281 64.0444 27.6002 63.5395C26.8224 63.0675 25.9756 62.7146 25.0912 62.4951C24.1299 62.2567 23.1436 62.1313 22.1525 62.1219C21.795 62.1187 21.4375 62.1297 21.0784 62.1532C20.6362 62.183 20.194 62.2222 19.7533 62.2708C19.3284 62.3179 18.9066 62.3728 18.4847 62.4339C18.2025 62.4763 17.9218 62.5374 17.6458 62.6143C17.5768 62.6331 17.5047 62.6456 17.4325 62.6519C17.4215 62.6535 17.4121 62.6472 17.4074 62.6378C17.4027 62.6284 17.4059 62.6158 17.4153 62.6096C17.4733 62.5672 17.5345 62.5312 17.5972 62.5029C21.0219 60.9834 24.5016 59.583 28.0236 58.3034C28.1569 58.2533 28.3043 58.316 28.3607 58.443Z" stroke="#AB417F" stroke-width="0.162" stroke-linejoin="bevel"/>
<path fill-rule="evenodd" clip-rule="evenodd" d="M15.7296 46.0543C14.4265 49.4792 12.9886 52.8522 11.4142 56.1626C11.4079 56.1767 11.3907 56.1861 11.375 56.1814C11.3593 56.1783 11.3467 56.161 11.3483 56.1438C11.3593 56.0779 11.3671 56.012 11.3765 55.9462C11.4032 55.78 11.433 55.6137 11.4659 55.4491C11.6964 54.3122 11.8344 53.158 11.8768 51.9992C11.9128 51.03 11.8156 50.0609 11.5851 49.1185C11.3687 48.2325 11.019 47.3857 10.5501 46.6047C10.0389 45.7564 9.43051 44.9723 8.73583 44.2651C8.48494 44.0095 8.22463 43.7633 7.95334 43.528C7.61934 43.2348 7.27906 42.951 6.9325 42.6734C6.60006 42.4068 6.26292 42.1481 5.92107 41.894C5.69056 41.7231 5.45063 41.5679 5.2013 41.4267C5.13858 41.3906 5.07899 41.3499 5.02411 41.3028C5.01627 41.2966 5.01313 41.284 5.01784 41.2746C5.02254 41.2652 5.03195 41.2589 5.04293 41.2605C5.11349 41.2715 5.18249 41.2887 5.24835 41.3122C8.74524 42.6608 12.1951 44.1286 15.5901 45.7172C15.7186 45.7768 15.7782 45.9242 15.7296 46.0543Z" fill="#AB417F"/>
<path d="M15.7296 46.0543C14.4265 49.4792 12.9886 52.8522 11.4142 56.1626C11.4079 56.1767 11.3907 56.1861 11.375 56.1814C11.3593 56.1783 11.3467 56.161 11.3483 56.1438C11.3593 56.0779 11.3671 56.012 11.3765 55.9462C11.4032 55.78 11.433 55.6137 11.4659 55.4491C11.6964 54.3122 11.8344 53.158 11.8768 51.9992C11.9128 51.03 11.8156 50.0609 11.5851 49.1185C11.3687 48.2325 11.019 47.3857 10.5501 46.6047C10.0389 45.7564 9.43051 44.9723 8.73583 44.2651C8.48494 44.0095 8.22463 43.7633 7.95334 43.528C7.61934 43.2348 7.27906 42.951 6.9325 42.6734C6.60006 42.4068 6.26292 42.1481 5.92107 41.894C5.69056 41.7231 5.45063 41.5679 5.2013 41.4267C5.13858 41.3906 5.07899 41.3499 5.02411 41.3028C5.01627 41.2966 5.01313 41.284 5.01784 41.2746C5.02254 41.2652 5.03195 41.2589 5.04293 41.2605C5.11349 41.2699 5.18249 41.2887 5.24835 41.3122C8.74524 42.6608 12.1951 44.1286 15.5901 45.7172C15.7186 45.7768 15.7782 45.9242 15.7296 46.0543Z" stroke="#AB417F" stroke-width="0.162" stroke-linejoin="bevel"/>
<path fill-rule="evenodd" clip-rule="evenodd" d="M8.03488 23.6456C8.03488 21.8376 6.56869 20.3713 4.75909 20.3713C2.95105 20.3713 1.48486 21.8376 1.48486 23.6456C1.48486 25.4553 2.95105 26.9215 4.75909 26.9215C6.56869 26.9215 8.03488 25.4553 8.03488 23.6456Z" fill="#AB417F"/>
<path d="M8.03488 23.6456C8.03488 21.8376 6.56869 20.3713 4.75909 20.3713C2.95105 20.3713 1.48486 21.8376 1.48486 23.6456C1.48486 25.4553 2.95105 26.9215 4.75909 26.9215C6.56869 26.9215 8.03488 25.4553 8.03488 23.6456Z" stroke="#AB417F" stroke-width="0.162" stroke-linejoin="bevel"/>
<path fill-rule="evenodd" clip-rule="evenodd" d="M26.9206 4.75915C26.9206 2.95108 25.4544 1.48486 23.6448 1.48486C21.8368 1.48486 20.3706 2.95108 20.3706 4.75915C20.3706 6.56879 21.8368 8.03501 23.6448 8.03501C25.4544 8.03501 26.9206 6.56879 26.9206 4.75915Z" fill="#AB417F"/>
<path d="M26.9206 4.75915C26.9206 2.95108 25.4544 1.48486 23.6448 1.48486C21.8368 1.48486 20.3706 2.95108 20.3706 4.75915C20.3706 6.56879 21.8368 8.03501 23.6448 8.03501C25.4544 8.03501 26.9206 6.56879 26.9206 4.75915Z" stroke="#AB417F" stroke-width="0.162" stroke-linejoin="bevel"/>
<path fill-rule="evenodd" clip-rule="evenodd" d="M53.632 4.75915C53.632 2.95108 52.1659 1.48486 50.3563 1.48486C48.5482 1.48486 47.082 2.95108 47.082 4.75915C47.082 6.56879 48.5482 8.03501 50.3563 8.03501C52.1659 8.03501 53.632 6.56879 53.632 4.75915Z" fill="#AB417F"/>
<path d="M53.632 4.75915C53.632 2.95108 52.1659 1.48486 50.3563 1.48486C48.5482 1.48486 47.082 2.95108 47.082 4.75915C47.082 6.56879 48.5482 8.03501 50.3563 8.03501C52.1659 8.03501 53.632 6.56879 53.632 4.75915Z" stroke="#AB417F" stroke-width="0.162" stroke-linejoin="bevel"/>
<path fill-rule="evenodd" clip-rule="evenodd" d="M72.5193 23.6456C72.5193 21.8376 71.0531 20.3713 69.2435 20.3713C67.4354 20.3713 65.9692 21.8376 65.9692 23.6456C65.9692 25.4553 67.4354 26.9215 69.2435 26.9215C71.0531 26.9215 72.5193 25.4553 72.5193 23.6456Z" fill="#AB417F"/>
<path d="M72.5193 23.6456C72.5193 21.8376 71.0531 20.3713 69.2435 20.3713C67.4354 20.3713 65.9692 21.8376 65.9692 23.6456C65.9692 25.4553 67.4354 26.9215 69.2435 26.9215C71.0531 26.9215 72.5193 25.4553 72.5193 23.6456Z" stroke="#AB417F" stroke-width="0.162" stroke-linejoin="bevel"/>
<path fill-rule="evenodd" clip-rule="evenodd" d="M72.5193 50.3558C72.5193 48.5478 71.0531 47.0815 69.2435 47.0815C67.4354 47.0815 65.9692 48.5478 65.9692 50.3558C65.9692 52.1655 67.4354 53.6317 69.2435 53.6317C71.0531 53.6317 72.5193 52.1655 72.5193 50.3558Z" fill="#AB417F"/>
<path d="M72.5193 50.3558C72.5193 48.5478 71.0531 47.0815 69.2435 47.0815C67.4354 47.0815 65.9692 48.5478 65.9692 50.3558C65.9692 52.1655 67.4354 53.6317 69.2435 53.6317C71.0531 53.6317 72.5193 52.1655 72.5193 50.3558Z" stroke="#AB417F" stroke-width="0.162" stroke-linejoin="bevel"/>
<path fill-rule="evenodd" clip-rule="evenodd" d="M53.632 69.2411C53.632 67.433 52.1659 65.9668 50.3563 65.9668C48.5482 65.9668 47.082 67.433 47.082 69.2411C47.082 71.0507 48.5482 72.5169 50.3563 72.5169C52.1659 72.5185 53.632 71.0507 53.632 69.2411Z" fill="#AB417F"/>
<path d="M53.632 69.2411C53.632 67.433 52.1659 65.9668 50.3563 65.9668C48.5482 65.9668 47.082 67.433 47.082 69.2411C47.082 71.0507 48.5482 72.5169 50.3563 72.5169C52.1659 72.5185 53.632 71.0523 53.632 69.2411Z" stroke="#AB417F" stroke-width="0.162" stroke-linejoin="bevel"/>
<path fill-rule="evenodd" clip-rule="evenodd" d="M26.9206 69.2411C26.9206 67.433 25.4544 65.9668 23.6448 65.9668C21.8368 65.9668 20.3706 67.433 20.3706 69.2411C20.3706 71.0507 21.8368 72.5169 23.6448 72.5169C25.4544 72.5185 26.9206 71.0507 26.9206 69.2411Z" fill="#AB417F"/>
<path d="M26.9206 69.2411C26.9206 67.433 25.4544 65.9668 23.6448 65.9668C21.8368 65.9668 20.3706 67.433 20.3706 69.2411C20.3706 71.0507 21.8368 72.5169 23.6448 72.5169C25.4544 72.5185 26.9206 71.0523 26.9206 69.2411Z" stroke="#AB417F" stroke-width="0.162" stroke-linejoin="bevel"/>
<path fill-rule="evenodd" clip-rule="evenodd" d="M8.03488 50.3558C8.03488 48.5478 6.56869 47.0815 4.75909 47.0815C2.95105 47.0815 1.48486 48.5478 1.48486 50.3558C1.48486 52.1655 2.95105 53.6317 4.75909 53.6317C6.56869 53.6317 8.03488 52.1655 8.03488 50.3558Z" fill="#AB417F"/>
<path d="M8.03488 50.3558C8.03488 48.5478 6.56869 47.0815 4.75909 47.0815C2.95105 47.0815 1.48486 48.5478 1.48486 50.3558C1.48486 52.1655 2.95105 53.6317 4.75909 53.6317C6.56869 53.6317 8.03488 52.1655 8.03488 50.3558Z" stroke="#AB417F" stroke-width="0.162" stroke-linejoin="bevel"/>
</svg>
