<svg width="251" height="74" viewBox="0 0 251 74" fill="none" xmlns="http://www.w3.org/2000/svg">
<path fill-rule="evenodd" clip-rule="evenodd" d="M36.2652 60.4345V73.0001H35.9191C35.8105 73.0001 35.7019 72.975 35.606 72.9295C35.4974 72.8778 35.3967 72.8072 35.3086 72.7241C35.222 72.641 35.1512 72.5437 35.0962 72.4371C35.0474 72.343 35.0222 72.238 35.0222 72.1329C35.0222 72.0843 35.0301 72.0372 35.0427 71.9902C35.0584 71.9337 35.0773 71.8773 35.1025 71.824C35.1276 71.7675 35.1575 71.7126 35.189 71.6593C35.2189 71.6107 35.2551 71.5668 35.2944 71.5244C35.3526 71.4617 35.4014 71.3943 35.4423 71.3206C35.4754 71.261 35.4943 71.1951 35.4974 71.1261C35.5037 71.0289 35.4974 70.9333 35.4817 70.8376C35.4439 70.6149 35.403 70.3922 35.3605 70.1711C35.2409 69.5486 35.0977 68.9307 34.9294 68.3192C34.7736 67.7546 34.5895 67.1979 34.3787 66.6507C34.1427 66.0406 33.8799 65.4432 33.592 64.8536C33.2159 64.0836 32.8225 63.3199 32.4166 62.5656C32.1113 61.9995 31.8155 61.4272 31.5292 60.8532C31.3482 60.4894 31.1893 60.1146 31.054 59.732C30.9407 59.4137 30.8526 59.0859 30.7944 58.7535C30.7251 58.3693 30.6795 57.9835 30.6512 57.5962C30.6181 57.0944 30.6197 56.5926 30.6575 56.0908C30.6937 55.636 30.7739 55.1844 30.8982 54.7453C31.0178 54.3172 31.1799 53.9016 31.3844 53.5064C31.5984 53.0909 31.8486 52.6941 32.1302 52.3225L32.7108 51.5541L32.6117 49.975L32.5629 49.0858C32.5566 48.9494 32.5582 48.8098 32.5676 48.6734C32.5739 48.6013 32.5897 48.5307 32.6164 48.4633C32.6337 48.4209 32.6746 48.3943 32.7218 48.3943C32.7706 48.3943 32.8194 48.4147 32.8524 48.4507C33.0601 48.6719 33.2647 48.8961 33.4708 49.1188C33.7115 49.3807 33.946 49.6457 34.1773 49.9154C34.4479 50.229 34.7138 50.5442 34.9766 50.861C35.2394 51.1777 35.5021 51.4945 35.7696 51.8081C35.9946 52.0747 36.2212 52.3413 36.4509 52.6063C36.6523 52.84 36.8537 53.0721 37.0551 53.3042C37.0724 53.323 37.0976 53.3339 37.1243 53.3339C37.1511 53.3339 37.1731 53.323 37.1904 53.3042C37.3918 53.0705 37.5948 52.8384 37.7962 52.6063C38.0244 52.3413 38.2525 52.0747 38.4775 51.8081C38.7419 51.4929 39.0062 51.1777 39.269 50.861C39.5333 50.5442 39.7992 50.2275 40.0683 49.9154C40.3011 49.6457 40.5372 49.3807 40.7763 49.1188C40.9793 48.8961 41.187 48.6719 41.3931 48.4507C41.4262 48.4147 41.4749 48.3943 41.5237 48.3943C41.5709 48.3943 41.6118 48.4225 41.6291 48.4633C41.6559 48.5307 41.6732 48.6013 41.6779 48.6734C41.6874 48.8098 41.6889 48.9494 41.6826 49.0858C41.6685 49.3822 41.6527 49.6786 41.6339 49.975L41.5347 51.5541L42.1169 52.3225C42.3986 52.6941 42.6472 53.0909 42.8611 53.5064C43.0641 53.9016 43.2278 54.3172 43.3473 54.7453C43.4716 55.1844 43.5503 55.6344 43.5865 56.0908C43.6258 56.5926 43.629 57.0944 43.5928 57.5962C43.5661 57.9851 43.5188 58.3693 43.4512 58.7535C43.3914 59.0859 43.3064 59.4137 43.1916 59.732C43.0563 60.1146 42.8958 60.4894 42.7164 60.8532C42.43 61.4287 42.1342 61.9995 41.829 62.5656C41.4214 63.3199 41.0297 64.0836 40.652 64.8536C40.3641 65.4416 40.1029 66.0406 39.8669 66.6507C39.6545 67.1964 39.4719 67.7531 39.3162 68.3192C39.1478 68.9307 39.003 69.5486 38.8835 70.1711C38.841 70.3922 38.8016 70.6149 38.7639 70.8376C38.7481 70.9333 38.7419 71.0289 38.7466 71.1261C38.7497 71.1936 38.7702 71.261 38.8016 71.3206C38.8441 71.3943 38.8929 71.4633 38.9511 71.5244C38.9889 71.5668 39.0235 71.6107 39.055 71.6593C39.088 71.7111 39.1179 71.7659 39.1415 71.824C39.1667 71.8773 39.1871 71.9337 39.2029 71.9902C39.217 72.0372 39.2218 72.0843 39.2218 72.1329C39.2218 72.238 39.1966 72.343 39.1494 72.4371C39.0943 72.5437 39.0235 72.641 38.9354 72.7241C38.8488 72.8072 38.7497 72.8778 38.6396 72.9295C38.5405 72.9766 38.4335 73.0001 38.3249 73.0001H37.9787V60.4345C38.8929 60.0158 39.387 59.0169 39.1667 58.0415C38.9448 57.0646 38.1251 56.3746 37.1212 56.3887C36.1158 56.4028 35.2567 57.1148 35.0616 58.098C34.8712 59.0796 35.3401 60.0409 36.2652 60.4345Z" fill="white"/>
<path d="M36.2652 60.4345V73.0001H35.9191C35.8105 73.0001 35.7019 72.975 35.606 72.9295C35.4974 72.8778 35.3967 72.8072 35.3086 72.7241C35.222 72.641 35.1512 72.5453 35.0962 72.4371C35.0474 72.343 35.0222 72.238 35.0222 72.1329C35.0222 72.0843 35.0301 72.0372 35.0427 71.9902C35.0584 71.9337 35.0773 71.8773 35.1025 71.824C35.1276 71.7675 35.1575 71.7126 35.189 71.6593C35.2189 71.6107 35.2551 71.5668 35.2944 71.5244C35.3526 71.4617 35.4014 71.3943 35.4423 71.3206C35.4754 71.261 35.4943 71.1951 35.4974 71.1261C35.5037 71.0289 35.4974 70.9333 35.4817 70.8376C35.4439 70.6149 35.403 70.3922 35.3605 70.1711C35.2409 69.5486 35.0977 68.9307 34.9294 68.3192C34.7736 67.7546 34.5895 67.1979 34.3787 66.6507C34.1427 66.0406 33.8799 65.4416 33.592 64.8536C33.2159 64.0836 32.8225 63.3215 32.4166 62.5656C32.1113 61.9995 31.8155 61.4272 31.5292 60.8532C31.3482 60.4894 31.1893 60.1146 31.054 59.732C30.9407 59.4137 30.8526 59.0859 30.7944 58.7535C30.7251 58.3693 30.6795 57.9835 30.6512 57.5962C30.6181 57.0944 30.6197 56.5926 30.6575 56.0908C30.6937 55.636 30.7739 55.1844 30.8982 54.7453C31.0178 54.3172 31.1799 53.9016 31.3844 53.5064C31.5984 53.0909 31.8486 52.6941 32.1302 52.3225L32.7108 51.5541L32.6117 49.975L32.5629 49.0858C32.5566 48.9494 32.5582 48.8098 32.5676 48.6734C32.5739 48.6013 32.5897 48.5307 32.6164 48.4633C32.6337 48.4209 32.6746 48.3943 32.7218 48.3943C32.7706 48.3943 32.8194 48.4147 32.8524 48.4507C33.0601 48.6719 33.2647 48.8961 33.4708 49.1188C33.7115 49.3807 33.946 49.6457 34.1773 49.9154C34.4479 50.229 34.7138 50.5442 34.9766 50.861C35.2394 51.1777 35.5021 51.4945 35.7696 51.8081C35.9946 52.0747 36.2212 52.3413 36.4509 52.6063C36.6523 52.84 36.8537 53.0721 37.0551 53.3042C37.0724 53.323 37.0976 53.3339 37.1243 53.3339C37.1511 53.3339 37.1731 53.3214 37.1904 53.3042C37.3918 53.0705 37.5948 52.8384 37.7962 52.6063C38.0244 52.3413 38.2525 52.0747 38.4775 51.8081C38.7419 51.4945 39.0062 51.1777 39.269 50.861C39.5333 50.5442 39.7992 50.2275 40.0683 49.9154C40.3011 49.6457 40.5372 49.3807 40.7763 49.1188C40.9793 48.8961 41.187 48.6719 41.3931 48.4507C41.4262 48.4147 41.4749 48.3943 41.5237 48.3943C41.5709 48.3943 41.6118 48.4225 41.6291 48.4633C41.6559 48.5307 41.6732 48.6013 41.6779 48.6734C41.6874 48.8098 41.6889 48.9494 41.6826 49.0858C41.6685 49.3822 41.6527 49.6786 41.6339 49.975L41.5347 51.5541L42.1169 52.3225C42.3986 52.6941 42.6472 53.0909 42.8611 53.5064C43.0641 53.9016 43.2278 54.3172 43.3473 54.7453C43.4716 55.1844 43.5503 55.6344 43.5865 56.0908C43.6258 56.5926 43.629 57.0944 43.5928 57.5962C43.5661 57.9851 43.5188 58.3693 43.4512 58.7535C43.3914 59.0859 43.3064 59.4137 43.1916 59.732C43.0563 60.1146 42.8958 60.4894 42.7164 60.8532C42.43 61.4287 42.1342 61.9995 41.829 62.5656C41.4214 63.3199 41.0297 64.0836 40.652 64.8536C40.3641 65.4416 40.1029 66.0406 39.8669 66.6507C39.6545 67.1964 39.4719 67.7531 39.3162 68.3192C39.1478 68.9307 39.003 69.5486 38.8835 70.1711C38.841 70.3922 38.8016 70.6149 38.7639 70.8376C38.7481 70.9333 38.7419 71.0289 38.7466 71.1261C38.7497 71.1936 38.7702 71.261 38.8016 71.3206C38.8441 71.3943 38.8929 71.4633 38.9511 71.5244C38.9889 71.5668 39.0235 71.6107 39.055 71.6593C39.088 71.7111 39.1179 71.7659 39.1415 71.824C39.1667 71.8773 39.1871 71.9337 39.2029 71.9902C39.217 72.0372 39.2218 72.0843 39.2218 72.1329C39.2218 72.238 39.1966 72.343 39.1494 72.4371C39.0943 72.5437 39.0235 72.641 38.9354 72.7241C38.8488 72.8088 38.7497 72.8778 38.6396 72.9295C38.5405 72.9766 38.4335 73.0001 38.3249 73.0001H37.9787V60.4345C38.8929 60.0158 39.387 59.0169 39.1667 58.04C38.9448 57.063 38.1251 56.373 37.1212 56.3887C36.1158 56.4012 35.2567 57.1148 35.0616 58.098C34.8712 59.0796 35.3401 60.0409 36.2652 60.4345Z" stroke="white" stroke-width="0.162" stroke-linejoin="bevel"/>
<path fill-rule="evenodd" clip-rule="evenodd" d="M36.2652 13.5671V1H35.9191C35.8105 1 35.7019 1.02509 35.606 1.07213C35.4974 1.12388 35.3967 1.19288 35.3086 1.27599C35.222 1.36067 35.1512 1.45633 35.0962 1.56296C35.0474 1.65705 35.0222 1.76212 35.0222 1.86719C35.0222 1.9158 35.0301 1.96441 35.0427 2.01145C35.0584 2.06791 35.0773 2.12279 35.1025 2.17768C35.1276 2.23413 35.1575 2.28902 35.189 2.34077C35.2189 2.38938 35.2551 2.43329 35.2944 2.47563C35.3526 2.53678 35.4014 2.60421 35.4423 2.67792C35.4754 2.73907 35.4943 2.80494 35.4974 2.87393C35.5037 2.96959 35.4974 3.06682 35.4817 3.16091C35.4439 3.38358 35.403 3.60626 35.3605 3.82737C35.2409 4.44992 35.0977 5.06934 34.9294 5.68092C34.7736 6.24545 34.5895 6.80057 34.3787 7.34786C34.1427 7.95787 33.8799 8.55847 33.592 9.14495C33.2159 9.91648 32.8225 10.6786 32.4166 11.4329C32.1113 11.999 31.8155 12.5698 31.5292 13.1469C31.3482 13.5107 31.1893 13.8839 31.054 14.2665C30.9407 14.5849 30.8526 14.9126 30.7944 15.245C30.7251 15.6277 30.6795 16.015 30.6512 16.4023C30.6181 16.9041 30.6197 17.4059 30.6575 17.9062C30.6937 18.3609 30.7739 18.811 30.8982 19.2517C31.0178 19.6798 31.1799 20.0938 31.3844 20.4889C31.5984 20.9045 31.8486 21.3012 32.1302 21.6744L32.7108 22.4413L32.6117 24.022L32.5629 24.9111C32.5566 25.0491 32.5582 25.1871 32.5676 25.3235C32.5739 25.3941 32.5897 25.4662 32.6164 25.5321C32.6337 25.576 32.6746 25.6026 32.7218 25.6026C32.7722 25.6026 32.8194 25.5823 32.8524 25.5462C33.0601 25.3251 33.2647 25.1008 33.4708 24.8766C33.7115 24.6147 33.946 24.3497 34.1773 24.08C34.4479 23.7663 34.7138 23.4527 34.9766 23.1344C35.2394 22.8176 35.5021 22.5024 35.7696 22.1888C35.9946 21.9206 36.2212 21.6556 36.4509 21.3906C36.6523 21.157 36.8537 20.9233 37.0551 20.6928C37.0724 20.6724 37.0976 20.663 37.1243 20.663C37.1495 20.663 37.1731 20.6724 37.1904 20.6928C37.3918 20.9249 37.5948 21.1585 37.7962 21.3906C38.0244 21.6556 38.2525 21.9206 38.4775 22.1888C38.7419 22.504 39.0062 22.8192 39.269 23.1344C39.5333 23.4527 39.7992 23.7679 40.0683 24.08C40.3011 24.3497 40.5372 24.6147 40.7763 24.8766C40.9793 25.1008 41.187 25.3251 41.3931 25.5462C41.4262 25.5823 41.4749 25.6026 41.5237 25.6026C41.5709 25.6026 41.6118 25.5744 41.6291 25.5321C41.6559 25.4647 41.6732 25.3941 41.6779 25.3235C41.6874 25.1855 41.6889 25.0475 41.6826 24.9111C41.6685 24.6147 41.6527 24.3183 41.6339 24.022L41.5347 22.4413L42.1169 21.6744C42.3986 21.3028 42.6472 20.9045 42.8611 20.4889C43.0641 20.0938 43.2278 19.6782 43.3473 19.2517C43.4716 18.811 43.5503 18.3609 43.5865 17.9062C43.6258 17.4059 43.629 16.9041 43.5928 16.4023C43.5661 16.0134 43.5188 15.6277 43.4512 15.245C43.3914 14.9126 43.3064 14.5849 43.1916 14.2665C43.0547 13.8839 42.8958 13.5107 42.7164 13.1469C42.43 12.5698 42.1342 11.999 41.829 11.4329C41.4214 10.6786 41.0297 9.91648 40.652 9.14495C40.3641 8.55847 40.1029 7.95787 39.8669 7.34786C39.6545 6.80214 39.4719 6.24545 39.3162 5.68092C39.1478 5.06934 39.003 4.45149 38.8835 3.82737C38.841 3.60626 38.8016 3.38358 38.7639 3.16091C38.7481 3.06682 38.7419 2.96959 38.7466 2.87393C38.7497 2.80494 38.7702 2.73907 38.8016 2.67792C38.8441 2.60421 38.8929 2.53678 38.9511 2.47563C38.9889 2.43329 39.0235 2.38938 39.055 2.34077C39.088 2.28902 39.1179 2.23413 39.1415 2.17768C39.1667 2.12279 39.1871 2.06791 39.2029 2.01145C39.217 1.96441 39.2218 1.9158 39.2218 1.86719C39.2218 1.76212 39.1966 1.65705 39.1494 1.56296C39.0943 1.45633 39.0235 1.36067 38.9354 1.27599C38.8488 1.19288 38.7497 1.12388 38.6396 1.07213C38.5405 1.02352 38.4335 1 38.3249 1H37.9787V13.5671C38.8992 13.9576 39.4184 14.9345 39.2265 15.9115C39.0345 16.8885 38.1203 17.5988 37.1212 17.6129C36.1221 17.6271 35.2488 16.9433 35.0269 15.9727C34.8098 15.002 35.3574 13.9827 36.2652 13.5671Z" fill="white"/>
<path d="M36.2652 13.5671V1H35.9191C35.8105 1 35.7019 1.02509 35.606 1.07213C35.4974 1.12388 35.3967 1.19288 35.3086 1.27599C35.222 1.36067 35.1512 1.45633 35.0962 1.56296C35.0474 1.65705 35.0222 1.76212 35.0222 1.86719C35.0222 1.9158 35.0301 1.96441 35.0427 2.00989C35.0584 2.06634 35.0773 2.12122 35.1025 2.17611C35.1276 2.23256 35.1575 2.28745 35.189 2.3392C35.2189 2.38781 35.2551 2.43172 35.2944 2.47406C35.3526 2.53522 35.4014 2.60265 35.4423 2.67635C35.4754 2.73751 35.4943 2.80337 35.4974 2.87237C35.5037 2.96802 35.4974 3.06525 35.4817 3.15934C35.4439 3.38201 35.403 3.60469 35.3605 3.8258C35.2409 4.44835 35.0977 5.06777 34.9294 5.67935C34.7736 6.24231 34.5895 6.79901 34.3787 7.34629C34.1427 7.9563 33.8799 8.5569 33.592 9.14338C33.2159 9.91491 32.8225 10.677 32.4166 11.4313C32.1113 11.9974 31.8155 12.5682 31.5292 13.1453C31.3482 13.5091 31.1893 13.8823 31.054 14.265C30.9407 14.5833 30.8526 14.911 30.7944 15.2435C30.7251 15.6261 30.6795 16.0134 30.6512 16.4008C30.6181 16.9026 30.6197 17.4044 30.6575 17.9046C30.6937 18.3594 30.7739 18.8094 30.8982 19.2501C31.0178 19.6782 31.1799 20.0922 31.3844 20.4874C31.5984 20.9029 31.8486 21.2997 32.1302 21.6729L32.7108 22.4397L32.6117 24.0204L32.5629 24.9095C32.5566 25.0475 32.5582 25.1855 32.5676 25.322C32.5739 25.3925 32.5897 25.4647 32.6164 25.5305C32.6337 25.5744 32.6746 25.6011 32.7218 25.6011C32.7722 25.6011 32.8194 25.5807 32.8524 25.5446C33.0601 25.3235 33.2647 25.0993 33.4708 24.875C33.7115 24.6131 33.946 24.3481 34.1773 24.0784C34.4479 23.7664 34.7138 23.4512 34.9766 23.1328C35.2394 22.8161 35.5021 22.5009 35.7696 22.1872C35.9946 21.9191 36.2212 21.6541 36.4509 21.389C36.6523 21.1554 36.8537 20.9217 37.0551 20.6912C37.0724 20.6708 37.0976 20.6614 37.1243 20.6614C37.1495 20.6614 37.1731 20.6708 37.1904 20.6912C37.3918 20.9233 37.5948 21.157 37.7962 21.389C38.0244 21.6541 38.2525 21.9191 38.4775 22.1872C38.7419 22.5024 39.0062 22.8176 39.269 23.1328C39.5333 23.4512 39.7992 23.7664 40.0683 24.0784C40.3011 24.3481 40.5372 24.6131 40.7763 24.875C40.9793 25.0993 41.187 25.3235 41.3931 25.5446C41.4262 25.5807 41.4749 25.6011 41.5237 25.6011C41.5709 25.6011 41.6118 25.5729 41.6291 25.5305C41.6559 25.4647 41.6732 25.3925 41.6779 25.322C41.6874 25.184 41.6889 25.046 41.6826 24.9095C41.6685 24.6132 41.6527 24.3168 41.6339 24.0204L41.5347 22.4397L42.1169 21.6729C42.3986 21.3012 42.6472 20.9029 42.8611 20.4874C43.0641 20.0922 43.2278 19.6766 43.3473 19.2501C43.4716 18.8094 43.5503 18.3594 43.5865 17.9046C43.6258 17.4044 43.629 16.9026 43.5928 16.4008C43.5661 16.0119 43.5188 15.6261 43.4512 15.2435C43.3914 14.911 43.3064 14.5833 43.1916 14.265C43.0547 13.8823 42.8958 13.5075 42.7164 13.1453C42.43 12.5682 42.1342 11.9974 41.829 11.4313C41.4214 10.677 41.0297 9.91491 40.652 9.14338C40.3641 8.5569 40.1029 7.9563 39.8669 7.34629C39.6545 6.80057 39.4719 6.24388 39.3162 5.67935C39.1478 5.06777 39.003 4.44992 38.8835 3.8258C38.841 3.60469 38.8016 3.38201 38.7639 3.15934C38.7481 3.06525 38.7419 2.96802 38.7466 2.87237C38.7497 2.80337 38.7702 2.73751 38.8016 2.67635C38.8441 2.60265 38.8929 2.53365 38.9511 2.47406C38.9889 2.43172 39.0235 2.38781 39.055 2.3392C39.088 2.28745 39.1179 2.23256 39.1415 2.17611C39.1667 2.12122 39.1871 2.06634 39.2029 2.00989C39.217 1.96284 39.2218 1.91423 39.2218 1.86719C39.2218 1.76212 39.1966 1.65705 39.1494 1.56296C39.0943 1.4579 39.0235 1.36067 38.9354 1.27599C38.8488 1.19131 38.7497 1.12388 38.6396 1.07213C38.5405 1.02352 38.4335 1 38.3249 1H37.9787V13.5671C38.8992 13.9576 39.4184 14.9345 39.2265 15.9115C39.0345 16.8885 38.1203 17.5988 37.1212 17.6129C36.1221 17.6271 35.2488 16.9433 35.0269 15.9727C34.8098 15.002 35.3574 13.9827 36.2652 13.5671Z" stroke="white" stroke-width="0.162" stroke-linejoin="bevel"/>
<path fill-rule="evenodd" clip-rule="evenodd" d="M60.6371 37.8562H73.2452V38.2012C73.2452 38.3079 73.22 38.4161 73.1744 38.5149C73.1224 38.6231 73.0516 38.7234 72.9682 38.8097C72.8848 38.8959 72.7889 38.9681 72.6803 39.0229C72.5859 39.0715 72.4805 39.0951 72.375 39.0951C72.3263 39.0951 72.2791 39.0888 72.2319 39.0763C72.1752 39.0606 72.1186 39.0402 72.0651 39.0151C72.0084 38.99 71.9534 38.9618 71.8999 38.9273C71.8511 38.8975 71.8055 38.8614 71.7645 38.8238C71.7016 38.7658 71.634 38.7171 71.56 38.6748C71.5002 38.6434 71.4341 38.6231 71.3633 38.6199C71.2673 38.6152 71.1714 38.6215 71.0754 38.6372C70.8519 38.6748 70.6285 38.714 70.4067 38.7564C69.782 38.8771 69.1621 39.0198 68.5484 39.1876C67.982 39.3428 67.4234 39.5247 66.8743 39.7364C66.2622 39.9717 65.6611 40.232 65.0711 40.5189C64.2985 40.8937 63.5338 41.2858 62.7754 41.6919C62.2074 41.9961 61.6331 42.291 61.0572 42.5764C60.6922 42.7567 60.3161 42.9151 59.9322 43.0499C59.6128 43.1628 59.2839 43.2491 58.9504 43.3087C58.5649 43.3761 58.1778 43.4247 57.7892 43.4514C57.2857 43.4859 56.7822 43.4827 56.2786 43.4435C55.8223 43.409 55.3692 43.3291 54.9286 43.2052C54.4991 43.0844 54.0821 42.9229 53.6856 42.7206C53.2686 42.5074 52.8706 42.2596 52.4961 41.9789L51.7267 41.3987L50.1406 41.4975L49.25 41.5461C49.1116 41.5524 48.9731 41.5524 48.8362 41.5414C48.7638 41.5367 48.693 41.5194 48.6254 41.4928C48.5829 41.4755 48.5562 41.4332 48.5562 41.3877C48.5562 41.3391 48.5766 41.2905 48.6128 41.2575C48.8347 41.0521 49.0581 40.8467 49.2831 40.6428C49.5459 40.4045 49.8118 40.1693 50.0824 39.9372C50.3971 39.669 50.7134 39.404 51.0312 39.1405C51.349 38.8802 51.6669 38.6168 51.9816 38.3518C52.249 38.1275 52.5165 37.9017 52.7824 37.6728C53.0153 37.472 53.2498 37.2697 53.4826 37.069C53.5015 37.0518 53.5125 37.0283 53.5125 37.0032C53.5125 36.9765 53.4999 36.953 53.4826 36.9342C53.2482 36.7334 53.0137 36.5312 52.7824 36.332C52.5165 36.103 52.249 35.8772 51.9816 35.653C51.6669 35.388 51.349 35.1261 51.0312 34.8626C50.7134 34.6008 50.3955 34.3357 50.0824 34.066C49.8118 33.8355 49.5459 33.6003 49.2831 33.3619C49.0581 33.1581 48.8347 32.9542 48.6128 32.7472C48.5766 32.7127 48.5562 32.6657 48.5562 32.6155C48.5562 32.5684 48.5845 32.5277 48.6254 32.5104C48.693 32.4822 48.7638 32.4665 48.8362 32.4618C48.9731 32.4524 49.1116 32.4508 49.25 32.4571C49.5474 32.4712 49.8448 32.4869 50.1406 32.5057L51.7267 32.6045L52.4961 32.0259C52.8706 31.7452 53.2686 31.4958 53.6856 31.2826C54.0821 31.0803 54.4975 30.9172 54.9286 30.798C55.3692 30.6741 55.8208 30.5957 56.2786 30.5597C56.7822 30.5204 57.2857 30.5189 57.7892 30.5518C58.1794 30.58 58.5649 30.6255 58.9504 30.6945C59.2839 30.7541 59.6128 30.8403 59.9322 30.9533C60.3161 31.0881 60.6922 31.2465 61.0572 31.4268C61.6347 31.7122 62.2074 32.007 62.7754 32.3113C63.5323 32.7159 64.2985 33.1063 65.0711 33.4827C65.6611 33.7696 66.2622 34.0315 66.8743 34.2667C67.4218 34.4769 67.9804 34.6604 68.5484 34.8156C69.1621 34.9834 69.782 35.1277 70.4067 35.2453C70.6285 35.2876 70.8519 35.3284 71.0754 35.366C71.1714 35.3817 71.2673 35.388 71.3633 35.3817C71.4326 35.3786 71.5002 35.3597 71.56 35.3268C71.634 35.286 71.7032 35.2374 71.7645 35.1794C71.8055 35.1402 71.8511 35.1057 71.8999 35.0743C71.9518 35.043 72.0069 35.0132 72.0651 34.9881C72.1186 34.9646 72.1752 34.9442 72.2319 34.9285C72.2791 34.916 72.3263 34.9081 72.375 34.9081C72.4805 34.9081 72.5859 34.9348 72.6803 34.9818C72.7873 35.0367 72.8848 35.1073 72.9682 35.1935C73.0532 35.2798 73.1224 35.3801 73.1744 35.4899C73.2216 35.5871 73.2452 35.6938 73.2452 35.802V36.1454H60.6371C60.217 35.2359 59.2147 34.7435 58.2344 34.963C57.2542 35.1825 56.5619 36.0011 56.5776 37.0016C56.5902 38.0021 57.3061 38.8583 58.2927 39.0512C59.2776 39.2456 60.2422 38.7783 60.6371 37.8562Z" fill="white"/>
<path d="M60.6371 37.8562H73.2452V38.2012C73.2452 38.3079 73.22 38.4161 73.1744 38.5149C73.1224 38.6231 73.0516 38.7234 72.9682 38.8097C72.8848 38.8959 72.7889 38.9681 72.6803 39.0229C72.5859 39.0716 72.4805 39.0951 72.375 39.0951C72.3263 39.0951 72.2791 39.0888 72.2319 39.0763C72.1752 39.0606 72.1186 39.0402 72.0651 39.0151C72.0084 38.99 71.9534 38.9618 71.8999 38.9289C71.8511 38.8991 71.8055 38.863 71.7645 38.8254C71.7016 38.7673 71.634 38.7187 71.56 38.6764C71.5002 38.645 71.4341 38.6246 71.3633 38.6215C71.2673 38.6168 71.1714 38.6231 71.0754 38.6388C70.8519 38.6764 70.6285 38.7156 70.4067 38.7579C69.782 38.8787 69.1621 39.0214 68.5484 39.1892C67.982 39.3444 67.4234 39.5263 66.8743 39.738C66.2622 39.9717 65.6611 40.2336 65.0711 40.5205C64.2985 40.8953 63.5338 41.2873 62.7754 41.6935C62.2074 41.9977 61.6331 42.2925 61.0572 42.5779C60.6922 42.7567 60.3161 42.9167 59.9322 43.0515C59.6128 43.1644 59.2839 43.2507 58.9504 43.3103C58.5649 43.3777 58.1778 43.4263 57.7892 43.4514C57.2857 43.4859 56.7822 43.4828 56.2786 43.4451C55.8223 43.4106 55.3692 43.3306 54.9286 43.2068C54.4991 43.086 54.0821 42.9245 53.6856 42.7222C53.2686 42.5089 52.8706 42.2612 52.4961 41.9805L51.7267 41.4003L50.1406 41.4991L49.25 41.5477C49.1116 41.5539 48.9731 41.5539 48.8362 41.543C48.7638 41.5383 48.693 41.521 48.6254 41.4943C48.5829 41.4771 48.5562 41.4348 48.5562 41.3893C48.5562 41.3407 48.5766 41.2921 48.6128 41.2591C48.8347 41.0537 49.0581 40.8483 49.2831 40.6444C49.5459 40.4061 49.8118 40.1708 50.0824 39.9387C50.3971 39.6706 50.7134 39.4056 51.0312 39.1421C51.349 38.8818 51.6669 38.6184 51.9816 38.3533C52.249 38.1291 52.5165 37.9033 52.7824 37.6743C53.0153 37.4736 53.2498 37.2713 53.4826 37.0706C53.5015 37.0534 53.5125 37.0298 53.5125 37.0047C53.5125 36.9781 53.4999 36.9546 53.4826 36.9357C53.2482 36.735 53.0137 36.5327 52.7824 36.3336C52.5165 36.1046 52.249 35.8788 51.9816 35.6546C51.6669 35.3896 51.349 35.1277 51.0312 34.8642C50.7134 34.6023 50.3955 34.3373 50.0824 34.0676C49.8118 33.8371 49.5459 33.6019 49.2831 33.3635C49.0581 33.1596 48.8347 32.9558 48.6128 32.7488C48.5766 32.7143 48.5562 32.6673 48.5562 32.6171C48.5562 32.57 48.5845 32.5293 48.6254 32.512C48.693 32.4838 48.7638 32.4681 48.8362 32.4634C48.9731 32.4556 49.1116 32.454 49.25 32.4587C49.5474 32.4728 49.8448 32.4885 50.1406 32.5073L51.7267 32.6061L52.4961 32.0274C52.8706 31.7467 53.2686 31.4974 53.6856 31.2841C54.0821 31.0819 54.4975 30.9188 54.9286 30.7996C55.3692 30.6757 55.8208 30.5973 56.2786 30.5597C56.7822 30.5205 57.2857 30.5189 57.7892 30.5534C58.1794 30.5816 58.5649 30.6271 58.9504 30.6961C59.2839 30.7557 59.6128 30.8419 59.9322 30.9548C60.3161 31.0897 60.6922 31.2481 61.0572 31.4284C61.6347 31.7138 62.2074 32.0086 62.7754 32.3128C63.5323 32.7174 64.2985 33.1079 65.0711 33.4843C65.6611 33.7712 66.2622 34.0331 66.8743 34.2683C67.4218 34.4785 67.9804 34.6619 68.5484 34.8172C69.1621 34.985 69.782 35.1292 70.4067 35.2469C70.6285 35.2892 70.8519 35.33 71.0754 35.3676C71.1714 35.3833 71.2673 35.3896 71.3633 35.3833C71.4325 35.3801 71.5002 35.3613 71.56 35.3284C71.634 35.2876 71.7032 35.239 71.7645 35.181C71.8055 35.1418 71.8511 35.1073 71.8999 35.0759C71.9518 35.0446 72.0069 35.0148 72.0651 34.9897C72.1186 34.9662 72.1752 34.9458 72.2319 34.9301C72.2791 34.9175 72.3263 34.9097 72.375 34.9097C72.4805 34.9097 72.5859 34.9364 72.6803 34.9834C72.7873 35.0383 72.8848 35.1089 72.9682 35.1951C73.0532 35.2814 73.1224 35.3817 73.1744 35.4915C73.2216 35.5887 73.2452 35.6953 73.2452 35.8035V36.147H60.6371C60.217 35.2374 59.2147 34.745 58.2344 34.9646C57.2542 35.1841 56.5619 36.0011 56.5776 37.0032C56.5902 38.0037 57.3061 38.8599 58.2927 39.0527C59.2776 39.2456 60.2422 38.7783 60.6371 37.8562Z" stroke="white" stroke-width="0.162" stroke-linejoin="bevel"/>
<path fill-rule="evenodd" clip-rule="evenodd" d="M13.6096 37.8562H1V38.2012C1 38.3079 1.02518 38.4161 1.07238 38.5149C1.1243 38.6231 1.19353 38.7234 1.27693 38.8097C1.36189 38.8959 1.45787 38.9681 1.56487 39.0229C1.65928 39.0715 1.7647 39.0951 1.87012 39.0951C1.9189 39.0951 1.9661 39.0888 2.0133 39.0763C2.06995 39.0606 2.12502 39.0402 2.18009 39.0151C2.23673 38.99 2.2918 38.9618 2.34373 38.9273C2.3925 38.8975 2.43656 38.8614 2.47904 38.8238C2.54041 38.7658 2.60807 38.7171 2.68202 38.6748C2.74338 38.6434 2.80947 38.6231 2.8787 38.6199C2.97468 38.6152 3.07223 38.6215 3.16664 38.6372C3.39007 38.6748 3.6135 38.714 3.83536 38.7564C4.46002 38.8771 5.08153 39.0198 5.69518 39.1876C6.26004 39.3428 6.81862 39.5247 7.36775 39.7364C7.97983 39.9717 8.58246 40.232 9.17093 40.5189C9.94507 40.8937 10.7098 41.2858 11.4666 41.6919C12.0346 41.9961 12.6073 42.291 13.1864 42.5764C13.5514 42.7567 13.9259 42.9151 14.3098 43.0499C14.6292 43.1628 14.9581 43.2491 15.2917 43.3087C15.6756 43.3761 16.0642 43.4247 16.4529 43.4514C16.9564 43.4859 17.4599 43.4827 17.9618 43.4435C18.4181 43.409 18.8697 43.3291 19.3118 43.2052C19.7414 43.0844 20.1568 42.9229 20.5533 42.7206C20.9702 42.5074 21.3683 42.2596 21.7428 41.9789L22.5122 41.3987L24.0983 41.4975L24.9904 41.5461C25.1289 41.5524 25.2673 41.5524 25.4042 41.5414C25.475 41.5367 25.5474 41.5194 25.6135 41.4928C25.6575 41.4755 25.6843 41.4332 25.6843 41.3877C25.6843 41.3391 25.6638 41.2905 25.6276 41.2575C25.4058 41.0521 25.1808 40.8467 24.9558 40.6428C24.693 40.4045 24.4271 40.1693 24.1565 39.9372C23.8434 39.669 23.5271 39.404 23.2077 39.1405C22.8898 38.8802 22.5736 38.6168 22.2589 38.3518C21.9898 38.1275 21.7223 37.9017 21.458 37.6728C21.2236 37.472 20.9891 37.2697 20.7578 37.069C20.7374 37.0518 20.7279 37.0283 20.7279 37.0032C20.7279 36.9765 20.7374 36.953 20.7578 36.9342C20.9907 36.7334 21.2251 36.5312 21.458 36.332C21.7223 36.103 21.9898 35.8772 22.2589 35.653C22.5752 35.388 22.8914 35.1261 23.2077 34.8626C23.5271 34.6008 23.8434 34.3357 24.1565 34.066C24.4271 33.8355 24.693 33.6003 24.9558 33.3619C25.1808 33.1581 25.4058 32.9542 25.6276 32.7472C25.6638 32.7127 25.6843 32.6657 25.6843 32.6155C25.6843 32.5684 25.656 32.5277 25.6135 32.5104C25.5474 32.4822 25.475 32.4665 25.4042 32.4618C25.2658 32.4524 25.1273 32.4508 24.9904 32.4571C24.693 32.4712 24.3956 32.4869 24.0983 32.5057L22.5122 32.6045L21.7428 32.0259C21.3699 31.7452 20.9702 31.4958 20.5533 31.2826C20.1568 31.0803 19.7398 30.9172 19.3118 30.798C18.8697 30.6741 18.4181 30.5957 17.9618 30.5597C17.4599 30.5204 16.9564 30.5189 16.4529 30.5518C16.0626 30.58 15.6756 30.6255 15.2917 30.6945C14.9581 30.7541 14.6292 30.8403 14.3098 30.9533C13.9259 31.0881 13.5498 31.2465 13.1864 31.4268C12.6073 31.7122 12.0346 32.007 11.4666 32.3113C10.7098 32.7159 9.94507 33.1063 9.17093 33.4827C8.58246 33.7696 7.97983 34.0315 7.36775 34.2667C6.82019 34.4769 6.26162 34.6604 5.69518 34.8156C5.08153 34.9834 4.46159 35.1277 3.83536 35.2453C3.6135 35.2876 3.39007 35.3284 3.16664 35.366C3.07223 35.3817 2.97468 35.388 2.8787 35.3817C2.80947 35.3786 2.74338 35.3597 2.68202 35.3268C2.60807 35.286 2.53883 35.2374 2.47904 35.1794C2.43656 35.1402 2.3925 35.1057 2.34373 35.0743C2.2918 35.043 2.23673 35.0132 2.18009 34.9881C2.12502 34.9646 2.06995 34.9442 2.0133 34.9285C1.9661 34.916 1.91732 34.9081 1.87012 34.9081C1.7647 34.9081 1.65928 34.9348 1.56487 34.9818C1.45945 35.0367 1.36189 35.1073 1.27693 35.1935C1.19196 35.2798 1.1243 35.3801 1.07238 35.4899C1.0236 35.5871 1 35.6938 1 35.802V36.1454H13.6096C14.0014 35.2296 14.9817 34.7105 15.9619 34.9018C16.9422 35.0947 17.655 36.0058 17.6691 37.0016C17.6833 37.9974 16.9973 38.8661 16.0233 39.0872C15.0493 39.3068 14.0266 38.7611 13.6096 37.8562Z" fill="white"/>
<path d="M13.6096 37.8562H1V38.2012C1 38.3079 1.02518 38.4161 1.07238 38.5149C1.1243 38.6231 1.19353 38.7234 1.27693 38.8097C1.36189 38.8959 1.45787 38.9681 1.56487 39.0229C1.65928 39.0716 1.7647 39.0951 1.87012 39.0951C1.9189 39.0951 1.9661 39.0888 2.0133 39.0763C2.06995 39.0606 2.12502 39.0402 2.18009 39.0151C2.23673 38.99 2.2918 38.9618 2.34373 38.9289C2.3925 38.8991 2.43656 38.863 2.47904 38.8254C2.54041 38.7673 2.60807 38.7187 2.68202 38.6764C2.74338 38.645 2.80947 38.6246 2.8787 38.6215C2.97468 38.6168 3.07223 38.6231 3.16664 38.6388C3.39007 38.6764 3.6135 38.7156 3.83536 38.7579C4.46002 38.8787 5.08153 39.0214 5.69518 39.1892C6.26004 39.3444 6.81862 39.5263 7.36775 39.738C7.97983 39.9717 8.58246 40.2336 9.17093 40.5205C9.94507 40.8953 10.7098 41.2873 11.4666 41.6935C12.0346 41.9977 12.6073 42.2925 13.1864 42.5779C13.5514 42.7567 13.9259 42.9167 14.3098 43.0515C14.6292 43.1644 14.9581 43.2507 15.2917 43.3103C15.6756 43.3777 16.0642 43.4263 16.4529 43.4514C16.9564 43.4859 17.4599 43.4828 17.9618 43.4451C18.4181 43.4106 18.8697 43.3306 19.3118 43.2068C19.7414 43.086 20.1568 42.9245 20.5533 42.7222C20.9702 42.5089 21.3683 42.2612 21.7428 41.9805L22.5122 41.4003L24.0983 41.4991L24.9904 41.5477C25.1289 41.5539 25.2673 41.5539 25.4042 41.543C25.475 41.5383 25.5474 41.521 25.6135 41.4943C25.6575 41.4771 25.6843 41.4348 25.6843 41.3893C25.6843 41.3407 25.6638 41.2921 25.6276 41.2591C25.4058 41.0537 25.1808 40.8483 24.9558 40.6444C24.693 40.4061 24.4271 40.1708 24.1565 39.9387C23.8434 39.6706 23.5271 39.4056 23.2077 39.1421C22.8898 38.8818 22.5736 38.6184 22.2589 38.3533C21.9898 38.1291 21.7223 37.9033 21.458 37.6743C21.2236 37.4736 20.9891 37.2713 20.7578 37.0706C20.7374 37.0534 20.7279 37.0298 20.7279 37.0047C20.7279 36.9781 20.7374 36.9546 20.7578 36.9357C20.9907 36.735 21.2251 36.5327 21.458 36.3336C21.7223 36.1046 21.9898 35.8788 22.2589 35.6546C22.5752 35.3896 22.8914 35.1277 23.2077 34.8642C23.5271 34.6023 23.8434 34.3373 24.1565 34.0676C24.4271 33.8371 24.693 33.6019 24.9558 33.3635C25.1808 33.1596 25.4058 32.9558 25.6276 32.7488C25.6638 32.7143 25.6843 32.6673 25.6843 32.6171C25.6843 32.57 25.656 32.5293 25.6135 32.512C25.5474 32.4838 25.475 32.4681 25.4042 32.4634C25.2658 32.4556 25.1273 32.454 24.9904 32.4587C24.693 32.4728 24.3956 32.4885 24.0983 32.5073L22.5122 32.6061L21.7428 32.0274C21.3699 31.7467 20.9702 31.4974 20.5533 31.2841C20.1568 31.0819 19.7398 30.9188 19.3118 30.7996C18.8697 30.6757 18.4181 30.5973 17.9618 30.5597C17.4599 30.5205 16.9564 30.5189 16.4529 30.5534C16.0626 30.5816 15.6756 30.6271 15.2917 30.6961C14.9581 30.7557 14.6292 30.8419 14.3098 30.9548C13.9259 31.0897 13.5498 31.2481 13.1864 31.4284C12.6073 31.7138 12.0346 32.0086 11.4666 32.3128C10.7098 32.7174 9.94507 33.1079 9.17093 33.4843C8.58246 33.7712 7.97983 34.0331 7.36775 34.2683C6.82019 34.4785 6.26162 34.6619 5.69518 34.8172C5.08153 34.985 4.46159 35.1292 3.83536 35.2469C3.6135 35.2892 3.39007 35.33 3.16664 35.3676C3.07223 35.3833 2.97468 35.3896 2.8787 35.3833C2.80947 35.3801 2.74338 35.3613 2.68202 35.3284C2.60807 35.2876 2.53883 35.239 2.47904 35.181C2.43656 35.1418 2.3925 35.1073 2.34373 35.0759C2.2918 35.0446 2.23673 35.0148 2.18009 34.9897C2.12502 34.9662 2.06995 34.9458 2.0133 34.9301C1.9661 34.9175 1.91732 34.9097 1.87012 34.9097C1.7647 34.9097 1.65928 34.9364 1.56487 34.9834C1.45945 35.0383 1.36189 35.1089 1.27693 35.1951C1.19196 35.2814 1.1243 35.3817 1.07238 35.4915C1.0236 35.5887 1 35.6953 1 35.8035V36.147H13.6096C14.0014 35.2312 14.9817 34.7121 15.9619 34.9034C16.9422 35.0963 17.655 36.0074 17.6691 37.0032C17.6833 37.9989 16.9973 38.8677 16.0233 39.0888C15.0493 39.3068 14.0266 38.7611 13.6096 37.8562Z" stroke="white" stroke-width="0.162" stroke-linejoin="bevel"/>
<path fill-rule="evenodd" clip-rule="evenodd" d="M53.1423 54.1759L62.059 63.0611L61.8151 63.3041C61.738 63.381 61.6452 63.439 61.5413 63.4751C61.4281 63.5158 61.3069 63.5362 61.1873 63.5394C61.0677 63.5409 60.9482 63.5221 60.8349 63.486C60.7326 63.4547 60.6413 63.3982 60.5674 63.3229C60.5328 63.29 60.5029 63.2508 60.4793 63.2085C60.4509 63.1583 60.4258 63.105 60.4037 63.0501C60.3817 62.9921 60.3628 62.9325 60.3502 62.8713C60.3377 62.8164 60.3298 62.76 60.3282 62.7035C60.3251 62.6188 60.3125 62.5357 60.2889 62.4542C60.27 62.3883 60.2354 62.3287 60.1897 62.277C60.1237 62.2064 60.0513 62.1406 59.9726 62.0857C59.7885 61.954 59.6013 61.8254 59.414 61.6983C58.8885 61.3424 58.3472 61.0068 57.795 60.6932C57.2852 60.4031 56.7596 60.1396 56.2231 59.9028C55.622 59.6378 55.0115 59.3994 54.3932 59.1862C53.5813 58.9086 52.7615 58.6452 51.937 58.3974C51.3202 58.2124 50.705 58.0163 50.0945 57.8109C49.7074 57.6823 49.3298 57.5302 48.9632 57.3546C48.6564 57.2087 48.3621 57.0394 48.0852 56.8449C47.7658 56.6223 47.4574 56.3823 47.1631 56.1283C46.7824 55.7974 46.4283 55.4399 46.1011 55.0588C45.8037 54.7107 45.5394 54.3359 45.3159 53.9392C45.0956 53.5518 44.9178 53.1441 44.7809 52.7207C44.6362 52.2754 44.5323 51.8206 44.4663 51.3564L44.3341 50.4061L43.1414 49.3586L42.4774 48.7643C42.3736 48.6718 42.2776 48.573 42.1863 48.4679C42.1391 48.4146 42.1014 48.3534 42.073 48.2876C42.0542 48.2452 42.0636 48.1966 42.0982 48.1637C42.1328 48.1292 42.1816 48.1104 42.2304 48.1119C42.5341 48.1229 42.8377 48.1354 43.1398 48.1496C43.4954 48.1668 43.851 48.1888 44.2051 48.2154C44.6173 48.2468 45.0311 48.2813 45.4418 48.3205C45.8525 48.3597 46.2616 48.3973 46.6738 48.4318C47.0231 48.4632 47.3724 48.4898 47.7217 48.5165C48.0301 48.54 48.3385 48.562 48.6469 48.5839C48.6737 48.5871 48.6973 48.5761 48.7146 48.5573C48.7335 48.54 48.7429 48.5149 48.7413 48.4898C48.7193 48.1825 48.6973 47.8751 48.6737 47.5678C48.6469 47.2196 48.6202 46.8715 48.5887 46.5234C48.5541 46.1141 48.5163 45.7048 48.477 45.2955C48.4376 44.8862 48.403 44.4738 48.37 44.063C48.3432 43.7101 48.3212 43.3557 48.3055 43.0013C48.2913 42.7003 48.2787 42.3976 48.2677 42.0949C48.2661 42.0463 48.285 41.9977 48.3196 41.9632C48.3527 41.9303 48.4015 41.9193 48.4439 41.9381C48.51 41.9664 48.5714 42.004 48.6249 42.051C48.7287 42.142 48.8279 42.2376 48.9223 42.3411C49.1237 42.5607 49.3204 42.7802 49.5186 43.0029L50.5697 44.1916L51.5232 44.3233C51.9889 44.3891 52.4452 44.4926 52.8921 44.6369C53.3169 44.7733 53.726 44.9521 54.1147 45.1701C54.5127 45.3928 54.8888 45.6546 55.2381 45.9526C55.6204 46.2788 55.9792 46.6316 56.3096 47.0127C56.5677 47.3059 56.8068 47.6133 57.0303 47.9316C57.2254 48.2076 57.3953 48.5008 57.5416 48.8066C57.7163 49.172 57.8705 49.5483 57.9995 49.9341C58.2056 50.5426 58.4023 51.1557 58.588 51.7704C58.8366 52.5921 59.1009 53.4076 59.381 54.2183C59.595 54.8361 59.8341 55.4446 60.1001 56.042C60.3377 56.5768 60.602 57.1005 60.8931 57.6086C61.2093 58.159 61.5445 58.6985 61.9017 59.2222C62.0275 59.4088 62.1581 59.5939 62.2903 59.7789C62.3454 59.8573 62.4099 59.9295 62.4823 59.9953C62.5326 60.0408 62.594 60.0753 62.6601 60.0941C62.7419 60.1177 62.8253 60.1302 62.9102 60.1333C62.9669 60.1349 63.0235 60.1412 63.0786 60.1553C63.14 60.1694 63.1998 60.1866 63.2564 60.2086C63.313 60.2306 63.3665 60.2557 63.4169 60.2854C63.4594 60.309 63.4987 60.3372 63.5318 60.3717C63.6073 60.4454 63.6639 60.5379 63.6954 60.6383C63.7316 60.7512 63.7505 60.8719 63.7473 60.9895C63.7457 61.1103 63.7253 61.231 63.6844 61.3424C63.6482 61.4459 63.59 61.5384 63.5129 61.6152L63.269 61.8583L54.3538 52.9716C54.7031 52.0323 54.346 50.9785 53.4947 50.4438C52.6451 49.909 51.5767 49.9984 50.8765 50.7182C50.1763 51.4348 50.074 52.5435 50.6342 53.3778C51.1959 54.201 52.2092 54.5492 53.1423 54.1759Z" fill="white"/>
<path d="M53.1423 54.1759L62.059 63.061L61.8151 63.3041C61.738 63.3809 61.6452 63.439 61.5413 63.475C61.4281 63.5158 61.3069 63.5362 61.1873 63.5393C61.0677 63.5409 60.9482 63.5221 60.8349 63.486C60.7326 63.4546 60.6413 63.3982 60.5674 63.3229C60.5328 63.29 60.5029 63.2508 60.4793 63.2084C60.4509 63.1583 60.4258 63.1049 60.4037 63.0485C60.3817 62.9905 60.3628 62.9309 60.3502 62.8697C60.3376 62.8148 60.3298 62.7584 60.3282 62.7019C60.3251 62.6172 60.3125 62.5341 60.2889 62.4526C60.27 62.3867 60.2354 62.3271 60.1897 62.2754C60.1237 62.2048 60.0513 62.139 59.9726 62.0841C59.7885 61.9523 59.6013 61.8238 59.414 61.6967C58.8885 61.3408 58.3472 61.0052 57.795 60.6916C57.2852 60.4015 56.7596 60.138 56.2231 59.9012C55.622 59.6362 55.0115 59.3978 54.3932 59.1846C53.5813 58.907 52.7615 58.642 51.937 58.3942C51.3202 58.2092 50.705 58.0132 50.0945 57.8077C49.7074 57.6791 49.3298 57.527 48.9632 57.3514C48.6564 57.2056 48.3621 57.0346 48.0852 56.8418C47.7658 56.6191 47.4574 56.3792 47.1631 56.1251C46.7824 55.7942 46.4283 55.4367 46.1011 55.0556C45.8037 54.7075 45.5394 54.3327 45.3159 53.936C45.0956 53.5487 44.9178 53.1409 44.7809 52.7175C44.6362 52.2722 44.5323 51.8174 44.4663 51.3532L44.3341 50.4029L43.1414 49.3554L42.4774 48.7611C42.3736 48.6686 42.2776 48.5698 42.1863 48.4647C42.1391 48.4114 42.1014 48.3502 42.073 48.2844C42.0542 48.242 42.0636 48.1934 42.0982 48.1605C42.1328 48.126 42.1816 48.1072 42.2304 48.1088C42.5341 48.1197 42.8377 48.1323 43.1398 48.1464C43.4954 48.1636 43.851 48.1856 44.2051 48.2107C44.6173 48.242 45.0311 48.2781 45.4418 48.3173C45.8525 48.3565 46.2616 48.3942 46.6738 48.4287C47.0231 48.4584 47.3724 48.4867 47.7217 48.5133C48.0301 48.5369 48.3385 48.5588 48.6469 48.5808C48.6737 48.5839 48.6973 48.5729 48.7146 48.5541C48.7335 48.5369 48.7429 48.5118 48.7413 48.4867C48.7193 48.1793 48.6973 47.872 48.6737 47.5646C48.6469 47.2165 48.6202 46.8683 48.5887 46.5202C48.5541 46.1094 48.5163 45.7016 48.477 45.2924C48.4376 44.8831 48.403 44.4707 48.37 44.0598C48.3432 43.707 48.3212 43.3526 48.3055 42.9982C48.2913 42.6971 48.2787 42.3944 48.2677 42.0918C48.2661 42.0432 48.285 41.9945 48.3196 41.96C48.3527 41.9271 48.4015 41.9161 48.4439 41.935C48.51 41.9632 48.5714 42.0008 48.6249 42.0479C48.7287 42.1388 48.8279 42.2345 48.9223 42.338C49.1237 42.5559 49.3204 42.7771 49.5186 42.9997L50.5697 44.1884L51.5232 44.3201C51.9889 44.386 52.4452 44.4895 52.8921 44.6337C53.3169 44.7702 53.726 44.9489 54.1147 45.1669C54.5127 45.3896 54.8888 45.6515 55.2381 45.9494C55.6204 46.2756 55.9792 46.6284 56.3096 47.0079C56.5677 47.3012 56.8068 47.6085 57.0303 47.9268C57.2254 48.2028 57.3953 48.4961 57.5416 48.8019C57.7163 49.1673 57.8705 49.5436 57.9995 49.9294C58.2056 50.5378 58.4023 51.151 58.588 51.7657C58.8366 52.5874 59.1009 53.4028 59.381 54.2135C59.595 54.8314 59.8341 55.4398 60.1001 56.0373C60.3377 56.572 60.602 57.0958 60.8931 57.6039C61.2093 58.1543 61.5445 58.6937 61.9017 59.2175C62.0275 59.4041 62.1581 59.5892 62.2903 59.7742C62.3454 59.8526 62.4099 59.9247 62.4823 59.9906C62.5326 60.0361 62.594 60.0706 62.6601 60.0894C62.7419 60.1129 62.8253 60.1255 62.9102 60.1286C62.9669 60.1302 63.0235 60.1364 63.0786 60.1505C63.14 60.1647 63.1998 60.1819 63.2564 60.2039C63.313 60.2258 63.3665 60.2509 63.4169 60.2807C63.4594 60.3042 63.4987 60.3325 63.5318 60.367C63.6073 60.4407 63.6639 60.5316 63.6954 60.6335C63.7316 60.7464 63.7505 60.8672 63.7473 60.9848C63.7457 61.1056 63.7253 61.2263 63.6844 61.3376C63.6482 61.4411 63.59 61.5337 63.5129 61.6105L63.269 61.8536L54.3538 52.9669C54.7031 52.0276 54.346 50.9738 53.4947 50.4374C52.6451 49.9027 51.5767 49.9921 50.8765 50.7119C50.1763 51.4285 50.074 52.5372 50.6342 53.3715C51.1959 54.201 52.2092 54.5491 53.1423 54.1759Z" stroke="white" stroke-width="0.162" stroke-linejoin="bevel"/>
<path fill-rule="evenodd" clip-rule="evenodd" d="M19.8893 21.0362L10.9726 12.1511L10.7303 12.3941C10.6532 12.4694 10.5934 12.5635 10.5588 12.6654C10.5178 12.7799 10.4958 12.8991 10.4942 13.0183C10.4927 13.139 10.51 13.2582 10.5462 13.3727C10.5792 13.473 10.6358 13.564 10.7114 13.6393C10.746 13.6722 10.7838 13.7035 10.8262 13.7271C10.8782 13.7553 10.9317 13.782 10.9883 13.8023C11.0465 13.8259 11.1063 13.8431 11.1677 13.8572C11.2227 13.8698 11.2794 13.876 11.336 13.8792C11.4194 13.8823 11.5044 13.8949 11.5846 13.9184C11.6523 13.9372 11.7121 13.9701 11.764 14.0172C11.8348 14.083 11.8993 14.1536 11.956 14.232C12.0866 14.4155 12.2156 14.6021 12.3446 14.7887C12.7002 15.3125 13.0385 15.8519 13.3516 16.4039C13.6427 16.912 13.9071 17.4342 14.1446 17.9705C14.4106 18.5679 14.6513 19.1764 14.8637 19.7942C15.1438 20.605 15.4097 21.4204 15.6567 22.2405C15.8424 22.8568 16.0391 23.4684 16.2452 24.0784C16.3758 24.4626 16.5284 24.839 16.7046 25.2059C16.8494 25.5101 17.0225 25.8034 17.2144 26.0809C17.4379 26.3993 17.6802 26.7066 17.9351 26.9999C18.2671 27.3778 18.6243 27.7322 19.0082 28.0599C19.3559 28.3547 19.732 28.6182 20.1316 28.8424C20.5203 29.0604 20.9278 29.2392 21.3526 29.3756C21.7995 29.5199 22.2574 29.6234 22.7199 29.6877L23.675 29.821L24.7261 31.0096L25.3224 31.6714C25.4137 31.7733 25.5128 31.8705 25.6167 31.9599C25.6717 32.0085 25.7331 32.0462 25.8008 32.0744C25.8432 32.0916 25.892 32.0807 25.9251 32.0493C25.9613 32.0148 25.9801 31.9662 25.977 31.916C25.9676 31.6149 25.9534 31.3123 25.9392 31.0096C25.9235 30.6568 25.9015 30.3008 25.8731 29.948C25.8432 29.5371 25.8055 29.1263 25.7677 28.717C25.73 28.3077 25.6922 27.8984 25.656 27.4891C25.6261 27.1394 25.5978 26.7929 25.5726 26.4432C25.5506 26.1374 25.527 25.83 25.505 25.5227C25.5034 25.496 25.5113 25.4725 25.5317 25.4537C25.549 25.4349 25.5758 25.4254 25.6009 25.427C25.9093 25.449 26.2177 25.4725 26.5246 25.4944C26.8754 25.5211 27.2232 25.5478 27.574 25.5776C27.9847 25.6136 28.3938 25.6513 28.8061 25.6889C29.2167 25.7281 29.629 25.7642 30.0412 25.794C30.3952 25.8222 30.7524 25.8426 31.1064 25.8614C31.4101 25.8739 31.7138 25.888 32.0159 25.8975C32.0662 25.9006 32.115 25.8818 32.1496 25.8457C32.1811 25.8143 32.1921 25.7642 32.1748 25.7218C32.1465 25.6544 32.1072 25.5948 32.0599 25.5399C31.9703 25.4349 31.8727 25.3392 31.7704 25.2451C31.5502 25.0444 31.3283 24.8468 31.1064 24.6508L29.9138 23.6033L29.78 22.6514C29.7155 22.1888 29.6117 21.7325 29.4669 21.2887C29.33 20.8653 29.1506 20.4576 28.9319 20.0718C28.7069 19.6735 28.4426 19.2987 28.1468 18.9521C27.8179 18.5711 27.4639 18.2135 27.0847 17.8827C26.7905 17.6271 26.4821 17.3871 26.1627 17.1644C25.8842 16.9716 25.5899 16.8006 25.2847 16.6564C24.9165 16.4807 24.5389 16.3286 24.1534 16.1985C23.5413 15.993 22.9276 15.797 22.3093 15.612C21.4864 15.3658 20.6682 15.1023 19.8547 14.8216C19.2332 14.6099 18.6227 14.3716 18.0248 14.1066C17.4867 13.8682 16.9627 13.6048 16.4513 13.3146C15.899 13.001 15.3578 12.667 14.8322 12.311C14.645 12.184 14.4593 12.0539 14.2737 11.9237C14.195 11.8672 14.1242 11.803 14.0581 11.7324C14.0109 11.6822 13.9779 11.6211 13.959 11.5536C13.9354 11.4736 13.9228 11.389 13.9196 11.3059C13.9165 11.2494 13.9086 11.1929 13.896 11.1381C13.8835 11.0769 13.8661 11.0173 13.8425 10.9593C13.8221 10.9044 13.7953 10.8511 13.767 10.7978C13.7434 10.7554 13.7135 10.7178 13.6789 10.6833C13.6034 10.608 13.5121 10.5531 13.4114 10.5186C13.2966 10.4826 13.177 10.4653 13.0574 10.4669C12.9362 10.4685 12.8182 10.4904 12.7034 10.5312C12.6011 10.5657 12.5067 10.6253 12.4296 10.7021L12.1873 10.9436L21.1024 19.8303C22.0292 19.4571 23.0897 19.7817 23.6483 20.6097C24.2053 21.4361 24.0621 22.5824 23.3666 23.2959C22.6696 24.011 21.5682 24.1411 20.7217 23.6095C19.8783 23.0764 19.5432 21.9708 19.8893 21.0362Z" fill="white"/>
<path d="M19.8893 21.0358L10.9726 12.1491L10.7303 12.3922C10.6532 12.4674 10.5934 12.5615 10.5588 12.6634C10.5178 12.7779 10.4958 12.8971 10.4942 13.0163C10.4927 13.137 10.51 13.2562 10.5462 13.3691C10.5792 13.4695 10.6358 13.5604 10.7114 13.6357C10.746 13.6686 10.7838 13.7 10.8262 13.7235C10.8782 13.7517 10.9317 13.7784 10.9883 13.7988C11.0465 13.8223 11.1063 13.8396 11.1677 13.8537C11.2227 13.8646 11.2794 13.8725 11.336 13.8756C11.4194 13.8788 11.5044 13.8913 11.5846 13.9148C11.6523 13.9336 11.7121 13.9666 11.764 14.0136C11.8348 14.0795 11.8993 14.15 11.956 14.2285C12.0866 14.4119 12.2156 14.5985 12.3446 14.7851C12.7002 15.3089 13.0385 15.8484 13.3516 16.4003C13.6427 16.9084 13.9071 17.4306 14.1446 17.9669C14.4106 18.5644 14.6513 19.1728 14.8637 19.7907C15.1438 20.6014 15.4097 21.4168 15.6567 22.237C15.8424 22.8533 16.0391 23.4648 16.2452 24.0748C16.3758 24.459 16.5284 24.8354 16.7046 25.2023C16.8494 25.5066 17.0225 25.7998 17.2144 26.0774C17.4379 26.3957 17.6802 26.7031 17.9351 26.9963C18.2671 27.3742 18.6243 27.7286 19.0082 28.0548C19.3559 28.3512 19.732 28.6131 20.1316 28.8373C20.5203 29.0553 20.9278 29.2341 21.3526 29.3705C21.7995 29.5147 22.2574 29.6182 22.7199 29.6825L23.675 29.8158L24.7261 31.0045L25.3224 31.6662C25.4137 31.7682 25.5128 31.8654 25.6167 31.9548C25.6717 32.0034 25.7331 32.041 25.8008 32.0693C25.8432 32.0865 25.892 32.0755 25.9251 32.0442C25.9613 32.0097 25.9801 31.9611 25.977 31.9109C25.9676 31.6098 25.9534 31.3071 25.9392 31.0045C25.9235 30.6501 25.9015 30.2957 25.8731 29.9429C25.8432 29.532 25.8055 29.1211 25.7677 28.7119C25.73 28.3026 25.6922 27.8933 25.656 27.484C25.6261 27.1343 25.5978 26.7877 25.5726 26.438C25.5506 26.1323 25.527 25.8249 25.505 25.5175C25.5034 25.4909 25.5113 25.4674 25.5317 25.4485C25.549 25.4297 25.5758 25.4219 25.6009 25.4219C25.9093 25.4438 26.2177 25.4674 26.5246 25.4893C26.8754 25.516 27.2232 25.5426 27.574 25.5724C27.9847 25.6085 28.3938 25.6461 28.8061 25.6838C29.2167 25.723 29.629 25.759 30.0412 25.7888C30.3952 25.8171 30.7524 25.8374 31.1064 25.8563C31.4101 25.8688 31.7138 25.8829 32.0159 25.8923C32.0662 25.8955 32.115 25.8766 32.1496 25.8406C32.1811 25.8092 32.1921 25.759 32.1748 25.7167C32.1465 25.6493 32.1072 25.5897 32.06 25.5332C31.9703 25.4297 31.8727 25.3325 31.7704 25.24C31.5502 25.0393 31.3283 24.8417 31.1064 24.6457L29.9138 23.5981L29.78 22.6463C29.7155 22.1837 29.6117 21.7273 29.4669 21.2835C29.33 20.8601 29.1506 20.4524 28.9319 20.0667C28.7069 19.6684 28.4426 19.2936 28.1468 18.947C27.8179 18.5659 27.4639 18.2084 27.0847 17.8775C26.7905 17.6219 26.4821 17.382 26.1627 17.1593C25.8842 16.9664 25.5899 16.7955 25.2847 16.6512C24.9165 16.4756 24.5389 16.3235 24.1534 16.1933C23.5413 15.9879 22.9276 15.7919 22.3093 15.6069C21.4864 15.3607 20.6682 15.0972 19.8547 14.8165C19.2332 14.6048 18.6227 14.3665 18.0248 14.0999C17.4867 13.8631 16.9627 13.5981 16.4513 13.3095C15.899 12.9959 15.3578 12.6619 14.8322 12.3059C14.645 12.1789 14.4593 12.0487 14.2737 11.9186C14.195 11.8621 14.1242 11.7978 14.0581 11.7273C14.0109 11.6771 13.9779 11.6159 13.959 11.5485C13.9354 11.4685 13.9228 11.3854 13.9196 11.3007C13.9165 11.2443 13.9086 11.1878 13.896 11.1329C13.8835 11.0718 13.8661 11.0122 13.8425 10.9542C13.8221 10.8993 13.7953 10.846 13.767 10.7926C13.7434 10.7503 13.7135 10.7127 13.6789 10.6782C13.6034 10.6029 13.5121 10.548 13.4114 10.5135C13.2966 10.4774 13.177 10.4602 13.0574 10.4618C12.9362 10.4633 12.8182 10.4853 12.7034 10.5261C12.6011 10.5606 12.5067 10.6202 12.4296 10.697L12.1873 10.9385L21.1024 19.8252C22.0292 19.4535 23.0897 19.7766 23.6483 20.6045C24.2053 21.431 24.0621 22.5773 23.3666 23.2908C22.6696 24.0043 21.5682 24.136 20.7217 23.6044C19.8783 23.0759 19.5432 21.9704 19.8893 21.0358Z" stroke="white" stroke-width="0.162" stroke-linejoin="bevel"/>
<path fill-rule="evenodd" clip-rule="evenodd" d="M54.3571 21.0362L63.2723 12.1511L63.5162 12.3941C63.5933 12.4694 63.6515 12.5635 63.6877 12.6654C63.7286 12.7799 63.749 12.8991 63.7506 13.0183C63.7538 13.139 63.7349 13.2582 63.6987 13.3727C63.6672 13.473 63.6106 13.564 63.5351 13.6393C63.502 13.6722 63.4627 13.7035 63.4202 13.7271C63.3698 13.7553 63.3164 13.782 63.2597 13.8023C63.2031 13.8259 63.1433 13.8431 63.0819 13.8572C63.0268 13.8698 62.9702 13.876 62.9135 13.8792C62.8286 13.8823 62.7452 13.8949 62.6634 13.9184C62.5973 13.9372 62.5375 13.9701 62.4856 14.0172C62.4132 14.083 62.3487 14.1536 62.2936 14.232C62.1614 14.4155 62.0324 14.6021 61.905 14.7887C61.5478 15.3125 61.2111 15.8519 60.8964 16.4039C60.6053 16.912 60.341 17.4342 60.1034 17.9705C59.8375 18.5679 59.5983 19.1764 59.3843 19.7942C59.1058 20.605 58.8399 21.4204 58.5913 22.2405C58.4056 22.8568 58.2089 23.4684 58.0028 24.0784C57.8738 24.4626 57.7196 24.839 57.5449 25.2059C57.3986 25.5101 57.2271 25.8034 57.0336 26.0809C56.8101 26.3993 56.5694 26.7066 56.3129 26.9999C55.9825 27.3778 55.6237 27.7322 55.2414 28.0599C54.8921 28.3547 54.516 28.6182 54.118 28.8424C53.7293 29.0604 53.3202 29.2392 52.8954 29.3756C52.4485 29.5199 51.9922 29.6234 51.5265 29.6877L50.573 29.821L49.5219 31.0096L48.9256 31.6714C48.8327 31.7733 48.7336 31.8705 48.6282 31.9599C48.5747 32.0085 48.5133 32.0462 48.4472 32.0744C48.4032 32.0916 48.356 32.0807 48.3229 32.0493C48.2883 32.0148 48.2694 31.9662 48.271 31.916C48.282 31.6149 48.2946 31.3123 48.3088 31.0096C48.3245 30.6568 48.3481 30.3008 48.3733 29.948C48.4048 29.5371 48.4409 29.1263 48.4803 28.717C48.5196 28.3077 48.5574 27.8984 48.592 27.4891C48.6219 27.1394 48.6502 26.7929 48.677 26.4432C48.7006 26.1374 48.7226 25.83 48.7446 25.5227C48.7478 25.496 48.7368 25.4725 48.7179 25.4537C48.7006 25.4349 48.6738 25.4254 48.6502 25.427C48.3418 25.449 48.0334 25.4725 47.725 25.4944C47.3757 25.5211 47.0264 25.5478 46.6771 25.5776C46.2649 25.6136 45.8558 25.6513 45.4451 25.6889C45.0344 25.7281 44.6206 25.7642 44.2084 25.794C43.8543 25.8222 43.4987 25.8426 43.1431 25.8614C42.841 25.8739 42.5374 25.888 42.2337 25.8975C42.1849 25.9006 42.1361 25.8818 42.1015 25.8457C42.0685 25.8143 42.0575 25.7642 42.0763 25.7218C42.1047 25.6544 42.1424 25.5948 42.1896 25.5399C42.2809 25.4349 42.3769 25.3392 42.4807 25.2451C42.6994 25.0444 42.9213 24.8468 43.1447 24.6508L44.3374 23.6033L44.4696 22.6514C44.5356 22.1888 44.6395 21.7325 44.7843 21.2887C44.9211 20.8653 45.1005 20.4576 45.3192 20.0718C45.5427 19.6735 45.8054 19.2987 46.1044 18.9521C46.4317 18.5711 46.7857 18.2135 47.1665 17.8827C47.4607 17.6271 47.7691 17.3871 48.0885 17.1644C48.3654 16.9716 48.6597 16.8006 48.9665 16.6564C49.3331 16.4807 49.7107 16.3286 50.0978 16.1985C50.7083 15.993 51.3235 15.797 51.9403 15.612C52.7648 15.3658 53.583 15.1023 54.3965 14.8216C55.0164 14.6099 55.6269 14.3716 56.2264 14.1066C56.7629 13.8682 57.2885 13.6048 57.7983 13.3146C58.3505 13.001 58.8918 12.667 59.4173 12.311C59.6046 12.184 59.7918 12.0539 59.9759 11.9237C60.0546 11.8672 60.127 11.803 60.1931 11.7324C60.2387 11.6822 60.2733 11.6211 60.2922 11.5536C60.3158 11.4736 60.3284 11.389 60.3315 11.3059C60.3331 11.2494 60.3394 11.1929 60.3535 11.1381C60.3661 11.0769 60.385 11.0173 60.407 10.9593C60.4291 10.9044 60.4542 10.8511 60.4826 10.7978C60.5077 10.7554 60.5361 10.7178 60.5707 10.6833C60.6446 10.6096 60.7359 10.5531 60.8382 10.5186C60.9515 10.4826 61.0726 10.4653 61.1906 10.4669C61.3118 10.4685 61.4329 10.4904 61.5446 10.5312C61.6485 10.5657 61.7413 10.6253 61.8184 10.7021L62.0623 10.9436L53.1456 19.8303C52.2031 19.4822 51.1457 19.8381 50.6076 20.6849C50.071 21.5333 50.1607 22.5981 50.8829 23.2959C51.602 23.9937 52.7144 24.0941 53.5515 23.5358C54.3823 22.976 54.7316 21.9645 54.3571 21.0362Z" fill="white"/>
<path d="M54.3571 21.0359L63.2723 12.1508L63.5162 12.3939C63.5933 12.4691 63.6515 12.5632 63.6877 12.6652C63.7286 12.7796 63.749 12.8988 63.7506 13.018C63.7538 13.1387 63.7349 13.2579 63.6987 13.3708C63.6672 13.4712 63.6106 13.5621 63.5351 13.6374C63.502 13.6703 63.4627 13.7017 63.4202 13.7252C63.3698 13.7534 63.3164 13.7801 63.2597 13.8005C63.2031 13.824 63.1433 13.8413 63.0819 13.8554C63.0268 13.8664 62.9702 13.8742 62.9135 13.8773C62.8286 13.8805 62.7452 13.893 62.6634 13.9165C62.5973 13.9354 62.5375 13.9683 62.4856 14.0153C62.4132 14.0812 62.3487 14.1518 62.2936 14.2302C62.1614 14.4136 62.0324 14.6002 61.905 14.7869C61.5478 15.3106 61.2111 15.8501 60.8964 16.402C60.6053 16.9101 60.341 17.4323 60.1034 17.9686C59.8375 18.5661 59.5983 19.1745 59.3843 19.7924C59.1058 20.6031 58.8399 21.4185 58.5913 22.2387C58.4056 22.855 58.2089 23.4665 58.0028 24.0766C57.8738 24.4608 57.7196 24.8371 57.5449 25.2041C57.3986 25.5083 57.2271 25.8015 57.0336 26.0791C56.8101 26.3974 56.5694 26.7048 56.3129 26.998C55.9825 27.3759 55.6238 27.7303 55.2414 28.0565C54.8921 28.3529 54.516 28.6148 54.118 28.839C53.7293 29.057 53.3202 29.2358 52.8954 29.3722C52.4485 29.5165 51.9922 29.62 51.5265 29.6842L50.573 29.8175L49.5219 31.0062L48.9256 31.668C48.8327 31.7699 48.7336 31.8671 48.6282 31.9565C48.5747 32.0051 48.5133 32.0427 48.4472 32.071C48.4032 32.0882 48.356 32.0772 48.3229 32.0459C48.2883 32.0114 48.2694 31.9628 48.271 31.9126C48.282 31.6115 48.2946 31.3088 48.3088 31.0062C48.3245 30.6518 48.3481 30.2974 48.3733 29.9446C48.4048 29.5337 48.4409 29.1229 48.4803 28.7136C48.5196 28.3043 48.5574 27.895 48.592 27.4857C48.6219 27.136 48.6502 26.7894 48.677 26.4398C48.7006 26.134 48.7226 25.8266 48.7446 25.5193C48.7478 25.4926 48.7368 25.4691 48.7179 25.4503C48.7006 25.4314 48.6738 25.4236 48.6502 25.4236C48.3418 25.4455 48.0334 25.4691 47.725 25.491C47.3757 25.5177 47.0264 25.5443 46.6771 25.5741C46.2649 25.6102 45.8558 25.6478 45.4451 25.6855C45.0344 25.7247 44.6206 25.7607 44.2084 25.7905C43.8543 25.8188 43.4987 25.8392 43.1431 25.858C42.841 25.8705 42.5374 25.8846 42.2337 25.894C42.1849 25.8972 42.1361 25.8784 42.1015 25.8423C42.0685 25.8109 42.0575 25.7607 42.0763 25.7184C42.1047 25.651 42.1424 25.5914 42.1896 25.5349C42.2809 25.4314 42.3769 25.3342 42.4807 25.2417C42.6994 25.041 42.9213 24.8434 43.1447 24.6474L44.3374 23.5998L44.4696 22.648C44.5356 22.1854 44.6395 21.729 44.7843 21.2853C44.9211 20.8619 45.1005 20.4541 45.3192 20.0684C45.5427 19.6701 45.8054 19.2953 46.1044 18.9487C46.4317 18.5677 46.7857 18.2101 47.1665 17.8792C47.4607 17.6236 47.7691 17.3837 48.0885 17.161C48.3654 16.9681 48.6597 16.7972 48.9665 16.653C49.3331 16.4773 49.7107 16.3252 50.0978 16.1951C50.7083 15.9896 51.3235 15.7936 51.9403 15.6086C52.7648 15.3624 53.583 15.0989 54.3965 14.8182C55.0164 14.6065 55.6269 14.3682 56.2264 14.1016C56.7629 13.8648 57.2885 13.5998 57.7983 13.3112C58.3505 12.9976 58.8918 12.6636 59.4173 12.3076C59.6046 12.1806 59.7918 12.0504 59.9759 11.9203C60.0546 11.8638 60.127 11.7995 60.193 11.729C60.2387 11.6788 60.2733 11.6176 60.2922 11.5502C60.3158 11.4702 60.3284 11.3871 60.3315 11.3024C60.3331 11.246 60.3394 11.1895 60.3535 11.1346C60.3661 11.0735 60.385 11.0139 60.407 10.9559C60.4291 10.901 60.4542 10.8477 60.4826 10.7944C60.5077 10.752 60.5361 10.7144 60.5707 10.6799C60.6446 10.6062 60.7359 10.5497 60.8382 10.5152C60.9515 10.4792 61.0726 10.4619 61.1906 10.4635C61.3118 10.465 61.4329 10.487 61.5446 10.5278C61.6485 10.5623 61.7413 10.6219 61.8184 10.6987L62.0623 10.9402L53.1456 19.8269C52.2031 19.4788 51.1457 19.8347 50.6076 20.6815C50.071 21.5299 50.1607 22.5947 50.8829 23.2925C51.602 23.9903 52.7144 24.0907 53.5515 23.5324C54.3823 22.9757 54.7316 21.9643 54.3571 21.0359Z" stroke="white" stroke-width="0.162" stroke-linejoin="bevel"/>
<path fill-rule="evenodd" clip-rule="evenodd" d="M21.1042 54.1759L12.189 63.0611L12.4313 63.3041C12.5084 63.381 12.6028 63.439 12.7051 63.4751C12.8199 63.5158 12.9395 63.5362 13.0591 63.5394C13.1803 63.5409 13.2998 63.5221 13.4131 63.486C13.5138 63.4547 13.6051 63.3982 13.6806 63.3229C13.7137 63.29 13.7451 63.2508 13.7687 63.2085C13.797 63.1583 13.8238 63.105 13.8443 63.0501C13.8679 62.9921 13.8852 62.9325 13.8977 62.8713C13.9103 62.8164 13.9182 62.76 13.9213 62.7035C13.9245 62.6188 13.9371 62.5357 13.9607 62.4542C13.9796 62.3883 14.0126 62.3287 14.0598 62.277C14.1259 62.2064 14.1967 62.1406 14.2754 62.0857C14.4595 61.954 14.6467 61.8254 14.834 61.6983C15.3595 61.3424 15.9008 61.0068 16.453 60.6932C16.9644 60.4031 17.4884 60.1396 18.0265 59.9028C18.626 59.6378 19.2365 59.3994 19.8564 59.1862C20.6699 58.9086 21.4881 58.6452 22.311 58.3974C22.9294 58.2124 23.543 58.0163 24.1551 57.8109C24.5406 57.6823 24.9182 57.5302 25.2864 57.3546C25.5916 57.2087 25.8859 57.0394 26.1644 56.8449C26.4838 56.6223 26.7922 56.3823 27.0864 56.1283C27.4656 55.7974 27.8212 55.4399 28.1485 55.0588C28.4459 54.7107 28.7086 54.3359 28.9336 53.9392C29.1523 53.5518 29.3317 53.1441 29.4686 52.7207C29.6134 52.2754 29.7172 51.8206 29.7817 51.3564L29.9155 50.4061L31.1081 49.3586L31.7721 48.7643C31.8744 48.6718 31.972 48.573 32.0617 48.4679C32.1104 48.4146 32.1482 48.3534 32.1765 48.2876C32.1938 48.2436 32.1828 48.1966 32.1513 48.1637C32.1167 48.1292 32.068 48.1104 32.0176 48.1119C31.7155 48.1229 31.4118 48.1354 31.1081 48.1496C30.7525 48.1668 30.3969 48.1888 30.0429 48.2154C29.6307 48.2468 29.2184 48.2813 28.8078 48.3205C28.3971 48.3597 27.9864 48.3973 27.5758 48.4318C27.2249 48.4632 26.8771 48.4898 26.5263 48.5165C26.2194 48.54 25.911 48.562 25.6026 48.5839C25.5759 48.5871 25.5523 48.5761 25.5334 48.5588C25.5145 48.54 25.5051 48.5149 25.5067 48.4898C25.5287 48.1825 25.5523 47.8751 25.5743 47.5678C25.6011 47.2196 25.6278 46.8715 25.6577 46.5234C25.6939 46.1141 25.7317 45.7048 25.7694 45.2955C25.8088 44.8862 25.845 44.4738 25.8749 44.063C25.9032 43.7101 25.9236 43.3557 25.9409 43.0013C25.9551 42.7003 25.9693 42.3976 25.9787 42.0949C25.9818 42.0463 25.963 41.9977 25.9268 41.9632C25.8953 41.9303 25.845 41.9193 25.8025 41.9381C25.7348 41.9664 25.675 42.004 25.6184 42.051C25.5145 42.142 25.4154 42.2376 25.3241 42.3411C25.1227 42.5607 24.9245 42.7802 24.7278 43.0029L23.6767 44.1916L22.7217 44.3233C22.2575 44.3891 21.7996 44.4926 21.3543 44.6369C20.9295 44.7733 20.5204 44.9521 20.1333 45.1701C19.7337 45.3928 19.3576 45.6546 19.0099 45.9526C18.626 46.2788 18.2688 46.6316 17.9368 47.0127C17.6803 47.3059 17.4396 47.6133 17.2162 47.9316C17.0226 48.2076 16.8511 48.5008 16.7064 48.8066C16.5301 49.172 16.3775 49.5483 16.2469 49.9341C16.0408 50.5426 15.8441 51.1557 15.6584 51.7704C15.4114 52.5921 15.1471 53.4076 14.8654 54.2183C14.653 54.8361 14.4138 55.4446 14.1464 56.042C13.9088 56.5768 13.6428 57.1005 13.3533 57.6086C13.0386 58.159 12.7019 58.6985 12.3463 59.2222C12.2189 59.4088 12.0883 59.5939 11.9577 59.7789C11.901 59.8573 11.8365 59.9295 11.7657 59.9953C11.7154 60.0408 11.654 60.0753 11.5863 60.0941C11.5061 60.1177 11.4227 60.1302 11.3377 60.1333C11.2811 60.1349 11.2245 60.1412 11.1694 60.1553C11.108 60.1694 11.0482 60.1866 10.99 60.2086C10.9349 60.2306 10.8814 60.2557 10.8279 60.2854C10.7855 60.309 10.7477 60.3372 10.7131 60.3717C10.6376 60.4454 10.5825 60.5379 10.5479 60.6383C10.5117 60.7512 10.4944 60.8719 10.4959 60.9895C10.4975 61.1103 10.5195 61.231 10.5605 61.3424C10.5951 61.4459 10.6549 61.5384 10.732 61.6152L10.9743 61.8583L19.891 52.9716C19.5181 52.048 19.8422 50.991 20.673 50.4359C21.5022 49.8808 22.6524 50.0235 23.3683 50.7166C24.0843 51.4097 24.2164 52.509 23.683 53.3511C23.1512 54.1885 22.0419 54.5209 21.1042 54.1759Z" fill="white"/>
<path fill-rule="evenodd" clip-rule="evenodd" d="M15.6081 28.3611C12.252 29.8634 8.83916 31.2292 5.37442 32.4586C5.36026 32.4649 5.34138 32.4586 5.33194 32.4445C5.3225 32.4304 5.32879 32.41 5.34138 32.3991C5.3933 32.3583 5.4468 32.3191 5.50187 32.2799C5.63719 32.1795 5.77722 32.0839 5.91726 31.9913C6.88651 31.35 7.80225 30.6318 8.65821 29.843C9.37099 29.1844 9.98778 28.4285 10.4944 27.6005C10.9696 26.8227 11.3236 25.9759 11.5439 25.0915C11.7831 24.1302 11.909 23.1439 11.9168 22.1528C11.92 21.7952 11.9074 21.4377 11.8838 21.0786C11.8555 20.6364 11.8146 20.1942 11.7658 19.7551C11.7186 19.3301 11.6651 18.9083 11.6006 18.4865C11.5581 18.2042 11.4983 17.9219 11.4212 17.6475C11.4023 17.5785 11.3897 17.5064 11.3819 17.4342C11.3819 17.4233 11.3881 17.4138 11.3976 17.4091C11.4086 17.4044 11.4196 17.4076 11.4259 17.417C11.4684 17.475 11.5046 17.5362 11.5345 17.5989C13.0576 21.0253 14.4642 24.5034 15.7466 28.0255C15.797 28.1572 15.734 28.3031 15.6081 28.3611Z" fill="white"/>
<path d="M15.6081 28.3612C12.252 29.8635 8.83916 31.2293 5.37442 32.4587C5.36026 32.465 5.34138 32.4587 5.33194 32.4446C5.3225 32.4305 5.32879 32.4101 5.34138 32.3992C5.3933 32.3584 5.4468 32.3192 5.50187 32.28C5.63719 32.1796 5.77722 32.084 5.91726 31.9914C6.88651 31.3501 7.80225 30.6319 8.65821 29.8431C9.37098 29.1829 9.98778 28.4286 10.4944 27.6006C10.9696 26.8228 11.3236 25.976 11.5439 25.0916C11.7831 24.1303 11.909 23.144 11.9168 22.1529C11.92 21.7954 11.9074 21.4378 11.8838 21.0787C11.8555 20.6365 11.8146 20.1943 11.7658 19.7536C11.7186 19.3287 11.6651 18.9068 11.6006 18.485C11.5581 18.2027 11.4983 17.922 11.4212 17.646C11.4023 17.577 11.3897 17.5049 11.3819 17.4328C11.3819 17.4218 11.3881 17.4124 11.3976 17.4077C11.4086 17.403 11.4196 17.4061 11.4259 17.4155C11.4684 17.4735 11.5046 17.5347 11.5345 17.5974C13.0576 21.0238 14.4642 24.502 15.7466 28.024C15.797 28.1573 15.734 28.3047 15.6081 28.3612Z" stroke="white" stroke-width="0.162" stroke-linejoin="bevel"/>
<path fill-rule="evenodd" clip-rule="evenodd" d="M28.0382 15.7295C24.6017 14.4264 21.2157 12.9884 17.8957 11.414C17.88 11.4077 17.8705 11.3904 17.8752 11.3748C17.88 11.3591 17.8973 11.3465 17.9146 11.3481C17.9807 11.3591 18.0452 11.3669 18.1113 11.3779C18.278 11.4045 18.4448 11.4343 18.61 11.4673C19.7524 11.6978 20.9089 11.8358 22.0732 11.8781C23.044 11.9142 24.018 11.817 24.9636 11.5865C25.8511 11.37 26.7007 11.0219 27.4843 10.5515C28.3355 10.0403 29.1238 9.43182 29.8319 8.73713C30.0884 8.48623 30.3354 8.22592 30.5714 7.95463C30.8641 7.62061 31.1504 7.28032 31.4274 6.93376C31.6949 6.60132 31.956 6.26416 32.2109 5.92231C32.3809 5.69179 32.5382 5.45186 32.6798 5.20253C32.7145 5.1398 32.7569 5.08021 32.8041 5.02533C32.812 5.01749 32.8214 5.01435 32.8325 5.01906C32.8435 5.02376 32.8482 5.03317 32.8482 5.04415C32.8372 5.11471 32.8199 5.18371 32.7947 5.24957C31.4431 8.74654 29.9688 12.1965 28.3764 15.5915C28.3167 15.7185 28.1688 15.7781 28.0382 15.7295Z" fill="white"/>
<path d="M28.0382 15.7291C24.6017 14.426 21.2157 12.988 17.8957 11.4136C17.88 11.4073 17.8705 11.39 17.8752 11.3744C17.88 11.3587 17.8973 11.3461 17.9146 11.3477C17.9807 11.3587 18.0452 11.3665 18.1113 11.3759C18.278 11.4026 18.4448 11.4324 18.61 11.4653C19.7524 11.6958 20.9089 11.8338 22.0732 11.8762C23.044 11.9122 24.018 11.815 24.9636 11.5845C25.8511 11.3681 26.7007 11.0184 27.4843 10.5495C28.3355 10.0383 29.1238 9.42987 29.8319 8.73518C30.0884 8.48427 30.3354 8.22396 30.5714 7.95267C30.8641 7.61866 31.1504 7.27837 31.4274 6.93181C31.6949 6.59936 31.956 6.26221 32.2109 5.92036C32.3809 5.68984 32.5382 5.44991 32.6798 5.20058C32.7145 5.13785 32.7569 5.07826 32.8041 5.02338C32.812 5.01553 32.8214 5.0124 32.8325 5.0171C32.8435 5.02181 32.8482 5.03122 32.8482 5.04219C32.8372 5.11276 32.8199 5.18176 32.7947 5.24762C31.4431 8.74459 29.9688 12.1945 28.3765 15.5895C28.3167 15.7181 28.1688 15.7777 28.0382 15.7291Z" stroke="white" stroke-width="0.162" stroke-linejoin="bevel"/>
<path fill-rule="evenodd" clip-rule="evenodd" d="M45.7927 15.5586C44.2869 12.2153 42.9133 8.81243 41.6829 5.35937C41.675 5.34526 41.6813 5.32644 41.6955 5.31703C41.7096 5.30762 41.7301 5.31389 41.7411 5.32644C41.782 5.37819 41.8213 5.4315 41.8622 5.48639C41.9614 5.62125 42.0574 5.76082 42.1502 5.90038C42.7937 6.86636 43.5159 7.77902 44.3058 8.63209C44.9667 9.34246 45.7251 9.95874 46.5558 10.4621C47.3363 10.9357 48.1859 11.2885 49.0734 11.5081C50.0395 11.748 51.0276 11.8719 52.022 11.8797C52.3808 11.8829 52.7411 11.8719 53.0998 11.8468C53.5451 11.8186 53.9857 11.7794 54.4294 11.7292C54.8542 11.6821 55.2791 11.6288 55.7023 11.5645C55.9855 11.5222 56.2656 11.4626 56.5441 11.3858C56.6118 11.3669 56.6841 11.3544 56.7565 11.3466C56.766 11.3466 56.777 11.3528 56.7817 11.3622C56.7864 11.3732 56.7833 11.3842 56.7754 11.3905C56.7188 11.4328 56.6574 11.4689 56.5929 11.4987C53.1549 13.0166 49.6666 14.4186 46.131 15.6966C45.9957 15.7468 45.8509 15.684 45.7927 15.5586Z" fill="white"/>
<path d="M45.7927 15.5586C44.2869 12.2153 42.9133 8.81243 41.6829 5.35937C41.675 5.34526 41.6813 5.32644 41.6955 5.31703C41.7096 5.30762 41.7301 5.31389 41.7411 5.32644C41.782 5.37819 41.8213 5.4315 41.8622 5.48639C41.9614 5.62125 42.0574 5.76082 42.1502 5.90038C42.7937 6.86636 43.5159 7.77902 44.3058 8.63209C44.9667 9.34246 45.7251 9.95874 46.5558 10.4621C47.3363 10.9357 48.1859 11.2885 49.0734 11.5081C50.0395 11.748 51.0276 11.8719 52.022 11.8797C52.3808 11.8829 52.7411 11.8703 53.0998 11.8468C53.5451 11.8186 53.9857 11.7778 54.4294 11.7292C54.8542 11.6821 55.2791 11.6288 55.7023 11.5645C55.9855 11.5222 56.2656 11.4626 56.5441 11.3858C56.6118 11.3669 56.6841 11.3544 56.7565 11.3466C56.766 11.3466 56.777 11.3528 56.7817 11.3622C56.7864 11.3732 56.7833 11.3842 56.7754 11.3905C56.7188 11.4328 56.6574 11.4689 56.5929 11.4987C53.1549 13.0166 49.6666 14.4186 46.131 15.6966C45.9957 15.7468 45.8509 15.684 45.7927 15.5586Z" stroke="white" stroke-width="0.162" stroke-linejoin="bevel"/>
<path fill-rule="evenodd" clip-rule="evenodd" d="M58.4675 27.947C59.7734 24.5206 61.2163 21.1475 62.796 17.8387C62.8039 17.8231 62.8196 17.8136 62.8354 17.8184C62.8527 17.8231 62.8637 17.8403 62.8621 17.8576C62.8543 17.9234 62.8432 17.9877 62.8338 18.0536C62.8086 18.2198 62.7787 18.386 62.7441 18.5507C62.5144 19.6876 62.3759 20.8433 62.3303 22.0022C62.2941 22.9697 62.3932 23.9404 62.623 24.8829C62.8401 25.7689 63.1894 26.6141 63.6614 27.395C64.1744 28.2434 64.7849 29.029 65.4835 29.7347C65.7352 29.9903 65.9964 30.2365 66.2671 30.4717C66.6022 30.7634 66.9452 31.0488 67.2914 31.3248C67.6234 31.5914 67.9632 31.8517 68.3078 32.1057C68.5376 32.2751 68.7783 32.4319 69.0285 32.573C69.0914 32.6075 69.1528 32.6499 69.2078 32.6969C69.2157 32.7048 69.2173 32.7157 69.2157 32.7252C69.211 32.7361 69.2016 32.7408 69.189 32.7408C69.1197 32.7299 69.0505 32.7126 68.9844 32.6875C65.4756 31.3405 62.014 29.8711 58.6075 28.2842C58.4769 28.2246 58.4171 28.0772 58.4675 27.947Z" fill="white"/>
<path d="M58.4675 27.947C59.7734 24.5222 61.2163 21.1475 62.796 17.8387C62.8039 17.8231 62.8196 17.8136 62.8354 17.8184C62.8527 17.8231 62.8637 17.8403 62.8621 17.8576C62.8543 17.9234 62.8432 17.9877 62.8338 18.0536C62.8086 18.2198 62.7787 18.386 62.7441 18.5507C62.5144 19.6892 62.3759 20.8433 62.3303 22.0022C62.2941 22.9697 62.3932 23.9404 62.623 24.8829C62.8401 25.7673 63.1894 26.6141 63.6614 27.395C64.1744 28.2434 64.7849 29.029 65.4835 29.7347C65.7352 29.9903 65.9964 30.2365 66.2671 30.4717C66.6022 30.7634 66.9452 31.0488 67.2914 31.3248C67.6234 31.5914 67.9632 31.8517 68.3078 32.1057C68.5376 32.2751 68.7783 32.4319 69.0285 32.573C69.0914 32.6075 69.1528 32.6499 69.2078 32.6969C69.2157 32.7048 69.2173 32.7157 69.2157 32.7252C69.211 32.7361 69.2016 32.7408 69.189 32.7408C69.1197 32.7299 69.0505 32.7126 68.9844 32.6875C65.4756 31.3405 62.014 29.8711 58.6075 28.2842C58.4769 28.2246 58.4171 28.0772 58.4675 27.947Z" stroke="white" stroke-width="0.162" stroke-linejoin="bevel"/>
<path fill-rule="evenodd" clip-rule="evenodd" d="M58.6388 45.6406C61.9934 44.1399 65.4063 42.7709 68.8726 41.5446C68.8883 41.5368 68.9056 41.5446 68.915 41.5572C68.9229 41.5713 68.9198 41.5917 68.9056 41.6042C68.8521 41.6434 68.8002 41.6826 68.7467 41.7234C68.6098 41.8222 68.4713 41.9179 68.3313 42.0104C67.3605 42.6518 66.4447 43.3715 65.5903 44.1587C64.876 44.8174 64.2592 45.5732 63.7526 46.4012C63.2789 47.1806 62.9249 48.0258 62.7046 48.9102C62.4655 49.8715 62.3396 50.8563 62.3302 51.8474C62.327 52.2049 62.338 52.564 62.3616 52.9215C62.3915 53.3653 62.4309 53.806 62.4796 54.2466C62.5268 54.67 62.5819 55.0934 62.6433 55.5153C62.6858 55.7975 62.7471 56.0782 62.8242 56.3542C62.8431 56.4216 62.8557 56.4954 62.862 56.5659C62.8636 56.5753 62.8573 56.5863 62.8478 56.591C62.8384 56.5957 62.8258 56.5926 62.8195 56.5847C62.777 56.5283 62.7408 56.4671 62.7125 56.4028C61.1878 52.9764 59.7827 49.4999 58.4988 45.9762C58.4485 45.8429 58.5114 45.6987 58.6388 45.6406Z" fill="white"/>
<path d="M58.6388 45.6406C61.9934 44.1399 65.4063 42.7709 68.8726 41.5446C68.8883 41.5368 68.9056 41.5446 68.915 41.5572C68.9229 41.5713 68.9198 41.5917 68.9056 41.6042C68.8521 41.6434 68.8002 41.6826 68.7467 41.7234C68.6098 41.8222 68.4713 41.9179 68.3313 42.0104C67.3605 42.6518 66.4447 43.3715 65.5903 44.1587C64.876 44.8174 64.2592 45.5732 63.7526 46.4012C63.2789 47.1806 62.9249 48.0258 62.7046 48.9118C62.4655 49.8731 62.3396 50.8579 62.3302 51.8489C62.327 52.2065 62.338 52.5656 62.3616 52.9231C62.3915 53.3669 62.4309 53.806 62.4796 54.2482C62.5268 54.6716 62.5819 55.095 62.6433 55.5168C62.6858 55.7991 62.7471 56.0782 62.8242 56.3558C62.8431 56.4232 62.8557 56.4953 62.862 56.5675C62.8636 56.5769 62.8573 56.5879 62.8478 56.5926C62.8384 56.5973 62.8258 56.5941 62.8195 56.5863C62.777 56.5298 62.7408 56.4687 62.7125 56.4044C61.1878 52.978 59.7827 49.5014 58.4988 45.9778C58.4485 45.8429 58.5114 45.6987 58.6388 45.6406Z" stroke="white" stroke-width="0.162" stroke-linejoin="bevel"/>
<path fill-rule="evenodd" clip-rule="evenodd" d="M46.2082 58.2734C49.6446 59.575 53.0291 61.0145 56.3507 62.5874C56.3649 62.5952 56.3743 62.6109 56.3696 62.6282C56.3649 62.6438 56.3475 62.6548 56.3318 62.6533C56.2657 62.6454 56.1996 62.6344 56.1336 62.625C55.9668 62.5999 55.8 62.5701 55.6348 62.5356C54.494 62.3067 53.336 62.1687 52.1732 62.1248C51.2008 62.0887 50.2284 62.1875 49.2827 62.4165C48.3937 62.6329 47.5441 62.981 46.7605 63.453C45.9093 63.9627 45.1225 64.5711 44.4129 65.2674C44.1564 65.5183 43.9094 65.7786 43.6734 66.0483C43.3792 66.3823 43.0944 66.7242 42.8159 67.0692C42.5484 67.4016 42.2888 67.7388 42.0339 68.0822C41.8624 68.3127 41.7066 68.5511 41.5634 68.8004C41.5288 68.8647 41.4879 68.9243 41.4407 68.9792C41.4344 68.9886 41.4218 68.9901 41.4124 68.987C41.4029 68.9823 41.3966 68.9729 41.3982 68.9603C41.4076 68.8913 41.4265 68.8223 41.4501 68.7565C42.8033 65.2579 44.276 61.8096 45.8699 58.4146C45.9297 58.2813 46.0776 58.2217 46.2082 58.2734Z" fill="white"/>
<path d="M46.2082 58.2719C49.6446 59.5734 53.0291 61.013 56.3507 62.5858C56.3649 62.5937 56.3743 62.6094 56.3696 62.6266C56.3648 62.6423 56.3475 62.6533 56.3318 62.6517C56.2657 62.6439 56.1996 62.6329 56.1336 62.6235C55.9668 62.5984 55.8 62.5686 55.6348 62.5341C54.494 62.3051 53.336 62.1671 52.1732 62.1217C51.2008 62.0856 50.2284 62.1844 49.2827 62.4133C48.3937 62.6297 47.5441 62.9779 46.7605 63.4499C45.9093 63.9595 45.1225 64.568 44.4129 65.2642C44.1564 65.5151 43.9094 65.7754 43.6734 66.0452C43.3792 66.3792 43.0944 66.721 42.8159 67.066C42.5484 67.3985 42.2888 67.7356 42.0339 68.079C41.8624 68.3096 41.7066 68.5479 41.5634 68.7973C41.5288 68.86 41.4879 68.9211 41.4407 68.976C41.4344 68.9854 41.4218 68.987 41.4124 68.9839C41.4029 68.9792 41.3966 68.9698 41.3982 68.9572C41.4076 68.8882 41.4265 68.8192 41.4501 68.7534C42.8033 65.2564 44.276 61.8065 45.8699 58.4114C45.9297 58.2813 46.0776 58.2217 46.2082 58.2719Z" stroke="white" stroke-width="0.162" stroke-linejoin="bevel"/>
<path fill-rule="evenodd" clip-rule="evenodd" d="M28.4537 58.4428C29.961 61.7861 31.3315 65.1874 32.5651 68.642C32.5714 68.6577 32.5651 68.6749 32.5509 68.6844C32.5368 68.6922 32.5163 68.6891 32.5053 68.6765C32.4644 68.6232 32.425 68.5699 32.3857 68.5166C32.285 68.3801 32.189 68.2421 32.0962 68.1026C31.4527 67.135 30.732 66.2208 29.9406 65.3709C29.2781 64.6589 28.5213 64.0442 27.6905 63.5393C26.9101 63.0673 26.0604 62.7144 25.173 62.4949C24.2085 62.2565 23.2188 62.1311 22.2244 62.1232C21.8656 62.1201 21.5069 62.1295 21.1466 62.1546C20.7028 62.186 20.2591 62.2236 19.817 62.2722C19.3906 62.3192 18.9673 62.3741 18.5441 62.4353C18.2608 62.4776 17.9792 62.5388 17.7023 62.6156C17.633 62.6344 17.5607 62.647 17.4883 62.6533C17.4773 62.6548 17.4678 62.6486 17.4631 62.6391C17.4584 62.6297 17.4615 62.6172 17.471 62.6109C17.5292 62.5686 17.5906 62.5325 17.6535 62.5043C21.0899 60.9848 24.5814 59.5844 28.1154 58.3048C28.2491 58.253 28.397 58.3158 28.4537 58.4428Z" fill="white"/>
<path d="M28.4537 58.443C29.961 61.7863 31.3315 65.1876 32.5651 68.6422C32.5714 68.6579 32.5651 68.6752 32.5509 68.6846C32.5368 68.6924 32.5163 68.6893 32.5053 68.6752C32.4644 68.6218 32.425 68.5701 32.3857 68.5168C32.285 68.3803 32.189 68.2423 32.0962 68.1028C31.4527 67.1352 30.732 66.2226 29.9406 65.3711C29.2781 64.6591 28.5213 64.0444 27.6905 63.5395C26.9101 63.0675 26.0604 62.7146 25.173 62.4951C24.2085 62.2567 23.2188 62.1313 22.2244 62.1219C21.8656 62.1187 21.5069 62.1297 21.1466 62.1532C20.7028 62.183 20.2591 62.2222 19.817 62.2708C19.3906 62.3179 18.9673 62.3728 18.5441 62.4339C18.2608 62.4763 17.9792 62.5374 17.7023 62.6143C17.633 62.6331 17.5607 62.6456 17.4883 62.6519C17.4773 62.6535 17.4678 62.6472 17.4631 62.6378C17.4584 62.6284 17.4615 62.6158 17.471 62.6096C17.5292 62.5672 17.5906 62.5312 17.6535 62.5029C21.0899 60.9834 24.5814 59.583 28.1154 58.3034C28.2491 58.2533 28.397 58.316 28.4537 58.443Z" stroke="white" stroke-width="0.162" stroke-linejoin="bevel"/>
<path fill-rule="evenodd" clip-rule="evenodd" d="M15.7795 46.0543C14.472 49.4792 13.0291 52.8522 11.4494 56.1626C11.4431 56.1767 11.4258 56.1861 11.41 56.1814C11.3943 56.1783 11.3817 56.161 11.3833 56.1438C11.3943 56.0779 11.4022 56.012 11.4116 55.9462C11.4384 55.78 11.4683 55.6137 11.5013 55.4491C11.7326 54.3122 11.8711 53.158 11.9135 51.9992C11.9497 51.03 11.8522 50.0609 11.6209 49.1185C11.4037 48.2325 11.0529 47.3857 10.5824 46.6047C10.0695 45.7564 9.45896 44.9723 8.76192 44.2651C8.51017 44.0095 8.24898 43.7633 7.97677 43.528C7.64162 43.2348 7.30019 42.951 6.95245 42.6734C6.61888 42.4068 6.28059 42.1481 5.93758 41.894C5.70628 41.7231 5.46554 41.5679 5.21536 41.4267C5.15243 41.3906 5.09264 41.3499 5.03756 41.3028C5.0297 41.2966 5.02655 41.284 5.03127 41.2746C5.03599 41.2652 5.04543 41.2589 5.05645 41.2605C5.12725 41.2715 5.19648 41.2887 5.26257 41.3122C8.77136 42.6608 12.233 44.1286 15.6395 45.7172C15.7685 45.7768 15.8283 45.9242 15.7795 46.0543Z" fill="white"/>
<path d="M15.7795 46.0543C14.472 49.4792 13.0291 52.8522 11.4494 56.1626C11.4431 56.1767 11.4258 56.1861 11.41 56.1814C11.3943 56.1783 11.3817 56.161 11.3833 56.1438C11.3943 56.0779 11.4022 56.012 11.4116 55.9462C11.4384 55.78 11.4683 55.6137 11.5013 55.4491C11.7326 54.3122 11.8711 53.158 11.9135 51.9992C11.9497 51.03 11.8522 50.0609 11.6209 49.1185C11.4037 48.2325 11.0529 47.3857 10.5824 46.6047C10.0695 45.7564 9.45896 44.9723 8.76192 44.2651C8.51017 44.0095 8.24898 43.7633 7.97677 43.528C7.64162 43.2348 7.30019 42.951 6.95245 42.6734C6.61888 42.4068 6.28059 42.1481 5.93758 41.894C5.70628 41.7231 5.46554 41.5679 5.21536 41.4267C5.15243 41.3906 5.09264 41.3499 5.03756 41.3028C5.0297 41.2966 5.02655 41.284 5.03127 41.2746C5.03599 41.2652 5.04543 41.2589 5.05645 41.2605C5.12725 41.2699 5.19648 41.2887 5.26257 41.3122C8.77136 42.6608 12.233 44.1286 15.6395 45.7172C15.7685 45.7768 15.8283 45.9242 15.7795 46.0543Z" stroke="white" stroke-width="0.162" stroke-linejoin="bevel"/>
<path fill-rule="evenodd" clip-rule="evenodd" d="M8.05863 23.6456C8.05863 21.8376 6.58745 20.3713 4.77169 20.3713C2.9575 20.3713 1.48633 21.8376 1.48633 23.6456C1.48633 25.4553 2.9575 26.9215 4.77169 26.9215C6.58745 26.9215 8.05863 25.4553 8.05863 23.6456Z" fill="white"/>
<path d="M8.05863 23.6456C8.05863 21.8376 6.58745 20.3713 4.77169 20.3713C2.9575 20.3713 1.48633 21.8376 1.48633 23.6456C1.48633 25.4553 2.9575 26.9215 4.77169 26.9215C6.58745 26.9215 8.05863 25.4553 8.05863 23.6456Z" stroke="white" stroke-width="0.162" stroke-linejoin="bevel"/>
<path fill-rule="evenodd" clip-rule="evenodd" d="M27.0091 4.75915C27.0091 2.95108 25.5379 1.48486 23.7221 1.48486C21.9079 1.48486 20.4368 2.95108 20.4368 4.75915C20.4368 6.56879 21.9079 8.03501 23.7221 8.03501C25.5379 8.03501 27.0091 6.56879 27.0091 4.75915Z" fill="white"/>
<path d="M27.0091 4.75915C27.0091 2.95108 25.5379 1.48486 23.7221 1.48486C21.9079 1.48486 20.4368 2.95108 20.4368 4.75915C20.4368 6.56879 21.9079 8.03501 23.7221 8.03501C25.5379 8.03501 27.0091 6.56879 27.0091 4.75915Z" stroke="white" stroke-width="0.162" stroke-linejoin="bevel"/>
<path fill-rule="evenodd" clip-rule="evenodd" d="M53.8113 4.75915C53.8113 2.95108 52.3401 1.48486 50.5244 1.48486C48.7102 1.48486 47.239 2.95108 47.239 4.75915C47.239 6.56879 48.7102 8.03501 50.5244 8.03501C52.3401 8.03501 53.8113 6.56879 53.8113 4.75915Z" fill="white"/>
<path d="M53.8113 4.75915C53.8113 2.95108 52.3401 1.48486 50.5244 1.48486C48.7102 1.48486 47.239 2.95108 47.239 4.75915C47.239 6.56879 48.7102 8.03501 50.5244 8.03501C52.3401 8.03501 53.8113 6.56879 53.8113 4.75915Z" stroke="white" stroke-width="0.162" stroke-linejoin="bevel"/>
<path fill-rule="evenodd" clip-rule="evenodd" d="M72.7627 23.6456C72.7627 21.8376 71.2916 20.3713 69.4758 20.3713C67.6616 20.3713 66.1904 21.8376 66.1904 23.6456C66.1904 25.4553 67.6616 26.9215 69.4758 26.9215C71.2916 26.9215 72.7627 25.4553 72.7627 23.6456Z" fill="white"/>
<path d="M72.7627 23.6456C72.7627 21.8376 71.2916 20.3713 69.4758 20.3713C67.6616 20.3713 66.1904 21.8376 66.1904 23.6456C66.1904 25.4553 67.6616 26.9215 69.4758 26.9215C71.2916 26.9215 72.7627 25.4553 72.7627 23.6456Z" stroke="white" stroke-width="0.162" stroke-linejoin="bevel"/>
<path fill-rule="evenodd" clip-rule="evenodd" d="M72.7627 50.3558C72.7627 48.5478 71.2916 47.0815 69.4758 47.0815C67.6616 47.0815 66.1904 48.5478 66.1904 50.3558C66.1904 52.1655 67.6616 53.6317 69.4758 53.6317C71.2916 53.6317 72.7627 52.1655 72.7627 50.3558Z" fill="white"/>
<path d="M72.7627 50.3558C72.7627 48.5478 71.2916 47.0815 69.4758 47.0815C67.6616 47.0815 66.1904 48.5478 66.1904 50.3558C66.1904 52.1655 67.6616 53.6317 69.4758 53.6317C71.2916 53.6317 72.7627 52.1655 72.7627 50.3558Z" stroke="white" stroke-width="0.162" stroke-linejoin="bevel"/>
<path fill-rule="evenodd" clip-rule="evenodd" d="M53.8113 69.2411C53.8113 67.433 52.3401 65.9668 50.5244 65.9668C48.7102 65.9668 47.239 67.433 47.239 69.2411C47.239 71.0507 48.7102 72.5169 50.5244 72.5169C52.3401 72.5185 53.8113 71.0507 53.8113 69.2411Z" fill="white"/>
<path d="M53.8113 69.2411C53.8113 67.433 52.3401 65.9668 50.5244 65.9668C48.7102 65.9668 47.239 67.433 47.239 69.2411C47.239 71.0507 48.7102 72.5169 50.5244 72.5169C52.3401 72.5185 53.8113 71.0523 53.8113 69.2411Z" stroke="white" stroke-width="0.162" stroke-linejoin="bevel"/>
<path fill-rule="evenodd" clip-rule="evenodd" d="M27.0091 69.2411C27.0091 67.433 25.5379 65.9668 23.7221 65.9668C21.9079 65.9668 20.4368 67.433 20.4368 69.2411C20.4368 71.0507 21.9079 72.5169 23.7221 72.5169C25.5379 72.5185 27.0091 71.0507 27.0091 69.2411Z" fill="white"/>
<path d="M27.0091 69.2411C27.0091 67.433 25.5379 65.9668 23.7221 65.9668C21.9079 65.9668 20.4368 67.433 20.4368 69.2411C20.4368 71.0507 21.9079 72.5169 23.7221 72.5169C25.5379 72.5185 27.0091 71.0523 27.0091 69.2411Z" stroke="white" stroke-width="0.162" stroke-linejoin="bevel"/>
<path fill-rule="evenodd" clip-rule="evenodd" d="M8.05863 50.3558C8.05863 48.5478 6.58745 47.0815 4.77169 47.0815C2.9575 47.0815 1.48633 48.5478 1.48633 50.3558C1.48633 52.1655 2.9575 53.6317 4.77169 53.6317C6.58745 53.6317 8.05863 52.1655 8.05863 50.3558Z" fill="white"/>
<path d="M8.05863 50.3558C8.05863 48.5478 6.58745 47.0815 4.77169 47.0815C2.9575 47.0815 1.48633 48.5478 1.48633 50.3558C1.48633 52.1655 2.9575 53.6317 4.77169 53.6317C6.58745 53.6317 8.05863 52.1655 8.05863 50.3558Z" stroke="white" stroke-width="0.162" stroke-linejoin="bevel"/>
<path d="M100.009 18.8038H103.576L98.571 5.01913H94.6697L89.665 18.8038H93.1919L94.0195 16.3689H99.1818L100.009 18.8038ZM98.3148 13.7769H94.9061L96.6006 8.73039L98.3148 13.7769Z" fill="white"/>
<path d="M112.921 7.84675H104.527V10.6155H109.059L104.488 16.1333V18.8038H113.02V16.0351H108.251L112.921 10.5173V7.84675Z" fill="white"/>
<path d="M119.721 16.2707C118.597 16.2707 117.652 15.5835 117.652 14.3856H121.868C121.671 15.6031 120.824 16.2707 119.721 16.2707ZM119.681 18.9609C122.952 18.9609 125.237 16.8009 125.237 13.3253C125.237 9.84966 122.912 7.68966 119.681 7.68966C116.942 7.68966 114.992 9.33911 114.46 11.4795H118.046C118.322 10.8904 118.854 10.4191 119.799 10.4191C120.883 10.4191 121.77 11.0867 121.888 12.5202H114.263C114.223 12.854 114.204 13.1878 114.204 13.502C114.204 16.8402 116.469 18.9609 119.681 18.9609Z" fill="white"/>
<path d="M130.384 13.718C130.384 11.8329 131.31 11.2831 132.906 11.2831H133.832V7.72894C132.355 7.72894 131.153 8.51439 130.384 9.67293V7.84675H127.015V18.8038H130.384V13.718Z" fill="white"/>
<path d="M138.812 9.39802V4.27295H135.443V18.8038H138.812V17.2722C139.423 18.2344 140.585 18.9609 142.201 18.9609C144.9 18.9609 147.048 16.7616 147.048 13.3056C147.048 9.84966 144.92 7.68966 142.201 7.68966C140.625 7.68966 139.423 8.41621 138.812 9.39802ZM143.62 13.3056C143.62 15.0533 142.477 16.0351 141.196 16.0351C139.935 16.0351 138.792 15.0729 138.792 13.3253C138.792 11.5776 139.935 10.6155 141.196 10.6155C142.477 10.6155 143.62 11.558 143.62 13.3056Z" fill="white"/>
<path d="M148.146 13.3056C148.146 16.7616 150.293 18.9609 152.973 18.9609C154.608 18.9609 155.771 18.2147 156.382 17.2525V18.8038H159.751V7.84675H156.382V9.39802C155.791 8.43584 154.628 7.68966 152.993 7.68966C150.293 7.68966 148.146 9.84966 148.146 13.3056ZM156.382 13.3253C156.382 15.0729 155.259 16.0351 153.978 16.0351C152.717 16.0351 151.574 15.0533 151.574 13.3056C151.574 11.558 152.717 10.6155 153.978 10.6155C155.259 10.6155 156.382 11.5776 156.382 13.3253Z" fill="white"/>
<path d="M167.252 14.6998L164.711 7.84675H160.947L165.42 18.4307L162.898 24.0074H166.523L173.419 7.84675H169.774L167.252 14.6998Z" fill="white"/>
<path d="M173.968 13.3253C173.968 16.8009 176.253 18.9609 179.485 18.9609C182.243 18.9609 184.194 17.3704 184.765 14.8373H181.179C180.884 15.6424 180.352 16.094 179.426 16.094C178.224 16.094 177.396 15.1515 177.396 13.3253C177.396 11.4991 178.224 10.5566 179.426 10.5566C180.352 10.5566 180.903 11.0475 181.179 11.8133H184.765C184.194 9.20166 182.243 7.68966 179.485 7.68966C176.253 7.68966 173.968 9.86929 173.968 13.3253Z" fill="white"/>
<path d="M185.898 13.3056C185.898 16.7616 188.045 18.9609 190.725 18.9609C192.36 18.9609 193.523 18.2147 194.134 17.2525V18.8038H197.503V7.84675H194.134V9.39802C193.543 8.43584 192.38 7.68966 190.745 7.68966C188.045 7.68966 185.898 9.84966 185.898 13.3056ZM194.134 13.3253C194.134 15.0729 193.011 16.0351 191.73 16.0351C190.469 16.0351 189.326 15.0533 189.326 13.3056C189.326 11.558 190.469 10.6155 191.73 10.6155C193.011 10.6155 194.134 11.5776 194.134 13.3253Z" fill="white"/>
<path d="M207.526 18.8038H210.876V12.4024C210.876 9.45693 209.181 7.72894 206.64 7.72894C205.162 7.72894 203.98 8.37693 203.31 9.29984V7.84675H199.94V18.8038H203.31V12.854C203.31 11.3616 204.137 10.5369 205.418 10.5369C206.699 10.5369 207.526 11.3616 207.526 12.854V18.8038Z" fill="white"/>
<path d="M100.049 64.6218H102.965L98.0193 50.896H94.8076L89.8621 64.6218H92.7585L93.6648 62.0102H99.1424L100.049 64.6218ZM98.3936 59.8109H94.4135L96.4036 54.0771L98.3936 59.8109Z" fill="white"/>
<path d="M113.286 61.5193C113.207 57.5331 107.158 58.7702 107.158 56.7869C107.158 56.1586 107.69 55.7462 108.715 55.7462C109.798 55.7462 110.468 56.3157 110.547 57.16H113.187C113.03 55 111.434 53.5666 108.793 53.5666C106.094 53.5666 104.478 55.0197 104.478 56.8262C104.478 60.8124 110.646 59.5753 110.646 61.5193C110.646 62.1476 110.054 62.6385 108.971 62.6385C107.867 62.6385 107.099 62.0102 107 61.1855H104.222C104.341 63.208 106.252 64.7985 108.99 64.7985C111.65 64.7985 113.286 63.3847 113.286 61.5193Z" fill="white"/>
<path d="M124.023 61.5193C123.944 57.5331 117.895 58.7702 117.895 56.7869C117.895 56.1586 118.427 55.7462 119.451 55.7462C120.535 55.7462 121.205 56.3157 121.284 57.16H123.924C123.766 55 122.171 53.5666 119.53 53.5666C116.831 53.5666 115.215 55.0197 115.215 56.8262C115.215 60.8124 121.382 59.5753 121.382 61.5193C121.382 62.1476 120.791 62.6385 119.708 62.6385C118.604 62.6385 117.836 62.0102 117.737 61.1855H114.959C115.077 63.208 116.989 64.7985 119.727 64.7985C122.387 64.7985 124.023 63.3847 124.023 61.5193Z" fill="white"/>
<path d="M136.828 59.1826C136.828 55.7462 134.365 53.5666 131.213 53.5666C128.06 53.5666 125.597 55.7462 125.597 59.1826C125.597 62.5993 127.981 64.7985 131.134 64.7985C134.306 64.7985 136.828 62.5993 136.828 59.1826ZM128.395 59.1826C128.395 57.0029 129.715 55.9622 131.173 55.9622C132.631 55.9622 133.991 57.0029 133.991 59.1826C133.991 61.3426 132.592 62.4029 131.134 62.4029C129.656 62.4029 128.395 61.3426 128.395 59.1826Z" fill="white"/>
<path d="M147.324 61.5193C147.245 57.5331 141.196 58.7702 141.196 56.7869C141.196 56.1586 141.728 55.7462 142.753 55.7462C143.837 55.7462 144.507 56.3157 144.585 57.16H147.226C147.068 55 145.472 53.5666 142.832 53.5666C140.132 53.5666 138.517 55.0197 138.517 56.8262C138.517 60.8124 144.684 59.5753 144.684 61.5193C144.684 62.1476 144.093 62.6385 143.009 62.6385C141.906 62.6385 141.137 62.0102 141.039 61.1855H138.261C138.379 63.208 140.29 64.7985 143.029 64.7985C145.689 64.7985 147.324 63.3847 147.324 61.5193Z" fill="white"/>
<path d="M149.589 64.6218H152.347V53.7433H149.589V64.6218ZM150.987 52.4473C151.953 52.4473 152.682 51.7404 152.682 50.8371C152.682 49.9339 151.953 49.227 150.987 49.227C150.002 49.227 149.293 49.9339 149.293 50.8371C149.293 51.7404 150.002 52.4473 150.987 52.4473Z" fill="white"/>
<path d="M154.363 59.1433C154.363 62.5404 156.57 64.7985 159.328 64.7985C161.062 64.7985 162.303 63.9738 162.954 63.0313V64.6218H165.732V53.7433H162.954V55.2946C162.303 54.3913 161.102 53.5666 159.348 53.5666C156.57 53.5666 154.363 55.7462 154.363 59.1433ZM162.954 59.1826C162.954 61.2444 161.574 62.3833 160.057 62.3833C158.58 62.3833 157.181 61.2051 157.181 59.1433C157.181 57.0815 158.58 55.9818 160.057 55.9818C161.574 55.9818 162.954 57.1208 162.954 59.1826Z" fill="white"/>
<path d="M176.898 61.5193C176.82 57.5331 170.771 58.7702 170.771 56.7869C170.771 56.1586 171.303 55.7462 172.327 55.7462C173.411 55.7462 174.081 56.3157 174.16 57.16H176.8C176.642 55 175.046 53.5666 172.406 53.5666C169.707 53.5666 168.091 55.0197 168.091 56.8262C168.091 60.8124 174.258 59.5753 174.258 61.5193C174.258 62.1476 173.667 62.6385 172.583 62.6385C171.48 62.6385 170.712 62.0102 170.613 61.1855H167.835C167.953 63.208 169.864 64.7985 172.603 64.7985C175.263 64.7985 176.898 63.3847 176.898 61.5193Z" fill="white"/>
<path d="M179.163 64.6218H181.921V53.7433H179.163V64.6218ZM180.562 52.4473C181.527 52.4473 182.256 51.7404 182.256 50.8371C182.256 49.9339 181.527 49.227 180.562 49.227C179.577 49.227 178.867 49.9339 178.867 50.8371C178.867 51.7404 179.577 52.4473 180.562 52.4473Z" fill="white"/>
<path d="M189.297 61.3426L186.479 53.7433H183.386L187.76 64.3469L185.395 69.7665H188.331L195.089 53.7433H192.154L189.297 61.3426Z" fill="white"/>
<path d="M195.867 59.1433C195.867 62.5404 198.074 64.7985 200.832 64.7985C202.566 64.7985 203.808 63.9738 204.458 63.0313V64.6218H207.236V53.7433H204.458V55.2946C203.808 54.3913 202.606 53.5666 200.852 53.5666C198.074 53.5666 195.867 55.7462 195.867 59.1433ZM204.458 59.1826C204.458 61.2444 203.079 62.3833 201.561 62.3833C200.084 62.3833 198.685 61.2051 198.685 59.1433C198.685 57.0815 200.084 55.9818 201.561 55.9818C203.079 55.9818 204.458 57.1208 204.458 59.1826Z" fill="white"/>
<path d="M218.402 61.5193C218.324 57.5331 212.275 58.7702 212.275 56.7869C212.275 56.1586 212.807 55.7462 213.831 55.7462C214.915 55.7462 215.585 56.3157 215.664 57.16H218.304C218.146 55 216.55 53.5666 213.91 53.5666C211.211 53.5666 209.595 55.0197 209.595 56.8262C209.595 60.8124 215.762 59.5753 215.762 61.5193C215.762 62.1476 215.171 62.6385 214.087 62.6385C212.984 62.6385 212.216 62.0102 212.117 61.1855H209.339C209.457 63.208 211.368 64.7985 214.107 64.7985C216.767 64.7985 218.402 63.3847 218.402 61.5193Z" fill="white"/>
<path d="M220.785 64.6218H223.544V53.7433H220.785V64.6218Z" fill="white"/>
<path d="M97.0341 29.2566C92.8964 29.2566 90 32.1627 90 36.2863C90 40.41 92.9161 43.2965 97.0538 43.2965C100.699 43.2965 103.004 40.9205 103.714 38.5445V35.4223H96.3839V37.8965H100.66C100.147 39.4478 98.9847 40.3314 97.3099 40.3314C94.8864 40.3314 93.4284 38.8391 93.4284 36.2863C93.4284 33.8907 94.8667 32.3591 97.0341 32.3591C98.2951 32.3591 99.2409 32.85 99.7532 33.7729H103.477C102.748 30.9453 100.344 29.2566 97.0341 29.2566Z" fill="white"/>
<path d="M110.427 40.6652C109.304 40.6652 108.358 39.978 108.358 38.7802H112.575C112.377 39.9976 111.53 40.6652 110.427 40.6652ZM110.387 43.3554C113.658 43.3554 115.944 41.1954 115.944 37.7198C115.944 34.2442 113.619 32.0842 110.387 32.0842C107.649 32.0842 105.698 33.7336 105.166 35.874H108.752C109.028 35.2849 109.56 34.8136 110.506 34.8136C111.589 34.8136 112.476 35.4813 112.594 36.9147H104.969C104.93 37.2485 104.91 37.5823 104.91 37.8965C104.91 41.2347 107.176 43.3554 110.387 43.3554Z" fill="white"/>
<path d="M125.307 43.1983H128.657V36.7969C128.657 33.8514 126.962 32.1235 124.42 32.1235C122.943 32.1235 121.76 32.7714 121.091 33.6944V32.2413H117.721V43.1983H121.091V37.2485C121.091 35.7562 121.918 34.9314 123.199 34.9314C124.479 34.9314 125.307 35.7562 125.307 37.2485V43.1983Z" fill="white"/>
<path d="M130.328 37.7198C130.328 41.1954 132.614 43.3554 135.845 43.3554C138.603 43.3554 140.554 41.7649 141.125 39.2318H137.539C137.244 40.0369 136.712 40.4885 135.786 40.4885C134.584 40.4885 133.756 39.546 133.756 37.7198C133.756 35.8936 134.584 34.9511 135.786 34.9511C136.712 34.9511 137.264 35.442 137.539 36.2078H141.125C140.554 33.5962 138.603 32.0842 135.845 32.0842C132.614 32.0842 130.328 34.2638 130.328 37.7198Z" fill="white"/>
<path d="M147.241 43.1983H150V34.2834L153.704 43.1983H155.792L159.477 34.2834V43.1983H162.235V29.4922H159.122L154.748 39.6834L150.374 29.4922H147.241V43.1983Z" fill="white"/>
<path d="M175.267 32.3198H172.489V38.3089C172.489 40.0565 171.543 40.9991 170.046 40.9991C168.588 40.9991 167.622 40.0565 167.622 38.3089V32.3198H164.864V38.7016C164.864 41.6863 166.696 43.3358 169.238 43.3358C170.598 43.3358 171.8 42.7467 172.489 41.8238V43.1983H175.267V32.3198ZM168.292 31.0238C169.021 31.0238 169.613 30.4544 169.613 29.7278C169.613 29.0013 169.021 28.4122 168.292 28.4122C167.563 28.4122 166.992 29.0013 166.992 29.7278C166.992 30.4544 167.563 31.0238 168.292 31.0238ZM171.938 31.0238C172.667 31.0238 173.258 30.4544 173.258 29.7278C173.258 29.0013 172.667 28.4122 171.938 28.4122C171.208 28.4122 170.637 29.0013 170.637 29.7278C170.637 30.4544 171.208 31.0238 171.938 31.0238Z" fill="white"/>
<path d="M182.738 41.1169C181.319 41.1169 180.176 40.2136 180.137 38.7802H185.319C185.102 40.2725 184.058 41.1169 182.738 41.1169ZM182.659 43.375C185.89 43.375 188.136 41.1954 188.136 37.7591C188.136 34.3424 185.831 32.1431 182.659 32.1431C179.959 32.1431 178.147 33.7336 177.556 35.7365H180.531C180.885 35.01 181.536 34.4209 182.718 34.4209C184.097 34.4209 185.2 35.3242 185.338 36.9343H177.359C177.299 37.2878 177.28 37.6413 177.28 37.9947C177.28 41.2347 179.506 43.375 182.659 43.375Z" fill="white"/>
<path d="M190.15 43.1983H192.908V28.6675H190.15V43.1983Z" fill="white"/>
<path d="M195.634 43.1983H198.392V28.6675H195.634V43.1983Z" fill="white"/>
<path d="M201.117 43.1983H203.876V32.3198H201.117V43.1983ZM202.516 31.0238C203.482 31.0238 204.211 30.3169 204.211 29.4136C204.211 28.5104 203.482 27.8035 202.516 27.8035C201.531 27.8035 200.822 28.5104 200.822 29.4136C200.822 30.3169 201.531 31.0238 202.516 31.0238Z" fill="white"/>
<path d="M221.871 43.1983H224.63V36.8165C224.63 33.8122 222.778 32.1627 220.157 32.1627C218.561 32.1627 217.123 33.0071 216.414 34.2442C215.665 32.8893 214.266 32.1627 212.571 32.1627C211.212 32.1627 210.049 32.7322 209.36 33.6354V32.3198H206.601V43.1983H209.36V37.1896C209.36 35.4616 210.325 34.5584 211.823 34.5584C213.281 34.5584 214.246 35.4616 214.246 37.1896V43.1983H217.005V37.1896C217.005 35.4616 217.97 34.5584 219.448 34.5584C220.906 34.5584 221.871 35.4616 221.871 37.1896V43.1983Z" fill="white"/>
<path d="M227.247 43.1983H230.006V28.6675H227.247V43.1983Z" fill="white"/>
<path d="M237.48 41.1169C236.061 41.1169 234.918 40.2136 234.879 38.7802H240.061C239.844 40.2725 238.8 41.1169 237.48 41.1169ZM237.401 43.375C240.632 43.375 242.879 41.1954 242.879 37.7591C242.879 34.3424 240.573 32.1431 237.401 32.1431C234.702 32.1431 232.889 33.7336 232.298 35.7365H235.273C235.628 35.01 236.278 34.4209 237.46 34.4209C238.839 34.4209 239.943 35.3242 240.081 36.9343H232.101C232.042 37.2878 232.022 37.6413 232.022 37.9947C232.022 41.2347 234.248 43.375 237.401 43.375Z" fill="white"/>
<path d="M247.65 37.7787C247.65 35.6776 248.636 35.0493 250.271 35.0493H251V32.1627C249.483 32.1627 248.34 32.8893 247.65 34.0085V32.3198H244.892V43.1983H247.65V37.7787Z" fill="white"/>
</svg>
