<svg width="33" height="44" viewBox="0 0 33 44" fill="none" xmlns="http://www.w3.org/2000/svg">
<path d="M0 0H33V27.2495C33 36.3622 25.6127 43.7495 16.5 43.7495C7.3873 43.7495 0 36.3622 0 27.2495V0Z" fill="#AB417F"/>
<path fill-rule="evenodd" clip-rule="evenodd" d="M11.3139 21.2202L7.59906 31.5202L11.4706 30.4586L13.7697 33.7495L17.3499 23.8215C16.9514 23.7112 11.8063 22.4641 11.3139 21.2202Z" fill="white"/>
<path fill-rule="evenodd" clip-rule="evenodd" d="M21.5348 21.2202L25.2494 31.5202L21.3778 30.4586L19.0787 33.7495L15.4985 23.8215C15.8973 23.7112 21.0423 22.4641 21.5348 21.2202Z" fill="white"/>
<path opacity="0.7" fill-rule="evenodd" clip-rule="evenodd" d="M23.0154 25.3251L22.5982 24.168C22.555 24.2771 22.5162 24.3903 22.4826 24.5089C22.2458 25.348 21.7666 25.7676 21.0454 25.7676C20.8611 25.7676 20.661 25.7403 20.4448 25.6854C20.1683 25.6152 19.901 25.5801 19.6431 25.5801C18.912 25.5801 18.2565 25.8624 17.6767 26.427C17.3317 26.7629 16.9867 26.9509 16.6417 26.9914L16.9149 27.7488C17.3709 27.6539 17.8115 27.4017 18.2296 26.9949C18.6596 26.5762 19.1221 26.3726 19.6434 26.3726C19.8342 26.3726 20.0384 26.3999 20.2501 26.4535C20.5287 26.5242 20.7963 26.5601 21.0456 26.5601C21.584 26.5601 22.4854 26.3836 23.0154 25.3251Z" fill="#E8ECF1"/>
<path opacity="0.7" fill-rule="evenodd" clip-rule="evenodd" d="M15.3236 26.4273C14.7437 25.8626 14.0883 25.5803 13.3571 25.5803C13.0993 25.5803 12.8321 25.6154 12.5554 25.6857C12.3395 25.7405 12.1391 25.7679 11.9548 25.7679C11.2334 25.7679 10.7544 25.3483 10.5176 24.5091C10.4641 24.3194 10.3977 24.1422 10.3197 23.977L9.89966 25.1414C10.4131 26.3646 11.3861 26.5604 11.9548 26.5604C12.204 26.5604 12.4718 26.5246 12.7504 26.4537C12.962 26.3999 13.1663 26.3728 13.3571 26.3728C13.8784 26.3728 14.3409 26.5764 14.7708 26.9951C15.146 27.3605 15.5395 27.6014 15.9461 27.7157L16.2163 26.9667C15.9186 26.8965 15.6211 26.7169 15.3236 26.4273Z" fill="#E8ECF1"/>
<path d="M15.3236 26.4272C14.5393 25.6635 13.6164 25.4161 12.5555 25.6854C11.4943 25.9548 10.8151 25.5625 10.5176 24.5089C10.2204 23.4553 9.5447 22.7799 8.4911 22.4824C7.43751 22.1851 7.04525 21.5057 7.31456 20.4445C7.58387 19.3834 7.33668 18.4607 6.57277 17.6764C5.80908 16.8921 5.80908 16.1079 6.57277 15.3236C7.33646 14.5393 7.58387 13.6164 7.31456 12.5555C7.04525 11.4943 7.43751 10.8151 8.4911 10.5176C9.5447 10.2204 10.2201 9.5447 10.5176 8.4911C10.8149 7.43751 11.4943 7.04525 12.5555 7.31456C13.6166 7.58387 14.5393 7.33668 15.3236 6.57277C16.1079 5.80908 16.8921 5.80908 17.6764 6.57277C18.4607 7.33646 19.3836 7.58387 20.4445 7.31456C21.5057 7.04525 22.1849 7.43751 22.4824 8.4911C22.7796 9.5447 23.4553 10.2201 24.5089 10.5176C25.5625 10.8149 25.9548 11.4943 25.6854 12.5555C25.4161 13.6166 25.6633 14.5393 26.4272 15.3236C27.1909 16.1079 27.1909 16.8921 26.4272 17.6764C25.6635 18.4607 25.4161 19.3836 25.6854 20.4445C25.9548 21.5057 25.5625 22.1849 24.5089 22.4824C23.4553 22.7799 22.7799 23.4553 22.4824 24.5089C22.1851 25.5625 21.5057 25.9548 20.4445 25.6854C19.3834 25.4161 18.4607 25.6633 17.6764 26.4272C16.8921 27.1909 16.1079 27.1909 15.3236 26.4272Z" fill="white"/>
<path opacity="0.35" d="M23.779 19.5829C23.38 20.5259 22.8091 21.3728 22.0823 22.0999C21.3552 22.8267 20.5085 23.3976 19.5653 23.7966C18.5882 24.2099 17.5511 24.4194 16.4823 24.4194C15.4138 24.4194 14.3764 24.2099 13.3996 23.7966C12.4563 23.3976 11.6096 22.8267 10.8826 22.0999C10.1557 21.3728 9.58481 20.5261 9.18583 19.5829C8.78534 18.6362 8.57674 17.6326 8.56417 16.599C8.56373 16.632 8.56287 16.6649 8.56287 16.6981C8.56287 17.7667 8.77233 18.804 9.18562 19.781C9.58459 20.7243 10.1553 21.571 10.8823 22.2981C11.6092 23.0249 12.4561 23.5958 13.3994 23.9948C14.3764 24.4081 15.4135 24.6175 16.4821 24.6175C17.5507 24.6175 18.588 24.4081 19.5651 23.9948C20.5083 23.5958 21.355 23.0249 22.0821 22.2981C22.8091 21.571 23.3798 20.7243 23.7788 19.781C24.1921 18.804 24.4016 17.7669 24.4016 16.6981C24.4016 16.6649 24.4007 16.632 24.4003 16.599C24.3881 17.6326 24.1795 18.6362 23.779 19.5829Z" fill="white"/>
<path d="M23.779 13.4172C23.3801 12.4741 22.8091 11.6272 22.0823 10.9001C21.3553 10.1731 20.5085 9.60238 19.5653 9.20341C18.5882 8.79012 17.5511 8.58066 16.4823 8.58066C15.4138 8.58066 14.3764 8.79012 13.3996 9.20341C12.4566 9.60238 11.6096 10.1731 10.8826 10.9001C10.1558 11.6272 9.58484 12.4739 9.18586 13.4172C8.77257 14.3942 8.56311 15.4313 8.56311 16.5001C8.56311 17.5687 8.77257 18.606 9.18586 19.5831C9.58484 20.5263 10.1555 21.373 10.8826 22.1001C11.6094 22.8269 12.4564 23.3978 13.3996 23.7968C14.3767 24.2101 15.4138 24.4196 16.4823 24.4196C17.5509 24.4196 18.5882 24.2101 19.5653 23.7968C20.5085 23.3978 21.3553 22.8269 22.0823 22.1001C22.8094 21.373 23.3801 20.5263 23.779 19.5831C24.1923 18.606 24.4018 17.5689 24.4018 16.5001C24.4018 15.4315 24.1923 14.3942 23.779 13.4172ZM16.4826 23.3118C12.7266 23.3118 9.67092 20.2561 9.67092 16.5001C9.67092 12.7441 12.7266 9.68847 16.4826 9.68847C20.2386 9.68847 23.2942 12.7441 23.2942 16.5001C23.2942 20.2561 20.2386 23.3118 16.4826 23.3118Z" fill="#AB417F"/>
<path opacity="0.5" d="M16.4825 9.88642C20.2054 9.88642 23.2398 12.8885 23.2929 16.599C23.2933 16.566 23.2942 16.5331 23.2942 16.4999C23.2942 12.7439 20.2386 9.68823 16.4825 9.68823C12.7265 9.68823 9.6709 12.7439 9.6709 16.4999C9.6709 16.5331 9.67177 16.566 9.6722 16.599C9.72532 12.8887 12.7597 9.88642 16.4825 9.88642Z" fill="white"/>
<path opacity="0.3" d="M9.1861 13.6153C9.58508 12.6721 10.1558 11.8254 10.8828 11.0983C11.6099 10.3713 12.4566 9.80057 13.3999 9.40159C14.3769 8.98831 15.414 8.77884 16.4826 8.77884C17.5512 8.77884 18.5885 8.98831 19.5655 9.40159C20.5086 9.80057 21.3555 10.3713 22.0826 11.0983C22.8096 11.8254 23.3803 12.6721 23.7793 13.6153C24.1798 14.562 24.3882 15.5656 24.4007 16.5992C24.4012 16.5662 24.402 16.5333 24.402 16.5001C24.402 15.4315 24.1926 14.3942 23.7793 13.4172C23.3803 12.4741 22.8094 11.6272 22.0826 10.9001C21.3555 10.1731 20.5088 9.60238 19.5655 9.20341C18.5885 8.79012 17.5514 8.58066 16.4826 8.58066C15.414 8.58066 14.3767 8.79012 13.3999 9.20341C12.4568 9.60238 11.6099 10.1731 10.8828 10.9001C10.156 11.6272 9.58508 12.4739 9.1861 13.4172C8.77282 14.3942 8.56335 15.4313 8.56335 16.5001C8.56335 16.5333 8.56422 16.5662 8.56466 16.5992C8.57702 15.5656 8.78561 14.562 9.1861 13.6153Z" fill="#264728"/>
<path d="M20.3945 15.2383L15.9823 19.6505C15.7841 19.8487 15.463 19.8487 15.2648 19.6505L12.5737 16.9594C12.3727 16.7583 12.3727 16.4322 12.5737 16.2312L13.2864 15.5185C13.4874 15.3175 13.8135 15.3175 14.0145 15.5185L15.4034 16.9073C15.522 17.0259 15.7141 17.0259 15.8327 16.9073L18.9482 13.7921C19.1492 13.591 19.4753 13.591 19.6763 13.7921L20.3945 14.5102C20.5955 14.7112 20.5955 15.0371 20.3945 15.2383Z" fill="#AB417F"/>
</svg>
