<svg width="18" height="18" viewBox="0 0 18 18" fill="none" xmlns="http://www.w3.org/2000/svg">
<path d="M10.8873 8.97183L16.6901 3.22535L17.8732 2.04225C18.0423 1.87324 18.0423 1.59155 17.8732 1.3662L16.6338 0.126761C16.4085 -0.0422535 16.1268 -0.0422535 15.9577 0.126761L9.02817 7.11268L2.04225 0.126761C1.87324 -0.0422535 1.59155 -0.0422535 1.3662 0.126761L0.126761 1.3662C-0.0422535 1.59155 -0.0422535 1.87324 0.126761 2.04225L7.11268 8.97183L0.126761 15.9577C-0.0422535 16.1268 -0.0422535 16.4085 0.126761 16.6338L1.3662 17.8732C1.59155 18.0423 1.87324 18.0423 2.04225 17.8732L9.02817 10.8873L14.7746 16.6901L15.9577 17.8732C16.1268 18.0423 16.4085 18.0423 16.6338 17.8732L17.8732 16.6338C18.0423 16.4085 18.0423 16.1268 17.8732 15.9577L10.8873 8.97183Z" fill="white"/>
</svg>
