<svg width="33" height="24" viewBox="0 0 33 24" fill="none" xmlns="http://www.w3.org/2000/svg">
<path fill-rule="evenodd" clip-rule="evenodd" d="M0 1.5C0 0.671573 0.671573 0 1.5 0H30.503C31.3314 0 32.003 0.671573 32.003 1.5C32.003 2.32843 31.3314 3 30.503 3H1.5C0.671573 3 0 2.32843 0 1.5ZM0 11.6511C0 10.8227 0.671573 10.1511 1.5 10.1511H30.503C31.3314 10.1511 32.003 10.8227 32.003 11.6511C32.003 12.4796 31.3314 13.1511 30.503 13.1511H1.5C0.671573 13.1511 0 12.4796 0 11.6511ZM1.5 20.3023C0.671573 20.3023 0 20.9738 0 21.8023C0 22.6307 0.671573 23.3023 1.5 23.3023H30.503C31.3314 23.3023 32.003 22.6307 32.003 21.8023C32.003 20.9738 31.3314 20.3023 30.503 20.3023H1.5Z" fill="#2E3131"/>
</svg>
