<svg width="72" height="72" viewBox="0 0 72 72" fill="none" xmlns="http://www.w3.org/2000/svg">
<rect width="72" height="72" rx="36" fill="#EDF2F7"/>
<path fill-rule="evenodd" clip-rule="evenodd" d="M23.7292 24.9167C23.7292 22.5112 25.678 20.5625 28.0834 20.5625H39.4391C40.5935 20.5625 41.7014 21.0219 42.5176 21.8381L46.9953 26.3158C47.8115 27.132 48.2709 28.2399 48.2709 29.3943V47.0833C48.2709 49.4888 46.3222 51.4375 43.9167 51.4375H28.0834C25.678 51.4375 23.7292 49.4888 23.7292 47.0833V24.9167ZM28.0834 22.9375C26.9897 22.9375 26.1042 23.8229 26.1042 24.9167V47.0833C26.1042 48.1771 26.9897 49.0625 28.0834 49.0625H43.9167C45.0105 49.0625 45.8959 48.1771 45.8959 47.0833V29.3943C45.8959 28.8705 45.6872 28.3665 45.3159 27.9952L40.8382 23.5175C40.4669 23.1462 39.9629 22.9375 39.4391 22.9375H28.0834Z" fill="#718096"/>
</svg>
