<svg width="32" height="32" viewBox="0 0 32 32" fill="none" xmlns="http://www.w3.org/2000/svg">
<path d="M8 0C6.9 0 6 0.9 6 2V30C6 31.1 6.9 32 8 32H28C29.1 32 30 31.1 30 30V8L22 0H8Z" fill="#E2E5E7"/>
<path d="M24 8H30L22 0V6C22 7.1 22.9 8 24 8Z" fill="#B0B7BD"/>
<path d="M30 14L24 8H30V14Z" fill="#CAD1D8"/>
<path d="M26 26C26 26.55 25.55 27 25 27H3C2.45 27 2 26.55 2 26V16C2 15.45 2.45 15 3 15H25C25.55 15 26 15.45 26 16V26Z" fill="#F15642"/>
<path d="M6.35889 18.947C6.35889 18.683 6.56689 18.395 6.90189 18.395H8.74889C9.78889 18.395 10.7249 19.091 10.7249 20.425C10.7249 21.689 9.78889 22.393 8.74889 22.393H7.41389V23.449C7.41389 23.801 7.18989 24 6.90189 24C6.63789 24 6.35889 23.801 6.35889 23.449V18.947ZM7.41389 19.402V21.394H8.74889C9.28489 21.394 9.70889 20.921 9.70889 20.425C9.70889 19.866 9.28489 19.402 8.74889 19.402H7.41389Z" fill="white"/>
<path d="M12.2908 24C12.0268 24 11.7388 23.8559 11.7388 23.5049V18.9629C11.7388 18.6759 12.0268 18.4669 12.2908 18.4669H14.1218C17.7758 18.4669 17.6958 24 14.1938 24H12.2908ZM12.7948 19.443V23.025H14.1218C16.2808 23.025 16.3768 19.443 14.1218 19.443H12.7948Z" fill="white"/>
<path d="M18.9918 19.5069V20.7779H21.0308C21.3188 20.7779 21.6068 21.0659 21.6068 21.3449C21.6068 21.6089 21.3188 21.8249 21.0308 21.8249H18.9918V23.5039C18.9918 23.7839 18.7928 23.9989 18.5128 23.9989C18.1608 23.9989 17.9458 23.7839 17.9458 23.5039V18.9619C17.9458 18.6749 18.1618 18.4659 18.5128 18.4659H21.3198C21.6718 18.4659 21.8798 18.6749 21.8798 18.9619C21.8798 19.2179 21.6718 19.5059 21.3198 19.5059H18.9918V19.5069Z" fill="white"/>
<path d="M25 27H6V28H25C25.55 28 26 27.55 26 27V26C26 26.55 25.55 27 25 27Z" fill="#CAD1D8"/>
</svg>
