<svg width="32" height="32" viewBox="0 0 32 32" fill="none" xmlns="http://www.w3.org/2000/svg">
<path d="M8 0C6.9 0 6 0.9 6 2V30C6 31.1 6.9 32 8 32H28C29.1 32 30 31.1 30 30V8L22 0H8Z" fill="#E2E5E7"/>
<path d="M24 8H30L22 0V6C22 7.1 22.9 8 24 8Z" fill="#B0B7BD"/>
<path d="M30 14L24 8H30V14Z" fill="#CAD1D8"/>
<path d="M26 26C26 26.55 25.55 27 25 27H3C2.45 27 2 26.55 2 26V16C2 15.45 2.45 15 3 15H25C25.55 15 26 15.45 26 16V26Z" fill="#A066AA"/>
<path d="M5.80127 18.947C5.80127 18.683 6.00827 18.394 6.34427 18.394H8.19227C9.23128 18.394 10.1673 19.09 10.1673 20.425C10.1673 21.689 9.23128 22.392 8.19227 22.392H6.85527V23.448C6.85527 23.801 6.63327 24 6.34427 24C6.08027 24 5.80127 23.801 5.80127 23.448V18.947ZM6.85527 19.402V21.393H8.19127C8.72627 21.393 9.15027 20.921 9.15027 20.425C9.15027 19.865 8.72627 19.402 8.19127 19.402H6.85527Z" fill="white"/>
<path d="M11.1861 19.027C11.1861 18.738 11.2501 18.459 11.6661 18.459C11.9531 18.459 12.0181 18.531 12.2331 18.738L14.8791 22.049V18.947C14.8791 18.683 15.1101 18.394 15.3831 18.394C15.6711 18.394 15.9501 18.683 15.9501 18.947V23.448C15.9501 23.801 15.7341 23.935 15.5261 24C15.2471 24 15.1101 23.936 14.8791 23.721L12.2331 20.362V23.449C12.2331 23.802 12.0171 24.001 11.7291 24.001C11.4411 24.001 11.1851 23.802 11.1851 23.449V19.027H11.1861Z" fill="white"/>
<path d="M21.9654 23.385C21.3974 23.856 20.7014 24.057 19.9984 24.057C18.3184 24.057 17.1274 23.097 17.1274 21.194C17.1274 19.579 18.3834 18.324 20.0694 18.324C20.7014 18.324 21.3964 18.54 21.8924 19.028C22.3804 19.507 21.6764 20.219 21.1974 19.796C20.9014 19.507 20.4854 19.292 20.0694 19.292C19.1024 19.292 18.1674 20.067 18.1674 21.194C18.1674 22.378 18.9504 23.097 19.9984 23.097C20.4854 23.097 20.9014 22.953 21.1974 22.737V21.755H19.9984C19.2864 21.755 19.3584 20.778 19.9984 20.778H21.5974C21.8934 20.778 22.1644 21.003 22.1644 21.251V22.954C22.1644 23.097 22.1014 23.232 21.9654 23.385Z" fill="white"/>
<path d="M25 27H6V28H25C25.55 28 26 27.55 26 27V26C26 26.55 25.55 27 25 27Z" fill="#CAD1D8"/>
</svg>
