<svg width="72" height="12" viewBox="0 0 72 12" fill="none" xmlns="http://www.w3.org/2000/svg">
<g clip-path="url(#clip0)">
<path fill-rule="evenodd" clip-rule="evenodd" d="M11.9628 4.52775C11.8765 4.25025 11.6515 4.0515 11.3755 4.01025L8.11152 3.5145L6.65165 0.4245V0.42375C6.5279 0.162375 6.27815 0 5.99915 0C5.72015 0 5.4704 0.162375 5.34665 0.424125L3.88677 3.5145L0.622773 4.00987C0.346773 4.0515 0.121773 4.25025 0.0351476 4.52775C-0.00757976 4.66214 -0.0130199 4.80561 0.0194077 4.94285C0.0518352 5.08009 0.120914 5.20595 0.219273 5.307L2.58177 7.71262L2.02377 11.1105C1.97652 11.3977 2.08752 11.6824 2.31365 11.8541C2.44115 11.9505 2.5904 12.0004 2.7404 12.0004C2.8559 12.0004 2.97215 11.9707 3.08015 11.9115L5.99915 10.3076L8.91815 11.9115C9.03748 11.9781 9.17375 12.0081 9.31001 11.9979C9.44628 11.9877 9.57655 11.9377 9.68465 11.8541C9.79608 11.7682 9.88194 11.6535 9.93296 11.5224C9.98398 11.3913 9.99822 11.2487 9.97415 11.1101L9.41652 7.71262L11.779 5.307C11.9785 5.10375 12.049 4.80488 11.9628 4.52775Z" fill="#FCE757"/>
</g>
<g clip-path="url(#clip1)">
<path fill-rule="evenodd" clip-rule="evenodd" d="M26.9628 4.52775C26.8765 4.25025 26.6515 4.0515 26.3755 4.01025L23.1115 3.5145L21.6516 0.4245V0.42375C21.5279 0.162375 21.2781 0 20.9991 0C20.7201 0 20.4704 0.162375 20.3466 0.424125L18.8868 3.5145L15.6228 4.00987C15.3468 4.0515 15.1218 4.25025 15.0351 4.52775C14.9924 4.66214 14.987 4.80561 15.0194 4.94285C15.0518 5.08009 15.1209 5.20595 15.2193 5.307L17.5818 7.71262L17.0238 11.1105C16.9765 11.3977 17.0875 11.6824 17.3136 11.8541C17.4411 11.9505 17.5904 12.0004 17.7404 12.0004C17.8559 12.0004 17.9721 11.9707 18.0801 11.9115L20.9991 10.3076L23.9181 11.9115C24.0375 11.9781 24.1737 12.0081 24.31 11.9979C24.4463 11.9877 24.5766 11.9377 24.6846 11.8541C24.7961 11.7682 24.8819 11.6535 24.933 11.5224C24.984 11.3913 24.9982 11.2487 24.9741 11.1101L24.4165 7.71262L26.779 5.307C26.9785 5.10375 27.049 4.80488 26.9628 4.52775Z" fill="#FCE757"/>
</g>
<g clip-path="url(#clip2)">
<path fill-rule="evenodd" clip-rule="evenodd" d="M41.9628 4.52775C41.8765 4.25025 41.6515 4.0515 41.3755 4.01025L38.1115 3.5145L36.6516 0.4245V0.42375C36.5279 0.162375 36.2781 0 35.9991 0C35.7201 0 35.4704 0.162375 35.3466 0.424125L33.8868 3.5145L30.6228 4.00987C30.3468 4.0515 30.1218 4.25025 30.0351 4.52775C29.9924 4.66214 29.987 4.80561 30.0194 4.94285C30.0518 5.08009 30.1209 5.20595 30.2193 5.307L32.5818 7.71262L32.0238 11.1105C31.9765 11.3977 32.0875 11.6824 32.3136 11.8541C32.4411 11.9505 32.5904 12.0004 32.7404 12.0004C32.8559 12.0004 32.9721 11.9707 33.0801 11.9115L35.9991 10.3076L38.9181 11.9115C39.0375 11.9781 39.1737 12.0081 39.31 11.9979C39.4463 11.9877 39.5766 11.9377 39.6846 11.8541C39.7961 11.7682 39.8819 11.6535 39.933 11.5224C39.984 11.3913 39.9982 11.2487 39.9741 11.1101L39.4165 7.71262L41.779 5.307C41.9785 5.10375 42.049 4.80488 41.9628 4.52775Z" fill="#FCE757"/>
</g>
<g clip-path="url(#clip3)">
<path fill-rule="evenodd" clip-rule="evenodd" d="M56.9628 4.52775C56.8765 4.25025 56.6515 4.0515 56.3755 4.01025L53.1115 3.5145L51.6516 0.4245V0.42375C51.5279 0.162375 51.2781 0 50.9991 0C50.7201 0 50.4704 0.162375 50.3466 0.424125L48.8868 3.5145L45.6228 4.00987C45.3468 4.0515 45.1218 4.25025 45.0351 4.52775C44.9924 4.66214 44.987 4.80561 45.0194 4.94285C45.0518 5.08009 45.1209 5.20595 45.2193 5.307L47.5818 7.71262L47.0238 11.1105C46.9765 11.3977 47.0875 11.6824 47.3136 11.8541C47.4411 11.9505 47.5904 12.0004 47.7404 12.0004C47.8559 12.0004 47.9721 11.9707 48.0801 11.9115L50.9991 10.3076L53.9181 11.9115C54.0375 11.9781 54.1737 12.0081 54.31 11.9979C54.4463 11.9877 54.5766 11.9377 54.6846 11.8541C54.7961 11.7682 54.8819 11.6535 54.933 11.5224C54.984 11.3913 54.9982 11.2487 54.9741 11.1101L54.4165 7.71262L56.779 5.307C56.9785 5.10375 57.049 4.80488 56.9628 4.52775Z" fill="#FCE757"/>
</g>
<g clip-path="url(#clip4)">
<path fill-rule="evenodd" clip-rule="evenodd" d="M71.9628 4.52775C71.8765 4.25025 71.6515 4.0515 71.3755 4.01025L68.1115 3.5145L66.6516 0.4245V0.42375C66.5279 0.162375 66.2781 0 65.9991 0C65.7201 0 65.4704 0.162375 65.3466 0.424125L63.8868 3.5145L60.6228 4.00987C60.3468 4.0515 60.1218 4.25025 60.0351 4.52775C59.9924 4.66214 59.987 4.80561 60.0194 4.94285C60.0518 5.08009 60.1209 5.20595 60.2193 5.307L62.5818 7.71262L62.0238 11.1105C61.9765 11.3977 62.0875 11.6824 62.3136 11.8541C62.4411 11.9505 62.5904 12.0004 62.7404 12.0004C62.8559 12.0004 62.9721 11.9707 63.0801 11.9115L65.9991 10.3076L68.9181 11.9115C69.0375 11.9781 69.1737 12.0081 69.31 11.9979C69.4463 11.9877 69.5766 11.9377 69.6846 11.8541C69.7961 11.7682 69.8819 11.6535 69.933 11.5224C69.984 11.3913 69.9982 11.2487 69.9741 11.1101L69.4165 7.71262L71.779 5.307C71.9785 5.10375 72.049 4.80488 71.9628 4.52775Z" fill="#E4E8EE"/>
</g>
<defs>
<clipPath id="clip0">
<rect width="12" height="12" fill="white"/>
</clipPath>
<clipPath id="clip1">
<rect width="12" height="12" fill="white" transform="translate(15)"/>
</clipPath>
<clipPath id="clip2">
<rect width="12" height="12" fill="white" transform="translate(30)"/>
</clipPath>
<clipPath id="clip3">
<rect width="12" height="12" fill="white" transform="translate(45)"/>
</clipPath>
<clipPath id="clip4">
<rect width="12" height="12" fill="white" transform="translate(60)"/>
</clipPath>
</defs>
</svg>
